<svg version="1.1" viewBox="0.0 0.0 540.2152230971128 534.1653543307086" fill="none" stroke="none" stroke-linecap="square" stroke-miterlimit="10" xmlns:xlink="http://www.w3.org/1999/xlink" xmlns="http://www.w3.org/2000/svg"><clipPath id="p.0"><path d="m0 0l540.2152 0l0 534.16534l-540.2152 0l0 -534.16534z" clip-rule="nonzero"/></clipPath><g clip-path="url(#p.0)"><path fill="#000000" fill-opacity="0.0" d="m0 0l540.2152 0l0 534.16534l-540.2152 0z" fill-rule="evenodd"/><path fill="#8e7cc3" d="m218.57275 297.167l0 0c0 -11.046204 8.954712 -20.000916 20.0009 -20.000916l88.71068 0c5.3045654 0 10.391876 2.1072388 14.142761 5.858124c3.7509155 3.7509155 5.8581543 8.838226 5.8581543 14.142792l0 80.00119c0 11.046204 -8.954712 20.000916 -20.000916 20.000916l-88.71068 0c-11.046188 0 -20.0009 -8.954712 -20.0009 -20.000916z" fill-rule="evenodd"/><path fill="#674ea7" d="m226.24147 337.1766l14.460922 -23.455719l0 12.014526l30.785278 0l0 -29.546173l-12.014526 0l23.455719 -14.460907l23.45575 14.460907l-12.014526 0l0 29.546173l30.785278 0l0 -12.014526l14.460907 23.455719l-14.460907 23.45575l0 -12.014526l-30.785278 0l0 29.546173l12.014526 0l-23.45575 14.460907l-23.455719 -14.460907l12.014526 0l0 -29.546173l-30.785278 0l0 12.014526z" fill-rule="evenodd"/><path stroke="#351c75" stroke-width="1.0" stroke-linejoin="round" stroke-linecap="butt" d="m226.24147 337.1766l14.460922 -23.455719l0 12.014526l30.785278 0l0 -29.546173l-12.014526 0l23.455719 -14.460907l23.45575 14.460907l-12.014526 0l0 29.546173l30.785278 0l0 -12.014526l14.460907 23.455719l-14.460907 23.45575l0 -12.014526l-30.785278 0l0 29.546173l12.014526 0l-23.45575 14.460907l-23.455719 -14.460907l12.014526 0l0 -29.546173l-30.785278 0l0 12.014526z" fill-rule="evenodd"/><path fill="#ffffff" d="m262.90884 332.86224q0 0.078125 -0.03125 0.140625q-0.015625 0.046875 -0.109375 0.078125q-0.09375 0.03125 -0.265625 0.046875q-0.15625 0.015625 -0.421875 0.015625q-0.234375 0 -0.390625 -0.015625q-0.15625 -0.015625 -0.25 -0.046875q-0.078125 -0.046875 -0.140625 -0.109375q-0.046875 -0.078125 -0.078125 -0.1875l-1.078125 -2.78125q-0.203125 -0.484375 -0.40625 -0.875q-0.203125 -0.390625 -0.484375 -0.671875q-0.28125 -0.296875 -0.671875 -0.453125q-0.375 -0.15625 -0.90625 -0.15625l-1.046875 0l0 5.015625q0 0.078125 -0.046875 0.140625q-0.046875 0.046875 -0.140625 0.078125q-0.078125 0.03125 -0.234375 0.046875q-0.140625 0.015625 -0.37498474 0.015625q-0.21875 0 -0.375 -0.015625q-0.140625 -0.015625 -0.234375 -0.046875q-0.09375 -0.03125 -0.140625 -0.078125q-0.03125 -0.0625 -0.03125 -0.140625l0 -10.921875q0 -0.34375 0.1875 -0.484375q0.1875 -0.140625 0.40625 -0.140625l2.4999847 0q0.4375 0 0.734375 0.03125q0.296875 0.015625 0.546875 0.03125q0.671875 0.125 1.1875 0.375q0.53125 0.25 0.890625 0.65625q0.359375 0.390625 0.53125 0.890625q0.1875 0.5 0.1875 1.109375q0 0.59375 -0.171875 1.0625q-0.15625 0.46875 -0.453125 0.828125q-0.296875 0.359375 -0.71875 0.625q-0.421875 0.265625 -0.9375 0.453125q0.28125 0.125 0.515625 0.328125q0.25 0.1875 0.453125 0.46875q0.203125 0.265625 0.375 0.625q0.1875 0.359375 0.375 0.796875l1.0625 2.59375q0.125 0.328125 0.15625 0.46875q0.03125 0.125 0.03125 0.203125zm-2.359375 -8.28125q0 -0.6875 -0.3125 -1.171875q-0.296875 -0.484375 -1.03125 -0.6875q-0.21875 -0.0625 -0.515625 -0.09375q-0.28125 -0.03125 -0.75 -0.03125l-1.3125 0l0 3.984375l1.53125 0q0.609375 0 1.0625 -0.15625q0.453125 -0.15625 0.75 -0.421875q0.296875 -0.265625 0.4375 -0.625q0.140625 -0.375 0.140625 -0.796875zm12.082886 4.09375q0 1.0 -0.265625 1.84375q-0.265625 0.84375 -0.796875 1.453125q-0.515625 0.609375 -1.3125 0.953125q-0.78125 0.34375 -1.8125 0.34375q-1.015625 0 -1.765625 -0.296875q-0.75 -0.296875 -1.25 -0.875q-0.5 -0.578125 -0.75 -1.390625q-0.25 -0.828125 -0.25 -1.859375q0 -1.0 0.265625 -1.84375q0.265625 -0.84375 0.78125 -1.453125q0.53125 -0.609375 1.3125 -0.953125q0.78125 -0.34375 1.828125 -0.34375q1.015625 0 1.765625 0.3125q0.75 0.296875 1.25 0.875q0.5 0.5625 0.75 1.390625q0.25 0.8125 0.25 1.84375zm-1.578125 0.109375q0 -0.671875 -0.125 -1.265625q-0.125 -0.59375 -0.40625 -1.03125q-0.28125 -0.453125 -0.765625 -0.703125q-0.484375 -0.265625 -1.203125 -0.265625q-0.671875 0 -1.15625 0.234375q-0.46875 0.234375 -0.78125 0.671875q-0.296875 0.4375 -0.453125 1.03125q-0.15625 0.578125 -0.15625 1.28125q0 0.671875 0.125 1.265625q0.125 0.59375 0.40625 1.046875q0.296875 0.4375 0.78125 0.703125q0.484375 0.25 1.203125 0.25q0.65625 0 1.125 -0.234375q0.484375 -0.234375 0.796875 -0.65625q0.3125 -0.4375 0.453125 -1.03125q0.15625 -0.59375 0.15625 -1.296875zm10.822632 4.078125q0 0.078125 -0.03125 0.140625q-0.03125 0.046875 -0.125 0.078125q-0.078125 0.03125 -0.21875 0.046875q-0.125 0.015625 -0.3125 0.015625q-0.203125 0 -0.34375 -0.015625q-0.125 -0.015625 -0.203125 -0.046875q-0.078125 -0.03125 -0.109375 -0.078125q-0.03125 -0.0625 -0.03125 -0.140625l0 -1.078125q-0.703125 0.78125 -1.390625 1.140625q-0.671875 0.34375 -1.375 0.34375q-0.8125 0 -1.375 -0.265625q-0.5625 -0.28125 -0.90625 -0.75q-0.34375 -0.46875 -0.5 -1.09375q-0.15625 -0.625 -0.15625 -1.515625l0 -4.96875q0 -0.078125 0.03125 -0.125q0.03125 -0.046875 0.125 -0.09375q0.09375 -0.046875 0.234375 -0.046875q0.15625 -0.015625 0.375 -0.015625q0.21875 0 0.359375 0.015625q0.140625 0 0.21875 0.046875q0.09375 0.046875 0.125 0.09375q0.046875 0.046875 0.046875 0.125l0 4.765625q0 0.71875 0.09375 1.15625q0.109375 0.4375 0.328125 0.75q0.21875 0.296875 0.546875 0.46875q0.328125 0.15625 0.765625 0.15625q0.5625 0 1.125 -0.390625q0.5625 -0.40625 1.1875 -1.1875l0 -5.71875q0 -0.078125 0.03125 -0.125q0.03125 -0.046875 0.125 -0.09375q0.09375 -0.046875 0.234375 -0.046875q0.140625 -0.015625 0.359375 -0.015625q0.21875 0 0.359375 0.015625q0.15625 0 0.234375 0.046875q0.078125 0.046875 0.125 0.09375q0.046875 0.046875 0.046875 0.125l0 8.1875zm7.036194 -0.59375q0 0.265625 -0.046875 0.421875q-0.03125 0.15625 -0.109375 0.234375q-0.0625 0.0625 -0.21875 0.125q-0.140625 0.0625 -0.328125 0.09375q-0.1875 0.046875 -0.390625 0.078125q-0.203125 0.03125 -0.421875 0.03125q-0.640625 0 -1.09375 -0.171875q-0.453125 -0.171875 -0.75 -0.5q-0.28125 -0.34375 -0.421875 -0.859375q-0.125 -0.53125 -0.125 -1.25l0 -4.796875l-1.15625 0q-0.125 0 -0.21875 -0.140625q-0.078125 -0.140625 -0.078125 -0.46875q0 -0.171875 0.015625 -0.28125q0.03125 -0.125 0.0625 -0.203125q0.046875 -0.078125 0.09375 -0.109375q0.0625 -0.03125 0.140625 -0.03125l1.140625 0l0 -1.953125q0 -0.0625 0.03125 -0.109375q0.03125 -0.0625 0.109375 -0.109375q0.09375 -0.046875 0.234375 -0.0625q0.15625 -0.015625 0.375 -0.015625q0.21875 0 0.359375 0.015625q0.15625 0.015625 0.234375 0.0625q0.078125 0.046875 0.109375 0.109375q0.046875 0.046875 0.046875 0.109375l0 1.953125l2.109375 0q0.0625 0 0.109375 0.03125q0.0625 0.03125 0.109375 0.109375q0.046875 0.078125 0.0625 0.203125q0.015625 0.109375 0.015625 0.28125q0 0.328125 -0.078125 0.46875q-0.078125 0.140625 -0.21875 0.140625l-2.109375 0l0 4.578125q0 0.84375 0.25 1.28125q0.25 0.4375 0.90625 0.4375q0.203125 0 0.359375 -0.046875q0.171875 -0.046875 0.296875 -0.078125q0.125 -0.046875 0.21875 -0.09375q0.09375 -0.046875 0.171875 -0.046875q0.046875 0 0.078125 0.03125q0.046875 0.015625 0.0625 0.078125q0.03125 0.0625 0.046875 0.171875q0.015625 0.109375 0.015625 0.28125zm3.48349 0.59375q0 0.078125 -0.03125 0.140625q-0.03125 0.046875 -0.125 0.078125q-0.078125 0.03125 -0.21875 0.046875q-0.140625 0.015625 -0.375 0.015625q-0.21875 0 -0.375 -0.015625q-0.140625 -0.015625 -0.234375 -0.046875q-0.078125 -0.03125 -0.109375 -0.078125q-0.03125 -0.0625 -0.03125 -0.140625l0 -8.1875q0 -0.0625 0.03125 -0.109375q0.03125 -0.0625 0.109375 -0.09375q0.09375 -0.046875 0.234375 -0.0625q0.15625 -0.015625 0.375 -0.015625q0.234375 0 0.375 0.015625q0.140625 0.015625 0.21875 0.0625q0.09375 0.03125 0.125 0.09375q0.03125 0.046875 0.03125 0.109375l0 8.1875zm0.171875 -10.96875q0 0.53125 -0.203125 0.734375q-0.1875 0.1875 -0.734375 0.1875q-0.515625 0 -0.71875 -0.1875q-0.1875 -0.1875 -0.1875 -0.703125q0 -0.53125 0.1875 -0.71875q0.203125 -0.203125 0.75 -0.203125q0.515625 0 0.703125 0.1875q0.203125 0.1875 0.203125 0.703125zm9.672089 10.96875q0 0.078125 -0.046875 0.140625q-0.03125 0.046875 -0.109375 0.078125q-0.078125 0.03125 -0.234375 0.046875q-0.140625 0.015625 -0.359375 0.015625q-0.21875 0 -0.375 -0.015625q-0.140625 -0.015625 -0.234375 -0.046875q-0.078125 -0.03125 -0.109375 -0.078125q-0.03125 -0.0625 -0.03125 -0.140625l0 -4.796875q0 -0.703125 -0.109375 -1.125q-0.109375 -0.4375 -0.328125 -0.734375q-0.203125 -0.3125 -0.546875 -0.46875q-0.328125 -0.171875 -0.765625 -0.171875q-0.5625 0 -1.125 0.40625q-0.5625 0.390625 -1.1875 1.171875l0 5.71875q0 0.078125 -0.03125 0.140625q-0.03125 0.046875 -0.125 0.078125q-0.078125 0.03125 -0.21875 0.046875q-0.140625 0.015625 -0.375 0.015625q-0.21875 0 -0.375 -0.015625q-0.140625 -0.015625 -0.234375 -0.046875q-0.078125 -0.03125 -0.109375 -0.078125q-0.03125 -0.0625 -0.03125 -0.140625l0 -8.1875q0 -0.078125 0.03125 -0.125q0.03125 -0.046875 0.109375 -0.09375q0.078125 -0.046875 0.203125 -0.046875q0.140625 -0.015625 0.34375 -0.015625q0.203125 0 0.328125 0.015625q0.140625 0 0.203125 0.046875q0.078125 0.046875 0.109375 0.09375q0.03125 0.046875 0.03125 0.125l0 1.078125q0.6875 -0.765625 1.375 -1.125q0.6875 -0.375 1.390625 -0.375q0.828125 0 1.375 0.28125q0.5625 0.28125 0.90625 0.75q0.359375 0.46875 0.5 1.09375q0.15625 0.609375 0.15625 1.484375l0 5.0zm9.598694 -7.8125q0 0.3125 -0.09375 0.453125q-0.078125 0.140625 -0.21875 0.140625l-1.171875 0q0.3125 0.328125 0.4375 0.734375q0.125 0.390625 0.125 0.8125q0 0.71875 -0.234375 1.265625q-0.21875 0.546875 -0.640625 0.921875q-0.421875 0.375 -1.015625 0.578125q-0.578125 0.203125 -1.28125 0.203125q-0.5 0 -0.953125 -0.125q-0.453125 -0.140625 -0.703125 -0.34375q-0.15625 0.15625 -0.265625 0.375q-0.109375 0.203125 -0.109375 0.484375q0 0.3125 0.296875 0.53125q0.296875 0.203125 0.796875 0.21875l2.140625 0.09375q0.609375 0.015625 1.109375 0.171875q0.515625 0.140625 0.890625 0.421875q0.375 0.28125 0.578125 0.6875q0.21875 0.40625 0.21875 0.9375q0 0.5625 -0.25 1.078125q-0.234375 0.515625 -0.71875 0.890625q-0.484375 0.390625 -1.25 0.609375q-0.75 0.234375 -1.78125 0.234375q-0.984375 0 -1.6875 -0.171875q-0.6875 -0.171875 -1.140625 -0.46875q-0.4375 -0.28125 -0.640625 -0.6875q-0.203125 -0.40625 -0.203125 -0.875q0 -0.3125 0.0625 -0.59375q0.078125 -0.28125 0.21875 -0.53125q0.15625 -0.25 0.375 -0.484375q0.234375 -0.234375 0.53125 -0.46875q-0.453125 -0.21875 -0.671875 -0.5625q-0.203125 -0.359375 -0.203125 -0.75q0 -0.5625 0.21875 -1.0q0.234375 -0.4375 0.5625 -0.78125q-0.28125 -0.328125 -0.453125 -0.75q-0.15625 -0.4375 -0.15625 -1.03125q0 -0.703125 0.234375 -1.25q0.25 -0.5625 0.65625 -0.9375q0.421875 -0.390625 1.015625 -0.59375q0.59375 -0.203125 1.28125 -0.203125q0.375 0 0.6875 0.046875q0.328125 0.03125 0.609375 0.109375l2.484375 0q0.15625 0 0.234375 0.15625q0.078125 0.140625 0.078125 0.453125zm-2.359375 2.15625q0 -0.84375 -0.46875 -1.3125q-0.453125 -0.46875 -1.296875 -0.46875q-0.4375 0 -0.765625 0.15625q-0.3125 0.140625 -0.53125 0.390625q-0.21875 0.25 -0.328125 0.59375q-0.09375 0.328125 -0.09375 0.6875q0 0.8125 0.453125 1.28125q0.46875 0.46875 1.296875 0.46875q0.4375 0 0.765625 -0.140625q0.328125 -0.140625 0.546875 -0.390625q0.21875 -0.25 0.3125 -0.578125q0.109375 -0.328125 0.109375 -0.6875zm0.765625 6.484375q0 -0.515625 -0.4375 -0.796875q-0.4375 -0.296875 -1.171875 -0.3125l-2.125 -0.078125q-0.296875 0.234375 -0.484375 0.4375q-0.171875 0.203125 -0.28125 0.390625q-0.109375 0.1875 -0.15625 0.359375q-0.046875 0.1875 -0.046875 0.375q0 0.59375 0.59375 0.890625q0.609375 0.3125 1.6875 0.3125q0.6875 0 1.140625 -0.140625q0.46875 -0.125 0.75 -0.34375q0.28125 -0.21875 0.40625 -0.5q0.125 -0.28125 0.125 -0.59375z" fill-rule="nonzero"/><path fill="#ffffff" d="m263.70053 351.78412q0 0.828125 -0.3125 1.484375q-0.296875 0.640625 -0.84375 1.09375q-0.53125 0.453125 -1.265625 0.6875q-0.734375 0.21875 -1.578125 0.21875q-0.59375 0 -1.109375 -0.109375q-0.5 -0.09375 -0.890625 -0.234375q-0.390625 -0.140625 -0.671875 -0.296875q-0.265625 -0.15625 -0.375 -0.265625q-0.09375 -0.109375 -0.15625 -0.28125q-0.046875 -0.171875 -0.046875 -0.453125q0 -0.203125 0.015625 -0.328125q0.03125 -0.140625 0.0625 -0.21875q0.03125 -0.078125 0.078125 -0.109375q0.0625 -0.03125 0.140625 -0.03125q0.125 0 0.359375 0.15625q0.234375 0.15625 0.59375 0.34375q0.375 0.171875 0.875 0.328125q0.515625 0.15625 1.203125 0.15625q0.5 0 0.921875 -0.125q0.421875 -0.140625 0.734375 -0.390625q0.3125 -0.25 0.46875 -0.609375q0.171875 -0.375 0.171875 -0.84375q0 -0.5 -0.234375 -0.84375q-0.234375 -0.359375 -0.609375 -0.625q-0.359375 -0.265625 -0.84375 -0.484375q-0.484375 -0.234375 -0.984375 -0.46875q-0.5 -0.234375 -0.96875 -0.515625q-0.46875 -0.28125 -0.84375 -0.65625q-0.375 -0.390625 -0.609375 -0.90625q-0.234375 -0.515625 -0.234375 -1.234375q0 -0.734375 0.265625 -1.3125q0.265625 -0.578125 0.75 -0.96875q0.484375 -0.390625 1.140625 -0.59375q0.65625 -0.203125 1.421875 -0.203125q0.390625 0 0.78125 0.0625q0.40625 0.0625 0.75 0.1875q0.359375 0.109375 0.625 0.25q0.28125 0.140625 0.359375 0.234375q0.09375 0.078125 0.109375 0.125q0.03125 0.046875 0.046875 0.125q0.03125 0.078125 0.03125 0.1875q0.015625 0.109375 0.015625 0.28125q0 0.171875 -0.015625 0.296875q-0.015625 0.125 -0.046875 0.21875q-0.015625 0.078125 -0.078125 0.125q-0.046875 0.046875 -0.109375 0.046875q-0.09375 0 -0.3125 -0.125q-0.21875 -0.140625 -0.53125 -0.296875q-0.296875 -0.15625 -0.734375 -0.28125q-0.421875 -0.140625 -0.9375 -0.140625q-0.5 0 -0.859375 0.140625q-0.359375 0.125 -0.609375 0.34375q-0.234375 0.21875 -0.359375 0.515625q-0.109375 0.296875 -0.109375 0.640625q0 0.484375 0.21875 0.84375q0.234375 0.359375 0.609375 0.640625q0.390625 0.265625 0.859375 0.5q0.484375 0.21875 0.984375 0.453125q0.515625 0.234375 0.984375 0.515625q0.484375 0.265625 0.859375 0.65625q0.390625 0.375 0.609375 0.890625q0.234375 0.5 0.234375 1.203125zm9.0720215 -1.375q0 0.359375 -0.1875 0.515625q-0.171875 0.140625 -0.390625 0.140625l-5.375 0q0 0.6875 0.125 1.234375q0.140625 0.546875 0.453125 0.9375q0.328125 0.390625 0.828125 0.609375q0.515625 0.203125 1.25 0.203125q0.59375 0 1.046875 -0.09375q0.453125 -0.09375 0.78125 -0.203125q0.34375 -0.125 0.546875 -0.21875q0.21875 -0.109375 0.328125 -0.109375q0.0625 0 0.109375 0.03125q0.0625 0.03125 0.078125 0.109375q0.03125 0.0625 0.046875 0.171875q0.015625 0.109375 0.015625 0.28125q0 0.109375 -0.015625 0.203125q0 0.078125 -0.015625 0.15625q-0.015625 0.0625 -0.046875 0.125q-0.03125 0.046875 -0.09375 0.09375q-0.046875 0.046875 -0.296875 0.171875q-0.234375 0.109375 -0.625 0.21875q-0.390625 0.109375 -0.90625 0.1875q-0.515625 0.09375 -1.09375 0.09375q-1.015625 0 -1.78125 -0.28125q-0.765625 -0.28125 -1.28125 -0.828125q-0.515625 -0.5625 -0.78125 -1.390625q-0.265625 -0.84375 -0.265625 -1.96875q0 -1.046875 0.265625 -1.890625q0.28125 -0.84375 0.796875 -1.421875q0.515625 -0.59375 1.234375 -0.90625q0.734375 -0.328125 1.640625 -0.328125q0.96875 0 1.640625 0.3125q0.6875 0.3125 1.125 0.84375q0.4375 0.515625 0.640625 1.234375q0.203125 0.703125 0.203125 1.5l0 0.265625zm-1.515625 -0.4375q0.03125 -1.1875 -0.53125 -1.859375q-0.546875 -0.671875 -1.625 -0.671875q-0.5625 0 -0.984375 0.21875q-0.40625 0.203125 -0.6875 0.546875q-0.28125 0.34375 -0.4375 0.8125q-0.15625 0.453125 -0.171875 0.953125l4.4375 0zm8.595093 -2.765625q0 0.203125 -0.015625 0.34375q0 0.125 -0.03125 0.203125q-0.03125 0.078125 -0.078125 0.125q-0.03125 0.046875 -0.109375 0.046875q-0.0625 0 -0.171875 -0.046875q-0.109375 -0.046875 -0.25 -0.078125q-0.125 -0.046875 -0.296875 -0.078125q-0.15625 -0.046875 -0.34375 -0.046875q-0.21875 0 -0.4375 0.09375q-0.21875 0.09375 -0.46875 0.3125q-0.234375 0.203125 -0.5 0.546875q-0.265625 0.34375 -0.59375 0.84375l0 5.390625q0 0.078125 -0.03125 0.140625q-0.03125 0.046875 -0.125 0.078125q-0.078125 0.03125 -0.21875 0.046875q-0.140625 0.015625 -0.375 0.015625q-0.21875 0 -0.375 -0.015625q-0.140625 -0.015625 -0.234375 -0.046875q-0.078125 -0.03125 -0.109375 -0.078125q-0.03125 -0.0625 -0.03125 -0.140625l0 -8.1875q0 -0.078125 0.03125 -0.125q0.03125 -0.046875 0.109375 -0.09375q0.078125 -0.046875 0.203125 -0.046875q0.140625 -0.015625 0.34375 -0.015625q0.203125 0 0.328125 0.015625q0.140625 0 0.203125 0.046875q0.078125 0.046875 0.109375 0.09375q0.03125 0.046875 0.03125 0.125l0 1.1875q0.34375 -0.484375 0.640625 -0.796875q0.296875 -0.3125 0.546875 -0.484375q0.265625 -0.1875 0.53125 -0.25q0.265625 -0.078125 0.515625 -0.078125q0.125 0 0.265625 0.015625q0.15625 0.015625 0.3125 0.0625q0.171875 0.03125 0.296875 0.078125q0.140625 0.046875 0.1875 0.09375q0.0625 0.046875 0.078125 0.09375q0.03125 0.03125 0.03125 0.09375q0.015625 0.0625 0.015625 0.1875q0.015625 0.125 0.015625 0.328125zm8.426056 -0.546875q0 0.03125 0 0.078125q0 0.03125 -0.015625 0.078125q0 0.046875 -0.015625 0.109375q-0.015625 0.046875 -0.03125 0.109375l-2.796875 7.796875q-0.046875 0.09375 -0.109375 0.15625q-0.046875 0.0625 -0.171875 0.109375q-0.109375 0.03125 -0.296875 0.03125q-0.1875 0.015625 -0.453125 0.015625q-0.28125 0 -0.46875 -0.015625q-0.171875 -0.015625 -0.28125 -0.046875q-0.109375 -0.03125 -0.1875 -0.09375q-0.0625 -0.078125 -0.09375 -0.15625l-2.78125 -7.796875q-0.046875 -0.109375 -0.078125 -0.1875q-0.015625 -0.078125 -0.015625 -0.125q0 -0.046875 0 -0.0625q0 -0.078125 0.03125 -0.125q0.03125 -0.0625 0.125 -0.09375q0.09375 -0.03125 0.234375 -0.03125q0.140625 -0.015625 0.34375 -0.015625q0.265625 0 0.421875 0.015625q0.15625 0 0.234375 0.046875q0.09375 0.03125 0.140625 0.09375q0.046875 0.046875 0.078125 0.125l2.3125 6.765625l0.03125 0.109375l0.03125 -0.109375l2.296875 -6.765625q0.015625 -0.078125 0.0625 -0.125q0.046875 -0.0625 0.125 -0.09375q0.09375 -0.046875 0.234375 -0.046875q0.15625 -0.015625 0.40625 -0.015625q0.203125 0 0.328125 0.015625q0.140625 0 0.21875 0.03125q0.078125 0.03125 0.109375 0.09375q0.03125 0.046875 0.03125 0.125zm3.2075195 8.203125q0 0.078125 -0.03125 0.140625q-0.03125 0.046875 -0.125 0.078125q-0.078125 0.03125 -0.21875 0.046875q-0.140625 0.015625 -0.375 0.015625q-0.21875 0 -0.375 -0.015625q-0.140625 -0.015625 -0.234375 -0.046875q-0.078125 -0.03125 -0.109375 -0.078125q-0.03125 -0.0625 -0.03125 -0.140625l0 -8.1875q0 -0.0625 0.03125 -0.109375q0.03125 -0.0625 0.109375 -0.09375q0.09375 -0.046875 0.234375 -0.0625q0.15625 -0.015625 0.375 -0.015625q0.234375 0 0.375 0.015625q0.140625 0.015625 0.21875 0.0625q0.09375 0.03125 0.125 0.09375q0.03125 0.046875 0.03125 0.109375l0 8.1875zm0.171875 -10.96875q0 0.53125 -0.203125 0.734375q-0.1875 0.1875 -0.734375 0.1875q-0.515625 0 -0.71875 -0.1875q-0.1875 -0.1875 -0.1875 -0.703125q0 -0.53125 0.1875 -0.71875q0.203125 -0.203125 0.75 -0.203125q0.515625 0 0.703125 0.1875q0.203125 0.1875 0.203125 0.703125zm8.500214 9.734375q0 0.140625 -0.015625 0.265625q0 0.109375 -0.03125 0.1875q-0.015625 0.078125 -0.046875 0.140625q-0.03125 0.0625 -0.140625 0.171875q-0.109375 0.109375 -0.390625 0.28125q-0.265625 0.171875 -0.609375 0.3125q-0.34375 0.125 -0.75 0.203125q-0.390625 0.078125 -0.828125 0.078125q-0.875 0 -1.5625 -0.28125q-0.6875 -0.296875 -1.15625 -0.859375q-0.453125 -0.5625 -0.703125 -1.375q-0.234375 -0.8125 -0.234375 -1.890625q0 -1.203125 0.296875 -2.0625q0.296875 -0.875 0.8125 -1.4375q0.515625 -0.5625 1.203125 -0.828125q0.703125 -0.265625 1.515625 -0.265625q0.390625 0 0.765625 0.078125q0.375 0.0625 0.671875 0.1875q0.3125 0.125 0.546875 0.28125q0.25 0.140625 0.359375 0.25q0.109375 0.109375 0.140625 0.1875q0.046875 0.0625 0.078125 0.15625q0.03125 0.078125 0.03125 0.1875q0.015625 0.109375 0.015625 0.265625q0 0.359375 -0.078125 0.5q-0.078125 0.140625 -0.203125 0.140625q-0.140625 0 -0.3125 -0.140625q-0.171875 -0.15625 -0.453125 -0.34375q-0.265625 -0.1875 -0.65625 -0.328125q-0.390625 -0.15625 -0.921875 -0.15625q-1.078125 0 -1.65625 0.84375q-0.578125 0.828125 -0.578125 2.40625q0 0.796875 0.140625 1.390625q0.15625 0.59375 0.4375 1.0q0.296875 0.40625 0.71875 0.609375q0.4375 0.1875 0.984375 0.1875q0.515625 0 0.90625 -0.15625q0.390625 -0.171875 0.671875 -0.359375q0.296875 -0.203125 0.484375 -0.359375q0.203125 -0.171875 0.3125 -0.171875q0.0625 0 0.109375 0.046875q0.046875 0.03125 0.078125 0.125q0.03125 0.078125 0.03125 0.21875q0.015625 0.125 0.015625 0.3125zm8.998199 -3.21875q0 0.359375 -0.1875 0.515625q-0.171875 0.140625 -0.390625 0.140625l-5.375 0q0 0.6875 0.125 1.234375q0.140625 0.546875 0.453125 0.9375q0.328125 0.390625 0.828125 0.609375q0.515625 0.203125 1.25 0.203125q0.59375 0 1.046875 -0.09375q0.453125 -0.09375 0.78125 -0.203125q0.34375 -0.125 0.546875 -0.21875q0.21875 -0.109375 0.328125 -0.109375q0.0625 0 0.109375 0.03125q0.0625 0.03125 0.078125 0.109375q0.03125 0.0625 0.046875 0.171875q0.015625 0.109375 0.015625 0.28125q0 0.109375 -0.015625 0.203125q0 0.078125 -0.015625 0.15625q-0.015625 0.0625 -0.046875 0.125q-0.03125 0.046875 -0.09375 0.09375q-0.046875 0.046875 -0.296875 0.171875q-0.234375 0.109375 -0.625 0.21875q-0.390625 0.109375 -0.90625 0.1875q-0.515625 0.09375 -1.09375 0.09375q-1.015625 0 -1.78125 -0.28125q-0.765625 -0.28125 -1.28125 -0.828125q-0.515625 -0.5625 -0.78125 -1.390625q-0.265625 -0.84375 -0.265625 -1.96875q0 -1.046875 0.265625 -1.890625q0.28125 -0.84375 0.796875 -1.421875q0.515625 -0.59375 1.234375 -0.90625q0.734375 -0.328125 1.640625 -0.328125q0.96875 0 1.640625 0.3125q0.6875 0.3125 1.125 0.84375q0.4375 0.515625 0.640625 1.234375q0.203125 0.703125 0.203125 1.5l0 0.265625zm-1.515625 -0.4375q0.03125 -1.1875 -0.53125 -1.859375q-0.546875 -0.671875 -1.625 -0.671875q-0.5625 0 -0.984375 0.21875q-0.40625 0.203125 -0.6875 0.546875q-0.28125 0.34375 -0.4375 0.8125q-0.15625 0.453125 -0.171875 0.953125l4.4375 0z" fill-rule="nonzero"/><path fill="#999999" d="m92.74016 464.93982l0 0c0 -5.076477 4.115303 -9.191803 9.191788 -9.191803l81.74242 0c2.4378052 0 4.775772 0.9684448 6.4995728 2.6922302c1.7237854 1.7237854 2.6921997 4.0617676 2.6921997 6.4995728l0 36.76602c0 5.0765076 -4.1152954 9.191803 -9.191772 9.191803l-81.74242 0c-5.0764847 0 -9.191788 -4.1152954 -9.191788 -9.191803z" fill-rule="evenodd"/><path fill="#f3f3f3" d="m131.97377 487.27408q0 0.703125 -0.125 1.28125q-0.125 0.578125 -0.4375 1.0q-0.3125 0.40625 -0.828125 0.625q-0.5 0.21875 -1.234375 0.21875q-0.265625 0 -0.515625 -0.046875q-0.25 -0.03125 -0.46875 -0.09375q-0.203125 -0.0625 -0.359375 -0.140625q-0.140625 -0.078125 -0.203125 -0.125q-0.046875 -0.0625 -0.078125 -0.109375q-0.03125 -0.0625 -0.0625 -0.140625q-0.015625 -0.078125 -0.03125 -0.1875q0 -0.125 0 -0.28125q0 -0.203125 0.015625 -0.328125q0.015625 -0.140625 0.046875 -0.21875q0.03125 -0.078125 0.078125 -0.109375q0.0625 -0.03125 0.140625 -0.03125q0.0625 0 0.171875 0.078125q0.125 0.0625 0.28125 0.140625q0.15625 0.078125 0.359375 0.15625q0.21875 0.0625 0.5 0.0625q0.3125 0 0.53125 -0.078125q0.21875 -0.078125 0.359375 -0.28125q0.15625 -0.21875 0.21875 -0.578125q0.078125 -0.375 0.078125 -0.96875l0 -8.4375q0 -0.0625 0.03125 -0.109375q0.046875 -0.0625 0.125 -0.09375q0.09375 -0.046875 0.234375 -0.0625q0.15625 -0.015625 0.390625 -0.015625q0.21875 0 0.375 0.015625q0.15625 0.015625 0.234375 0.0625q0.09375 0.03125 0.125 0.09375q0.046875 0.046875 0.046875 0.109375l0 8.59375zm15.932877 2.734375q0 0.078125 -0.046875 0.140625q-0.03125 0.046875 -0.125 0.078125q-0.09375 0.03125 -0.234375 0.046875q-0.140625 0.015625 -0.359375 0.015625q-0.21875 0 -0.375 -0.015625q-0.140625 -0.015625 -0.234375 -0.046875q-0.078125 -0.03125 -0.125 -0.078125q-0.03125 -0.0625 -0.03125 -0.140625l0 -10.265625l-0.015625 0l-4.203125 10.3125q-0.015625 0.0625 -0.078125 0.109375q-0.046875 0.046875 -0.140625 0.078125q-0.09375 0.03125 -0.234375 0.03125q-0.125 0.015625 -0.3125 0.015625q-0.1875 0 -0.328125 -0.015625q-0.125 -0.015625 -0.21875 -0.046875q-0.09375 -0.03125 -0.15625 -0.078125q-0.046875 -0.046875 -0.0625 -0.09375l-4.015625 -10.3125l0 0l0 10.265625q0 0.078125 -0.046875 0.140625q-0.03125 0.046875 -0.125 0.078125q-0.09375 0.03125 -0.234375 0.046875q-0.140625 0.015625 -0.375 0.015625q-0.21875 0 -0.375 -0.015625q-0.140625 -0.015625 -0.234375 -0.046875q-0.078125 -0.03125 -0.109375 -0.078125q-0.03125 -0.0625 -0.03125 -0.140625l0 -10.84375q0 -0.375 0.203125 -0.53125q0.203125 -0.171875 0.453125 -0.171875l0.9375 0q0.296875 0 0.515625 0.0625q0.21875 0.046875 0.375 0.171875q0.171875 0.109375 0.28125 0.296875q0.109375 0.171875 0.1875 0.421875l3.421875 8.53125l0.046875 0l3.546875 -8.5q0.109375 -0.28125 0.21875 -0.46875q0.125 -0.1875 0.265625 -0.296875q0.140625 -0.125 0.3125 -0.171875q0.171875 -0.046875 0.390625 -0.046875l1.0 0q0.140625 0 0.25 0.046875q0.125 0.03125 0.21875 0.125q0.09375 0.078125 0.140625 0.21875q0.0625 0.125 0.0625 0.3125l0 10.84375zm9.450729 -3.078125q0 0.828125 -0.3125 1.484375q-0.296875 0.640625 -0.84375 1.09375q-0.53125 0.453125 -1.265625 0.6875q-0.734375 0.21875 -1.578125 0.21875q-0.59375 0 -1.109375 -0.109375q-0.5 -0.09375 -0.890625 -0.234375q-0.390625 -0.140625 -0.671875 -0.296875q-0.265625 -0.15625 -0.375 -0.265625q-0.09375 -0.109375 -0.15625 -0.28125q-0.046875 -0.171875 -0.046875 -0.453125q0 -0.203125 0.015625 -0.328125q0.03125 -0.140625 0.0625 -0.21875q0.03125 -0.078125 0.078125 -0.109375q0.0625 -0.03125 0.140625 -0.03125q0.125 0 0.359375 0.15625q0.234375 0.15625 0.59375 0.34375q0.375 0.171875 0.875 0.328125q0.515625 0.15625 1.203125 0.15625q0.5 0 0.921875 -0.125q0.421875 -0.140625 0.734375 -0.390625q0.3125 -0.25 0.46875 -0.609375q0.171875 -0.375 0.171875 -0.84375q0 -0.5 -0.234375 -0.84375q-0.234375 -0.359375 -0.609375 -0.625q-0.359375 -0.265625 -0.84375 -0.484375q-0.484375 -0.234375 -0.984375 -0.46875q-0.5 -0.234375 -0.96875 -0.515625q-0.46875 -0.28125 -0.84375 -0.65625q-0.375 -0.390625 -0.609375 -0.90625q-0.234375 -0.515625 -0.234375 -1.234375q0 -0.734375 0.265625 -1.3125q0.265625 -0.578125 0.75 -0.96875q0.484375 -0.390625 1.140625 -0.59375q0.65625 -0.203125 1.421875 -0.203125q0.390625 0 0.78125 0.0625q0.40625 0.0625 0.75 0.1875q0.359375 0.109375 0.625 0.25q0.28125 0.140625 0.359375 0.234375q0.09375 0.078125 0.109375 0.125q0.03125 0.046875 0.046875 0.125q0.03125 0.078125 0.03125 0.1875q0.015625 0.109375 0.015625 0.28125q0 0.171875 -0.015625 0.296875q-0.015625 0.125 -0.046875 0.21875q-0.015625 0.078125 -0.078125 0.125q-0.046875 0.046875 -0.109375 0.046875q-0.09375 0 -0.3125 -0.125q-0.21875 -0.140625 -0.53125 -0.296875q-0.296875 -0.15625 -0.734375 -0.28125q-0.421875 -0.140625 -0.9375 -0.140625q-0.5 0 -0.859375 0.140625q-0.359375 0.125 -0.609375 0.34375q-0.234375 0.21875 -0.359375 0.515625q-0.109375 0.296875 -0.109375 0.640625q0 0.484375 0.21875 0.84375q0.234375 0.359375 0.609375 0.640625q0.390625 0.265625 0.859375 0.5q0.484375 0.21875 0.984375 0.453125q0.515625 0.234375 0.984375 0.515625q0.484375 0.265625 0.859375 0.65625q0.390625 0.375 0.609375 0.890625q0.234375 0.5 0.234375 1.203125z" fill-rule="nonzero"/><path fill="#ec8b22" d="m33.74803 177.9685l34.362206 -34.362213l0 17.181107l429.6378 0l0 -17.181107l34.362213 34.362213l-34.362213 34.362198l0 -17.181091l-429.6378 0l0 17.181091z" fill-rule="evenodd"/><path fill="#ffffff" d="m227.33394 183.21663q0 0.15625 -0.015625 0.265625q0 0.109375 -0.03125 0.1875q-0.015625 0.078125 -0.0625 0.140625q-0.03125 0.0625 -0.125 0.15625q-0.078125 0.09375 -0.375 0.28125q-0.296875 0.1875 -0.734375 0.375q-0.421875 0.171875 -0.984375 0.28125q-0.5625 0.125 -1.21875 0.125q-1.15625 0 -2.078125 -0.375q-0.921875 -0.390625 -1.578125 -1.125q-0.65625 -0.75 -1.0 -1.84375q-0.34375 -1.109375 -0.34375 -2.53125q0 -1.46875 0.375 -2.609375q0.375 -1.15625 1.046875 -1.953125q0.6875 -0.796875 1.640625 -1.21875q0.953125 -0.421875 2.109375 -0.421875q0.515625 0 1.0 0.109375q0.484375 0.09375 0.890625 0.234375q0.40625 0.140625 0.71875 0.34375q0.328125 0.1875 0.453125 0.3125q0.125 0.109375 0.15625 0.1875q0.03125 0.0625 0.046875 0.15625q0.03125 0.078125 0.046875 0.203125q0.015625 0.109375 0.015625 0.265625q0 0.1875 -0.015625 0.3125q-0.015625 0.125 -0.0625 0.21875q-0.03125 0.078125 -0.078125 0.125q-0.046875 0.046875 -0.125 0.046875q-0.125 0 -0.359375 -0.171875q-0.21875 -0.1875 -0.578125 -0.40625q-0.359375 -0.21875 -0.875 -0.390625q-0.515625 -0.171875 -1.234375 -0.171875q-0.78125 0 -1.4375 0.3125q-0.640625 0.3125 -1.09375 0.921875q-0.453125 0.609375 -0.703125 1.5q-0.25 0.875 -0.25 2.0q0 1.125 0.234375 1.984375q0.25 0.859375 0.703125 1.4375q0.453125 0.578125 1.109375 0.875q0.65625 0.296875 1.484375 0.296875q0.703125 0 1.21875 -0.171875q0.53125 -0.171875 0.890625 -0.390625q0.375 -0.21875 0.609375 -0.390625q0.234375 -0.171875 0.375 -0.171875q0.0625 0 0.109375 0.03125q0.046875 0.015625 0.0625 0.09375q0.03125 0.078125 0.046875 0.21875q0.015625 0.140625 0.015625 0.34375zm9.525696 -2.75q0 1.0 -0.265625 1.84375q-0.265625 0.84375 -0.796875 1.453125q-0.515625 0.609375 -1.3125 0.953125q-0.78125 0.34375 -1.8125 0.34375q-1.015625 0 -1.765625 -0.296875q-0.75 -0.296875 -1.25 -0.875q-0.5 -0.578125 -0.75 -1.390625q-0.25 -0.828125 -0.25 -1.859375q0 -1.0 0.265625 -1.84375q0.265625 -0.84375 0.78125 -1.453125q0.53125 -0.609375 1.3125 -0.953125q0.78125 -0.34375 1.828125 -0.34375q1.015625 0 1.765625 0.3125q0.75 0.296875 1.25 0.875q0.5 0.5625 0.75 1.390625q0.25 0.8125 0.25 1.84375zm-1.578125 0.109375q0 -0.671875 -0.125 -1.265625q-0.125 -0.59375 -0.40625 -1.03125q-0.28125 -0.453125 -0.765625 -0.703125q-0.484375 -0.265625 -1.203125 -0.265625q-0.671875 0 -1.15625 0.234375q-0.46875 0.234375 -0.78125 0.671875q-0.296875 0.4375 -0.453125 1.03125q-0.15625 0.578125 -0.15625 1.28125q0 0.671875 0.125 1.265625q0.125 0.59375 0.40625 1.046875q0.296875 0.4375 0.78125 0.703125q0.484375 0.25 1.203125 0.25q0.65625 0 1.125 -0.234375q0.484375 -0.234375 0.796875 -0.65625q0.3125 -0.4375 0.453125 -1.03125q0.15625 -0.59375 0.15625 -1.296875zm10.853882 4.078125q0 0.078125 -0.046875 0.140625q-0.03125 0.046875 -0.109375 0.078125q-0.078125 0.03125 -0.234375 0.046875q-0.140625 0.015625 -0.359375 0.015625q-0.21875 0 -0.375 -0.015625q-0.140625 -0.015625 -0.234375 -0.046875q-0.078125 -0.03125 -0.109375 -0.078125q-0.03125 -0.0625 -0.03125 -0.140625l0 -4.796875q0 -0.703125 -0.109375 -1.125q-0.109375 -0.4375 -0.328125 -0.734375q-0.203125 -0.3125 -0.546875 -0.46875q-0.328125 -0.171875 -0.765625 -0.171875q-0.5625 0 -1.125 0.40625q-0.5625 0.390625 -1.1875 1.171875l0 5.71875q0 0.078125 -0.03125 0.140625q-0.03125 0.046875 -0.125 0.078125q-0.078125 0.03125 -0.21875 0.046875q-0.140625 0.015625 -0.375 0.015625q-0.21875 0 -0.375 -0.015625q-0.140625 -0.015625 -0.234375 -0.046875q-0.078125 -0.03125 -0.109375 -0.078125q-0.03125 -0.0625 -0.03125 -0.140625l0 -8.1875q0 -0.078125 0.03125 -0.125q0.03125 -0.046875 0.109375 -0.09375q0.078125 -0.046875 0.203125 -0.046875q0.140625 -0.015625 0.34375 -0.015625q0.203125 0 0.328125 0.015625q0.140625 0 0.203125 0.046875q0.078125 0.046875 0.109375 0.09375q0.03125 0.046875 0.03125 0.125l0 1.078125q0.6875 -0.765625 1.375 -1.125q0.6875 -0.375 1.390625 -0.375q0.828125 0 1.375 0.28125q0.5625 0.28125 0.90625 0.75q0.359375 0.46875 0.5 1.09375q0.15625 0.609375 0.15625 1.484375l0 5.0zm9.801819 0q0 0.078125 -0.046875 0.140625q-0.03125 0.046875 -0.109375 0.078125q-0.078125 0.03125 -0.234375 0.046875q-0.140625 0.015625 -0.359375 0.015625q-0.21875 0 -0.375 -0.015625q-0.140625 -0.015625 -0.234375 -0.046875q-0.078125 -0.03125 -0.109375 -0.078125q-0.03125 -0.0625 -0.03125 -0.140625l0 -4.796875q0 -0.703125 -0.109375 -1.125q-0.109375 -0.4375 -0.328125 -0.734375q-0.203125 -0.3125 -0.546875 -0.46875q-0.328125 -0.171875 -0.765625 -0.171875q-0.5625 0 -1.125 0.40625q-0.5625 0.390625 -1.1875 1.171875l0 5.71875q0 0.078125 -0.03125 0.140625q-0.03125 0.046875 -0.125 0.078125q-0.078125 0.03125 -0.21875 0.046875q-0.140625 0.015625 -0.375 0.015625q-0.21875 0 -0.375 -0.015625q-0.140625 -0.015625 -0.234375 -0.046875q-0.078125 -0.03125 -0.109375 -0.078125q-0.03125 -0.0625 -0.03125 -0.140625l0 -8.1875q0 -0.078125 0.03125 -0.125q0.03125 -0.046875 0.109375 -0.09375q0.078125 -0.046875 0.203125 -0.046875q0.140625 -0.015625 0.34375 -0.015625q0.203125 0 0.328125 0.015625q0.140625 0 0.203125 0.046875q0.078125 0.046875 0.109375 0.09375q0.03125 0.046875 0.03125 0.125l0 1.078125q0.6875 -0.765625 1.375 -1.125q0.6875 -0.375 1.390625 -0.375q0.828125 0 1.375 0.28125q0.5625 0.28125 0.90625 0.75q0.359375 0.46875 0.5 1.09375q0.15625 0.609375 0.15625 1.484375l0 5.0zm9.739304 -4.453125q0 0.359375 -0.1875 0.515625q-0.171875 0.140625 -0.390625 0.140625l-5.375 0q0 0.6875 0.125 1.234375q0.140625 0.546875 0.453125 0.9375q0.328125 0.390625 0.828125 0.609375q0.515625 0.203125 1.25 0.203125q0.59375 0 1.046875 -0.09375q0.453125 -0.09375 0.78125 -0.203125q0.34375 -0.125 0.546875 -0.21875q0.21875 -0.109375 0.328125 -0.109375q0.0625 0 0.109375 0.03125q0.0625 0.03125 0.078125 0.109375q0.03125 0.0625 0.046875 0.171875q0.015625 0.109375 0.015625 0.28125q0 0.109375 -0.015625 0.203125q0 0.078125 -0.015625 0.15625q-0.015625 0.0625 -0.046875 0.125q-0.03125 0.046875 -0.09375 0.09375q-0.046875 0.046875 -0.296875 0.171875q-0.234375 0.109375 -0.625 0.21875q-0.390625 0.109375 -0.90625 0.1875q-0.515625 0.09375 -1.09375 0.09375q-1.015625 0 -1.78125 -0.28125q-0.765625 -0.28125 -1.28125 -0.828125q-0.515625 -0.5625 -0.78125 -1.390625q-0.265625 -0.84375 -0.265625 -1.96875q0 -1.046875 0.265625 -1.890625q0.28125 -0.84375 0.796875 -1.421875q0.515625 -0.59375 1.234375 -0.90625q0.734375 -0.328125 1.640625 -0.328125q0.96875 0 1.640625 0.3125q0.6875 0.3125 1.125 0.84375q0.4375 0.515625 0.640625 1.234375q0.203125 0.703125 0.203125 1.5l0 0.265625zm-1.515625 -0.4375q0.03125 -1.1875 -0.53125 -1.859375q-0.546875 -0.671875 -1.625 -0.671875q-0.5625 0 -0.984375 0.21875q-0.40625 0.203125 -0.6875 0.546875q-0.28125 0.34375 -0.4375 0.8125q-0.15625 0.453125 -0.171875 0.953125l4.4375 0zm10.016968 4.71875q0.0625 0.140625 0.0625 0.234375q0 0.078125 -0.09375 0.140625q-0.078125 0.046875 -0.25 0.0625q-0.171875 0.015625 -0.453125 0.015625q-0.28125 0 -0.4375 -0.015625q-0.15625 0 -0.265625 -0.03125q-0.09375 -0.03125 -0.140625 -0.078125q-0.046875 -0.0625 -0.078125 -0.125l-1.96875 -3.25l-1.96875 3.25q-0.03125 0.0625 -0.078125 0.125q-0.046875 0.046875 -0.15625 0.078125q-0.09375 0.03125 -0.25 0.03125q-0.140625 0.015625 -0.40625 0.015625q-0.265625 0 -0.4375 -0.015625q-0.15625 -0.015625 -0.234375 -0.0625q-0.078125 -0.0625 -0.078125 -0.140625q0 -0.09375 0.09375 -0.234375l2.546875 -4.0l-2.421875 -3.84375q-0.0625 -0.125 -0.078125 -0.203125q0 -0.09375 0.078125 -0.15625q0.09375 -0.0625 0.265625 -0.078125q0.1875 -0.015625 0.484375 -0.015625q0.265625 0 0.421875 0.015625q0.15625 0 0.25 0.03125q0.09375 0.03125 0.140625 0.078125q0.046875 0.046875 0.078125 0.109375l1.859375 3.046875l1.90625 -3.046875q0.03125 -0.0625 0.078125 -0.109375q0.046875 -0.046875 0.125 -0.078125q0.078125 -0.03125 0.21875 -0.03125q0.140625 -0.015625 0.390625 -0.015625q0.25 0 0.421875 0.015625q0.171875 0.015625 0.25 0.0625q0.078125 0.046875 0.0625 0.140625q0 0.09375 -0.078125 0.234375l-2.390625 3.796875l2.53125 4.046875zm6.1269836 -0.421875q0 0.265625 -0.046875 0.421875q-0.03125 0.15625 -0.109375 0.234375q-0.0625 0.0625 -0.21875 0.125q-0.140625 0.0625 -0.328125 0.09375q-0.1875 0.046875 -0.390625 0.078125q-0.203125 0.03125 -0.421875 0.03125q-0.640625 0 -1.09375 -0.171875q-0.453125 -0.171875 -0.75 -0.5q-0.28125 -0.34375 -0.421875 -0.859375q-0.125 -0.53125 -0.125 -1.25l0 -4.796875l-1.15625 0q-0.125 0 -0.21875 -0.140625q-0.078125 -0.140625 -0.078125 -0.46875q0 -0.171875 0.015625 -0.28125q0.03125 -0.125 0.0625 -0.203125q0.046875 -0.078125 0.09375 -0.109375q0.0625 -0.03125 0.140625 -0.03125l1.140625 0l0 -1.953125q0 -0.0625 0.03125 -0.109375q0.03125 -0.0625 0.109375 -0.109375q0.09375 -0.046875 0.234375 -0.0625q0.15625 -0.015625 0.375 -0.015625q0.21875 0 0.359375 0.015625q0.15625 0.015625 0.234375 0.0625q0.078125 0.046875 0.109375 0.109375q0.046875 0.046875 0.046875 0.109375l0 1.953125l2.109375 0q0.0625 0 0.109375 0.03125q0.0625 0.03125 0.109375 0.109375q0.046875 0.078125 0.0625 0.203125q0.015625 0.109375 0.015625 0.28125q0 0.328125 -0.078125 0.46875q-0.078125 0.140625 -0.21875 0.140625l-2.109375 0l0 4.578125q0 0.84375 0.25 1.28125q0.25 0.4375 0.90625 0.4375q0.203125 0 0.359375 -0.046875q0.171875 -0.046875 0.296875 -0.078125q0.125 -0.046875 0.21875 -0.09375q0.09375 -0.046875 0.171875 -0.046875q0.046875 0 0.078125 0.03125q0.046875 0.015625 0.0625 0.078125q0.03125 0.0625 0.046875 0.171875q0.015625 0.109375 0.015625 0.28125zm15.435577 -5.234375q0 1.53125 -0.390625 2.671875q-0.390625 1.140625 -1.140625 1.890625q-0.75 0.75 -1.84375 1.125q-1.09375 0.375 -2.609375 0.375l-2.484375 0q-0.21875 0 -0.40625 -0.140625q-0.1875 -0.140625 -0.1875 -0.5l0 -10.515625q0 -0.34375 0.1875 -0.484375q0.1875 -0.140625 0.40625 -0.140625l2.65625 0q1.53125 0 2.59375 0.390625q1.0625 0.390625 1.765625 1.140625q0.71875 0.734375 1.078125 1.796875q0.375 1.0625 0.375 2.390625zm-1.640625 0.0625q0 -0.953125 -0.234375 -1.78125q-0.234375 -0.828125 -0.75 -1.421875q-0.5 -0.609375 -1.28125 -0.9375q-0.765625 -0.34375 -1.984375 -0.34375l-1.59375 0l0 9.171875l1.609375 0q1.125 0 1.890625 -0.28125q0.78125 -0.28125 1.296875 -0.859375q0.53125 -0.59375 0.78125 -1.46875q0.265625 -0.875 0.265625 -2.078125zm10.056091 5.78125q0 0.109375 -0.078125 0.171875q-0.0625 0.046875 -0.1875 0.0625q-0.125 0.03125 -0.375 0.03125q-0.234375 0 -0.375 -0.03125q-0.140625 -0.015625 -0.203125 -0.0625q-0.0625 -0.0625 -0.0625 -0.171875l0 -0.8125q-0.546875 0.5625 -1.203125 0.890625q-0.65625 0.3125 -1.390625 0.3125q-0.65625 0 -1.1875 -0.171875q-0.515625 -0.15625 -0.890625 -0.46875q-0.359375 -0.328125 -0.5625 -0.796875q-0.203125 -0.46875 -0.203125 -1.0625q0 -0.6875 0.28125 -1.1875q0.28125 -0.515625 0.796875 -0.84375q0.53125 -0.34375 1.296875 -0.515625q0.765625 -0.171875 1.734375 -0.171875l1.125 0l0 -0.640625q0 -0.46875 -0.109375 -0.828125q-0.09375 -0.375 -0.328125 -0.609375q-0.21875 -0.25 -0.578125 -0.359375q-0.34375 -0.125 -0.859375 -0.125q-0.5625 0 -1.0 0.140625q-0.4375 0.125 -0.78125 0.28125q-0.328125 0.15625 -0.546875 0.296875q-0.21875 0.125 -0.328125 0.125q-0.078125 0 -0.140625 -0.03125q-0.046875 -0.046875 -0.09375 -0.109375q-0.03125 -0.078125 -0.0625 -0.1875q-0.015625 -0.125 -0.015625 -0.25q0 -0.234375 0.03125 -0.359375q0.03125 -0.140625 0.15625 -0.25q0.125 -0.125 0.421875 -0.28125q0.3125 -0.171875 0.703125 -0.296875q0.390625 -0.125 0.84375 -0.21875q0.46875 -0.09375 0.953125 -0.09375q0.875 0 1.484375 0.203125q0.625 0.203125 1.0 0.59375q0.390625 0.390625 0.5625 0.96875q0.171875 0.5625 0.171875 1.328125l0 5.53125zm-1.484375 -3.75l-1.28125 0q-0.625 0 -1.078125 0.109375q-0.453125 0.109375 -0.765625 0.3125q-0.296875 0.203125 -0.4375 0.5q-0.140625 0.28125 -0.140625 0.65625q0 0.625 0.40625 1.015625q0.40625 0.375 1.140625 0.375q0.59375 0 1.09375 -0.296875q0.5 -0.3125 1.0625 -0.921875l0 -1.75zm8.514526 3.140625q0 0.265625 -0.046875 0.421875q-0.03125 0.15625 -0.109375 0.234375q-0.0625 0.0625 -0.21875 0.125q-0.140625 0.0625 -0.328125 0.09375q-0.1875 0.046875 -0.390625 0.078125q-0.203125 0.03125 -0.421875 0.03125q-0.640625 0 -1.09375 -0.171875q-0.453125 -0.171875 -0.75 -0.5q-0.28125 -0.34375 -0.421875 -0.859375q-0.125 -0.53125 -0.125 -1.25l0 -4.796875l-1.15625 0q-0.125 0 -0.21875 -0.140625q-0.078125 -0.140625 -0.078125 -0.46875q0 -0.171875 0.015625 -0.28125q0.03125 -0.125 0.0625 -0.203125q0.046875 -0.078125 0.09375 -0.109375q0.0625 -0.03125 0.140625 -0.03125l1.140625 0l0 -1.953125q0 -0.0625 0.03125 -0.109375q0.03125 -0.0625 0.109375 -0.109375q0.09375 -0.046875 0.234375 -0.0625q0.15625 -0.015625 0.375 -0.015625q0.21875 0 0.359375 0.015625q0.15625 0.015625 0.234375 0.0625q0.078125 0.046875 0.109375 0.109375q0.046875 0.046875 0.046875 0.109375l0 1.953125l2.109375 0q0.0625 0 0.109375 0.03125q0.0625 0.03125 0.109375 0.109375q0.046875 0.078125 0.0625 0.203125q0.015625 0.109375 0.015625 0.28125q0 0.328125 -0.078125 0.46875q-0.078125 0.140625 -0.21875 0.140625l-2.109375 0l0 4.578125q0 0.84375 0.25 1.28125q0.25 0.4375 0.90625 0.4375q0.203125 0 0.359375 -0.046875q0.171875 -0.046875 0.296875 -0.078125q0.125 -0.046875 0.21875 -0.09375q0.09375 -0.046875 0.171875 -0.046875q0.046875 0 0.078125 0.03125q0.046875 0.015625 0.0625 0.078125q0.03125 0.0625 0.046875 0.171875q0.015625 0.109375 0.015625 0.28125zm8.1553955 0.609375q0 0.109375 -0.078125 0.171875q-0.0625 0.046875 -0.1875 0.0625q-0.125 0.03125 -0.375 0.03125q-0.234375 0 -0.375 -0.03125q-0.140625 -0.015625 -0.203125 -0.0625q-0.0625 -0.0625 -0.0625 -0.171875l0 -0.8125q-0.546875 0.5625 -1.203125 0.890625q-0.65625 0.3125 -1.390625 0.3125q-0.65625 0 -1.1875 -0.171875q-0.515625 -0.15625 -0.890625 -0.46875q-0.359375 -0.328125 -0.5625 -0.796875q-0.203125 -0.46875 -0.203125 -1.0625q0 -0.6875 0.28125 -1.1875q0.28125 -0.515625 0.796875 -0.84375q0.53125 -0.34375 1.296875 -0.515625q0.765625 -0.171875 1.734375 -0.171875l1.125 0l0 -0.640625q0 -0.46875 -0.109375 -0.828125q-0.09375 -0.375 -0.328125 -0.609375q-0.21875 -0.25 -0.578125 -0.359375q-0.34375 -0.125 -0.859375 -0.125q-0.5625 0 -1.0 0.140625q-0.4375 0.125 -0.78125 0.28125q-0.328125 0.15625 -0.546875 0.296875q-0.21875 0.125 -0.328125 0.125q-0.078125 0 -0.140625 -0.03125q-0.046875 -0.046875 -0.09375 -0.109375q-0.03125 -0.078125 -0.0625 -0.1875q-0.015625 -0.125 -0.015625 -0.25q0 -0.234375 0.03125 -0.359375q0.03125 -0.140625 0.15625 -0.25q0.125 -0.125 0.421875 -0.28125q0.3125 -0.171875 0.703125 -0.296875q0.390625 -0.125 0.84375 -0.21875q0.46875 -0.09375 0.953125 -0.09375q0.875 0 1.484375 0.203125q0.625 0.203125 1.0 0.59375q0.390625 0.390625 0.5625 0.96875q0.171875 0.5625 0.171875 1.328125l0 5.53125zm-1.484375 -3.75l-1.28125 0q-0.625 0 -1.078125 0.109375q-0.453125 0.109375 -0.765625 0.3125q-0.296875 0.203125 -0.4375 0.5q-0.140625 0.28125 -0.140625 0.65625q0 0.625 0.40625 1.015625q0.40625 0.375 1.140625 0.375q0.59375 0 1.09375 -0.296875q0.5 -0.3125 1.0625 -0.921875l0 -1.75zm12.202026 0.59375q0 0.546875 -0.140625 1.015625q-0.140625 0.46875 -0.40625 0.84375q-0.25 0.375 -0.609375 0.65625q-0.359375 0.28125 -0.8125 0.484375q-0.453125 0.1875 -0.96875 0.28125q-0.515625 0.09375 -1.171875 0.09375l-3.078125 0q-0.21875 0 -0.40625 -0.140625q-0.1875 -0.140625 -0.1875 -0.5l0 -10.515625q0 -0.34375 0.1875 -0.484375q0.1875 -0.140625 0.40625 -0.140625l2.671875 0q1.0625 0 1.734375 0.203125q0.671875 0.1875 1.125 0.578125q0.453125 0.375 0.671875 0.9375q0.234375 0.546875 0.234375 1.25q0 0.421875 -0.109375 0.8125q-0.09375 0.375 -0.296875 0.703125q-0.1875 0.3125 -0.484375 0.578125q-0.296875 0.25 -0.6875 0.421875q0.484375 0.078125 0.90625 0.328125q0.421875 0.234375 0.734375 0.609375q0.3125 0.375 0.5 0.875q0.1875 0.5 0.1875 1.109375zm-2.359375 -5.28125q0 -0.421875 -0.125 -0.765625q-0.125 -0.359375 -0.375 -0.59375q-0.25 -0.234375 -0.671875 -0.359375q-0.40625 -0.140625 -1.078125 -0.140625l-1.625 0l0 3.8125l1.796875 0q0.609375 0 0.984375 -0.15625q0.375 -0.15625 0.609375 -0.421875q0.25 -0.265625 0.359375 -0.625q0.125 -0.359375 0.125 -0.75zm0.703125 5.375q0 -0.53125 -0.171875 -0.9375q-0.171875 -0.40625 -0.5 -0.671875q-0.3125 -0.28125 -0.796875 -0.421875q-0.484375 -0.140625 -1.234375 -0.140625l-1.875 0l0 4.15625l2.28125 0q0.546875 0 0.9375 -0.125q0.40625 -0.125 0.703125 -0.375q0.3125 -0.25 0.484375 -0.625q0.171875 -0.375 0.171875 -0.859375zm10.882355 3.046875q0 0.078125 -0.03125 0.140625q-0.03125 0.046875 -0.125 0.078125q-0.078125 0.03125 -0.21875 0.046875q-0.125 0.015625 -0.3125 0.015625q-0.203125 0 -0.34375 -0.015625q-0.125 -0.015625 -0.203125 -0.046875q-0.078125 -0.03125 -0.109375 -0.078125q-0.03125 -0.0625 -0.03125 -0.140625l0 -1.078125q-0.703125 0.78125 -1.390625 1.140625q-0.671875 0.34375 -1.375 0.34375q-0.8125 0 -1.375 -0.265625q-0.5625 -0.28125 -0.90625 -0.75q-0.34375 -0.46875 -0.5 -1.09375q-0.15625 -0.625 -0.15625 -1.515625l0 -4.96875q0 -0.078125 0.03125 -0.125q0.03125 -0.046875 0.125 -0.09375q0.09375 -0.046875 0.234375 -0.046875q0.15625 -0.015625 0.375 -0.015625q0.21875 0 0.359375 0.015625q0.140625 0 0.21875 0.046875q0.09375 0.046875 0.125 0.09375q0.046875 0.046875 0.046875 0.125l0 4.765625q0 0.71875 0.09375 1.15625q0.109375 0.4375 0.328125 0.75q0.21875 0.296875 0.546875 0.46875q0.328125 0.15625 0.765625 0.15625q0.5625 0 1.125 -0.390625q0.5625 -0.40625 1.1875 -1.1875l0 -5.71875q0 -0.078125 0.03125 -0.125q0.03125 -0.046875 0.125 -0.09375q0.09375 -0.046875 0.234375 -0.046875q0.140625 -0.015625 0.359375 -0.015625q0.21875 0 0.359375 0.015625q0.15625 0 0.234375 0.046875q0.078125 0.046875 0.125 0.09375q0.046875 0.046875 0.046875 0.125l0 8.1875zm7.926819 -2.21875q0 0.625 -0.234375 1.125q-0.234375 0.484375 -0.671875 0.828125q-0.421875 0.328125 -1.015625 0.5q-0.59375 0.171875 -1.296875 0.171875q-0.4375 0 -0.84375 -0.078125q-0.390625 -0.0625 -0.703125 -0.15625q-0.3125 -0.109375 -0.53125 -0.21875q-0.21875 -0.125 -0.328125 -0.203125q-0.09375 -0.09375 -0.140625 -0.25q-0.046875 -0.171875 -0.046875 -0.453125q0 -0.171875 0.015625 -0.296875q0.03125 -0.125 0.046875 -0.1875q0.03125 -0.078125 0.078125 -0.109375q0.046875 -0.03125 0.125 -0.03125q0.09375 0 0.28125 0.125q0.203125 0.125 0.484375 0.265625q0.296875 0.140625 0.6875 0.265625q0.390625 0.125 0.90625 0.125q0.375 0 0.6875 -0.078125q0.3125 -0.078125 0.53125 -0.234375q0.234375 -0.171875 0.359375 -0.40625q0.125 -0.25 0.125 -0.59375q0 -0.34375 -0.1875 -0.578125q-0.171875 -0.234375 -0.46875 -0.421875q-0.28125 -0.1875 -0.65625 -0.328125q-0.359375 -0.140625 -0.75 -0.296875q-0.390625 -0.15625 -0.765625 -0.34375q-0.359375 -0.203125 -0.65625 -0.484375q-0.28125 -0.28125 -0.46875 -0.671875q-0.171875 -0.390625 -0.171875 -0.9375q0 -0.484375 0.1875 -0.921875q0.1875 -0.4375 0.5625 -0.765625q0.375 -0.34375 0.921875 -0.546875q0.5625 -0.203125 1.3125 -0.203125q0.328125 0 0.65625 0.0625q0.328125 0.046875 0.59375 0.140625q0.265625 0.078125 0.453125 0.171875q0.1875 0.09375 0.28125 0.171875q0.09375 0.078125 0.125 0.140625q0.03125 0.046875 0.046875 0.109375q0.015625 0.0625 0.03125 0.171875q0.015625 0.09375 0.015625 0.234375q0 0.15625 -0.015625 0.28125q-0.015625 0.109375 -0.046875 0.1875q-0.03125 0.0625 -0.078125 0.09375q-0.046875 0.03125 -0.09375 0.03125q-0.09375 0 -0.25 -0.09375q-0.140625 -0.09375 -0.390625 -0.203125q-0.25 -0.125 -0.578125 -0.21875q-0.328125 -0.109375 -0.765625 -0.109375q-0.375 0 -0.671875 0.09375q-0.296875 0.078125 -0.484375 0.25q-0.1875 0.15625 -0.28125 0.375q-0.09375 0.21875 -0.09375 0.46875q0 0.359375 0.171875 0.609375q0.1875 0.234375 0.484375 0.421875q0.296875 0.171875 0.671875 0.328125q0.375 0.140625 0.75 0.296875q0.390625 0.140625 0.765625 0.34375q0.390625 0.1875 0.671875 0.46875q0.296875 0.265625 0.46875 0.65625q0.1875 0.375 0.1875 0.90625z" fill-rule="nonzero"/><path fill="#3c78d8" d="m98.314964 21.501541l0 0c0 -6.3260336 5.1282578 -11.454297 11.454292 -11.454297l346.31976 0c3.0378723 0 5.951294 1.206789 8.099396 3.354886c2.1481018 2.148097 3.354889 5.0615425 3.354889 8.099411l0 45.81582c0 6.326027 -5.1282654 11.454292 -11.454285 11.454292l-346.31976 0l0 0c-6.3260345 0 -11.454292 -5.1282654 -11.454292 -11.454292z" fill-rule="evenodd"/><path fill="#ffffff" d="m206.26453 46.641945l1.765625 0.453125q-0.5625 2.171875 -2.0 3.328125q-1.4375 1.140625 -3.53125 1.140625q-2.15625 0 -3.515625 -0.875q-1.34375 -0.890625 -2.0625 -2.546875q-0.703125 -1.671875 -0.703125 -3.59375q0 -2.078125 0.796875 -3.625q0.796875 -1.5625 2.265625 -2.359375q1.484375 -0.8125 3.25 -0.8125q2.0 0 3.359375 1.015625q1.375 1.015625 1.90625 2.875l-1.734375 0.40625q-0.46875 -1.453125 -1.359375 -2.109375q-0.875 -0.671875 -2.203125 -0.671875q-1.546875 0 -2.578125 0.734375q-1.03125 0.734375 -1.453125 1.984375q-0.421875 1.234375 -0.421875 2.5625q0 1.703125 0.5 2.96875q0.5 1.265625 1.546875 1.90625q1.046875 0.625 2.265625 0.625q1.484375 0 2.515625 -0.859375q1.03125 -0.859375 1.390625 -2.546875zm3.1291962 -0.15625q0 -2.6875 1.484375 -3.96875q1.25 -1.078125 3.046875 -1.078125q2.0 0 3.265625 1.3125q1.265625 1.296875 1.265625 3.609375q0 1.859375 -0.5625 2.9375q-0.5625 1.0625 -1.640625 1.65625q-1.0625 0.59375 -2.328125 0.59375q-2.03125 0 -3.28125 -1.296875q-1.25 -1.3125 -1.25 -3.765625zm1.6875 0q0 1.859375 0.796875 2.796875q0.8125 0.921875 2.046875 0.921875q1.21875 0 2.03125 -0.921875q0.8125 -0.9375 0.8125 -2.84375q0 -1.796875 -0.8125 -2.71875q-0.8125 -0.921875 -2.03125 -0.921875q-1.234375 0 -2.046875 0.921875q-0.796875 0.90625 -0.796875 2.765625zm9.297592 4.84375l0 -9.671875l1.46875 0l0 1.375q1.0625 -1.59375 3.078125 -1.59375q0.875 0 1.609375 0.3125q0.734375 0.3125 1.09375 0.828125q0.375 0.5 0.515625 1.203125q0.09375 0.453125 0.09375 1.59375l0 5.953125l-1.640625 0l0 -5.890625q0 -1.0 -0.203125 -1.484375q-0.1875 -0.5 -0.671875 -0.796875q-0.484375 -0.296875 -1.140625 -0.296875q-1.046875 0 -1.8125 0.671875q-0.75 0.65625 -0.75 2.515625l0 5.28125l-1.640625 0zm10.375717 0l0 -9.671875l1.46875 0l0 1.375q1.0625 -1.59375 3.078125 -1.59375q0.875 0 1.609375 0.3125q0.734375 0.3125 1.09375 0.828125q0.375 0.5 0.515625 1.203125q0.09375 0.453125 0.09375 1.59375l0 5.953125l-1.640625 0l0 -5.890625q0 -1.0 -0.203125 -1.484375q-0.1875 -0.5 -0.671875 -0.796875q-0.484375 -0.296875 -1.140625 -0.296875q-1.046875 0 -1.8125 0.671875q-0.75 0.65625 -0.75 2.515625l0 5.28125l-1.640625 0zm17.000717 -3.109375l1.6875 0.203125q-0.40625 1.484375 -1.484375 2.3125q-1.078125 0.8125 -2.765625 0.8125q-2.125 0 -3.375 -1.296875q-1.234375 -1.3125 -1.234375 -3.671875q0 -2.453125 1.25 -3.796875q1.265625 -1.34375 3.265625 -1.34375q1.9375 0 3.15625 1.328125q1.234375 1.3125 1.234375 3.703125q0 0.15625 0 0.4375l-7.21875 0q0.09375 1.59375 0.90625 2.453125q0.8125 0.84375 2.015625 0.84375q0.90625 0 1.546875 -0.46875q0.640625 -0.484375 1.015625 -1.515625zm-5.390625 -2.65625l5.40625 0q-0.109375 -1.21875 -0.625 -1.828125q-0.78125 -0.953125 -2.03125 -0.953125q-1.125 0 -1.90625 0.765625q-0.765625 0.75 -0.84375 2.015625zm8.047592 5.765625l3.53125 -5.03125l-3.265625 -4.640625l2.046875 0l1.484375 2.265625q0.421875 0.640625 0.671875 1.078125q0.40625 -0.59375 0.734375 -1.0625l1.6406097 -2.28125l1.953125 0l-3.3437347 4.546875l3.5937347 5.125l-2.015625 0l-1.9843597 -3.0l-0.515625 -0.8125l-2.546875 3.8125l-1.984375 0zm13.999985 -1.46875l0.234375 1.453125q-0.6875 0.140625 -1.234375 0.140625q-0.890625 0 -1.390625 -0.28125q-0.484375 -0.28125 -0.6875 -0.734375q-0.203125 -0.46875 -0.203125 -1.9375l0 -5.578125l-1.203125 0l0 -1.265625l1.203125 0l0 -2.390625l1.625 -0.984375l0 3.375l1.65625 0l0 1.265625l-1.65625 0l0 5.671875q0 0.6875 0.078125 0.890625q0.09375 0.203125 0.28125 0.328125q0.203125 0.109375 0.578125 0.109375q0.265625 0 0.71875 -0.0625zm5.5228577 1.46875l5.125 -13.359375l1.90625 0l5.46875 13.359375l-2.015625 0l-1.546875 -4.046875l-5.59375 0l-1.46875 4.046875l-1.875 0zm3.859375 -5.484375l4.53125 0l-1.40625 -3.703125q-0.625 -1.6875 -0.9375 -2.765625q-0.265625 1.28125 -0.71875 2.546875l-1.46875 3.921875zm9.849823 9.1875l0 -13.375l1.484375 0l0 1.25q0.53125 -0.734375 1.1875 -1.09375q0.671875 -0.375 1.625 -0.375q1.234375 0 2.171875 0.640625q0.953125 0.625 1.4375 1.796875q0.484375 1.15625 0.484375 2.546875q0 1.484375 -0.53125 2.671875q-0.53125 1.1875 -1.546875 1.828125q-1.015625 0.625 -2.140625 0.625q-0.8125 0 -1.46875 -0.34375q-0.65625 -0.34375 -1.0625 -0.875l0 4.703125l-1.640625 0zm1.484375 -8.484375q0 1.859375 0.75 2.765625q0.765625 0.890625 1.828125 0.890625q1.09375 0 1.875 -0.921875q0.78125 -0.9375 0.78125 -2.875q0 -1.84375 -0.765625 -2.765625q-0.75 -0.921875 -1.8125 -0.921875q-1.046875 0 -1.859375 0.984375q-0.796875 0.96875 -0.796875 2.84375zm8.891357 8.484375l0 -13.375l1.484375 0l0 1.25q0.53125 -0.734375 1.1875 -1.09375q0.671875 -0.375 1.625 -0.375q1.234375 0 2.171875 0.640625q0.953125 0.625 1.4375 1.796875q0.484375 1.15625 0.484375 2.546875q0 1.484375 -0.53125 2.671875q-0.53125 1.1875 -1.546875 1.828125q-1.015625 0.625 -2.140625 0.625q-0.8125 0 -1.46875 -0.34375q-0.65625 -0.34375 -1.0625 -0.875l0 4.703125l-1.640625 0zm1.484375 -8.484375q0 1.859375 0.75 2.765625q0.765625 0.890625 1.828125 0.890625q1.09375 0 1.875 -0.921875q0.78125 -0.9375 0.78125 -2.875q0 -1.84375 -0.765625 -2.765625q-0.75 -0.921875 -1.8125 -0.921875q-1.046875 0 -1.859375 0.984375q-0.796875 0.96875 -0.796875 2.84375zm8.844452 4.78125l0 -13.359375l1.640625 0l0 13.359375l-1.640625 0zm4.1917114 -11.46875l0 -1.890625l1.640625 0l0 1.890625l-1.640625 0zm0 11.46875l0 -9.671875l1.640625 0l0 9.671875l-1.640625 0zm10.457306 -3.546875l1.609375 0.21875q-0.265625 1.65625 -1.359375 2.609375q-1.078125 0.9375 -2.671875 0.9375q-1.984375 0 -3.1875 -1.296875q-1.203125 -1.296875 -1.203125 -3.71875q0 -1.578125 0.515625 -2.75q0.515625 -1.171875 1.578125 -1.75q1.0625 -0.59375 2.3125 -0.59375q1.578125 0 2.578125 0.796875q1.0 0.796875 1.28125 2.265625l-1.59375 0.234375q-0.234375 -0.96875 -0.8125 -1.453125q-0.578125 -0.5 -1.390625 -0.5q-1.234375 0 -2.015625 0.890625q-0.78125 0.890625 -0.78125 2.8125q0 1.953125 0.75 2.84375q0.75 0.875 1.953125 0.875q0.96875 0 1.609375 -0.59375q0.65625 -0.59375 0.828125 -1.828125zm9.328125 2.359375q-0.921875 0.765625 -1.765625 1.09375q-0.828125 0.3125 -1.796875 0.3125q-1.59375 0 -2.453125 -0.78125q-0.859375 -0.78125 -0.859375 -1.984375q0 -0.71875 0.328125 -1.296875q0.328125 -0.59375 0.84375 -0.9375q0.53125 -0.359375 1.1875 -0.546875q0.46875 -0.125 1.453125 -0.25q1.984375 -0.234375 2.921875 -0.5625q0.015625 -0.34375 0.015625 -0.421875q0 -1.0 -0.46875 -1.421875q-0.625 -0.546875 -1.875 -0.546875q-1.15625 0 -1.703125 0.40625q-0.546875 0.40625 -0.8125 1.421875l-1.609375 -0.21875q0.21875 -1.015625 0.71875 -1.640625q0.5 -0.640625 1.453125 -0.984375q0.953125 -0.34375 2.1875 -0.34375q1.25 0 2.015625 0.296875q0.78125 0.28125 1.140625 0.734375q0.375 0.4375 0.515625 1.109375q0.078125 0.421875 0.078125 1.515625l0 2.1875q0 2.28125 0.109375 2.890625q0.109375 0.59375 0.40625 1.15625l-1.703125 0q-0.265625 -0.515625 -0.328125 -1.1875zm-0.140625 -3.671875q-0.890625 0.375 -2.671875 0.625q-1.015625 0.140625 -1.4375 0.328125q-0.421875 0.1875 -0.65625 0.53125q-0.21875 0.34375 -0.21875 0.78125q0 0.65625 0.5 1.09375q0.5 0.4375 1.453125 0.4375q0.9375 0 1.671875 -0.40625q0.75 -0.421875 1.09375 -1.140625q0.265625 -0.5625 0.265625 -1.640625l0 -0.609375zm7.7819824 3.390625l0.234375 1.453125q-0.6875 0.140625 -1.234375 0.140625q-0.890625 0 -1.390625 -0.28125q-0.484375 -0.28125 -0.6875 -0.734375q-0.203125 -0.46875 -0.203125 -1.9375l0 -5.578125l-1.203125 0l0 -1.265625l1.203125 0l0 -2.390625l1.625 -0.984375l0 3.375l1.65625 0l0 1.265625l-1.65625 0l0 5.671875q0 0.6875 0.078125 0.890625q0.09375 0.203125 0.28125 0.328125q0.203125 0.109375 0.578125 0.109375q0.265625 0 0.71875 -0.0625zm1.6051636 -10.0l0 -1.890625l1.640625 0l0 1.890625l-1.640625 0zm0 11.46875l0 -9.671875l1.640625 0l0 9.671875l-1.640625 0zm3.5354614 -4.84375q0 -2.6875 1.484375 -3.96875q1.25 -1.078125 3.046875 -1.078125q2.0 0 3.265625 1.3125q1.265625 1.296875 1.265625 3.609375q0 1.859375 -0.5625 2.9375q-0.5625 1.0625 -1.640625 1.65625q-1.0625 0.59375 -2.328125 0.59375q-2.03125 0 -3.28125 -1.296875q-1.25 -1.3125 -1.25 -3.765625zm1.6875 0q0 1.859375 0.796875 2.796875q0.8125 0.921875 2.046875 0.921875q1.21875 0 2.03125 -0.921875q0.8125 -0.9375 0.8125 -2.84375q0 -1.796875 -0.8125 -2.71875q-0.8125 -0.921875 -2.03125 -0.921875q-1.234375 0 -2.046875 0.921875q-0.796875 0.90625 -0.796875 2.765625zm9.297577 4.84375l0 -9.671875l1.46875 0l0 1.375q1.0625 -1.59375 3.078125 -1.59375q0.875 0 1.609375 0.3125q0.734375 0.3125 1.09375 0.828125q0.375 0.5 0.515625 1.203125q0.09375 0.453125 0.09375 1.59375l0 5.953125l-1.640625 0l0 -5.890625q0 -1.0 -0.203125 -1.484375q-0.1875 -0.5 -0.671875 -0.796875q-0.484375 -0.296875 -1.140625 -0.296875q-1.046875 0 -1.8125 0.671875q-0.75 0.65625 -0.75 2.515625l0 5.28125l-1.640625 0zm9.719482 -2.890625l1.625 -0.25q0.125 0.96875 0.75 1.5q0.625 0.515625 1.75 0.515625q1.125 0 1.671875 -0.453125q0.546875 -0.46875 0.546875 -1.09375q0 -0.546875 -0.484375 -0.875q-0.328125 -0.21875 -1.671875 -0.546875q-1.8125 -0.46875 -2.515625 -0.796875q-0.6875 -0.328125 -1.046875 -0.90625q-0.359375 -0.59375 -0.359375 -1.3125q0 -0.640625 0.296875 -1.1875q0.296875 -0.5625 0.8125 -0.921875q0.375 -0.28125 1.03125 -0.46875q0.671875 -0.203125 1.421875 -0.203125q1.140625 0 2.0 0.328125q0.859375 0.328125 1.265625 0.890625q0.421875 0.5625 0.578125 1.5l-1.609375 0.21875q-0.109375 -0.75 -0.640625 -1.171875q-0.515625 -0.421875 -1.46875 -0.421875q-1.140625 0 -1.625 0.375q-0.46875 0.375 -0.46875 0.875q0 0.3125 0.1875 0.578125q0.203125 0.265625 0.640625 0.4375q0.234375 0.09375 1.4375 0.421875q1.75 0.453125 2.4375 0.75q0.6875 0.296875 1.078125 0.859375q0.390625 0.5625 0.390625 1.40625q0 0.828125 -0.484375 1.546875q-0.46875 0.71875 -1.375 1.125q-0.90625 0.390625 -2.046875 0.390625q-1.875 0 -2.875 -0.78125q-0.984375 -0.78125 -1.25 -2.328125z" fill-rule="nonzero"/><path fill="#6d9eeb" d="m274.70865 100.54855l8.2204895 -8.220467l8.220459 8.220467l-4.1102295 0l0 38.708664l4.1102295 0l-8.220459 8.220474l-8.2204895 -8.220474l4.11026 0l0 -38.708664z" fill-rule="evenodd"/><path fill="#6d9eeb" d="m274.70865 214.29134l8.2204895 -8.220474l8.220459 8.220474l-4.1102295 0l0 38.708664l4.1102295 0l-8.220459 8.220459l-8.2204895 -8.220459l4.11026 0l0 -38.708664z" fill-rule="evenodd"/><path fill="#999999" d="m232.86613 464.93982l0 0c0 -5.076477 4.1153107 -9.191803 9.191788 -9.191803l81.74243 0c2.4378052 0 4.775757 0.9684448 6.4995728 2.6922302c1.7237854 1.7237854 2.6921997 4.0617676 2.6921997 6.4995728l0 36.76602c0 5.0765076 -4.1152954 9.191803 -9.191772 9.191803l-81.74243 0c-5.076477 0 -9.191788 -4.1152954 -9.191788 -9.191803z" fill-rule="evenodd"/><path fill="#f3f3f3" d="m265.66388 486.93033q0 0.828125 -0.3125 1.484375q-0.296875 0.640625 -0.84375 1.09375q-0.53125 0.453125 -1.265625 0.6875q-0.734375 0.21875 -1.578125 0.21875q-0.59375 0 -1.109375 -0.109375q-0.5 -0.09375 -0.890625 -0.234375q-0.390625 -0.140625 -0.671875 -0.296875q-0.265625 -0.15625 -0.375 -0.265625q-0.09375 -0.109375 -0.15625 -0.28125q-0.046875 -0.171875 -0.046875 -0.453125q0 -0.203125 0.015625 -0.328125q0.03125 -0.140625 0.0625 -0.21875q0.03125 -0.078125 0.078125 -0.109375q0.0625 -0.03125 0.140625 -0.03125q0.125 0 0.359375 0.15625q0.234375 0.15625 0.59375 0.34375q0.375 0.171875 0.875 0.328125q0.515625 0.15625 1.203125 0.15625q0.5 0 0.921875 -0.125q0.421875 -0.140625 0.734375 -0.390625q0.3125 -0.25 0.46875 -0.609375q0.171875 -0.375 0.171875 -0.84375q0 -0.5 -0.234375 -0.84375q-0.234375 -0.359375 -0.609375 -0.625q-0.359375 -0.265625 -0.84375 -0.484375q-0.484375 -0.234375 -0.984375 -0.46875q-0.5 -0.234375 -0.96875 -0.515625q-0.46875 -0.28125 -0.84375 -0.65625q-0.375 -0.390625 -0.609375 -0.90625q-0.234375 -0.515625 -0.234375 -1.234375q0 -0.734375 0.265625 -1.3125q0.265625 -0.578125 0.75 -0.96875q0.484375 -0.390625 1.140625 -0.59375q0.65625 -0.203125 1.421875 -0.203125q0.390625 0 0.78125 0.0625q0.40625 0.0625 0.75 0.1875q0.359375 0.109375 0.625 0.25q0.28125 0.140625 0.359375 0.234375q0.09375 0.078125 0.109375 0.125q0.03125 0.046875 0.046875 0.125q0.03125 0.078125 0.03125 0.1875q0.015625 0.109375 0.015625 0.28125q0 0.171875 -0.015625 0.296875q-0.015625 0.125 -0.046875 0.21875q-0.015625 0.078125 -0.078125 0.125q-0.046875 0.046875 -0.109375 0.046875q-0.09375 0 -0.3125 -0.125q-0.21875 -0.140625 -0.53125 -0.296875q-0.296875 -0.15625 -0.734375 -0.28125q-0.421875 -0.140625 -0.9375 -0.140625q-0.5 0 -0.859375 0.140625q-0.359375 0.125 -0.609375 0.34375q-0.234375 0.21875 -0.359375 0.515625q-0.109375 0.296875 -0.109375 0.640625q0 0.484375 0.21875 0.84375q0.234375 0.359375 0.609375 0.640625q0.390625 0.265625 0.859375 0.5q0.484375 0.21875 0.984375 0.453125q0.515625 0.234375 0.984375 0.515625q0.484375 0.265625 0.859375 0.65625q0.390625 0.375 0.609375 0.890625q0.234375 0.5 0.234375 1.203125zm9.697052 -1.109375q0 1.0 -0.265625 1.84375q-0.265625 0.84375 -0.796875 1.453125q-0.515625 0.609375 -1.3125 0.953125q-0.78125 0.34375 -1.8125 0.34375q-1.015625 0 -1.765625 -0.296875q-0.75 -0.296875 -1.25 -0.875q-0.5 -0.578125 -0.75 -1.390625q-0.25 -0.828125 -0.25 -1.859375q0 -1.0 0.265625 -1.84375q0.265625 -0.84375 0.78125 -1.453125q0.53125 -0.609375 1.3125 -0.953125q0.78125 -0.34375 1.828125 -0.34375q1.015625 0 1.765625 0.3125q0.75 0.296875 1.25 0.875q0.5 0.5625 0.75 1.390625q0.25 0.8125 0.25 1.84375zm-1.578125 0.109375q0 -0.671875 -0.125 -1.265625q-0.125 -0.59375 -0.40625 -1.03125q-0.28125 -0.453125 -0.765625 -0.703125q-0.484375 -0.265625 -1.203125 -0.265625q-0.671875 0 -1.15625 0.234375q-0.46875 0.234375 -0.78125 0.671875q-0.296875 0.4375 -0.453125 1.03125q-0.15625 0.578125 -0.15625 1.28125q0 0.671875 0.125 1.265625q0.125 0.59375 0.40625 1.046875q0.296875 0.4375 0.78125 0.703125q0.484375 0.25 1.203125 0.25q0.65625 0 1.125 -0.234375q0.484375 -0.234375 0.796875 -0.65625q0.3125 -0.4375 0.453125 -1.03125q0.15625 -0.59375 0.15625 -1.296875zm9.682007 2.84375q0 0.140625 -0.015625 0.265625q0 0.109375 -0.03125 0.1875q-0.015625 0.078125 -0.046875 0.140625q-0.03125 0.0625 -0.140625 0.171875q-0.109375 0.109375 -0.390625 0.28125q-0.265625 0.171875 -0.609375 0.3125q-0.34375 0.125 -0.75 0.203125q-0.390625 0.078125 -0.828125 0.078125q-0.875 0 -1.5625 -0.28125q-0.6875 -0.296875 -1.15625 -0.859375q-0.453125 -0.5625 -0.703125 -1.375q-0.234375 -0.8125 -0.234375 -1.890625q0 -1.203125 0.296875 -2.0625q0.296875 -0.875 0.8125 -1.4375q0.515625 -0.5625 1.203125 -0.828125q0.703125 -0.265625 1.515625 -0.265625q0.390625 0 0.765625 0.078125q0.375 0.0625 0.671875 0.1875q0.3125 0.125 0.546875 0.28125q0.25 0.140625 0.359375 0.25q0.109375 0.109375 0.140625 0.1875q0.046875 0.0625 0.078125 0.15625q0.03125 0.078125 0.03125 0.1875q0.015625 0.109375 0.015625 0.265625q0 0.359375 -0.078125 0.5q-0.078125 0.140625 -0.203125 0.140625q-0.140625 0 -0.3125 -0.140625q-0.171875 -0.15625 -0.453125 -0.34375q-0.265625 -0.1875 -0.65625 -0.328125q-0.390625 -0.15625 -0.921875 -0.15625q-1.078125 0 -1.65625 0.84375q-0.578125 0.828125 -0.578125 2.40625q0 0.796875 0.140625 1.390625q0.15625 0.59375 0.4375 1.0q0.296875 0.40625 0.71875 0.609375q0.4375 0.1875 0.984375 0.1875q0.515625 0 0.90625 -0.15625q0.390625 -0.171875 0.671875 -0.359375q0.296875 -0.203125 0.484375 -0.359375q0.203125 -0.171875 0.3125 -0.171875q0.0625 0 0.109375 0.046875q0.046875 0.03125 0.078125 0.125q0.03125 0.078125 0.03125 0.21875q0.015625 0.125 0.015625 0.3125zm8.732574 1.234375q0 0.078125 -0.046875 0.140625q-0.03125 0.046875 -0.125 0.078125q-0.078125 0.03125 -0.234375 0.046875q-0.15625 0.015625 -0.390625 0.015625q-0.234375 0 -0.40625 -0.015625q-0.15625 0 -0.265625 -0.03125q-0.109375 -0.03125 -0.1875 -0.09375q-0.0625 -0.0625 -0.109375 -0.140625l-3.46875 -4.53125l0 4.53125q0 0.078125 -0.03125 0.140625q-0.03125 0.046875 -0.125 0.078125q-0.078125 0.03125 -0.21875 0.046875q-0.140625 0.015625 -0.375 0.015625q-0.21875 0 -0.375 -0.015625q-0.140625 -0.015625 -0.234375 -0.046875q-0.078125 -0.03125 -0.109375 -0.078125q-0.03125 -0.0625 -0.03125 -0.140625l0 -12.15625q0 -0.078125 0.03125 -0.125q0.03125 -0.0625 0.109375 -0.09375q0.09375 -0.046875 0.234375 -0.0625q0.15625 -0.015625 0.375 -0.015625q0.234375 0 0.375 0.015625q0.140625 0.015625 0.21875 0.0625q0.09375 0.03125 0.125 0.09375q0.03125 0.046875 0.03125 0.125l0 7.40625l3.109375 -3.40625q0.0625 -0.09375 0.140625 -0.140625q0.09375 -0.0625 0.203125 -0.109375q0.109375 -0.046875 0.265625 -0.046875q0.15625 -0.015625 0.375 -0.015625q0.234375 0 0.390625 0.015625q0.15625 0 0.25 0.03125q0.09375 0.03125 0.125 0.09375q0.046875 0.046875 0.046875 0.125q0 0.109375 -0.0625 0.21875q-0.0625 0.109375 -0.1875 0.25l-2.96875 2.984375l3.328125 4.3125q0.125 0.15625 0.171875 0.265625q0.046875 0.09375 0.046875 0.171875zm8.7465515 -4.453125q0 0.359375 -0.1875 0.515625q-0.171875 0.140625 -0.390625 0.140625l-5.375 0q0 0.6875 0.125 1.234375q0.140625 0.546875 0.453125 0.9375q0.328125 0.390625 0.828125 0.609375q0.515625 0.203125 1.25 0.203125q0.59375 0 1.046875 -0.09375q0.453125 -0.09375 0.78125 -0.203125q0.34375 -0.125 0.546875 -0.21875q0.21875 -0.109375 0.328125 -0.109375q0.0625 0 0.109375 0.03125q0.0625 0.03125 0.078125 0.109375q0.03125 0.0625 0.046875 0.171875q0.015625 0.109375 0.015625 0.28125q0 0.109375 -0.015625 0.203125q0 0.078125 -0.015625 0.15625q-0.015625 0.0625 -0.046875 0.125q-0.03125 0.046875 -0.09375 0.09375q-0.046875 0.046875 -0.296875 0.171875q-0.234375 0.109375 -0.625 0.21875q-0.390625 0.109375 -0.90625 0.1875q-0.515625 0.09375 -1.09375 0.09375q-1.015625 0 -1.78125 -0.28125q-0.765625 -0.28125 -1.28125 -0.828125q-0.515625 -0.5625 -0.78125 -1.390625q-0.265625 -0.84375 -0.265625 -1.96875q0 -1.046875 0.265625 -1.890625q0.28125 -0.84375 0.796875 -1.421875q0.515625 -0.59375 1.234375 -0.90625q0.734375 -0.328125 1.640625 -0.328125q0.96875 0 1.640625 0.3125q0.6875 0.3125 1.125 0.84375q0.4375 0.515625 0.640625 1.234375q0.203125 0.703125 0.203125 1.5l0 0.265625zm-1.515625 -0.4375q0.03125 -1.1875 -0.53125 -1.859375q-0.546875 -0.671875 -1.625 -0.671875q-0.5625 0 -0.984375 0.21875q-0.40625 0.203125 -0.6875 0.546875q-0.28125 0.34375 -0.4375 0.8125q-0.15625 0.453125 -0.171875 0.953125l4.4375 0zm8.063843 4.296875q0 0.265625 -0.046875 0.421875q-0.03125 0.15625 -0.109375 0.234375q-0.0625 0.0625 -0.21875 0.125q-0.140625 0.0625 -0.328125 0.09375q-0.1875 0.046875 -0.390625 0.078125q-0.203125 0.03125 -0.421875 0.03125q-0.640625 0 -1.09375 -0.171875q-0.453125 -0.171875 -0.75 -0.5q-0.28125 -0.34375 -0.421875 -0.859375q-0.125 -0.53125 -0.125 -1.25l0 -4.796875l-1.15625 0q-0.125 0 -0.21875 -0.140625q-0.078125 -0.140625 -0.078125 -0.46875q0 -0.171875 0.015625 -0.28125q0.03125 -0.125 0.0625 -0.203125q0.046875 -0.078125 0.09375 -0.109375q0.0625 -0.03125 0.140625 -0.03125l1.140625 0l0 -1.953125q0 -0.0625 0.03125 -0.109375q0.03125 -0.0625 0.109375 -0.109375q0.09375 -0.046875 0.234375 -0.0625q0.15625 -0.015625 0.375 -0.015625q0.21875 0 0.359375 0.015625q0.15625 0.015625 0.234375 0.0625q0.078125 0.046875 0.109375 0.109375q0.046875 0.046875 0.046875 0.109375l0 1.953125l2.109375 0q0.0625 0 0.109375 0.03125q0.0625 0.03125 0.109375 0.109375q0.046875 0.078125 0.0625 0.203125q0.015625 0.109375 0.015625 0.28125q0 0.328125 -0.078125 0.46875q-0.078125 0.140625 -0.21875 0.140625l-2.109375 0l0 4.578125q0 0.84375 0.25 1.28125q0.25 0.4375 0.90625 0.4375q0.203125 0 0.359375 -0.046875q0.171875 -0.046875 0.296875 -0.078125q0.125 -0.046875 0.21875 -0.09375q0.09375 -0.046875 0.171875 -0.046875q0.046875 0 0.078125 0.03125q0.046875 0.015625 0.0625 0.078125q0.03125 0.0625 0.046875 0.171875q0.015625 0.109375 0.015625 0.28125z" fill-rule="nonzero"/><path fill="#999999" d="m372.99213 464.93982l0 0c0 -5.076477 4.1152954 -9.191803 9.191772 -9.191803l81.74243 0c2.4378052 0 4.7757874 0.9684448 6.4995728 2.6922302c1.7237854 1.7237854 2.6921997 4.0617676 2.6921997 6.4995728l0 36.76602c0 5.0765076 -4.1152954 9.191803 -9.191772 9.191803l-81.74243 0c-5.076477 0 -9.191772 -4.1152954 -9.191772 -9.191803z" fill-rule="evenodd"/><path fill="#f3f3f3" d="m402.6499 488.57095q0 0.15625 -0.015625 0.265625q0 0.109375 -0.03125 0.1875q-0.015625 0.078125 -0.0625 0.140625q-0.03125 0.0625 -0.125 0.15625q-0.078125 0.09375 -0.375 0.28125q-0.296875 0.1875 -0.734375 0.375q-0.421875 0.171875 -0.984375 0.28125q-0.5625 0.125 -1.21875 0.125q-1.15625 0 -2.078125 -0.375q-0.921875 -0.390625 -1.578125 -1.125q-0.65625 -0.75 -1.0 -1.84375q-0.34375 -1.109375 -0.34375 -2.53125q0 -1.46875 0.375 -2.609375q0.375 -1.15625 1.046875 -1.953125q0.6875 -0.796875 1.640625 -1.21875q0.953125 -0.421875 2.109375 -0.421875q0.515625 0 1.0 0.109375q0.484375 0.09375 0.890625 0.234375q0.40625 0.140625 0.71875 0.34375q0.328125 0.1875 0.453125 0.3125q0.125 0.109375 0.15625 0.1875q0.03125 0.0625 0.046875 0.15625q0.03125 0.078125 0.046875 0.203125q0.015625 0.109375 0.015625 0.265625q0 0.1875 -0.015625 0.3125q-0.015625 0.125 -0.0625 0.21875q-0.03125 0.078125 -0.078125 0.125q-0.046875 0.046875 -0.125 0.046875q-0.125 0 -0.359375 -0.171875q-0.21875 -0.1875 -0.578125 -0.40625q-0.359375 -0.21875 -0.875 -0.390625q-0.515625 -0.171875 -1.234375 -0.171875q-0.78125 0 -1.4375 0.3125q-0.640625 0.3125 -1.09375 0.921875q-0.453125 0.609375 -0.703125 1.5q-0.25 0.875 -0.25 2.0q0 1.125 0.234375 1.984375q0.25 0.859375 0.703125 1.4375q0.453125 0.578125 1.109375 0.875q0.65625 0.296875 1.484375 0.296875q0.703125 0 1.21875 -0.171875q0.53125 -0.171875 0.890625 -0.390625q0.375 -0.21875 0.609375 -0.390625q0.234375 -0.171875 0.375 -0.171875q0.0625 0 0.109375 0.03125q0.046875 0.015625 0.0625 0.09375q0.03125 0.078125 0.046875 0.21875q0.015625 0.140625 0.015625 0.34375zm10.900696 1.109375q0.078125 0.203125 0.078125 0.328125q0 0.125 -0.078125 0.1875q-0.0625 0.0625 -0.234375 0.078125q-0.15625 0.015625 -0.453125 0.015625q-0.28125 0 -0.453125 -0.015625q-0.15625 0 -0.25 -0.03125q-0.078125 -0.03125 -0.125 -0.078125q-0.03125 -0.0625 -0.078125 -0.15625l-1.015625 -2.859375l-4.890625 0l-0.96875 2.828125q-0.03125 0.078125 -0.078125 0.140625q-0.046875 0.0625 -0.140625 0.109375q-0.078125 0.03125 -0.234375 0.046875q-0.15625 0.015625 -0.40625 0.015625q-0.265625 0 -0.4375 -0.015625q-0.171875 -0.015625 -0.25 -0.078125q-0.0625 -0.078125 -0.0625 -0.1875q0.015625 -0.125 0.09375 -0.328125l3.953125 -10.953125q0.03125 -0.09375 0.09375 -0.15625q0.0625 -0.0625 0.171875 -0.09375q0.109375 -0.046875 0.28125 -0.0625q0.1875 -0.015625 0.453125 -0.015625q0.296875 0 0.484375 0.015625q0.203125 0.015625 0.3125 0.0625q0.125 0.03125 0.1875 0.09375q0.0625 0.0625 0.09375 0.171875l3.953125 10.9375zm-5.078125 -9.65625l0 0l-2.03125 5.875l4.09375 0l-2.0625 -5.875zm15.951019 9.578125q0 0.171875 -0.0625 0.3125q-0.046875 0.125 -0.140625 0.203125q-0.09375 0.078125 -0.21875 0.125q-0.125 0.03125 -0.234375 0.03125l-0.5 0q-0.234375 0 -0.421875 -0.046875q-0.171875 -0.0625 -0.328125 -0.1875q-0.15625 -0.140625 -0.328125 -0.359375q-0.15625 -0.234375 -0.34375 -0.578125l-3.71875 -6.71875q-0.296875 -0.515625 -0.59375 -1.078125q-0.296875 -0.578125 -0.546875 -1.109375l-0.015625 0q0.015625 0.65625 0.015625 1.34375q0.015625 0.671875 0.015625 1.359375l0 7.109375q0 0.0625 -0.03125 0.125q-0.03125 0.0625 -0.125 0.09375q-0.078125 0.03125 -0.234375 0.046875q-0.140625 0.015625 -0.34375 0.015625q-0.21875 0 -0.375 -0.015625q-0.140625 -0.015625 -0.21875 -0.046875q-0.078125 -0.03125 -0.125 -0.09375q-0.03125 -0.0625 -0.03125 -0.125l0 -10.875q0 -0.375 0.203125 -0.515625q0.203125 -0.15625 0.4375 -0.15625l0.75 0q0.265625 0 0.4375 0.046875q0.1875 0.03125 0.328125 0.140625q0.140625 0.109375 0.265625 0.296875q0.140625 0.1875 0.28125 0.46875l2.859375 5.171875q0.265625 0.46875 0.515625 0.921875q0.25 0.453125 0.46875 0.890625q0.234375 0.4375 0.453125 0.859375q0.234375 0.421875 0.453125 0.859375l0 0q-0.015625 -0.71875 -0.03125 -1.5q0 -0.78125 0 -1.5l0 -6.40625q0 -0.0625 0.03125 -0.109375q0.046875 -0.0625 0.125 -0.09375q0.09375 -0.046875 0.234375 -0.0625q0.140625 -0.015625 0.375 -0.015625q0.203125 0 0.34375 0.015625q0.140625 0.015625 0.21875 0.0625q0.09375 0.03125 0.125 0.09375q0.03125 0.046875 0.03125 0.109375l0 10.890625zm10.511505 -3.796875q0 1.0625 -0.234375 1.921875q-0.234375 0.84375 -0.6875 1.453125q-0.453125 0.59375 -1.109375 0.921875q-0.640625 0.3125 -1.5 0.3125q-0.390625 0 -0.71875 -0.078125q-0.328125 -0.078125 -0.65625 -0.25q-0.3125 -0.171875 -0.640625 -0.4375q-0.3125 -0.265625 -0.671875 -0.640625l0 1.0q0 0.078125 -0.03125 0.140625q-0.03125 0.046875 -0.125 0.078125q-0.078125 0.03125 -0.203125 0.046875q-0.125 0.015625 -0.3125 0.015625q-0.171875 0 -0.3125 -0.015625q-0.125 -0.015625 -0.203125 -0.046875q-0.078125 -0.03125 -0.109375 -0.078125q-0.03125 -0.0625 -0.03125 -0.140625l0 -12.15625q0 -0.078125 0.03125 -0.125q0.03125 -0.0625 0.109375 -0.09375q0.09375 -0.046875 0.234375 -0.0625q0.15625 -0.015625 0.375 -0.015625q0.234375 0 0.375 0.015625q0.140625 0.015625 0.21875 0.0625q0.09375 0.03125 0.125 0.09375q0.03125 0.046875 0.03125 0.125l0 4.90625q0.375 -0.375 0.703125 -0.625q0.34375 -0.265625 0.671875 -0.421875q0.328125 -0.15625 0.65625 -0.234375q0.328125 -0.078125 0.703125 -0.078125q0.890625 0 1.515625 0.359375q0.640625 0.359375 1.03125 0.953125q0.40625 0.59375 0.578125 1.40625q0.1875 0.796875 0.1875 1.6875zm-1.59375 0.171875q0 -0.625 -0.09375 -1.21875q-0.09375 -0.59375 -0.328125 -1.046875q-0.234375 -0.453125 -0.625 -0.734375q-0.390625 -0.28125 -0.984375 -0.28125q-0.28125 0 -0.5625 0.09375q-0.28125 0.078125 -0.578125 0.265625q-0.296875 0.1875 -0.609375 0.5q-0.3125 0.296875 -0.671875 0.75l0 3.265625q0.625 0.765625 1.1875 1.15625q0.5625 0.390625 1.171875 0.390625q0.578125 0 0.96875 -0.265625q0.40625 -0.28125 0.65625 -0.71875q0.25 -0.453125 0.359375 -1.015625q0.109375 -0.5625 0.109375 -1.140625zm10.879944 4.03125q0 0.078125 -0.03125 0.140625q-0.03125 0.046875 -0.125 0.078125q-0.078125 0.03125 -0.21875 0.046875q-0.125 0.015625 -0.3125 0.015625q-0.203125 0 -0.34375 -0.015625q-0.125 -0.015625 -0.203125 -0.046875q-0.078125 -0.03125 -0.109375 -0.078125q-0.03125 -0.0625 -0.03125 -0.140625l0 -1.078125q-0.703125 0.78125 -1.390625 1.140625q-0.671875 0.34375 -1.375 0.34375q-0.8125 0 -1.375 -0.265625q-0.5625 -0.28125 -0.90625 -0.75q-0.34375 -0.46875 -0.5 -1.09375q-0.15625 -0.625 -0.15625 -1.515625l0 -4.96875q0 -0.078125 0.03125 -0.125q0.03125 -0.046875 0.125 -0.09375q0.09375 -0.046875 0.234375 -0.046875q0.15625 -0.015625 0.375 -0.015625q0.21875 0 0.359375 0.015625q0.140625 0 0.21875 0.046875q0.09375 0.046875 0.125 0.09375q0.046875 0.046875 0.046875 0.125l0 4.765625q0 0.71875 0.09375 1.15625q0.109375 0.4375 0.328125 0.75q0.21875 0.296875 0.546875 0.46875q0.328125 0.15625 0.765625 0.15625q0.5625 0 1.125 -0.390625q0.5625 -0.40625 1.1875 -1.1875l0 -5.71875q0 -0.078125 0.03125 -0.125q0.03125 -0.046875 0.125 -0.09375q0.09375 -0.046875 0.234375 -0.046875q0.140625 -0.015625 0.359375 -0.015625q0.21875 0 0.359375 0.015625q0.15625 0 0.234375 0.046875q0.078125 0.046875 0.125 0.09375q0.046875 0.046875 0.046875 0.125l0 8.1875zm7.926819 -2.21875q0 0.625 -0.234375 1.125q-0.234375 0.484375 -0.671875 0.828125q-0.421875 0.328125 -1.015625 0.5q-0.59375 0.171875 -1.296875 0.171875q-0.4375 0 -0.84375 -0.078125q-0.390625 -0.0625 -0.703125 -0.15625q-0.3125 -0.109375 -0.53125 -0.21875q-0.21875 -0.125 -0.328125 -0.203125q-0.09375 -0.09375 -0.140625 -0.25q-0.046875 -0.171875 -0.046875 -0.453125q0 -0.171875 0.015625 -0.296875q0.03125 -0.125 0.046875 -0.1875q0.03125 -0.078125 0.078125 -0.109375q0.046875 -0.03125 0.125 -0.03125q0.09375 0 0.28125 0.125q0.203125 0.125 0.484375 0.265625q0.296875 0.140625 0.6875 0.265625q0.390625 0.125 0.90625 0.125q0.375 0 0.6875 -0.078125q0.3125 -0.078125 0.53125 -0.234375q0.234375 -0.171875 0.359375 -0.40625q0.125 -0.25 0.125 -0.59375q0 -0.34375 -0.1875 -0.578125q-0.171875 -0.234375 -0.46875 -0.421875q-0.28125 -0.1875 -0.65625 -0.328125q-0.359375 -0.140625 -0.75 -0.296875q-0.390625 -0.15625 -0.765625 -0.34375q-0.359375 -0.203125 -0.65625 -0.484375q-0.28125 -0.28125 -0.46875 -0.671875q-0.171875 -0.390625 -0.171875 -0.9375q0 -0.484375 0.1875 -0.921875q0.1875 -0.4375 0.5625 -0.765625q0.375 -0.34375 0.921875 -0.546875q0.5625 -0.203125 1.3125 -0.203125q0.328125 0 0.65625 0.0625q0.328125 0.046875 0.59375 0.140625q0.265625 0.078125 0.453125 0.171875q0.1875 0.09375 0.28125 0.171875q0.09375 0.078125 0.125 0.140625q0.03125 0.046875 0.046875 0.109375q0.015625 0.0625 0.03125 0.171875q0.015625 0.09375 0.015625 0.234375q0 0.15625 -0.015625 0.28125q-0.015625 0.109375 -0.046875 0.1875q-0.03125 0.0625 -0.078125 0.09375q-0.046875 0.03125 -0.09375 0.03125q-0.09375 0 -0.25 -0.09375q-0.140625 -0.09375 -0.390625 -0.203125q-0.25 -0.125 -0.578125 -0.21875q-0.328125 -0.109375 -0.765625 -0.109375q-0.375 0 -0.671875 0.09375q-0.296875 0.078125 -0.484375 0.25q-0.1875 0.15625 -0.28125 0.375q-0.09375 0.21875 -0.09375 0.46875q0 0.359375 0.171875 0.609375q0.1875 0.234375 0.484375 0.421875q0.296875 0.171875 0.671875 0.328125q0.375 0.140625 0.75 0.296875q0.390625 0.140625 0.765625 0.34375q0.390625 0.1875 0.671875 0.46875q0.296875 0.265625 0.46875 0.65625q0.1875 0.375 0.1875 0.90625z" fill-rule="nonzero"/><path fill="#000000" fill-opacity="0.0" d="m282.929 397.1691l0 29.289581l-140.12598 0l0 29.29309" fill-rule="evenodd"/><path stroke="#7f7f7f" stroke-width="1.0" stroke-linejoin="round" stroke-linecap="butt" d="m282.929 403.1691l0 23.28955l-140.12598 0l0 23.293121" fill-rule="evenodd"/><path fill="#7f7f7f" stroke="#7f7f7f" stroke-width="1.0" stroke-linecap="butt" d="m284.58072 403.1691l-1.6517334 -4.5381165l-1.6517334 4.5381165z" fill-rule="evenodd"/><path fill="#7f7f7f" stroke="#7f7f7f" stroke-width="1.0" stroke-linecap="butt" d="m141.15129 449.75177l1.6517181 4.538086l1.6517334 -4.538086z" fill-rule="evenodd"/><path fill="#000000" fill-opacity="0.0" d="m282.92914 455.74802l0 -29.28955l0.06298828 0l0 -29.293121" fill-rule="evenodd"/><path stroke="#7f7f7f" stroke-width="1.0" stroke-linejoin="round" stroke-linecap="butt" d="m282.92914 449.74802l0 -23.28955l0.06298828 0l0 -23.293121" fill-rule="evenodd"/><path fill="#7f7f7f" stroke="#7f7f7f" stroke-width="1.0" stroke-linecap="butt" d="m281.2774 449.74805l1.6517334 4.538086l1.6517334 -4.538086z" fill-rule="evenodd"/><path fill="#7f7f7f" stroke="#7f7f7f" stroke-width="1.0" stroke-linecap="butt" d="m284.64386 403.16534l-1.6517334 -4.538086l-1.6517334 4.538086z" fill-rule="evenodd"/><path fill="#000000" fill-opacity="0.0" d="m423.0551 455.74802l0 -29.28955l-140.12598 0l0 -29.293121" fill-rule="evenodd"/><path stroke="#7f7f7f" stroke-width="1.0" stroke-linejoin="round" stroke-linecap="butt" d="m423.0551 449.74802l0 -23.28955l-140.12598 0l0 -23.293121" fill-rule="evenodd"/><path fill="#7f7f7f" stroke="#7f7f7f" stroke-width="1.0" stroke-linecap="butt" d="m421.40338 449.74805l1.6517334 4.538086l1.6517334 -4.538086z" fill-rule="evenodd"/><path fill="#7f7f7f" stroke="#7f7f7f" stroke-width="1.0" stroke-linecap="butt" d="m284.58087 403.16534l-1.6517334 -4.538086l-1.6517334 4.538086z" fill-rule="evenodd"/><path fill="#d2d2d2" d="m14.086615 315.96472l110.808624 0l0 59.779175c-55.40133 0 -55.40133 23.0 -110.808624 11.5zm9.129272 0l0 -7.75l110.05183 0l0 60.154175c-4.183258 0 -8.372475 0.4166565 -8.372475 0.4166565l0 -52.82083zm8.581039 -7.75l0 -7.5625l111.00527 0l0 59.966675c-4.7672424 0 -9.534485 0.3125 -9.534485 0.3125l0 -52.716675z" fill-rule="evenodd"/><path fill="#000000" fill-opacity="0.0" d="m14.086615 315.96472l110.808624 0l0 59.779175c-55.40133 0 -55.40133 23.0 -110.808624 11.5zm9.129272 0l0 -7.75l110.05183 0l0 60.154175c-4.183258 0 -8.372475 0.4166565 -8.372475 0.4166565m-93.09831 -60.57083l0 -7.5625l111.00527 0l0 59.966675c-4.7672424 0 -9.534485 0.3125 -9.534485 0.3125" fill-rule="evenodd"/><path fill="#000000" fill-opacity="0.0" d="m14.086615 387.2439c55.407295 11.5 55.407295 -11.5 110.808624 -11.5l0 -6.9583435c0 0 4.1892166 -0.4166565 8.372475 -0.4166565l0 -7.4375c0 0 4.7672424 -0.3125 9.534485 -0.3125l0 -59.966675l-111.00527 0l0 7.5625l-8.581039 0l0 7.75l-9.129272 0z" fill-rule="evenodd"/><path stroke="#7f7f7f" stroke-width="1.0" stroke-linejoin="round" stroke-linecap="butt" d="m14.086615 315.96472l110.808624 0l0 59.779175c-55.40133 0 -55.40133 23.0 -110.808624 11.5zm9.129272 0l0 -7.75l110.05183 0l0 60.154175c-4.183258 0 -8.372475 0.4166565 -8.372475 0.4166565m-93.09831 -60.57083l0 -7.5625l111.00527 0l0 59.966675c-4.7672424 0 -9.534485 0.3125 -9.534485 0.3125" fill-rule="evenodd"/><path fill="#000000" d="m31.899115 339.1962q0 0.875 -0.296875 1.59375q-0.296875 0.703125 -0.84375 1.203125q-0.53125 0.5 -1.328125 0.78125q-0.78125 0.265625 -1.875 0.265625l-1.328125 0l0 4.25q0 0.078125 -0.046875 0.140625q-0.046875 0.046875 -0.140625 0.078125q-0.078125 0.03125 -0.234375 0.046875q-0.140625 0.015625 -0.375 0.015625q-0.21875 0 -0.375 -0.015625q-0.140625 -0.015625 -0.234375 -0.046875q-0.09375 -0.03125 -0.140625 -0.078125q-0.03125 -0.0625 -0.03125 -0.140625l0 -10.875q0 -0.375 0.1875 -0.515625q0.203125 -0.15625 0.4375 -0.15625l2.515625 0q0.390625 0 0.734375 0.03125q0.359375 0.03125 0.828125 0.140625q0.484375 0.09375 0.984375 0.390625q0.5 0.28125 0.84375 0.703125q0.34375 0.40625 0.53125 0.96875q0.1875 0.546875 0.1875 1.21875zm-1.65625 0.125q0 -0.71875 -0.265625 -1.203125q-0.265625 -0.484375 -0.671875 -0.71875q-0.390625 -0.234375 -0.8125 -0.296875q-0.421875 -0.078125 -0.828125 -0.078125l-1.4375 0l0 4.734375l1.40625 0q0.703125 0 1.171875 -0.171875q0.46875 -0.1875 0.78125 -0.515625q0.328125 -0.328125 0.484375 -0.765625q0.171875 -0.453125 0.171875 -0.984375zm5.372221 7.96875q0 0.078125 -0.03125 0.140625q-0.03125 0.046875 -0.125 0.078125q-0.078125 0.03125 -0.21875 0.046875q-0.140625 0.015625 -0.375 0.015625q-0.21875 0 -0.375 -0.015625q-0.140625 -0.015625 -0.234375 -0.046875q-0.078125 -0.03125 -0.109375 -0.078125q-0.03125 -0.0625 -0.03125 -0.140625l0 -12.15625q0 -0.078125 0.03125 -0.125q0.03125 -0.0625 0.109375 -0.09375q0.09375 -0.046875 0.234375 -0.0625q0.15625 -0.015625 0.375 -0.015625q0.234375 0 0.375 0.015625q0.140625 0.015625 0.21875 0.0625q0.09375 0.03125 0.125 0.09375q0.03125 0.046875 0.03125 0.125l0 12.15625zm9.812714 0q0 0.078125 -0.03125 0.140625q-0.03125 0.046875 -0.125 0.078125q-0.078125 0.03125 -0.21875 0.046875q-0.125 0.015625 -0.3125 0.015625q-0.203125 0 -0.34375 -0.015625q-0.125 -0.015625 -0.203125 -0.046875q-0.078125 -0.03125 -0.109375 -0.078125q-0.03125 -0.0625 -0.03125 -0.140625l0 -1.078125q-0.703125 0.78125 -1.390625 1.140625q-0.671875 0.34375 -1.375 0.34375q-0.8125 0 -1.375 -0.265625q-0.5625 -0.28125 -0.90625 -0.75q-0.34375 -0.46875 -0.5 -1.09375q-0.15625 -0.625 -0.15625 -1.515625l0 -4.96875q0 -0.078125 0.03125 -0.125q0.03125 -0.046875 0.125 -0.09375q0.09375 -0.046875 0.234375 -0.046875q0.15625 -0.015625 0.375 -0.015625q0.21875 0 0.359375 0.015625q0.140625 0 0.21875 0.046875q0.09375 0.046875 0.125 0.09375q0.046875 0.046875 0.046875 0.125l0 4.765625q0 0.71875 0.09375 1.15625q0.109375 0.4375 0.328125 0.75q0.21875 0.296875 0.546875 0.46875q0.328125 0.15625 0.765625 0.15625q0.5625 0 1.125 -0.390625q0.5625 -0.40625 1.1875 -1.1875l0 -5.71875q0 -0.078125 0.03125 -0.125q0.03125 -0.046875 0.125 -0.09375q0.09375 -0.046875 0.234375 -0.046875q0.140625 -0.015625 0.359375 -0.015625q0.21875 0 0.359375 0.015625q0.15625 0 0.234375 0.046875q0.078125 0.046875 0.125 0.09375q0.046875 0.046875 0.046875 0.125l0 8.1875zm9.629944 -7.8125q0 0.3125 -0.09375 0.453125q-0.078125 0.140625 -0.21875 0.140625l-1.171875 0q0.3125 0.328125 0.4375 0.734375q0.125 0.390625 0.125 0.8125q0 0.71875 -0.234375 1.265625q-0.21875 0.546875 -0.640625 0.921875q-0.421875 0.375 -1.015625 0.578125q-0.578125 0.203125 -1.28125 0.203125q-0.5 0 -0.953125 -0.125q-0.453125 -0.140625 -0.703125 -0.34375q-0.15625 0.15625 -0.265625 0.375q-0.109375 0.203125 -0.109375 0.484375q0 0.3125 0.296875 0.53125q0.296875 0.203125 0.796875 0.21875l2.140625 0.09375q0.609375 0.015625 1.109375 0.171875q0.515625 0.140625 0.890625 0.421875q0.375 0.28125 0.578125 0.6875q0.21875 0.40625 0.21875 0.9375q0 0.5625 -0.25 1.078125q-0.234375 0.515625 -0.71875 0.890625q-0.484375 0.390625 -1.25 0.609375q-0.75 0.234375 -1.78125 0.234375q-0.984375 0 -1.6875 -0.171875q-0.6875 -0.171875 -1.140625 -0.46875q-0.4375 -0.28125 -0.640625 -0.6875q-0.203125 -0.40625 -0.203125 -0.875q0 -0.3125 0.0625 -0.59375q0.078125 -0.28125 0.21875 -0.53125q0.15625 -0.25 0.375 -0.484375q0.234375 -0.234375 0.53125 -0.46875q-0.453125 -0.21875 -0.671875 -0.5625q-0.203125 -0.359375 -0.203125 -0.75q0 -0.5625 0.21875 -1.0q0.234375 -0.4375 0.5625 -0.78125q-0.28125 -0.328125 -0.453125 -0.75q-0.15625 -0.4375 -0.15625 -1.03125q0 -0.703125 0.234375 -1.25q0.25 -0.5625 0.65625 -0.9375q0.421875 -0.390625 1.015625 -0.59375q0.59375 -0.203125 1.28125 -0.203125q0.375 0 0.6875 0.046875q0.328125 0.03125 0.609375 0.109375l2.484375 0q0.15625 0 0.234375 0.15625q0.078125 0.140625 0.078125 0.453125zm-2.359375 2.15625q0 -0.84375 -0.46875 -1.3125q-0.453125 -0.46875 -1.296875 -0.46875q-0.4375 0 -0.765625 0.15625q-0.3125 0.140625 -0.53125 0.390625q-0.21875 0.25 -0.328125 0.59375q-0.09375 0.328125 -0.09375 0.6875q0 0.8125 0.453125 1.28125q0.46875 0.46875 1.296875 0.46875q0.4375 0 0.765625 -0.140625q0.328125 -0.140625 0.546875 -0.390625q0.21875 -0.25 0.3125 -0.578125q0.109375 -0.328125 0.109375 -0.6875zm0.765625 6.484375q0 -0.515625 -0.4375 -0.796875q-0.4375 -0.296875 -1.171875 -0.3125l-2.125 -0.078125q-0.296875 0.234375 -0.484375 0.4375q-0.171875 0.203125 -0.28125 0.390625q-0.109375 0.1875 -0.15625 0.359375q-0.046875 0.1875 -0.046875 0.375q0 0.59375 0.59375 0.890625q0.609375 0.3125 1.6875 0.3125q0.6875 0 1.140625 -0.140625q0.46875 -0.125 0.75 -0.34375q0.28125 -0.21875 0.40625 -0.5q0.125 -0.28125 0.125 -0.59375zm7.20343 -5.1875q0 0.34375 -0.078125 0.484375q-0.078125 0.140625 -0.234375 0.140625l-3.8125 0q-0.15625 0 -0.25 -0.140625q-0.078125 -0.140625 -0.078125 -0.484375q0 -0.359375 0.078125 -0.484375q0.09375 -0.140625 0.25 -0.140625l3.8125 0q0.078125 0 0.125 0.03125q0.0625 0.015625 0.09375 0.09375q0.046875 0.078125 0.0625 0.203125q0.03125 0.125 0.03125 0.296875zm3.5241585 4.359375q0 0.078125 -0.03125 0.140625q-0.03125 0.046875 -0.125 0.078125q-0.078128815 0.03125 -0.21875381 0.046875q-0.140625 0.015625 -0.375 0.015625q-0.21875 0 -0.375 -0.015625q-0.140625 -0.015625 -0.234375 -0.046875q-0.078125 -0.03125 -0.109375 -0.078125q-0.03125 -0.0625 -0.03125 -0.140625l0 -8.1875q0 -0.0625 0.03125 -0.109375q0.03125 -0.0625 0.109375 -0.09375q0.09375 -0.046875 0.234375 -0.0625q0.15625 -0.015625 0.375 -0.015625q0.234375 0 0.375 0.015625q0.140625 0.015625 0.21875381 0.0625q0.09375 0.03125 0.125 0.09375q0.03125 0.046875 0.03125 0.109375l0 8.1875zm0.171875 -10.96875q0 0.53125 -0.203125 0.734375q-0.18750381 0.1875 -0.7343788 0.1875q-0.515625 0 -0.71875 -0.1875q-0.1875 -0.1875 -0.1875 -0.703125q0 -0.53125 0.1875 -0.71875q0.203125 -0.203125 0.75 -0.203125q0.515625 0 0.7031288 0.1875q0.203125 0.1875 0.203125 0.703125zm9.672089 10.96875q0 0.078125 -0.046875 0.140625q-0.03125 0.046875 -0.109375 0.078125q-0.078125 0.03125 -0.234375 0.046875q-0.140625 0.015625 -0.359375 0.015625q-0.21875 0 -0.375 -0.015625q-0.140625 -0.015625 -0.234375 -0.046875q-0.078125 -0.03125 -0.109375 -0.078125q-0.03125 -0.0625 -0.03125 -0.140625l0 -4.796875q0 -0.703125 -0.109375 -1.125q-0.109375 -0.4375 -0.328125 -0.734375q-0.203125 -0.3125 -0.546875 -0.46875q-0.328125 -0.171875 -0.765625 -0.171875q-0.5625 0 -1.125 0.40625q-0.5625 0.390625 -1.1875 1.171875l0 5.71875q0 0.078125 -0.03125 0.140625q-0.03125 0.046875 -0.125 0.078125q-0.078125 0.03125 -0.21875 0.046875q-0.140625 0.015625 -0.375 0.015625q-0.21875 0 -0.375 -0.015625q-0.140625 -0.015625 -0.234375 -0.046875q-0.078125 -0.03125 -0.109375 -0.078125q-0.03125 -0.0625 -0.03125 -0.140625l0 -8.1875q0 -0.078125 0.03125 -0.125q0.03125 -0.046875 0.109375 -0.09375q0.078125 -0.046875 0.203125 -0.046875q0.140625 -0.015625 0.34375 -0.015625q0.203125 0 0.328125 0.015625q0.140625 0 0.203125 0.046875q0.078125 0.046875 0.109375 0.09375q0.03125 0.046875 0.03125 0.125l0 1.078125q0.6875 -0.765625 1.375 -1.125q0.6875 -0.375 1.390625 -0.375q0.828125 0 1.375 0.28125q0.5625 0.28125 0.90625 0.75q0.359375 0.46875 0.5 1.09375q0.15625 0.609375 0.15625 1.484375l0 5.0z" fill-rule="nonzero"/><path fill="#000000" d="m33.477238 368.96182q0.078125 0.203125 0.078125 0.328125q0 0.125 -0.078125 0.1875q-0.0625 0.0625 -0.234375 0.078125q-0.15625 0.015625 -0.453125 0.015625q-0.28125 0 -0.453125 -0.015625q-0.15625 0 -0.25 -0.03125q-0.078125 -0.03125 -0.12499809 -0.078125q-0.03125 -0.0625 -0.078125 -0.15625l-1.015625 -2.859375l-4.890625 0l-0.96875 2.828125q-0.03125 0.078125 -0.078125 0.140625q-0.046875 0.0625 -0.140625 0.109375q-0.078125 0.03125 -0.234375 0.046875q-0.15625 0.015625 -0.40625 0.015625q-0.265625 0 -0.4375 -0.015625q-0.171875 -0.015625 -0.25 -0.078125q-0.0625 -0.078125 -0.0625 -0.1875q0.015625 -0.125 0.09375 -0.328125l3.953125 -10.953125q0.03125 -0.09375 0.09375 -0.15625q0.0625 -0.0625 0.171875 -0.09375q0.109375 -0.046875 0.28125 -0.0625q0.1875 -0.015625 0.453125 -0.015625q0.296875 0 0.484375 0.015625q0.203125 0.015625 0.3125 0.0625q0.125 0.03125 0.1875 0.09375q0.0625 0.0625 0.09375 0.171875l3.953123 10.9375zm-5.078123 -9.65625l0 0l-2.03125 5.875l4.09375 0l-2.0625 -5.875zm13.904127 9.984375q0 0.078125 -0.03125 0.140625q-0.03125 0.046875 -0.109375 0.078125q-0.078125 0.03125 -0.21875 0.046875q-0.125 0.015625 -0.296875 0.015625q-0.203125 0 -0.328125 -0.015625q-0.125 -0.015625 -0.203125 -0.046875q-0.078125 -0.03125 -0.125 -0.078125q-0.03125 -0.0625 -0.03125 -0.140625l0 -1.078125q-0.640625 0.703125 -1.34375 1.09375q-0.703125 0.390625 -1.53125 0.390625q-0.890625 0 -1.53125 -0.34375q-0.640625 -0.359375 -1.046875 -0.953125q-0.390625 -0.59375 -0.578125 -1.390625q-0.171875 -0.8125 -0.171875 -1.71875q0 -1.046875 0.21875 -1.890625q0.234375 -0.859375 0.671875 -1.453125q0.453125 -0.609375 1.109375 -0.9375q0.671875 -0.328125 1.53125 -0.328125q0.71875 0 1.3125 0.328125q0.609375 0.3125 1.1875 0.921875l0 -4.765625q0 -0.0625 0.03125 -0.125q0.03125 -0.0625 0.125 -0.09375q0.09375 -0.03125 0.234375 -0.046875q0.140625 -0.03125 0.359375 -0.03125q0.21875 0 0.359375 0.03125q0.15625 0.015625 0.234375 0.046875q0.078125 0.03125 0.125 0.09375q0.046875 0.0625 0.046875 0.125l0 12.125zm-1.515625 -5.765625q-0.609375 -0.75 -1.1875 -1.140625q-0.5625 -0.40625 -1.1875 -0.40625q-0.5625 0 -0.96875 0.28125q-0.40625 0.265625 -0.65625 0.71875q-0.25 0.4375 -0.359375 1.015625q-0.109375 0.5625 -0.109375 1.140625q0 0.625 0.09375 1.21875q0.09375 0.578125 0.328125 1.046875q0.234375 0.453125 0.625 0.734375q0.390625 0.28125 0.984375 0.28125q0.296875 0 0.578125 -0.078125q0.28125 -0.09375 0.5625 -0.28125q0.296875 -0.1875 0.609375 -0.484375q0.328125 -0.3125 0.6875 -0.765625l0 -3.28125zm10.458069 5.78125q0 0.109375 -0.078125 0.171875q-0.0625 0.046875 -0.1875 0.0625q-0.125 0.03125 -0.375 0.03125q-0.234375 0 -0.375 -0.03125q-0.140625 -0.015625 -0.203125 -0.0625q-0.0625 -0.0625 -0.0625 -0.171875l0 -0.8125q-0.546875 0.5625 -1.203125 0.890625q-0.65625 0.3125 -1.390625 0.3125q-0.65625 0 -1.1875 -0.171875q-0.515625 -0.15625 -0.890625 -0.46875q-0.359375 -0.328125 -0.5625 -0.796875q-0.203125 -0.46875 -0.203125 -1.0625q0 -0.6875 0.28125 -1.1875q0.28125 -0.515625 0.796875 -0.84375q0.53125 -0.34375 1.296875 -0.515625q0.765625 -0.171875 1.734375 -0.171875l1.125 0l0 -0.640625q0 -0.46875 -0.109375 -0.828125q-0.09375 -0.375 -0.328125 -0.609375q-0.21875 -0.25 -0.578125 -0.359375q-0.34375 -0.125 -0.859375 -0.125q-0.5625 0 -1.0 0.140625q-0.4375 0.125 -0.78125 0.28125q-0.328125 0.15625 -0.546875 0.296875q-0.21875 0.125 -0.328125 0.125q-0.078125 0 -0.140625 -0.03125q-0.046875 -0.046875 -0.09375 -0.109375q-0.03125 -0.078125 -0.0625 -0.1875q-0.015625 -0.125 -0.015625 -0.25q0 -0.234375 0.03125 -0.359375q0.03125 -0.140625 0.15625 -0.25q0.125 -0.125 0.421875 -0.28125q0.3125 -0.171875 0.703125 -0.296875q0.390625 -0.125 0.84375 -0.21875q0.46875 -0.09375 0.953125 -0.09375q0.875 0 1.484375 0.203125q0.625 0.203125 1.0 0.59375q0.390625 0.390625 0.5625 0.96875q0.171875 0.5625 0.171875 1.328125l0 5.53125zm-1.484375 -3.75l-1.28125 0q-0.625 0 -1.078125 0.109375q-0.453125 0.109375 -0.765625 0.3125q-0.296875 0.203125 -0.4375 0.5q-0.140625 0.28125 -0.140625 0.65625q0 0.625 0.40625 1.015625q0.40625 0.375 1.140625 0.375q0.59375 0 1.09375 -0.296875q0.5 -0.3125 1.0625 -0.921875l0 -1.75zm11.795792 -0.484375q0 1.078125 -0.234375 1.9375q-0.234375 0.84375 -0.6875 1.453125q-0.453125 0.59375 -1.125 0.921875q-0.65625 0.3125 -1.5 0.3125q-0.375 0 -0.6875 -0.078125q-0.296875 -0.0625 -0.59375 -0.21875q-0.296875 -0.15625 -0.59375 -0.390625q-0.296875 -0.234375 -0.625 -0.5625l0 4.109375q0 0.0625 -0.03125 0.109375q-0.03125 0.0625 -0.125 0.09375q-0.078125 0.046875 -0.21875 0.0625q-0.140625 0.015625 -0.375 0.015625q-0.21875 0 -0.375 -0.015625q-0.140625 -0.015625 -0.234375 -0.0625q-0.078125 -0.03125 -0.109375 -0.09375q-0.03125 -0.046875 -0.03125 -0.109375l0 -11.453125q0 -0.09375 0.03125 -0.140625q0.03125 -0.046875 0.109375 -0.078125q0.078125 -0.046875 0.203125 -0.046875q0.140625 -0.015625 0.3125 -0.015625q0.1875 0 0.3125 0.015625q0.125 0 0.203125 0.046875q0.09375 0.03125 0.125 0.078125q0.03125 0.046875 0.03125 0.140625l0 1.09375q0.375 -0.375 0.71875 -0.65625q0.34375 -0.28125 0.6875 -0.46875q0.359375 -0.1875 0.71875 -0.28125q0.375 -0.109375 0.78125 -0.109375q0.890625 0 1.515625 0.359375q0.640625 0.34375 1.03125 0.953125q0.40625 0.59375 0.578125 1.390625q0.1875 0.796875 0.1875 1.6875zm-1.59375 0.171875q0 -0.625 -0.09375 -1.203125q-0.09375 -0.59375 -0.328125 -1.046875q-0.21875 -0.46875 -0.625 -0.734375q-0.390625 -0.28125 -0.96875 -0.28125q-0.296875 0 -0.578125 0.09375q-0.28125 0.078125 -0.578125 0.265625q-0.28125 0.1875 -0.609375 0.5q-0.3125 0.296875 -0.671875 0.75l0 3.265625q0.625 0.75 1.171875 1.15625q0.5625 0.390625 1.171875 0.390625q0.5625 0 0.96875 -0.265625q0.40625 -0.28125 0.65625 -0.734375q0.25 -0.453125 0.359375 -1.015625q0.125 -0.5625 0.125 -1.140625zm8.114323 3.453125q0 0.265625 -0.046875 0.421875q-0.03125 0.15625 -0.109375 0.234375q-0.0625 0.0625 -0.21875 0.125q-0.140625 0.0625 -0.328125 0.09375q-0.1875 0.046875 -0.390625 0.078125q-0.203125 0.03125 -0.421875 0.03125q-0.640625 0 -1.09375 -0.171875q-0.453125 -0.171875 -0.75 -0.5q-0.28125 -0.34375 -0.421875 -0.859375q-0.125 -0.53125 -0.125 -1.25l0 -4.796875l-1.1562538 0q-0.125 0 -0.21875 -0.140625q-0.078125 -0.140625 -0.078125 -0.46875q0 -0.171875 0.015625 -0.28125q0.03125 -0.125 0.0625 -0.203125q0.046875 -0.078125 0.09375 -0.109375q0.0625 -0.03125 0.140625 -0.03125l1.1406288 0l0 -1.953125q0 -0.0625 0.03125 -0.109375q0.03125 -0.0625 0.109375 -0.109375q0.09375 -0.046875 0.234375 -0.0625q0.15625 -0.015625 0.375 -0.015625q0.21875 0 0.359375 0.015625q0.15625 0.015625 0.234375 0.0625q0.078125 0.046875 0.109375 0.109375q0.046875 0.046875 0.046875 0.109375l0 1.953125l2.109375 0q0.0625 0 0.109375 0.03125q0.0625 0.03125 0.109375 0.109375q0.046875 0.078125 0.0625 0.203125q0.015625 0.109375 0.015625 0.28125q0 0.328125 -0.078125 0.46875q-0.078125 0.140625 -0.21875 0.140625l-2.109375 0l0 4.578125q0 0.84375 0.25 1.28125q0.25 0.4375 0.90625 0.4375q0.203125 0 0.359375 -0.046875q0.171875 -0.046875 0.296875 -0.078125q0.125 -0.046875 0.21875 -0.09375q0.09375 -0.046875 0.171875 -0.046875q0.046875 0 0.078125 0.03125q0.046875 0.015625 0.0625 0.078125q0.03125 0.0625 0.046875 0.171875q0.015625 0.109375 0.015625 0.28125zm8.98349 -3.859375q0 0.359375 -0.1875 0.515625q-0.171875 0.140625 -0.390625 0.140625l-5.375 0q0 0.6875 0.125 1.234375q0.140625 0.546875 0.453125 0.9375q0.328125 0.390625 0.828125 0.609375q0.515625 0.203125 1.25 0.203125q0.59375 0 1.046875 -0.09375q0.453125 -0.09375 0.78125 -0.203125q0.34375 -0.125 0.546875 -0.21875q0.21875 -0.109375 0.328125 -0.109375q0.0625 0 0.109375 0.03125q0.0625 0.03125 0.078125 0.109375q0.03125 0.0625 0.046875 0.171875q0.015625 0.109375 0.015625 0.28125q0 0.109375 -0.015625 0.203125q0 0.078125 -0.015625 0.15625q-0.015625 0.0625 -0.046875 0.125q-0.03125 0.046875 -0.09375 0.09375q-0.046875 0.046875 -0.296875 0.171875q-0.234375 0.109375 -0.625 0.21875q-0.390625 0.109375 -0.90625 0.1875q-0.515625 0.09375 -1.09375 0.09375q-1.015625 0 -1.78125 -0.28125q-0.765625 -0.28125 -1.28125 -0.828125q-0.515625 -0.5625 -0.78125 -1.390625q-0.265625 -0.84375 -0.265625 -1.96875q0 -1.046875 0.265625 -1.890625q0.28125 -0.84375 0.796875 -1.421875q0.515625 -0.59375 1.234375 -0.90625q0.734375 -0.328125 1.640625 -0.328125q0.96875 0 1.640625 0.3125q0.6875 0.3125 1.125 0.84375q0.4375 0.515625 0.640625 1.234375q0.203125 0.703125 0.203125 1.5l0 0.265625zm-1.515625 -0.4375q0.03125 -1.1875 -0.53125 -1.859375q-0.546875 -0.671875 -1.625 -0.671875q-0.5625 0 -0.984375 0.21875q-0.40625 0.203125 -0.6875 0.546875q-0.28125 0.34375 -0.4375 0.8125q-0.15625 0.453125 -0.171875 0.953125l4.4375 0zm8.5950775 -2.765625q0 0.203125 -0.015625 0.34375q0 0.125 -0.03125 0.203125q-0.03125 0.078125 -0.078125 0.125q-0.03125 0.046875 -0.109375 0.046875q-0.0625 0 -0.171875 -0.046875q-0.109375 -0.046875 -0.25 -0.078125q-0.125 -0.046875 -0.296875 -0.078125q-0.15625 -0.046875 -0.34375 -0.046875q-0.21875 0 -0.4375 0.09375q-0.21875 0.09375 -0.46875 0.3125q-0.234375 0.203125 -0.5 0.546875q-0.265625 0.34375 -0.59375 0.84375l0 5.390625q0 0.078125 -0.03125 0.140625q-0.03125 0.046875 -0.125 0.078125q-0.078125 0.03125 -0.21875 0.046875q-0.140625 0.015625 -0.375 0.015625q-0.21875 0 -0.375 -0.015625q-0.140625 -0.015625 -0.234375 -0.046875q-0.078125 -0.03125 -0.109375 -0.078125q-0.03125 -0.0625 -0.03125 -0.140625l0 -8.1875q0 -0.078125 0.03125 -0.125q0.03125 -0.046875 0.109375 -0.09375q0.078125 -0.046875 0.203125 -0.046875q0.140625 -0.015625 0.34375 -0.015625q0.203125 0 0.328125 0.015625q0.140625 0 0.203125 0.046875q0.078125 0.046875 0.109375 0.09375q0.03125 0.046875 0.03125 0.125l0 1.1875q0.34375 -0.484375 0.640625 -0.796875q0.296875 -0.3125 0.546875 -0.484375q0.265625 -0.1875 0.53125 -0.25q0.265625 -0.078125 0.515625 -0.078125q0.125 0 0.265625 0.015625q0.15625 0.015625 0.3125 0.0625q0.171875 0.03125 0.296875 0.078125q0.140625 0.046875 0.1875 0.09375q0.0625 0.046875 0.078125 0.09375q0.03125 0.03125 0.03125 0.09375q0.015625 0.0625 0.015625 0.1875q0.015625 0.125 0.015625 0.328125zm6.863556 5.4375q0 0.625 -0.234375 1.125q-0.234375 0.484375 -0.671875 0.828125q-0.421875 0.328125 -1.015625 0.5q-0.59375 0.171875 -1.296875 0.171875q-0.4375 0 -0.84375 -0.078125q-0.390625 -0.0625 -0.703125 -0.15625q-0.3125 -0.109375 -0.53125 -0.21875q-0.21875 -0.125 -0.328125 -0.203125q-0.09375 -0.09375 -0.140625 -0.25q-0.046875 -0.171875 -0.046875 -0.453125q0 -0.171875 0.015625 -0.296875q0.03125 -0.125 0.046875 -0.1875q0.03125 -0.078125 0.078125 -0.109375q0.046875 -0.03125 0.125 -0.03125q0.09375 0 0.28125 0.125q0.203125 0.125 0.484375 0.265625q0.296875 0.140625 0.6875 0.265625q0.390625 0.125 0.90625 0.125q0.375 0 0.6875 -0.078125q0.3125 -0.078125 0.53125 -0.234375q0.234375 -0.171875 0.359375 -0.40625q0.125 -0.25 0.125 -0.59375q0 -0.34375 -0.1875 -0.578125q-0.171875 -0.234375 -0.46875 -0.421875q-0.28125 -0.1875 -0.65625 -0.328125q-0.359375 -0.140625 -0.75 -0.296875q-0.390625 -0.15625 -0.765625 -0.34375q-0.359375 -0.203125 -0.65625 -0.484375q-0.28125 -0.28125 -0.46875 -0.671875q-0.171875 -0.390625 -0.171875 -0.9375q0 -0.484375 0.1875 -0.921875q0.1875 -0.4375 0.5625 -0.765625q0.375 -0.34375 0.921875 -0.546875q0.5625 -0.203125 1.3125 -0.203125q0.328125 0 0.65625 0.0625q0.328125 0.046875 0.59375 0.140625q0.265625 0.078125 0.453125 0.171875q0.1875 0.09375 0.28125 0.171875q0.09375 0.078125 0.125 0.140625q0.03125 0.046875 0.046875 0.109375q0.015625 0.0625 0.03125 0.171875q0.015625 0.09375 0.015625 0.234375q0 0.15625 -0.015625 0.28125q-0.015625 0.109375 -0.046875 0.1875q-0.03125 0.0625 -0.078125 0.09375q-0.046875 0.03125 -0.09375 0.03125q-0.09375 0 -0.25 -0.09375q-0.140625 -0.09375 -0.390625 -0.203125q-0.25 -0.125 -0.578125 -0.21875q-0.328125 -0.109375 -0.765625 -0.109375q-0.375 0 -0.671875 0.09375q-0.296875 0.078125 -0.484375 0.25q-0.1875 0.15625 -0.28125 0.375q-0.09375 0.21875 -0.09375 0.46875q0 0.359375 0.171875 0.609375q0.1875 0.234375 0.484375 0.421875q0.296875 0.171875 0.671875 0.328125q0.375 0.140625 0.75 0.296875q0.390625 0.140625 0.765625 0.34375q0.390625 0.1875 0.671875 0.46875q0.296875 0.265625 0.46875 0.65625q0.1875 0.375 0.1875 0.90625z" fill-rule="nonzero"/><path fill="#d2d2d2" d="m163.89764 309.5917l11.611664 0l12.577301 27.574799l-12.577301 27.57483l-11.611664 0l12.577301 -27.57483z" fill-rule="evenodd"/></g></svg>