<svg version="1.1" viewBox="0.0 0.0 779.6404199475065 205.71391076115486" fill="none" stroke="none" stroke-linecap="square" stroke-miterlimit="10" xmlns:xlink="http://www.w3.org/1999/xlink" xmlns="http://www.w3.org/2000/svg"><clipPath id="p.0"><path d="m0 0l779.64044 0l0 205.71391l-779.64044 0l0 -205.71391z" clip-rule="nonzero"/></clipPath><g clip-path="url(#p.0)"><path fill="#000000" fill-opacity="0.0" d="m0 0l779.64044 0l0 205.71391l-779.64044 0z" fill-rule="evenodd"/><path fill="#8e7cc3" d="m194.94284 65.379585l0 0c0 -11.046192 8.954712 -20.0009 20.0009 -20.0009l88.71068 0c5.3045654 0 10.391876 2.1072311 14.142761 5.8581276c3.7509155 3.7508965 5.858124 8.838203 5.858124 14.142773l0 80.0012c0 11.046188 -8.954712 20.0009 -20.000885 20.0009l-88.71068 0c-11.046188 0 -20.0009 -8.954712 -20.0009 -20.0009z" fill-rule="evenodd"/><path fill="#674ea7" d="m202.61154 105.38921l14.460922 -23.455742l0 12.014542l30.785294 0l0 -29.54618l-12.014542 0l23.455734 -14.460915l23.45575 14.460915l-12.014557 0l0 29.54618l30.785309 0l0 -12.014542l14.460907 23.455742l-14.460907 23.455742l0 -12.014542l-30.785309 0l0 29.546173l12.014557 0l-23.45575 14.460922l-23.455734 -14.460922l12.014542 0l0 -29.546173l-30.785294 0l0 12.014542z" fill-rule="evenodd"/><path stroke="#351c75" stroke-width="1.0" stroke-linejoin="round" stroke-linecap="butt" d="m202.61154 105.38921l14.460922 -23.455742l0 12.014542l30.785294 0l0 -29.54618l-12.014542 0l23.455734 -14.460915l23.45575 14.460915l-12.014557 0l0 29.54618l30.785309 0l0 -12.014542l14.460907 23.455742l-14.460907 23.455742l0 -12.014542l-30.785309 0l0 29.546173l12.014557 0l-23.45575 14.460922l-23.455734 -14.460922l12.014542 0l0 -29.546173l-30.785294 0l0 12.014542z" fill-rule="evenodd"/><path fill="#ffffff" d="m239.27893 101.07484q0 0.078125 -0.03125 0.140625q-0.015625 0.046875 -0.109375 0.078125q-0.09375 0.03125 -0.265625 0.046875q-0.15625 0.015625 -0.421875 0.015625q-0.234375 0 -0.390625 -0.015625q-0.15625 -0.015625 -0.25 -0.046875q-0.078125 -0.046875 -0.140625 -0.109375q-0.046875 -0.078125 -0.078125 -0.1875l-1.078125 -2.78125q-0.203125 -0.484375 -0.40625 -0.875q-0.203125 -0.390625 -0.484375 -0.671875q-0.28125 -0.296875 -0.671875 -0.453125q-0.375 -0.15625 -0.90625 -0.15625l-1.046875 0l0 5.015625q0 0.078125 -0.046875 0.140625q-0.046875 0.046875 -0.140625 0.078125q-0.078125 0.03125 -0.234375 0.046875q-0.140625 0.015625 -0.375 0.015625q-0.21875 0 -0.375 -0.015625q-0.140625 -0.015625 -0.234375 -0.046875q-0.09375 -0.03125 -0.140625 -0.078125q-0.03125 -0.0625 -0.03125 -0.140625l0 -10.921875q0 -0.34375 0.1875 -0.484375q0.1875 -0.140625 0.40625 -0.140625l2.5 0q0.4375 0 0.734375 0.03125q0.296875 0.015625 0.546875 0.03125q0.671875 0.125 1.1875 0.375q0.53125 0.25 0.890625 0.65625q0.359375 0.390625 0.53125 0.890625q0.1875 0.5 0.1875 1.109375q0 0.59375 -0.171875 1.0625q-0.15625 0.46875 -0.453125 0.828125q-0.296875 0.359375 -0.71875 0.625q-0.421875 0.265625 -0.9375 0.453125q0.28125 0.125 0.515625 0.328125q0.25 0.1875 0.453125 0.46875q0.203125 0.265625 0.375 0.625q0.1875 0.359375 0.375 0.796875l1.0625 2.59375q0.125 0.328125 0.15625 0.46875q0.03125 0.125 0.03125 0.203125zm-2.359375 -8.28125q0 -0.6875 -0.3125 -1.171875q-0.296875 -0.484375 -1.03125 -0.6875q-0.21875 -0.0625 -0.515625 -0.09375q-0.28125 -0.03125 -0.75 -0.03125l-1.3125 0l0 3.984375l1.53125 0q0.609375 0 1.0625 -0.15625q0.453125 -0.15625 0.75 -0.421875q0.296875 -0.265625 0.4375 -0.625q0.140625 -0.375 0.140625 -0.796875zm12.082886 4.09375q0 1.0 -0.265625 1.84375q-0.265625 0.84375 -0.796875 1.453125q-0.515625 0.609375 -1.3125 0.953125q-0.78125 0.34375 -1.8125 0.34375q-1.015625 0 -1.765625 -0.296875q-0.75 -0.296875 -1.25 -0.875q-0.5 -0.578125 -0.75 -1.390625q-0.25 -0.828125 -0.25 -1.859375q0 -1.0 0.265625 -1.84375q0.265625 -0.84375 0.78125 -1.453125q0.53125 -0.609375 1.3125 -0.953125q0.78125 -0.34375 1.828125 -0.34375q1.015625 0 1.765625 0.3125q0.75 0.296875 1.25 0.875q0.5 0.5625 0.75 1.390625q0.25 0.8125 0.25 1.84375zm-1.578125 0.109375q0 -0.671875 -0.125 -1.265625q-0.125 -0.59375 -0.40625 -1.03125q-0.28125 -0.453125 -0.765625 -0.703125q-0.484375 -0.265625 -1.203125 -0.265625q-0.671875 0 -1.15625 0.234375q-0.46875 0.234375 -0.78125 0.671875q-0.296875 0.4375 -0.453125 1.03125q-0.15625 0.578125 -0.15625 1.28125q0 0.671875 0.125 1.265625q0.125 0.59375 0.40625 1.046875q0.296875 0.4375 0.78125 0.703125q0.484375 0.25 1.203125 0.25q0.65625 0 1.125 -0.234375q0.484375 -0.234375 0.796875 -0.65625q0.3125 -0.4375 0.453125 -1.03125q0.15625 -0.59375 0.15625 -1.296875zm10.822632 4.078125q0 0.078125 -0.03125 0.140625q-0.03125 0.046875 -0.125 0.078125q-0.078125 0.03125 -0.21875 0.046875q-0.125 0.015625 -0.3125 0.015625q-0.203125 0 -0.34375 -0.015625q-0.125 -0.015625 -0.203125 -0.046875q-0.078125 -0.03125 -0.109375 -0.078125q-0.03125 -0.0625 -0.03125 -0.140625l0 -1.078125q-0.703125 0.78125 -1.390625 1.140625q-0.671875 0.34375 -1.375 0.34375q-0.8125 0 -1.375 -0.265625q-0.5625 -0.28125 -0.90625 -0.75q-0.34375 -0.46875 -0.5 -1.09375q-0.15625 -0.625 -0.15625 -1.515625l0 -4.96875q0 -0.078125 0.03125 -0.125q0.03125 -0.046875 0.125 -0.09375q0.09375 -0.046875 0.234375 -0.046875q0.15625 -0.015625 0.375 -0.015625q0.21875 0 0.359375 0.015625q0.140625 0 0.21875 0.046875q0.09375 0.046875 0.125 0.09375q0.046875 0.046875 0.046875 0.125l0 4.765625q0 0.71875 0.09375 1.15625q0.109375 0.4375 0.328125 0.75q0.21875 0.296875 0.546875 0.46875q0.328125 0.15625 0.765625 0.15625q0.5625 0 1.125 -0.390625q0.5625 -0.40625 1.1875 -1.1875l0 -5.71875q0 -0.078125 0.03125 -0.125q0.03125 -0.046875 0.125 -0.09375q0.09375 -0.046875 0.234375 -0.046875q0.140625 -0.015625 0.359375 -0.015625q0.21875 0 0.359375 0.015625q0.15625 0 0.234375 0.046875q0.078125 0.046875 0.125 0.09375q0.046875 0.046875 0.046875 0.125l0 8.1875zm7.036194 -0.59375q0 0.265625 -0.046875 0.421875q-0.03125 0.15625 -0.109375 0.234375q-0.0625 0.0625 -0.21875 0.125q-0.140625 0.0625 -0.328125 0.09375q-0.1875 0.046875 -0.390625 0.078125q-0.203125 0.03125 -0.421875 0.03125q-0.640625 0 -1.09375 -0.171875q-0.453125 -0.171875 -0.75 -0.5q-0.28125 -0.34375 -0.421875 -0.859375q-0.125 -0.53125 -0.125 -1.25l0 -4.796875l-1.15625 0q-0.125 0 -0.21875 -0.140625q-0.078125 -0.140625 -0.078125 -0.46875q0 -0.171875 0.015625 -0.28125q0.03125 -0.125 0.0625 -0.203125q0.046875 -0.078125 0.09375 -0.109375q0.0625 -0.03125 0.140625 -0.03125l1.140625 0l0 -1.953125q0 -0.0625 0.03125 -0.109375q0.03125 -0.0625 0.109375 -0.109375q0.09375 -0.046875 0.234375 -0.0625q0.15625 -0.015625 0.375 -0.015625q0.21875 0 0.359375 0.015625q0.15625 0.015625 0.234375 0.0625q0.078125 0.046875 0.109375 0.109375q0.046875 0.046875 0.046875 0.109375l0 1.953125l2.109375 0q0.0625 0 0.109375 0.03125q0.0625 0.03125 0.109375 0.109375q0.046875 0.078125 0.0625 0.203125q0.015625 0.109375 0.015625 0.28125q0 0.328125 -0.078125 0.46875q-0.078125 0.140625 -0.21875 0.140625l-2.109375 0l0 4.578125q0 0.84375 0.25 1.28125q0.25 0.4375 0.90625 0.4375q0.203125 0 0.359375 -0.046875q0.171875 -0.046875 0.296875 -0.078125q0.125 -0.046875 0.21875 -0.09375q0.09375 -0.046875 0.171875 -0.046875q0.046875 0 0.078125 0.03125q0.046875 0.015625 0.0625 0.078125q0.03125 0.0625 0.046875 0.171875q0.015625 0.109375 0.015625 0.28125zm3.48349 0.59375q0 0.078125 -0.03125 0.140625q-0.03125 0.046875 -0.125 0.078125q-0.078125 0.03125 -0.21875 0.046875q-0.140625 0.015625 -0.375 0.015625q-0.21875 0 -0.375 -0.015625q-0.140625 -0.015625 -0.234375 -0.046875q-0.078125 -0.03125 -0.109375 -0.078125q-0.03125 -0.0625 -0.03125 -0.140625l0 -8.1875q0 -0.0625 0.03125 -0.109375q0.03125 -0.0625 0.109375 -0.09375q0.09375 -0.046875 0.234375 -0.0625q0.15625 -0.015625 0.375 -0.015625q0.234375 0 0.375 0.015625q0.140625 0.015625 0.21875 0.0625q0.09375 0.03125 0.125 0.09375q0.03125 0.046875 0.03125 0.109375l0 8.1875zm0.171875 -10.96875q0 0.53125 -0.203125 0.734375q-0.1875 0.1875 -0.734375 0.1875q-0.515625 0 -0.71875 -0.1875q-0.1875 -0.1875 -0.1875 -0.703125q0 -0.53125 0.1875 -0.71875q0.203125 -0.203125 0.75 -0.203125q0.515625 0 0.703125 0.1875q0.203125 0.1875 0.203125 0.703125zm9.672089 10.96875q0 0.078125 -0.046875 0.140625q-0.03125 0.046875 -0.109375 0.078125q-0.078125 0.03125 -0.234375 0.046875q-0.140625 0.015625 -0.359375 0.015625q-0.21875 0 -0.375 -0.015625q-0.140625 -0.015625 -0.234375 -0.046875q-0.078125 -0.03125 -0.109375 -0.078125q-0.03125 -0.0625 -0.03125 -0.140625l0 -4.796875q0 -0.703125 -0.109375 -1.125q-0.109375 -0.4375 -0.328125 -0.734375q-0.203125 -0.3125 -0.546875 -0.46875q-0.328125 -0.171875 -0.765625 -0.171875q-0.5625 0 -1.125 0.40625q-0.5625 0.390625 -1.1875 1.171875l0 5.71875q0 0.078125 -0.03125 0.140625q-0.03125 0.046875 -0.125 0.078125q-0.078125 0.03125 -0.21875 0.046875q-0.140625 0.015625 -0.375 0.015625q-0.21875 0 -0.375 -0.015625q-0.140625 -0.015625 -0.234375 -0.046875q-0.078125 -0.03125 -0.109375 -0.078125q-0.03125 -0.0625 -0.03125 -0.140625l0 -8.1875q0 -0.078125 0.03125 -0.125q0.03125 -0.046875 0.109375 -0.09375q0.078125 -0.046875 0.203125 -0.046875q0.140625 -0.015625 0.34375 -0.015625q0.203125 0 0.328125 0.015625q0.140625 0 0.203125 0.046875q0.078125 0.046875 0.109375 0.09375q0.03125 0.046875 0.03125 0.125l0 1.078125q0.6875 -0.765625 1.375 -1.125q0.6875 -0.375 1.390625 -0.375q0.828125 0 1.375 0.28125q0.5625 0.28125 0.90625 0.75q0.359375 0.46875 0.5 1.09375q0.15625 0.609375 0.15625 1.484375l0 5.0zm9.598694 -7.8125q0 0.3125 -0.09375 0.453125q-0.078125 0.140625 -0.21875 0.140625l-1.171875 0q0.3125 0.328125 0.4375 0.734375q0.125 0.390625 0.125 0.8125q0 0.71875 -0.234375 1.265625q-0.21875 0.546875 -0.640625 0.921875q-0.421875 0.375 -1.015625 0.578125q-0.578125 0.203125 -1.28125 0.203125q-0.5 0 -0.953125 -0.125q-0.453125 -0.140625 -0.703125 -0.34375q-0.15625 0.15625 -0.265625 0.375q-0.109375 0.203125 -0.109375 0.484375q0 0.3125 0.296875 0.53125q0.296875 0.203125 0.796875 0.21875l2.140625 0.09375q0.609375 0.015625 1.109375 0.171875q0.515625 0.140625 0.890625 0.421875q0.375 0.28125 0.578125 0.6875q0.21875 0.40625 0.21875 0.9375q0 0.5625 -0.25 1.078125q-0.234375 0.515625 -0.71875 0.890625q-0.484375 0.390625 -1.25 0.609375q-0.75 0.234375 -1.78125 0.234375q-0.984375 0 -1.6875 -0.171875q-0.6875 -0.171875 -1.140625 -0.46875q-0.4375 -0.28125 -0.640625 -0.6875q-0.203125 -0.40625 -0.203125 -0.875q0 -0.3125 0.0625 -0.59375q0.078125 -0.28125 0.21875 -0.53125q0.15625 -0.25 0.375 -0.484375q0.234375 -0.234375 0.53125 -0.46875q-0.453125 -0.21875 -0.671875 -0.5625q-0.203125 -0.359375 -0.203125 -0.75q0 -0.5625 0.21875 -1.0q0.234375 -0.4375 0.5625 -0.78125q-0.28125 -0.328125 -0.453125 -0.75q-0.15625 -0.4375 -0.15625 -1.03125q0 -0.703125 0.234375 -1.25q0.25 -0.5625 0.65625 -0.9375q0.421875 -0.390625 1.015625 -0.59375q0.59375 -0.203125 1.28125 -0.203125q0.375 0 0.6875 0.046875q0.328125 0.03125 0.609375 0.109375l2.484375 0q0.15625 0 0.234375 0.15625q0.078125 0.140625 0.078125 0.453125zm-2.359375 2.15625q0 -0.84375 -0.46875 -1.3125q-0.453125 -0.46875 -1.296875 -0.46875q-0.4375 0 -0.765625 0.15625q-0.3125 0.140625 -0.53125 0.390625q-0.21875 0.25 -0.328125 0.59375q-0.09375 0.328125 -0.09375 0.6875q0 0.8125 0.453125 1.28125q0.46875 0.46875 1.296875 0.46875q0.4375 0 0.765625 -0.140625q0.328125 -0.140625 0.546875 -0.390625q0.21875 -0.25 0.3125 -0.578125q0.109375 -0.328125 0.109375 -0.6875zm0.765625 6.484375q0 -0.515625 -0.4375 -0.796875q-0.4375 -0.296875 -1.171875 -0.3125l-2.125 -0.078125q-0.296875 0.234375 -0.484375 0.4375q-0.171875 0.203125 -0.28125 0.390625q-0.109375 0.1875 -0.15625 0.359375q-0.046875 0.1875 -0.046875 0.375q0 0.59375 0.59375 0.890625q0.609375 0.3125 1.6875 0.3125q0.6875 0 1.140625 -0.140625q0.46875 -0.125 0.75 -0.34375q0.28125 -0.21875 0.40625 -0.5q0.125 -0.28125 0.125 -0.59375z" fill-rule="nonzero"/><path fill="#ffffff" d="m240.0706 119.99671q0 0.828125 -0.3125 1.484375q-0.296875 0.640625 -0.84375 1.09375q-0.53125 0.453125 -1.265625 0.6875q-0.734375 0.21875 -1.578125 0.21875q-0.59375 0 -1.109375 -0.109375q-0.5 -0.09375 -0.890625 -0.234375q-0.390625 -0.140625 -0.671875 -0.296875q-0.265625 -0.15625 -0.375 -0.265625q-0.09375 -0.109375 -0.15625 -0.28125q-0.046875 -0.171875 -0.046875 -0.453125q0 -0.203125 0.015625 -0.328125q0.03125 -0.140625 0.0625 -0.21875q0.03125 -0.078125 0.078125 -0.109375q0.0625 -0.03125 0.140625 -0.03125q0.125 0 0.359375 0.15625q0.234375 0.15625 0.59375 0.34375q0.375 0.171875 0.875 0.328125q0.515625 0.15625 1.203125 0.15625q0.5 0 0.921875 -0.125q0.421875 -0.140625 0.734375 -0.390625q0.3125 -0.25 0.46875 -0.609375q0.171875 -0.375 0.171875 -0.84375q0 -0.5 -0.234375 -0.84375q-0.234375 -0.359375 -0.609375 -0.625q-0.359375 -0.265625 -0.84375 -0.484375q-0.484375 -0.234375 -0.984375 -0.46875q-0.5 -0.234375 -0.96875 -0.515625q-0.46875 -0.28125 -0.84375 -0.65625q-0.375 -0.390625 -0.609375 -0.90625q-0.234375 -0.515625 -0.234375 -1.234375q0 -0.734375 0.265625 -1.3125q0.265625 -0.578125 0.75 -0.96875q0.484375 -0.390625 1.140625 -0.59375q0.65625 -0.203125 1.421875 -0.203125q0.390625 0 0.78125 0.0625q0.40625 0.0625 0.75 0.1875q0.359375 0.109375 0.625 0.25q0.28125 0.140625 0.359375 0.234375q0.09375 0.078125 0.109375 0.125q0.03125 0.046875 0.046875 0.125q0.03125 0.078125 0.03125 0.1875q0.015625 0.109375 0.015625 0.28125q0 0.171875 -0.015625 0.296875q-0.015625 0.125 -0.046875 0.21875q-0.015625 0.078125 -0.078125 0.125q-0.046875 0.046875 -0.109375 0.046875q-0.09375 0 -0.3125 -0.125q-0.21875 -0.140625 -0.53125 -0.296875q-0.296875 -0.15625 -0.734375 -0.28125q-0.421875 -0.140625 -0.9375 -0.140625q-0.5 0 -0.859375 0.140625q-0.359375 0.125 -0.609375 0.34375q-0.234375 0.21875 -0.359375 0.515625q-0.109375 0.296875 -0.109375 0.640625q0 0.484375 0.21875 0.84375q0.234375 0.359375 0.609375 0.640625q0.390625 0.265625 0.859375 0.5q0.484375 0.21875 0.984375 0.453125q0.515625 0.234375 0.984375 0.515625q0.484375 0.265625 0.859375 0.65625q0.390625 0.375 0.609375 0.890625q0.234375 0.5 0.234375 1.203125zm9.072037 -1.375q0 0.359375 -0.1875 0.515625q-0.171875 0.140625 -0.390625 0.140625l-5.375 0q0 0.6875 0.125 1.234375q0.140625 0.546875 0.453125 0.9375q0.328125 0.390625 0.828125 0.609375q0.515625 0.203125 1.25 0.203125q0.59375 0 1.046875 -0.09375q0.453125 -0.09375 0.78125 -0.203125q0.34375 -0.125 0.546875 -0.21875q0.21875 -0.109375 0.328125 -0.109375q0.0625 0 0.109375 0.03125q0.0625 0.03125 0.078125 0.109375q0.03125 0.0625 0.046875 0.171875q0.015625 0.109375 0.015625 0.28125q0 0.109375 -0.015625 0.203125q0 0.078125 -0.015625 0.15625q-0.015625 0.0625 -0.046875 0.125q-0.03125 0.046875 -0.09375 0.09375q-0.046875 0.046875 -0.296875 0.171875q-0.234375 0.109375 -0.625 0.21875q-0.390625 0.109375 -0.90625 0.1875q-0.515625 0.09375 -1.09375 0.09375q-1.015625 0 -1.78125 -0.28125q-0.765625 -0.28125 -1.28125 -0.828125q-0.515625 -0.5625 -0.78125 -1.390625q-0.265625 -0.84375 -0.265625 -1.96875q0 -1.046875 0.265625 -1.890625q0.28125 -0.84375 0.796875 -1.421875q0.515625 -0.59375 1.234375 -0.90625q0.734375 -0.328125 1.640625 -0.328125q0.96875 0 1.640625 0.3125q0.6875 0.3125 1.125 0.84375q0.4375 0.515625 0.640625 1.234375q0.203125 0.703125 0.203125 1.5l0 0.265625zm-1.515625 -0.4375q0.03125 -1.1875 -0.53125 -1.859375q-0.546875 -0.671875 -1.625 -0.671875q-0.5625 0 -0.984375 0.21875q-0.40625 0.203125 -0.6875 0.546875q-0.28125 0.34375 -0.4375 0.8125q-0.15625 0.453125 -0.171875 0.953125l4.4375 0zm8.595093 -2.765625q0 0.203125 -0.015625 0.34375q0 0.125 -0.03125 0.203125q-0.03125 0.078125 -0.078125 0.125q-0.03125 0.046875 -0.10939026 0.046875q-0.0625 0 -0.171875 -0.046875q-0.109375 -0.046875 -0.25 -0.078125q-0.125 -0.046875 -0.296875 -0.078125q-0.15625 -0.046875 -0.34375 -0.046875q-0.21875 0 -0.4375 0.09375q-0.21875 0.09375 -0.46875 0.3125q-0.234375 0.203125 -0.5 0.546875q-0.265625 0.34375 -0.59375 0.84375l0 5.390625q0 0.078125 -0.03125 0.140625q-0.03125 0.046875 -0.125 0.078125q-0.078125 0.03125 -0.21875 0.046875q-0.140625 0.015625 -0.375 0.015625q-0.21875 0 -0.375 -0.015625q-0.140625 -0.015625 -0.234375 -0.046875q-0.078125 -0.03125 -0.109375 -0.078125q-0.03125 -0.0625 -0.03125 -0.140625l0 -8.1875q0 -0.078125 0.03125 -0.125q0.03125 -0.046875 0.109375 -0.09375q0.078125 -0.046875 0.203125 -0.046875q0.140625 -0.015625 0.34375 -0.015625q0.203125 0 0.328125 0.015625q0.140625 0 0.203125 0.046875q0.078125 0.046875 0.109375 0.09375q0.03125 0.046875 0.03125 0.125l0 1.1875q0.34375 -0.484375 0.640625 -0.796875q0.296875 -0.3125 0.546875 -0.484375q0.265625 -0.1875 0.53125 -0.25q0.265625 -0.078125 0.515625 -0.078125q0.125 0 0.265625 0.015625q0.15625 0.015625 0.3125 0.0625q0.171875 0.03125 0.296875 0.078125q0.14064026 0.046875 0.18751526 0.09375q0.0625 0.046875 0.078125 0.09375q0.03125 0.03125 0.03125 0.09375q0.015625 0.0625 0.015625 0.1875q0.015625 0.125 0.015625 0.328125zm8.426056 -0.546875q0 0.03125 0 0.078125q0 0.03125 -0.015625 0.078125q0 0.046875 -0.015625 0.109375q-0.015625 0.046875 -0.03125 0.109375l-2.796875 7.796875q-0.046875 0.09375 -0.109375 0.15625q-0.046875 0.0625 -0.171875 0.109375q-0.109375 0.03125 -0.296875 0.03125q-0.1875 0.015625 -0.453125 0.015625q-0.28125 0 -0.46875 -0.015625q-0.171875 -0.015625 -0.28125 -0.046875q-0.109375 -0.03125 -0.1875 -0.09375q-0.0625 -0.078125 -0.09375 -0.15625l-2.78125 -7.796875q-0.046875 -0.109375 -0.078125 -0.1875q-0.015625 -0.078125 -0.015625 -0.125q0 -0.046875 0 -0.0625q0 -0.078125 0.03125 -0.125q0.03125 -0.0625 0.125 -0.09375q0.09375 -0.03125 0.234375 -0.03125q0.140625 -0.015625 0.34375 -0.015625q0.265625 0 0.421875 0.015625q0.15625 0 0.234375 0.046875q0.09375 0.03125 0.140625 0.09375q0.046875 0.046875 0.078125 0.125l2.3125 6.765625l0.03125 0.109375l0.03125 -0.109375l2.296875 -6.765625q0.015625 -0.078125 0.0625 -0.125q0.046875 -0.0625 0.125 -0.09375q0.09375 -0.046875 0.234375 -0.046875q0.15625 -0.015625 0.40625 -0.015625q0.203125 0 0.328125 0.015625q0.140625 0 0.21875 0.03125q0.078125 0.03125 0.109375 0.09375q0.03125 0.046875 0.03125 0.125zm3.2075195 8.203125q0 0.078125 -0.03125 0.140625q-0.03125 0.046875 -0.125 0.078125q-0.078125 0.03125 -0.21875 0.046875q-0.140625 0.015625 -0.375 0.015625q-0.21875 0 -0.375 -0.015625q-0.140625 -0.015625 -0.234375 -0.046875q-0.078125 -0.03125 -0.109375 -0.078125q-0.03125 -0.0625 -0.03125 -0.140625l0 -8.1875q0 -0.0625 0.03125 -0.109375q0.03125 -0.0625 0.109375 -0.09375q0.09375 -0.046875 0.234375 -0.0625q0.15625 -0.015625 0.375 -0.015625q0.234375 0 0.375 0.015625q0.140625 0.015625 0.21875 0.0625q0.09375 0.03125 0.125 0.09375q0.03125 0.046875 0.03125 0.109375l0 8.1875zm0.171875 -10.96875q0 0.53125 -0.203125 0.734375q-0.1875 0.1875 -0.734375 0.1875q-0.515625 0 -0.71875 -0.1875q-0.1875 -0.1875 -0.1875 -0.703125q0 -0.53125 0.1875 -0.71875q0.203125 -0.203125 0.75 -0.203125q0.515625 0 0.703125 0.1875q0.203125 0.1875 0.203125 0.703125zm8.500214 9.734375q0 0.140625 -0.015625 0.265625q0 0.109375 -0.03125 0.1875q-0.015625 0.078125 -0.046875 0.140625q-0.03125 0.0625 -0.140625 0.171875q-0.109375 0.109375 -0.390625 0.28125q-0.265625 0.171875 -0.609375 0.3125q-0.34375 0.125 -0.75 0.203125q-0.390625 0.078125 -0.828125 0.078125q-0.875 0 -1.5625 -0.28125q-0.6875 -0.296875 -1.15625 -0.859375q-0.453125 -0.5625 -0.703125 -1.375q-0.234375 -0.8125 -0.234375 -1.890625q0 -1.203125 0.296875 -2.0625q0.296875 -0.875 0.8125 -1.4375q0.515625 -0.5625 1.203125 -0.828125q0.703125 -0.265625 1.515625 -0.265625q0.390625 0 0.765625 0.078125q0.375 0.0625 0.671875 0.1875q0.3125 0.125 0.546875 0.28125q0.25 0.140625 0.359375 0.25q0.109375 0.109375 0.140625 0.1875q0.046875 0.0625 0.078125 0.15625q0.03125 0.078125 0.03125 0.1875q0.015625 0.109375 0.015625 0.265625q0 0.359375 -0.078125 0.5q-0.078125 0.140625 -0.203125 0.140625q-0.140625 0 -0.3125 -0.140625q-0.171875 -0.15625 -0.453125 -0.34375q-0.265625 -0.1875 -0.65625 -0.328125q-0.390625 -0.15625 -0.921875 -0.15625q-1.078125 0 -1.65625 0.84375q-0.578125 0.828125 -0.578125 2.40625q0 0.796875 0.140625 1.390625q0.15625 0.59375 0.4375 1.0q0.296875 0.40625 0.71875 0.609375q0.4375 0.1875 0.984375 0.1875q0.515625 0 0.90625 -0.15625q0.390625 -0.171875 0.671875 -0.359375q0.296875 -0.203125 0.484375 -0.359375q0.203125 -0.171875 0.3125 -0.171875q0.0625 0 0.109375 0.046875q0.046875 0.03125 0.078125 0.125q0.03125 0.078125 0.03125 0.21875q0.015625 0.125 0.015625 0.3125zm8.998199 -3.21875q0 0.359375 -0.1875 0.515625q-0.171875 0.140625 -0.390625 0.140625l-5.375 0q0 0.6875 0.125 1.234375q0.140625 0.546875 0.453125 0.9375q0.328125 0.390625 0.828125 0.609375q0.515625 0.203125 1.25 0.203125q0.59375 0 1.046875 -0.09375q0.453125 -0.09375 0.78125 -0.203125q0.34375 -0.125 0.546875 -0.21875q0.21875 -0.109375 0.328125 -0.109375q0.0625 0 0.109375 0.03125q0.0625 0.03125 0.078125 0.109375q0.03125 0.0625 0.046875 0.171875q0.015625 0.109375 0.015625 0.28125q0 0.109375 -0.015625 0.203125q0 0.078125 -0.015625 0.15625q-0.015625 0.0625 -0.046875 0.125q-0.03125 0.046875 -0.09375 0.09375q-0.046875 0.046875 -0.296875 0.171875q-0.234375 0.109375 -0.625 0.21875q-0.390625 0.109375 -0.90625 0.1875q-0.515625 0.09375 -1.09375 0.09375q-1.015625 0 -1.78125 -0.28125q-0.765625 -0.28125 -1.28125 -0.828125q-0.515625 -0.5625 -0.78125 -1.390625q-0.265625 -0.84375 -0.265625 -1.96875q0 -1.046875 0.265625 -1.890625q0.28125 -0.84375 0.796875 -1.421875q0.515625 -0.59375 1.234375 -0.90625q0.734375 -0.328125 1.640625 -0.328125q0.96875 0 1.640625 0.3125q0.6875 0.3125 1.125 0.84375q0.4375 0.515625 0.640625 1.234375q0.203125 0.703125 0.203125 1.5l0 0.265625zm-1.515625 -0.4375q0.03125 -1.1875 -0.53125 -1.859375q-0.546875 -0.671875 -1.625 -0.671875q-0.5625 0 -0.984375 0.21875q-0.40625 0.203125 -0.6875 0.546875q-0.28125 0.34375 -0.4375 0.8125q-0.15625 0.453125 -0.171875 0.953125l4.4375 0z" fill-rule="nonzero"/><path fill="#d2d2d2" d="m12.9973755 21.669476l0 0c0 -5.076483 4.115303 -9.191785 9.191784 -9.191785l103.53769 0c2.4378052 0 4.775772 0.96841717 6.4995728 2.6922112c1.7237854 1.723794 2.692215 4.061761 2.692215 6.4995737l0 36.766037c0 5.076481 -4.1153107 9.191784 -9.191788 9.191784l-103.53769 0c-5.076481 0 -9.191784 -4.115303 -9.191784 -9.191784z" fill-rule="evenodd"/><path fill="#000000" d="m55.833004 43.175617l1.59375 -0.21875q0.078125 1.53125 0.578125 2.109375q0.515625 0.5625 1.421875 0.5625q0.65625 0 1.140625 -0.296875q0.484375 -0.3125 0.65625 -0.828125q0.1875 -0.53125 0.1875 -1.6875l0 -9.203125l1.765625 0l0 9.109375q0 1.671875 -0.40625 2.59375q-0.40625 0.921875 -1.28125 1.40625q-0.875 0.484375 -2.0625 0.484375q-1.75 0 -2.6875 -1.015625q-0.9375 -1.015625 -0.90625 -3.015625zm10.187504 3.796875l0 -13.359375l2.65625 0l3.15625 9.453125q0.4375 1.328125 0.640625 1.984375q0.234375 -0.734375 0.703125 -2.140625l3.203125 -9.296875l2.375 0l0 13.359375l-1.703125 0l0 -11.171875l-3.875 11.171875l-1.59375 0l-3.859375 -11.375l0 11.375l-1.703125 0zm14.993927 -4.296875l1.65625 -0.140625q0.125 1.0 0.546875 1.640625q0.4375 0.640625 1.34375 1.046875q0.921875 0.390625 2.0625 0.390625q1.0 0 1.78125 -0.296875q0.78125 -0.296875 1.15625 -0.8125q0.375 -0.53125 0.375 -1.15625q0 -0.625 -0.375 -1.09375q-0.359375 -0.46875 -1.1875 -0.796875q-0.546875 -0.203125 -2.390625 -0.640625q-1.828125 -0.453125 -2.5625 -0.84375q-0.96875 -0.5 -1.4375 -1.234375q-0.46875 -0.75 -0.46875 -1.671875q0 -1.0 0.578125 -1.875q0.578125 -0.890625 1.671875 -1.34375q1.109375 -0.453125 2.453125 -0.453125q1.484375 0 2.609375 0.484375q1.140625 0.46875 1.75 1.40625q0.609375 0.921875 0.65625 2.09375l-1.6875 0.125q-0.140625 -1.265625 -0.9375 -1.90625q-0.78125 -0.65625 -2.3125 -0.65625q-1.609375 0 -2.34375 0.59375q-0.734375 0.59375 -0.734375 1.421875q0 0.71875 0.53125 1.171875q0.5 0.46875 2.65625 0.96875q2.15625 0.484375 2.953125 0.84375q1.171875 0.53125 1.71875 1.359375q0.5625 0.828125 0.5625 1.90625q0 1.0625 -0.609375 2.015625q-0.609375 0.9375 -1.75 1.46875q-1.140625 0.515625 -2.578125 0.515625q-1.8125 0 -3.046875 -0.53125q-1.21875 -0.53125 -1.921875 -1.59375q-0.6875 -1.0625 -0.71875 -2.40625z" fill-rule="nonzero"/><path fill="#d2d2d2" d="m12.9973755 150.8952l0 0c0 -5.0764923 4.115303 -9.191788 9.191784 -9.191788l103.53769 0c2.4378052 0 4.775772 0.9684143 6.4995728 2.692215c1.7237854 1.7237854 2.692215 4.0617523 2.692215 6.4995728l0 36.766037c0 5.076477 -4.1153107 9.191772 -9.191788 9.191772l-103.53769 0c-5.076481 0 -9.191784 -4.1152954 -9.191784 -9.191772z" fill-rule="evenodd"/><path fill="#000000" d="m55.70077 176.19821l0 -13.359375l4.609375 0q1.546875 0 2.375 0.203125q1.140625 0.25 1.9531288 0.953125q1.0625 0.890625 1.578125 2.28125q0.53125 1.390625 0.53125 3.171875q0 1.515625 -0.359375 2.703125q-0.359375 1.171875 -0.921875 1.9375q-0.546875 0.765625 -1.203125 1.21875q-0.6562538 0.4375 -1.5937538 0.671875q-0.9375 0.21875 -2.140625 0.21875l-4.828125 0zm1.765625 -1.578125l2.859375 0q1.3125 0 2.0625 -0.234375q0.75 -0.25 1.203125 -0.703125q0.6250038 -0.625 0.9687538 -1.6875q0.359375 -1.0625 0.359375 -2.578125q0 -2.09375 -0.6875 -3.21875q-0.6875038 -1.125 -1.6718788 -1.5q-0.703125 -0.28125 -2.28125 -0.28125l-2.8125 0l0 10.203125zm11.707325 1.578125l0 -13.359375l4.609375 0q1.546875 0 2.375 0.203125q1.140625 0.25 1.953125 0.953125q1.0625 0.890625 1.578125 2.28125q0.53125 1.390625 0.53125 3.171875q0 1.515625 -0.359375 2.703125q-0.359375 1.171875 -0.921875 1.9375q-0.546875 0.765625 -1.203125 1.21875q-0.65625 0.4375 -1.59375 0.671875q-0.9375 0.21875 -2.140625 0.21875l-4.828125 0zm1.765625 -1.578125l2.859375 0q1.3125 0 2.0625 -0.234375q0.75 -0.25 1.203125 -0.703125q0.625 -0.625 0.96875 -1.6875q0.359375 -1.0625 0.359375 -2.578125q0 -2.09375 -0.6875 -3.21875q-0.6875 -1.125 -1.671875 -1.5q-0.703125 -0.28125 -2.28125 -0.28125l-2.8125 0l0 10.203125zm11.113571 -2.71875l1.65625 -0.140625q0.125 1.0 0.546875 1.640625q0.4375 0.640625 1.34375 1.046875q0.921875 0.390625 2.0625 0.390625q1.0 0 1.78125 -0.296875q0.78125 -0.296875 1.15625 -0.8125q0.375 -0.53125 0.375 -1.15625q0 -0.625 -0.375 -1.09375q-0.359375 -0.46875 -1.1875 -0.796875q-0.546875 -0.203125 -2.390625 -0.640625q-1.828125 -0.453125 -2.5625 -0.84375q-0.96875 -0.5 -1.4375 -1.234375q-0.46875 -0.75 -0.46875 -1.671875q0 -1.0 0.578125 -1.875q0.578125 -0.890625 1.671875 -1.34375q1.109375 -0.453125 2.453125 -0.453125q1.484375 0 2.609375 0.484375q1.140625 0.46875 1.75 1.40625q0.609375 0.921875 0.65625 2.09375l-1.6875 0.125q-0.140625 -1.265625 -0.9375 -1.90625q-0.78125 -0.65625 -2.3125 -0.65625q-1.609375 0 -2.34375 0.59375q-0.734375 0.59375 -0.734375 1.421875q0 0.71875 0.53125 1.171875q0.5 0.46875 2.65625 0.96875q2.15625 0.484375 2.953125 0.84375q1.171875 0.53125 1.71875 1.359375q0.5625 0.828125 0.5625 1.90625q0 1.0625 -0.609375 2.015625q-0.609375 0.9375 -1.75 1.46875q-1.140625 0.515625 -2.578125 0.515625q-1.8125 0 -3.046875 -0.53125q-1.21875 -0.53125 -1.921875 -1.59375q-0.6875 -1.0625 -0.71875 -2.40625z" fill-rule="nonzero"/><path fill="#8e7cc3" d="m450.11868 65.379585l0 0c0 -11.046192 8.954712 -20.0009 20.000916 -20.0009l88.71066 0c5.3045654 0 10.391907 2.1072311 14.142761 5.8581276c3.7509155 3.7508965 5.8581543 8.838203 5.8581543 14.142773l0 80.0012c0 11.046188 -8.954712 20.0009 -20.000916 20.0009l-88.71066 0c-11.046204 0 -20.000916 -8.954712 -20.000916 -20.0009z" fill-rule="evenodd"/><path fill="#674ea7" d="m457.7874 105.38921l14.460907 -23.455742l0 12.014542l30.785278 0l0 -29.54618l-12.014526 0l23.455719 -14.460915l23.45575 14.460915l-12.014526 0l0 29.54618l30.785278 0l0 -12.014542l14.4609375 23.455742l-14.4609375 23.455742l0 -12.014542l-30.785278 0l0 29.546173l12.014526 0l-23.45575 14.460922l-23.455719 -14.460922l12.014526 0l0 -29.546173l-30.785278 0l0 12.014542z" fill-rule="evenodd"/><path stroke="#351c75" stroke-width="1.0" stroke-linejoin="round" stroke-linecap="butt" d="m457.7874 105.38921l14.460907 -23.455742l0 12.014542l30.785278 0l0 -29.54618l-12.014526 0l23.455719 -14.460915l23.45575 14.460915l-12.014526 0l0 29.54618l30.785278 0l0 -12.014542l14.4609375 23.455742l-14.4609375 23.455742l0 -12.014542l-30.785278 0l0 29.546173l12.014526 0l-23.45575 14.460922l-23.455719 -14.460922l12.014526 0l0 -29.546173l-30.785278 0l0 12.014542z" fill-rule="evenodd"/><path fill="#ffffff" d="m494.4548 101.07484q0 0.078125 -0.03125 0.140625q-0.015625 0.046875 -0.109375 0.078125q-0.09375 0.03125 -0.265625 0.046875q-0.15625 0.015625 -0.421875 0.015625q-0.234375 0 -0.390625 -0.015625q-0.15625 -0.015625 -0.25 -0.046875q-0.078125 -0.046875 -0.140625 -0.109375q-0.046875 -0.078125 -0.078125 -0.1875l-1.078125 -2.78125q-0.203125 -0.484375 -0.40625 -0.875q-0.203125 -0.390625 -0.484375 -0.671875q-0.28125 -0.296875 -0.671875 -0.453125q-0.375 -0.15625 -0.90625 -0.15625l-1.046875 0l0 5.015625q0 0.078125 -0.046875 0.140625q-0.046875 0.046875 -0.140625 0.078125q-0.078125 0.03125 -0.234375 0.046875q-0.140625 0.015625 -0.375 0.015625q-0.21875 0 -0.375 -0.015625q-0.140625 -0.015625 -0.234375 -0.046875q-0.09375 -0.03125 -0.140625 -0.078125q-0.03125 -0.0625 -0.03125 -0.140625l0 -10.921875q0 -0.34375 0.1875 -0.484375q0.1875 -0.140625 0.40625 -0.140625l2.5 0q0.4375 0 0.734375 0.03125q0.296875 0.015625 0.546875 0.03125q0.671875 0.125 1.1875 0.375q0.53125 0.25 0.890625 0.65625q0.359375 0.390625 0.53125 0.890625q0.1875 0.5 0.1875 1.109375q0 0.59375 -0.171875 1.0625q-0.15625 0.46875 -0.453125 0.828125q-0.296875 0.359375 -0.71875 0.625q-0.421875 0.265625 -0.9375 0.453125q0.28125 0.125 0.515625 0.328125q0.25 0.1875 0.453125 0.46875q0.203125 0.265625 0.375 0.625q0.1875 0.359375 0.375 0.796875l1.0625 2.59375q0.125 0.328125 0.15625 0.46875q0.03125 0.125 0.03125 0.203125zm-2.359375 -8.28125q0 -0.6875 -0.3125 -1.171875q-0.296875 -0.484375 -1.03125 -0.6875q-0.21875 -0.0625 -0.515625 -0.09375q-0.28125 -0.03125 -0.75 -0.03125l-1.3125 0l0 3.984375l1.53125 0q0.609375 0 1.0625 -0.15625q0.453125 -0.15625 0.75 -0.421875q0.296875 -0.265625 0.4375 -0.625q0.140625 -0.375 0.140625 -0.796875zm12.082886 4.09375q0 1.0 -0.265625 1.84375q-0.265625 0.84375 -0.796875 1.453125q-0.515625 0.609375 -1.3125 0.953125q-0.78125 0.34375 -1.8125 0.34375q-1.015625 0 -1.765625 -0.296875q-0.75 -0.296875 -1.25 -0.875q-0.5 -0.578125 -0.75 -1.390625q-0.25 -0.828125 -0.25 -1.859375q0 -1.0 0.265625 -1.84375q0.265625 -0.84375 0.78125 -1.453125q0.53125 -0.609375 1.3125 -0.953125q0.78125 -0.34375 1.828125 -0.34375q1.015625 0 1.765625 0.3125q0.75 0.296875 1.25 0.875q0.5 0.5625 0.75 1.390625q0.25 0.8125 0.25 1.84375zm-1.578125 0.109375q0 -0.671875 -0.125 -1.265625q-0.125 -0.59375 -0.40625 -1.03125q-0.28125 -0.453125 -0.765625 -0.703125q-0.484375 -0.265625 -1.203125 -0.265625q-0.671875 0 -1.15625 0.234375q-0.46875 0.234375 -0.78125 0.671875q-0.296875 0.4375 -0.453125 1.03125q-0.15625 0.578125 -0.15625 1.28125q0 0.671875 0.125 1.265625q0.125 0.59375 0.40625 1.046875q0.296875 0.4375 0.78125 0.703125q0.484375 0.25 1.203125 0.25q0.65625 0 1.125 -0.234375q0.484375 -0.234375 0.796875 -0.65625q0.3125 -0.4375 0.453125 -1.03125q0.15625 -0.59375 0.15625 -1.296875zm10.822601 4.078125q0 0.078125 -0.03125 0.140625q-0.03125 0.046875 -0.125 0.078125q-0.078125 0.03125 -0.21875 0.046875q-0.125 0.015625 -0.3125 0.015625q-0.203125 0 -0.34375 -0.015625q-0.125 -0.015625 -0.203125 -0.046875q-0.078125 -0.03125 -0.109375 -0.078125q-0.03125 -0.0625 -0.03125 -0.140625l0 -1.078125q-0.7030945 0.78125 -1.3905945 1.140625q-0.671875 0.34375 -1.375 0.34375q-0.8125 0 -1.375 -0.265625q-0.5625 -0.28125 -0.90625 -0.75q-0.34375 -0.46875 -0.5 -1.09375q-0.15625 -0.625 -0.15625 -1.515625l0 -4.96875q0 -0.078125 0.03125 -0.125q0.03125 -0.046875 0.125 -0.09375q0.09375 -0.046875 0.234375 -0.046875q0.15625 -0.015625 0.375 -0.015625q0.21875 0 0.359375 0.015625q0.140625 0 0.21875 0.046875q0.09375 0.046875 0.125 0.09375q0.046875 0.046875 0.046875 0.125l0 4.765625q0 0.71875 0.09375 1.15625q0.109375 0.4375 0.328125 0.75q0.21875 0.296875 0.546875 0.46875q0.328125 0.15625 0.765625 0.15625q0.5625 0 1.125 -0.390625q0.5625 -0.40625 1.1875 -1.1875l0 -5.71875q0 -0.078125 0.03125 -0.125q0.03125 -0.046875 0.12496948 -0.09375q0.09375 -0.046875 0.234375 -0.046875q0.140625 -0.015625 0.359375 -0.015625q0.21875 0 0.359375 0.015625q0.15625 0 0.234375 0.046875q0.078125 0.046875 0.125 0.09375q0.046875 0.046875 0.046875 0.125l0 8.1875zm7.036194 -0.59375q0 0.265625 -0.046875 0.421875q-0.03125 0.15625 -0.109375 0.234375q-0.0625 0.0625 -0.21875 0.125q-0.140625 0.0625 -0.328125 0.09375q-0.1875 0.046875 -0.390625 0.078125q-0.203125 0.03125 -0.421875 0.03125q-0.640625 0 -1.09375 -0.171875q-0.453125 -0.171875 -0.75 -0.5q-0.28125 -0.34375 -0.421875 -0.859375q-0.125 -0.53125 -0.125 -1.25l0 -4.796875l-1.15625 0q-0.125 0 -0.21875 -0.140625q-0.078125 -0.140625 -0.078125 -0.46875q0 -0.171875 0.015625 -0.28125q0.03125 -0.125 0.0625 -0.203125q0.046875 -0.078125 0.09375 -0.109375q0.0625 -0.03125 0.140625 -0.03125l1.140625 0l0 -1.953125q0 -0.0625 0.03125 -0.109375q0.03125 -0.0625 0.109375 -0.109375q0.09375 -0.046875 0.234375 -0.0625q0.15625 -0.015625 0.375 -0.015625q0.21875 0 0.359375 0.015625q0.15625 0.015625 0.234375 0.0625q0.078125 0.046875 0.109375 0.109375q0.046875 0.046875 0.046875 0.109375l0 1.953125l2.109375 0q0.0625 0 0.109375 0.03125q0.0625 0.03125 0.109375 0.109375q0.046875 0.078125 0.0625 0.203125q0.015625 0.109375 0.015625 0.28125q0 0.328125 -0.078125 0.46875q-0.078125 0.140625 -0.21875 0.140625l-2.109375 0l0 4.578125q0 0.84375 0.25 1.28125q0.25 0.4375 0.90625 0.4375q0.203125 0 0.359375 -0.046875q0.171875 -0.046875 0.296875 -0.078125q0.125 -0.046875 0.21875 -0.09375q0.09375 -0.046875 0.171875 -0.046875q0.046875 0 0.078125 0.03125q0.046875 0.015625 0.0625 0.078125q0.03125 0.0625 0.046875 0.171875q0.015625 0.109375 0.015625 0.28125zm3.4835205 0.59375q0 0.078125 -0.03125 0.140625q-0.03125 0.046875 -0.125 0.078125q-0.078125 0.03125 -0.21875 0.046875q-0.140625 0.015625 -0.375 0.015625q-0.21875 0 -0.375 -0.015625q-0.140625 -0.015625 -0.234375 -0.046875q-0.078125 -0.03125 -0.109375 -0.078125q-0.03125 -0.0625 -0.03125 -0.140625l0 -8.1875q0 -0.0625 0.03125 -0.109375q0.03125 -0.0625 0.109375 -0.09375q0.09375 -0.046875 0.234375 -0.0625q0.15625 -0.015625 0.375 -0.015625q0.234375 0 0.375 0.015625q0.140625 0.015625 0.21875 0.0625q0.09375 0.03125 0.125 0.09375q0.03125 0.046875 0.03125 0.109375l0 8.1875zm0.171875 -10.96875q0 0.53125 -0.203125 0.734375q-0.1875 0.1875 -0.734375 0.1875q-0.515625 0 -0.71875 -0.1875q-0.1875 -0.1875 -0.1875 -0.703125q0 -0.53125 0.1875 -0.71875q0.203125 -0.203125 0.75 -0.203125q0.515625 0 0.703125 0.1875q0.203125 0.1875 0.203125 0.703125zm9.672058 10.96875q0 0.078125 -0.046875 0.140625q-0.03125 0.046875 -0.109375 0.078125q-0.078125 0.03125 -0.234375 0.046875q-0.140625 0.015625 -0.359375 0.015625q-0.21875 0 -0.375 -0.015625q-0.140625 -0.015625 -0.234375 -0.046875q-0.078125 -0.03125 -0.109375 -0.078125q-0.03125 -0.0625 -0.03125 -0.140625l0 -4.796875q0 -0.703125 -0.109375 -1.125q-0.109375 -0.4375 -0.328125 -0.734375q-0.203125 -0.3125 -0.546875 -0.46875q-0.328125 -0.171875 -0.765625 -0.171875q-0.5625 0 -1.125 0.40625q-0.5625 0.390625 -1.1875 1.171875l0 5.71875q0 0.078125 -0.03125 0.140625q-0.03125 0.046875 -0.125 0.078125q-0.078125 0.03125 -0.21875 0.046875q-0.140625 0.015625 -0.375 0.015625q-0.21875 0 -0.375 -0.015625q-0.140625 -0.015625 -0.234375 -0.046875q-0.078125 -0.03125 -0.109375 -0.078125q-0.03125 -0.0625 -0.03125 -0.140625l0 -8.1875q0 -0.078125 0.03125 -0.125q0.03125 -0.046875 0.109375 -0.09375q0.078125 -0.046875 0.203125 -0.046875q0.140625 -0.015625 0.34375 -0.015625q0.203125 0 0.328125 0.015625q0.140625 0 0.203125 0.046875q0.078125 0.046875 0.109375 0.09375q0.03125 0.046875 0.03125 0.125l0 1.078125q0.6875 -0.765625 1.375 -1.125q0.6875 -0.375 1.390625 -0.375q0.828125 0 1.375 0.28125q0.5625 0.28125 0.90625 0.75q0.359375 0.46875 0.5 1.09375q0.15625 0.609375 0.15625 1.484375l0 5.0zm9.598694 -7.8125q0 0.3125 -0.09375 0.453125q-0.078125 0.140625 -0.21875 0.140625l-1.171875 0q0.3125 0.328125 0.4375 0.734375q0.125 0.390625 0.125 0.8125q0 0.71875 -0.234375 1.265625q-0.21875 0.546875 -0.640625 0.921875q-0.421875 0.375 -1.015625 0.578125q-0.578125 0.203125 -1.28125 0.203125q-0.5 0 -0.953125 -0.125q-0.453125 -0.140625 -0.703125 -0.34375q-0.15625 0.15625 -0.265625 0.375q-0.109375 0.203125 -0.109375 0.484375q0 0.3125 0.296875 0.53125q0.296875 0.203125 0.796875 0.21875l2.140625 0.09375q0.609375 0.015625 1.109375 0.171875q0.515625 0.140625 0.890625 0.421875q0.375 0.28125 0.578125 0.6875q0.21875 0.40625 0.21875 0.9375q0 0.5625 -0.25 1.078125q-0.234375 0.515625 -0.71875 0.890625q-0.484375 0.390625 -1.25 0.609375q-0.75 0.234375 -1.78125 0.234375q-0.984375 0 -1.6875 -0.171875q-0.6875 -0.171875 -1.140625 -0.46875q-0.4375 -0.28125 -0.640625 -0.6875q-0.203125 -0.40625 -0.203125 -0.875q0 -0.3125 0.0625 -0.59375q0.078125 -0.28125 0.21875 -0.53125q0.15625 -0.25 0.375 -0.484375q0.234375 -0.234375 0.53125 -0.46875q-0.453125 -0.21875 -0.671875 -0.5625q-0.203125 -0.359375 -0.203125 -0.75q0 -0.5625 0.21875 -1.0q0.234375 -0.4375 0.5625 -0.78125q-0.28125 -0.328125 -0.453125 -0.75q-0.15625 -0.4375 -0.15625 -1.03125q0 -0.703125 0.234375 -1.25q0.25 -0.5625 0.65625 -0.9375q0.421875 -0.390625 1.015625 -0.59375q0.59375 -0.203125 1.28125 -0.203125q0.375 0 0.6875 0.046875q0.328125 0.03125 0.609375 0.109375l2.484375 0q0.15625 0 0.234375 0.15625q0.078125 0.140625 0.078125 0.453125zm-2.359375 2.15625q0 -0.84375 -0.46875 -1.3125q-0.453125 -0.46875 -1.296875 -0.46875q-0.4375 0 -0.765625 0.15625q-0.3125 0.140625 -0.53125 0.390625q-0.21875 0.25 -0.328125 0.59375q-0.09375 0.328125 -0.09375 0.6875q0 0.8125 0.453125 1.28125q0.46875 0.46875 1.296875 0.46875q0.4375 0 0.765625 -0.140625q0.328125 -0.140625 0.546875 -0.390625q0.21875 -0.25 0.3125 -0.578125q0.109375 -0.328125 0.109375 -0.6875zm0.765625 6.484375q0 -0.515625 -0.4375 -0.796875q-0.4375 -0.296875 -1.171875 -0.3125l-2.125 -0.078125q-0.296875 0.234375 -0.484375 0.4375q-0.171875 0.203125 -0.28125 0.390625q-0.109375 0.1875 -0.15625 0.359375q-0.046875 0.1875 -0.046875 0.375q0 0.59375 0.59375 0.890625q0.609375 0.3125 1.6875 0.3125q0.6875 0 1.140625 -0.140625q0.46875 -0.125 0.75 -0.34375q0.28125 -0.21875 0.40625 -0.5q0.125 -0.28125 0.125 -0.59375z" fill-rule="nonzero"/><path fill="#ffffff" d="m495.24646 119.99671q0 0.828125 -0.3125 1.484375q-0.296875 0.640625 -0.84375 1.09375q-0.53125 0.453125 -1.265625 0.6875q-0.734375 0.21875 -1.578125 0.21875q-0.59375 0 -1.109375 -0.109375q-0.5 -0.09375 -0.890625 -0.234375q-0.390625 -0.140625 -0.671875 -0.296875q-0.265625 -0.15625 -0.375 -0.265625q-0.09375 -0.109375 -0.15625 -0.28125q-0.046875 -0.171875 -0.046875 -0.453125q0 -0.203125 0.015625 -0.328125q0.03125 -0.140625 0.0625 -0.21875q0.03125 -0.078125 0.078125 -0.109375q0.0625 -0.03125 0.140625 -0.03125q0.125 0 0.359375 0.15625q0.234375 0.15625 0.59375 0.34375q0.375 0.171875 0.875 0.328125q0.515625 0.15625 1.203125 0.15625q0.5 0 0.921875 -0.125q0.421875 -0.140625 0.734375 -0.390625q0.3125 -0.25 0.46875 -0.609375q0.171875 -0.375 0.171875 -0.84375q0 -0.5 -0.234375 -0.84375q-0.234375 -0.359375 -0.609375 -0.625q-0.359375 -0.265625 -0.84375 -0.484375q-0.484375 -0.234375 -0.984375 -0.46875q-0.5 -0.234375 -0.96875 -0.515625q-0.46875 -0.28125 -0.84375 -0.65625q-0.375 -0.390625 -0.609375 -0.90625q-0.234375 -0.515625 -0.234375 -1.234375q0 -0.734375 0.265625 -1.3125q0.265625 -0.578125 0.75 -0.96875q0.484375 -0.390625 1.140625 -0.59375q0.65625 -0.203125 1.421875 -0.203125q0.390625 0 0.78125 0.0625q0.40625 0.0625 0.75 0.1875q0.359375 0.109375 0.625 0.25q0.28125 0.140625 0.359375 0.234375q0.09375 0.078125 0.109375 0.125q0.03125 0.046875 0.046875 0.125q0.03125 0.078125 0.03125 0.1875q0.015625 0.109375 0.015625 0.28125q0 0.171875 -0.015625 0.296875q-0.015625 0.125 -0.046875 0.21875q-0.015625 0.078125 -0.078125 0.125q-0.046875 0.046875 -0.109375 0.046875q-0.09375 0 -0.3125 -0.125q-0.21875 -0.140625 -0.53125 -0.296875q-0.296875 -0.15625 -0.734375 -0.28125q-0.421875 -0.140625 -0.9375 -0.140625q-0.5 0 -0.859375 0.140625q-0.359375 0.125 -0.609375 0.34375q-0.234375 0.21875 -0.359375 0.515625q-0.109375 0.296875 -0.109375 0.640625q0 0.484375 0.21875 0.84375q0.234375 0.359375 0.609375 0.640625q0.390625 0.265625 0.859375 0.5q0.484375 0.21875 0.984375 0.453125q0.515625 0.234375 0.984375 0.515625q0.484375 0.265625 0.859375 0.65625q0.390625 0.375 0.609375 0.890625q0.234375 0.5 0.234375 1.203125zm9.072052 -1.375q0 0.359375 -0.1875 0.515625q-0.171875 0.140625 -0.390625 0.140625l-5.375 0q0 0.6875 0.125 1.234375q0.140625 0.546875 0.453125 0.9375q0.328125 0.390625 0.828125 0.609375q0.515625 0.203125 1.25 0.203125q0.59375 0 1.046875 -0.09375q0.453125 -0.09375 0.78125 -0.203125q0.34375 -0.125 0.546875 -0.21875q0.21875 -0.109375 0.328125 -0.109375q0.0625 0 0.109375 0.03125q0.0625 0.03125 0.078125 0.109375q0.03125 0.0625 0.046875 0.171875q0.015625 0.109375 0.015625 0.28125q0 0.109375 -0.015625 0.203125q0 0.078125 -0.015625 0.15625q-0.015625 0.0625 -0.046875 0.125q-0.03125 0.046875 -0.09375 0.09375q-0.046875 0.046875 -0.296875 0.171875q-0.234375 0.109375 -0.625 0.21875q-0.390625 0.109375 -0.90625 0.1875q-0.515625 0.09375 -1.09375 0.09375q-1.015625 0 -1.78125 -0.28125q-0.765625 -0.28125 -1.28125 -0.828125q-0.515625 -0.5625 -0.78125 -1.390625q-0.265625 -0.84375 -0.265625 -1.96875q0 -1.046875 0.265625 -1.890625q0.28125 -0.84375 0.796875 -1.421875q0.515625 -0.59375 1.234375 -0.90625q0.734375 -0.328125 1.640625 -0.328125q0.96875 0 1.640625 0.3125q0.6875 0.3125 1.125 0.84375q0.4375 0.515625 0.640625 1.234375q0.203125 0.703125 0.203125 1.5l0 0.265625zm-1.515625 -0.4375q0.03125 -1.1875 -0.53125 -1.859375q-0.546875 -0.671875 -1.625 -0.671875q-0.5625 0 -0.984375 0.21875q-0.40625 0.203125 -0.6875 0.546875q-0.28125 0.34375 -0.4375 0.8125q-0.15625 0.453125 -0.171875 0.953125l4.4375 0zm8.595062 -2.765625q0 0.203125 -0.015625 0.34375q0 0.125 -0.03125 0.203125q-0.03125 0.078125 -0.078125 0.125q-0.03125 0.046875 -0.109375 0.046875q-0.0625 0 -0.171875 -0.046875q-0.109375 -0.046875 -0.25 -0.078125q-0.125 -0.046875 -0.296875 -0.078125q-0.15625 -0.046875 -0.34375 -0.046875q-0.21875 0 -0.4375 0.09375q-0.21875 0.09375 -0.46875 0.3125q-0.234375 0.203125 -0.5 0.546875q-0.265625 0.34375 -0.59375 0.84375l0 5.390625q0 0.078125 -0.03125 0.140625q-0.03125 0.046875 -0.125 0.078125q-0.078125 0.03125 -0.21875 0.046875q-0.140625 0.015625 -0.375 0.015625q-0.21875 0 -0.375 -0.015625q-0.140625 -0.015625 -0.234375 -0.046875q-0.078125 -0.03125 -0.109375 -0.078125q-0.03125 -0.0625 -0.03125 -0.140625l0 -8.1875q0 -0.078125 0.03125 -0.125q0.03125 -0.046875 0.109375 -0.09375q0.078125 -0.046875 0.203125 -0.046875q0.140625 -0.015625 0.34375 -0.015625q0.203125 0 0.328125 0.015625q0.140625 0 0.203125 0.046875q0.078125 0.046875 0.109375 0.09375q0.03125 0.046875 0.03125 0.125l0 1.1875q0.34375 -0.484375 0.640625 -0.796875q0.296875 -0.3125 0.546875 -0.484375q0.265625 -0.1875 0.53125 -0.25q0.265625 -0.078125 0.515625 -0.078125q0.125 0 0.265625 0.015625q0.15625 0.015625 0.3125 0.0625q0.171875 0.03125 0.296875 0.078125q0.140625 0.046875 0.1875 0.09375q0.0625 0.046875 0.078125 0.09375q0.03125 0.03125 0.03125 0.09375q0.015625 0.0625 0.015625 0.1875q0.015625 0.125 0.015625 0.328125zm8.426086 -0.546875q0 0.03125 0 0.078125q0 0.03125 -0.015625 0.078125q0 0.046875 -0.015625 0.109375q-0.015625 0.046875 -0.03125 0.109375l-2.796875 7.796875q-0.046875 0.09375 -0.109375 0.15625q-0.046875 0.0625 -0.171875 0.109375q-0.109375 0.03125 -0.296875 0.03125q-0.1875 0.015625 -0.453125 0.015625q-0.28125 0 -0.46875 -0.015625q-0.171875 -0.015625 -0.28125 -0.046875q-0.109375 -0.03125 -0.1875 -0.09375q-0.0625 -0.078125 -0.09375 -0.15625l-2.78125 -7.796875q-0.046875 -0.109375 -0.078125 -0.1875q-0.015625 -0.078125 -0.015625 -0.125q0 -0.046875 0 -0.0625q0 -0.078125 0.03125 -0.125q0.03125 -0.0625 0.125 -0.09375q0.09375 -0.03125 0.234375 -0.03125q0.140625 -0.015625 0.34375 -0.015625q0.265625 0 0.421875 0.015625q0.15625 0 0.234375 0.046875q0.09375 0.03125 0.140625 0.09375q0.046875 0.046875 0.078125 0.125l2.3125 6.765625l0.03125 0.109375l0.03125 -0.109375l2.296875 -6.765625q0.015625 -0.078125 0.0625 -0.125q0.046875 -0.0625 0.125 -0.09375q0.09375 -0.046875 0.234375 -0.046875q0.15625 -0.015625 0.40625 -0.015625q0.203125 0 0.328125 0.015625q0.140625 0 0.21875 0.03125q0.078125 0.03125 0.109375 0.09375q0.03125 0.046875 0.03125 0.125zm3.2075195 8.203125q0 0.078125 -0.03125 0.140625q-0.03125 0.046875 -0.125 0.078125q-0.078125 0.03125 -0.21875 0.046875q-0.140625 0.015625 -0.375 0.015625q-0.21875 0 -0.375 -0.015625q-0.140625 -0.015625 -0.234375 -0.046875q-0.078125 -0.03125 -0.109375 -0.078125q-0.03125 -0.0625 -0.03125 -0.140625l0 -8.1875q0 -0.0625 0.03125 -0.109375q0.03125 -0.0625 0.109375 -0.09375q0.09375 -0.046875 0.234375 -0.0625q0.15625 -0.015625 0.375 -0.015625q0.234375 0 0.375 0.015625q0.140625 0.015625 0.21875 0.0625q0.09375 0.03125 0.125 0.09375q0.03125 0.046875 0.03125 0.109375l0 8.1875zm0.171875 -10.96875q0 0.53125 -0.203125 0.734375q-0.1875 0.1875 -0.734375 0.1875q-0.515625 0 -0.71875 -0.1875q-0.1875 -0.1875 -0.1875 -0.703125q0 -0.53125 0.1875 -0.71875q0.203125 -0.203125 0.75 -0.203125q0.515625 0 0.703125 0.1875q0.203125 0.1875 0.203125 0.703125zm8.500183 9.734375q0 0.140625 -0.015625 0.265625q0 0.109375 -0.03125 0.1875q-0.015625 0.078125 -0.046875 0.140625q-0.03125 0.0625 -0.140625 0.171875q-0.109375 0.109375 -0.390625 0.28125q-0.265625 0.171875 -0.609375 0.3125q-0.34375 0.125 -0.75 0.203125q-0.390625 0.078125 -0.828125 0.078125q-0.875 0 -1.5625 -0.28125q-0.6875 -0.296875 -1.15625 -0.859375q-0.453125 -0.5625 -0.703125 -1.375q-0.234375 -0.8125 -0.234375 -1.890625q0 -1.203125 0.296875 -2.0625q0.296875 -0.875 0.8125 -1.4375q0.515625 -0.5625 1.203125 -0.828125q0.703125 -0.265625 1.515625 -0.265625q0.390625 0 0.765625 0.078125q0.375 0.0625 0.671875 0.1875q0.3125 0.125 0.546875 0.28125q0.25 0.140625 0.359375 0.25q0.109375 0.109375 0.140625 0.1875q0.046875 0.0625 0.078125 0.15625q0.03125 0.078125 0.03125 0.1875q0.015625 0.109375 0.015625 0.265625q0 0.359375 -0.078125 0.5q-0.078125 0.140625 -0.203125 0.140625q-0.140625 0 -0.3125 -0.140625q-0.171875 -0.15625 -0.453125 -0.34375q-0.265625 -0.1875 -0.65625 -0.328125q-0.390625 -0.15625 -0.921875 -0.15625q-1.078125 0 -1.65625 0.84375q-0.578125 0.828125 -0.578125 2.40625q0 0.796875 0.140625 1.390625q0.15625 0.59375 0.4375 1.0q0.296875 0.40625 0.71875 0.609375q0.4375 0.1875 0.984375 0.1875q0.515625 0 0.90625 -0.15625q0.390625 -0.171875 0.671875 -0.359375q0.296875 -0.203125 0.484375 -0.359375q0.203125 -0.171875 0.3125 -0.171875q0.0625 0 0.109375 0.046875q0.046875 0.03125 0.078125 0.125q0.03125 0.078125 0.03125 0.21875q0.015625 0.125 0.015625 0.3125zm8.99823 -3.21875q0 0.359375 -0.1875 0.515625q-0.171875 0.140625 -0.390625 0.140625l-5.375 0q0 0.6875 0.125 1.234375q0.140625 0.546875 0.453125 0.9375q0.328125 0.390625 0.828125 0.609375q0.515625 0.203125 1.25 0.203125q0.59375 0 1.046875 -0.09375q0.453125 -0.09375 0.78125 -0.203125q0.34375 -0.125 0.546875 -0.21875q0.21875 -0.109375 0.328125 -0.109375q0.0625 0 0.109375 0.03125q0.0625 0.03125 0.078125 0.109375q0.03125 0.0625 0.046875 0.171875q0.015625 0.109375 0.015625 0.28125q0 0.109375 -0.015625 0.203125q0 0.078125 -0.015625 0.15625q-0.015625 0.0625 -0.046875 0.125q-0.03125 0.046875 -0.09375 0.09375q-0.046875 0.046875 -0.296875 0.171875q-0.234375 0.109375 -0.625 0.21875q-0.390625 0.109375 -0.90625 0.1875q-0.515625 0.09375 -1.09375 0.09375q-1.015625 0 -1.78125 -0.28125q-0.765625 -0.28125 -1.28125 -0.828125q-0.515625 -0.5625 -0.78125 -1.390625q-0.265625 -0.84375 -0.265625 -1.96875q0 -1.046875 0.265625 -1.890625q0.28125 -0.84375 0.796875 -1.421875q0.515625 -0.59375 1.234375 -0.90625q0.734375 -0.328125 1.640625 -0.328125q0.96875 0 1.640625 0.3125q0.6875 0.3125 1.125 0.84375q0.4375 0.515625 0.640625 1.234375q0.203125 0.703125 0.203125 1.5l0 0.265625zm-1.515625 -0.4375q0.03125 -1.1875 -0.53125 -1.859375q-0.546875 -0.671875 -1.625 -0.671875q-0.5625 0 -0.984375 0.21875q-0.40625 0.203125 -0.6875 0.546875q-0.28125 0.34375 -0.4375 0.8125q-0.15625 0.453125 -0.171875 0.953125l4.4375 0z" fill-rule="nonzero"/><path fill="#000000" fill-opacity="0.0" d="m323.6553 105.38019l126.456696 0" fill-rule="evenodd"/><path stroke="#674ea7" stroke-width="3.0" stroke-linejoin="round" stroke-linecap="butt" d="m341.6553 105.38019l90.456696 0" fill-rule="evenodd"/><path fill="#674ea7" stroke="#674ea7" stroke-width="3.0" stroke-linecap="butt" d="m341.6553 100.42499l-13.614288 4.9552l13.614288 4.9552z" fill-rule="evenodd"/><path fill="#674ea7" stroke="#674ea7" stroke-width="3.0" stroke-linecap="butt" d="m432.112 110.33539l13.614288 -4.9552l-13.614288 -4.9552z" fill-rule="evenodd"/><path fill="#d2d2d2" d="m643.51184 146.50674l0 0c0 -5.076477 4.1152954 -9.191788 9.191772 -9.191788l103.53766 0c2.4378052 0 4.775818 0.9684143 6.4995728 2.692215c1.7238159 1.7238007 2.6921997 4.0617676 2.6921997 6.4995728l0 36.766037c0 5.076477 -4.1152954 9.191788 -9.191772 9.191788l-103.53766 0c-5.076477 0 -9.191772 -4.1153107 -9.191772 -9.191788z" fill-rule="evenodd"/><path fill="#000000" d="m686.3474 168.0129l1.59375 -0.21875q0.078125 1.53125 0.578125 2.109375q0.515625 0.5625 1.421875 0.5625q0.65625 0 1.140625 -0.296875q0.484375 -0.3125 0.65625 -0.828125q0.1875 -0.53125 0.1875 -1.6875l0 -9.203125l1.765625 0l0 9.109375q0 1.671875 -0.40625 2.59375q-0.40625 0.921875 -1.28125 1.40625q-0.875 0.484375 -2.0625 0.484375q-1.75 0 -2.6875 -1.015625q-0.9375 -1.015625 -0.90625 -3.015625zm10.1875 3.796875l0 -13.359375l2.65625 0l3.15625 9.453125q0.4375 1.328125 0.640625 1.984375q0.234375 -0.734375 0.703125 -2.140625l3.203125 -9.296875l2.375 0l0 13.359375l-1.703125 0l0 -11.171875l-3.875 11.171875l-1.59375 0l-3.859375 -11.375l0 11.375l-1.703125 0zm14.9939575 -4.296875l1.65625 -0.140625q0.125 1.0 0.546875 1.640625q0.4375 0.640625 1.34375 1.046875q0.921875 0.390625 2.0625 0.390625q1.0 0 1.78125 -0.296875q0.78125 -0.296875 1.15625 -0.8125q0.375 -0.53125 0.375 -1.15625q0 -0.625 -0.375 -1.09375q-0.359375 -0.46875 -1.1875 -0.796875q-0.546875 -0.203125 -2.390625 -0.640625q-1.828125 -0.453125 -2.5625 -0.84375q-0.96875 -0.5 -1.4375 -1.234375q-0.46875 -0.75 -0.46875 -1.671875q0 -1.0 0.578125 -1.875q0.578125 -0.890625 1.671875 -1.34375q1.109375 -0.453125 2.453125 -0.453125q1.484375 0 2.609375 0.484375q1.140625 0.46875 1.75 1.40625q0.609375 0.921875 0.65625 2.09375l-1.6875 0.125q-0.140625 -1.265625 -0.9375 -1.90625q-0.78125 -0.65625 -2.3125 -0.65625q-1.609375 0 -2.34375 0.59375q-0.734375 0.59375 -0.734375 1.421875q0 0.71875 0.53125 1.171875q0.5 0.46875 2.65625 0.96875q2.15625 0.484375 2.953125 0.84375q1.171875 0.53125 1.71875 1.359375q0.5625 0.828125 0.5625 1.90625q0 1.0625 -0.609375 2.015625q-0.609375 0.9375 -1.75 1.46875q-1.140625 0.515625 -2.578125 0.515625q-1.8125 0 -3.046875 -0.53125q-1.21875 -0.53125 -1.921875 -1.59375q-0.6875 -1.0625 -0.71875 -2.40625z" fill-rule="nonzero"/><path fill="#d2d2d2" d="m643.51184 21.669476l0 0c0 -5.076483 4.1152954 -9.191785 9.191772 -9.191785l103.53766 0c2.4378052 0 4.775818 0.96841717 6.4995728 2.6922112c1.7238159 1.723794 2.6921997 4.061761 2.6921997 6.4995737l0 36.766037c0 5.076481 -4.1152954 9.191784 -9.191772 9.191784l-103.53766 0c-5.076477 0 -9.191772 -4.115303 -9.191772 -9.191784z" fill-rule="evenodd"/><path fill="#000000" d="m686.2152 46.972492l0 -13.359375l4.609375 0q1.546875 0 2.375 0.203125q1.140625 0.25 1.953125 0.953125q1.0625 0.890625 1.578125 2.28125q0.53125 1.390625 0.53125 3.171875q0 1.515625 -0.359375 2.703125q-0.359375 1.171875 -0.921875 1.9375q-0.546875 0.765625 -1.203125 1.21875q-0.65625 0.4375 -1.59375 0.671875q-0.9375 0.21875 -2.140625 0.21875l-4.828125 0zm1.765625 -1.578125l2.859375 0q1.3125 0 2.0625 -0.234375q0.75 -0.25 1.203125 -0.703125q0.625 -0.625 0.96875 -1.6875q0.359375 -1.0625 0.359375 -2.578125q0 -2.09375 -0.6875 -3.21875q-0.6875 -1.125 -1.671875 -1.5q-0.703125 -0.28125 -2.28125 -0.28125l-2.8125 0l0 10.203125zm11.707336 1.578125l0 -13.359375l4.609375 0q1.546875 0 2.375 0.203125q1.140625 0.25 1.953125 0.953125q1.0625 0.890625 1.578125 2.28125q0.53125 1.390625 0.53125 3.171875q0 1.515625 -0.359375 2.703125q-0.359375 1.171875 -0.921875 1.9375q-0.546875 0.765625 -1.203125 1.21875q-0.65625 0.4375 -1.59375 0.671875q-0.9375 0.21875 -2.140625 0.21875l-4.828125 0zm1.765625 -1.578125l2.859375 0q1.3125 0 2.0625 -0.234375q0.75 -0.25 1.203125 -0.703125q0.625 -0.625 0.96875 -1.6875q0.359375 -1.0625 0.359375 -2.578125q0 -2.09375 -0.6875 -3.21875q-0.6875 -1.125 -1.671875 -1.5q-0.703125 -0.28125 -2.28125 -0.28125l-2.8125 0l0 10.203125zm11.113525 -2.71875l1.65625 -0.140625q0.125 1.0 0.546875 1.640625q0.4375 0.640625 1.34375 1.046875q0.921875 0.390625 2.0625 0.390625q1.0 0 1.78125 -0.296875q0.78125 -0.296875 1.15625 -0.8125q0.375 -0.53125 0.375 -1.15625q0 -0.625 -0.375 -1.09375q-0.359375 -0.46875 -1.1875 -0.796875q-0.546875 -0.203125 -2.390625 -0.640625q-1.828125 -0.453125 -2.5625 -0.84375q-0.96875 -0.5 -1.4375 -1.234375q-0.46875 -0.75 -0.46875 -1.671875q0 -1.0 0.578125 -1.875q0.578125 -0.890625 1.671875 -1.34375q1.109375 -0.453125 2.453125 -0.453125q1.484375 0 2.609375 0.484375q1.140625 0.46875 1.75 1.40625q0.609375 0.921875 0.65625 2.09375l-1.6875 0.125q-0.140625 -1.265625 -0.9375 -1.90625q-0.78125 -0.65625 -2.3125 -0.65625q-1.609375 0 -2.34375 0.59375q-0.734375 0.59375 -0.734375 1.421875q0 0.71875 0.53125 1.171875q0.5 0.46875 2.65625 0.96875q2.15625 0.484375 2.953125 0.84375q1.171875 0.53125 1.71875 1.359375q0.5625 0.828125 0.5625 1.90625q0 1.0625 -0.609375 2.015625q-0.609375 0.9375 -1.75 1.46875q-1.140625 0.515625 -2.578125 0.515625q-1.8125 0 -3.046875 -0.53125q-1.21875 -0.53125 -1.921875 -1.59375q-0.6875 -1.0625 -0.71875 -2.40625z" fill-rule="nonzero"/><path fill="#000000" fill-opacity="0.0" d="m134.91864 40.052494l60.031494 65.32283" fill-rule="evenodd"/><path stroke="#674ea7" stroke-width="1.0" stroke-linejoin="round" stroke-linecap="butt" d="m138.97858 44.470287l51.91162 56.487247" fill-rule="evenodd"/><path fill="#674ea7" stroke="#674ea7" stroke-width="1.0" stroke-linecap="butt" d="m140.19475 43.35263l-4.286911 -2.2237396l1.8545685 4.459049z" fill-rule="evenodd"/><path fill="#674ea7" stroke="#674ea7" stroke-width="1.0" stroke-linecap="butt" d="m189.67403 102.07519l4.2868958 2.2237473l-1.8545685 -4.459053z" fill-rule="evenodd"/><path fill="#000000" fill-opacity="0.0" d="m134.91864 169.27821l60.031494 -63.90551" fill-rule="evenodd"/><path stroke="#674ea7" stroke-width="1.0" stroke-linejoin="round" stroke-linecap="butt" d="m139.02666 164.90509l51.815445 -55.159264" fill-rule="evenodd"/><path fill="#674ea7" stroke="#674ea7" stroke-width="1.0" stroke-linecap="butt" d="m137.82278 163.7742l-1.9032288 4.438507l4.310974 -2.1767273z" fill-rule="evenodd"/><path fill="#674ea7" stroke="#674ea7" stroke-width="1.0" stroke-linecap="butt" d="m192.04599 110.87672l1.9032135 -4.4384995l-4.310959 2.1767197z" fill-rule="evenodd"/><path fill="#000000" fill-opacity="0.0" d="m643.51184 40.052494l-64.69293 65.32283" fill-rule="evenodd"/><path stroke="#674ea7" stroke-width="1.0" stroke-linejoin="round" stroke-linecap="butt" d="m639.2898 44.315636l-56.24884 56.796547" fill-rule="evenodd"/><path fill="#674ea7" stroke="#674ea7" stroke-width="1.0" stroke-linecap="butt" d="m640.4634 45.477917l2.0197144 -4.3867073l-4.3669434 2.0621529z" fill-rule="evenodd"/><path fill="#674ea7" stroke="#674ea7" stroke-width="1.0" stroke-linecap="butt" d="m581.8673 99.949905l-2.0197144 4.3867035l4.3669434 -2.062149z" fill-rule="evenodd"/><path fill="#000000" fill-opacity="0.0" d="m571.16223 105.38921l72.346436 59.496056" fill-rule="evenodd"/><path stroke="#674ea7" stroke-width="1.0" stroke-linejoin="round" stroke-linecap="butt" d="m575.7964 109.20027l63.078064 51.87393" fill-rule="evenodd"/><path fill="#674ea7" stroke="#674ea7" stroke-width="1.0" stroke-linecap="butt" d="m576.8455 107.92453l-4.554199 -1.6067505l2.4559326 4.1582336z" fill-rule="evenodd"/><path fill="#674ea7" stroke="#674ea7" stroke-width="1.0" stroke-linecap="butt" d="m637.8253 162.34996l4.554199 1.6067505l-2.4559326 -4.1582336z" fill-rule="evenodd"/></g></svg>