<?xml version="1.0" encoding="UTF-8" standalone="no"?>
<!DOCTYPE svg PUBLIC "-//W3C//DTD SVG 20010904//EN" "http://www.w3.org/TR/2001/REC-SVG-20010904/DTD/svg10.dtd">
<svg version="1.0" xmlns="http://www.w3.org/2000/svg" width="930.000000pt" height="1280.000000pt" viewBox="0 0 930.000000 1280.000000" preserveAspectRatio="xMidYMid meet">
<g transform="translate(0.000000,1280.000000) scale(0.100000,-0.100000)" fill="#000000" stroke="none">
<path d="M1960 12701 c-999 -432 -1706 -1190 -1894 -2033 -32 -141 -66 -399 -66 -496 0 -40 4 -103 10 -140 5 -37 17 -116 25 -177 32 -234 100 -446 220 -690 126 -255 274 -461 495 -689 203 -209 406 -372 660 -532 185 -116 522 -286 675 -340 39 -14 38 -13 -51 78 -541 555 -881 1201 -1004 1913 -71 413 -64 846 20 1265 126 628 427 1211 884 1710 48 52 110 116 139 142 29 26 45 48 37 48 -8 0 -76 -26 -150 -59z"/>
<path d="M7227 12713 c127 -118 320 -345 450 -530 535 -759 748 -1689 593 -2588 -56 -321 -148 -606 -295 -912 -181 -376 -398 -682 -709 -1001 -89 -91 -90 -92 -51 -78 153 54 490 224 675 340 254 160 457 323 660 532 221 228 369 434 495 689 120 244 188 456 220 690 8 61 20 140 25 177 15 100 12 196 -10 368 -26 196 -61 350 -111 496 -129 375 -338 702 -644 1009 -261 262 -514 450 -860 639 -142 77 -409 200 -461 211 -27 6 -25 3 23 -42z"/>
<path d="M2970 11949 c-518 -273 -893 -682 -1073 -1169 -42 -113 -82 -289 -96 -422 -86 -786 381 -1551 1196 -1962 59 -30 109 -53 111 -51 2 2 -36 50 -83 106 -323 386 -524 845 -601 1374 -22 147 -25 522 -6 665 54 403 170 746 360 1068 67 113 206 305 293 405 22 26 35 47 28 47 -8 0 -66 -28 -129 -61z"/>
<path d="M6229 11963 c87 -100 226 -292 293 -405 190 -322 306 -665 360 -1068 19 -143 16 -518 -6 -665 -77 -529 -278 -988 -601 -1374 -47 -56 -85 -104 -83 -106 6 -6 218 105 310 162 217 134 433 323 585 513 785 977 443 2300 -758 2929 -64 34 -121 61 -128 61 -7 0 6 -21 28 -47z"/>
<path d="M4575 10924 c-168 -26 -347 -156 -427 -310 -119 -226 -78 -471 110 -659 65 -65 184 -136 252 -150 19 -4 41 -12 48 -17 9 -8 12 -216 12 -979 l0 -968 -44 -45 c-32 -32 -49 -60 -60 -98 -9 -29 -290 -1241 -625 -2693 -335 -1452 -718 -3109 -850 -3682 -153 -659 -241 -1060 -241 -1094 0 -96 54 -171 152 -210 58 -24 78 -23 140 4 69 31 113 76 135 137 10 27 24 52 31 55 8 3 247 39 531 80 284 41 676 97 871 125 195 29 600 87 900 130 300 44 549 75 553 71 4 -4 32 -113 62 -242 65 -276 75 -297 175 -346 78 -39 94 -40 162 -9 91 40 147 117 148 201 0 22 -126 584 -280 1250 -153 666 -540 2341 -860 3723 -319 1382 -587 2526 -595 2541 -8 16 -30 44 -50 62 l-35 33 0 981 0 982 93 46 c296 147 418 479 277 756 -66 133 -206 255 -342 300 -63 21 -186 33 -243 25z m344 -5323 c133 -577 220 -975 215 -981 -9 -8 -785 406 -810 432 -9 10 26 175 160 753 208 896 185 804 199 784 7 -9 113 -454 236 -988z m-174 -895 c380 -206 430 -236 430 -257 0 -23 -22 -30 -529 -177 -304 -87 -533 -149 -538 -144 -8 8 164 780 178 804 3 4 11 8 17 8 7 0 206 -106 442 -234z m463 -389 c6 -7 51 -189 101 -405 50 -216 94 -404 97 -417 5 -21 3 -25 -16 -25 -31 0 -1323 389 -1337 403 -16 16 5 116 27 129 11 7 1082 322 1111 327 4 1 11 -5 17 -12z m-482 -757 c465 -139 703 -215 712 -227 10 -14 10 -20 0 -30 -13 -12 -1581 -453 -1612 -453 -9 0 -16 8 -16 18 0 21 198 880 206 893 3 5 7 9 8 9 2 0 318 -94 702 -210z m859 -843 c60 -260 110 -480 113 -489 3 -14 -2 -18 -21 -18 -19 0 -1628 397 -1869 461 -39 10 -52 39 -25 56 20 13 1671 471 1683 466 5 -2 59 -216 119 -476z m-872 -372 c518 -130 959 -240 980 -246 31 -8 38 -14 35 -32 -3 -20 -30 -27 -423 -108 -231 -47 -719 -147 -1085 -223 -366 -75 -673 -136 -682 -136 -10 0 -18 7 -18 15 0 13 204 906 216 948 3 9 12 17 20 17 8 0 438 -106 957 -235z m1049 -415 c17 -29 247 -1045 238 -1054 -7 -7 -730 155 -2229 499 -150 35 -278 68 -284 74 -25 25 27 42 333 105 173 36 646 133 1050 216 404 83 762 157 795 164 70 17 85 16 97 -4z m-987 -885 c687 -157 1254 -290 1259 -295 6 -6 6 -13 0 -19 -5 -5 -216 -38 -469 -75 -679 -97 -2115 -304 -2229 -321 -73 -11 -102 -12 -107 -4 -4 6 -1 37 6 68 8 31 57 245 110 476 53 231 100 431 106 444 8 20 15 23 42 18 18 -3 594 -134 1282 -292z"/>
</g>
</svg>