<svg version="1.1" viewBox="0.0 0.0 757.8293963254594 412.8346456692913" fill="none" stroke="none" stroke-linecap="square" stroke-miterlimit="10" xmlns:xlink="http://www.w3.org/1999/xlink" xmlns="http://www.w3.org/2000/svg"><clipPath id="p.0"><path d="m0 0l757.8294 0l0 412.83466l-757.8294 0l0 -412.83466z" clip-rule="nonzero"/></clipPath><g clip-path="url(#p.0)"><path fill="#000000" fill-opacity="0.0" d="m0 0l757.8294 0l0 412.83466l-757.8294 0z" fill-rule="evenodd"/><path fill="#6aa84f" d="m91.20998 78.89236l0 0c0 -35.465794 28.75071 -64.21651 64.21651 -64.21651l429.11026 0c17.031311 0 33.36505 6.765649 45.40796 18.808578c12.042908 12.042931 18.808594 28.376652 18.808594 45.407925l0 256.8583c0 35.46582 -28.750732 64.21652 -64.21655 64.21652l-429.11026 0c-35.465797 0 -64.21651 -28.750702 -64.21651 -64.21652z" fill-rule="evenodd"/><path fill="#ffffff" d="m347.30194 63.797974q0 0.125 -0.046875 0.21875q-0.046875 0.09375 -0.203125 0.15625q-0.15625 0.0625 -0.4375 0.09375q-0.28125 0.03125 -0.75 0.03125q-0.40625 0 -0.671875 -0.03125q-0.25 -0.03125 -0.40625 -0.09375q-0.15625 -0.078125 -0.25 -0.203125q-0.078125 -0.125 -0.140625 -0.3125l-1.859375 -4.765625q-0.328125 -0.8125 -0.6875 -1.484375q-0.34375 -0.6875 -0.828125 -1.171875q-0.484375 -0.5 -1.140625 -0.765625q-0.65625 -0.28125 -1.578125 -0.28125l-1.796875 0l0 8.609375q0 0.125 -0.078125 0.21875q-0.0625 0.09375 -0.21875 0.15625q-0.140625 0.046875 -0.40625 0.078125q-0.25 0.046875 -0.640625 0.046875q-0.390625 0 -0.65625 -0.046875q-0.25 -0.03125 -0.40625 -0.078125q-0.15625 -0.0625 -0.21875 -0.15625q-0.0625 -0.09375 -0.0625 -0.21875l0 -18.71875q0 -0.609375 0.3125 -0.84375q0.328125 -0.25 0.6875 -0.25l4.296875 0q0.765625 0 1.265625 0.046875q0.515625 0.03125 0.921875 0.078125q1.171875 0.203125 2.0625 0.640625q0.90625 0.4375 1.515625 1.109375q0.609375 0.671875 0.90625 1.546875q0.3125 0.859375 0.3125 1.90625q0 1.015625 -0.28125 1.828125q-0.265625 0.796875 -0.78125 1.421875q-0.515625 0.609375 -1.234375 1.0625q-0.71875 0.453125 -1.609375 0.765625q0.5 0.21875 0.90625 0.5625q0.40625 0.328125 0.75 0.796875q0.359375 0.46875 0.671875 1.078125q0.3125 0.609375 0.625 1.375l1.8125 4.453125q0.21875 0.5625 0.28125 0.796875q0.0625 0.21875 0.0625 0.34375zm-4.046875 -14.203125q0 -1.1875 -0.53125 -2.0q-0.53125 -0.828125 -1.78125 -1.1875q-0.390625 -0.109375 -0.890625 -0.15625q-0.484375 -0.046875 -1.28125 -0.046875l-2.265625 0l0 6.8125l2.625 0q1.0625 0 1.828125 -0.25q0.78125 -0.265625 1.296875 -0.71875q0.515625 -0.46875 0.75 -1.09375q0.25 -0.625 0.25 -1.359375zm20.71875 7.03125q0 1.71875 -0.453125 3.171875q-0.453125 1.4375 -1.359375 2.484375q-0.890625 1.046875 -2.25 1.640625q-1.34375 0.578125 -3.125 0.578125q-1.734375 0 -3.03125 -0.515625q-1.28125 -0.515625 -2.140625 -1.5q-0.859375 -0.984375 -1.28125 -2.390625q-0.421875 -1.40625 -0.421875 -3.1875q0 -1.71875 0.4375 -3.15625q0.453125 -1.453125 1.34375 -2.5q0.90625 -1.046875 2.25 -1.625q1.34375 -0.578125 3.140625 -0.578125q1.734375 0 3.015625 0.515625q1.296875 0.515625 2.15625 1.5q0.859375 0.984375 1.28125 2.390625q0.4375 1.40625 0.4375 3.171875zm-2.71875 0.171875q0 -1.140625 -0.21875 -2.15625q-0.203125 -1.015625 -0.6875 -1.78125q-0.484375 -0.765625 -1.3125 -1.203125q-0.828125 -0.453125 -2.0625 -0.453125q-1.140625 0 -1.96875 0.40625q-0.8125 0.40625 -1.34375 1.15625q-0.53125 0.734375 -0.796875 1.75q-0.25 1.015625 -0.25 2.21875q0 1.15625 0.203125 2.171875q0.21875 1.015625 0.703125 1.78125q0.5 0.75 1.328125 1.203125q0.828125 0.4375 2.0625 0.4375q1.125 0 1.953125 -0.40625q0.828125 -0.40625 1.359375 -1.140625q0.53125 -0.734375 0.78125 -1.75q0.25 -1.015625 0.25 -2.234375zm18.5625 7.015625q0 0.125 -0.0625 0.21875q-0.046875 0.078125 -0.1875 0.140625q-0.140625 0.0625 -0.375 0.09375q-0.21875 0.03125 -0.546875 0.03125q-0.359375 0 -0.59375 -0.03125q-0.21875 -0.03125 -0.359375 -0.09375q-0.125 -0.0625 -0.171875 -0.140625q-0.046875 -0.09375 -0.046875 -0.21875l0 -1.859375q-1.203125 1.328125 -2.375 1.9375q-1.171875 0.609375 -2.375 0.609375q-1.40625 0 -2.375 -0.46875q-0.953125 -0.46875 -1.546875 -1.265625q-0.59375 -0.8125 -0.859375 -1.875q-0.25 -1.078125 -0.25 -2.609375l0 -8.53125q0 -0.125 0.046875 -0.203125q0.0625 -0.09375 0.21875 -0.15625q0.15625 -0.078125 0.40625 -0.09375q0.25 -0.03125 0.625 -0.03125q0.375 0 0.625 0.03125q0.25 0.015625 0.390625 0.09375q0.15625 0.0625 0.21875 0.15625q0.0625 0.078125 0.0625 0.203125l0 8.1875q0 1.234375 0.171875 1.984375q0.1875 0.734375 0.546875 1.265625q0.375 0.515625 0.9375 0.8125q0.5625 0.28125 1.3125 0.28125q0.96875 0 1.921875 -0.6875q0.96875 -0.6875 2.046875 -2.015625l0 -9.828125q0 -0.125 0.046875 -0.203125q0.0625 -0.09375 0.21875 -0.15625q0.15625 -0.078125 0.390625 -0.09375q0.25 -0.03125 0.640625 -0.03125q0.375 0 0.625 0.03125q0.25 0.015625 0.390625 0.09375q0.140625 0.0625 0.203125 0.15625q0.078125 0.078125 0.078125 0.203125l0 14.0625zm12.078125 -1.03125q0 0.453125 -0.0625 0.71875q-0.0625 0.265625 -0.1875 0.390625q-0.125 0.125 -0.375 0.234375q-0.25 0.109375 -0.578125 0.171875q-0.3125 0.078125 -0.671875 0.125q-0.359375 0.046875 -0.71875 0.046875q-1.09375 0 -1.875 -0.28125q-0.78125 -0.296875 -1.28125 -0.875q-0.5 -0.59375 -0.734375 -1.484375q-0.21875 -0.90625 -0.21875 -2.125l0 -8.21875l-1.96875 0q-0.234375 0 -0.375 -0.25q-0.140625 -0.25 -0.140625 -0.8125q0 -0.296875 0.03125 -0.5q0.046875 -0.203125 0.109375 -0.328125q0.0625 -0.140625 0.15625 -0.1875q0.109375 -0.0625 0.234375 -0.0625l1.953125 0l0 -3.34375q0 -0.109375 0.046875 -0.203125q0.0625 -0.09375 0.203125 -0.15625q0.15625 -0.078125 0.40625 -0.109375q0.25 -0.03125 0.625 -0.03125q0.390625 0 0.640625 0.03125q0.25 0.03125 0.390625 0.109375q0.140625 0.0625 0.203125 0.15625q0.0625 0.09375 0.0625 0.203125l0 3.34375l3.609375 0q0.125 0 0.21875 0.0625q0.09375 0.046875 0.15625 0.1875q0.078125 0.125 0.109375 0.328125q0.03125 0.203125 0.03125 0.5q0 0.5625 -0.140625 0.8125q-0.140625 0.25 -0.375 0.25l-3.609375 0l0 7.84375q0 1.453125 0.421875 2.203125q0.4375 0.734375 1.546875 0.734375q0.359375 0 0.640625 -0.0625q0.28125 -0.078125 0.5 -0.15625q0.21875 -0.078125 0.375 -0.140625q0.15625 -0.078125 0.28125 -0.078125q0.078125 0 0.140625 0.046875q0.078125 0.03125 0.109375 0.140625q0.046875 0.109375 0.078125 0.296875q0.03125 0.1875 0.03125 0.46875zm15.40625 -6.609375q0 0.609375 -0.3125 0.875q-0.296875 0.25 -0.6875 0.25l-9.21875 0q0 1.171875 0.234375 2.109375q0.234375 0.9375 0.78125 1.609375q0.546875 0.671875 1.421875 1.03125q0.875 0.359375 2.140625 0.359375q1.0 0 1.78125 -0.15625q0.78125 -0.171875 1.34375 -0.375q0.578125 -0.203125 0.9375 -0.359375q0.375 -0.171875 0.5625 -0.171875q0.109375 0 0.1875 0.0625q0.09375 0.046875 0.140625 0.15625q0.046875 0.109375 0.0625 0.3125q0.03125 0.1875 0.03125 0.46875q0 0.203125 -0.015625 0.359375q-0.015625 0.140625 -0.046875 0.265625q-0.015625 0.109375 -0.078125 0.203125q-0.046875 0.09375 -0.140625 0.1875q-0.078125 0.078125 -0.5 0.28125q-0.421875 0.1875 -1.09375 0.375q-0.671875 0.1875 -1.5625 0.328125q-0.875 0.15625 -1.875 0.15625q-1.734375 0 -3.046875 -0.484375q-1.296875 -0.484375 -2.1875 -1.4375q-0.890625 -0.953125 -1.34375 -2.390625q-0.453125 -1.4375 -0.453125 -3.34375q0 -1.8125 0.46875 -3.25q0.46875 -1.453125 1.34375 -2.453125q0.890625 -1.015625 2.140625 -1.546875q1.25 -0.546875 2.796875 -0.546875q1.65625 0 2.8125 0.53125q1.171875 0.53125 1.921875 1.4375q0.75 0.890625 1.09375 2.109375q0.359375 1.203125 0.359375 2.578125l0 0.46875zm-2.59375 -0.765625q0.046875 -2.03125 -0.90625 -3.1875q-0.9375 -1.15625 -2.796875 -1.15625q-0.953125 0 -1.671875 0.359375q-0.71875 0.359375 -1.203125 0.953125q-0.484375 0.59375 -0.75 1.390625q-0.265625 0.78125 -0.296875 1.640625l7.625 0z" fill-rule="nonzero"/><path fill="#000000" fill-opacity="0.0" d="m506.88977 75.91901l0 0c0 -10.248642 8.3081665 -18.5568 18.556824 -18.5568l206.82336 0c4.92157 0 9.641602 1.9550858 13.121643 5.4351616c3.4801025 3.4800758 5.4351807 8.200069 5.4351807 13.121639l0 74.224976c0 10.248642 -8.3081665 18.556808 -18.556824 18.556808l-206.82336 0c-10.248657 0 -18.556824 -8.3081665 -18.556824 -18.556808z" fill-rule="evenodd"/><path stroke="#1c4587" stroke-width="2.0" stroke-linejoin="round" stroke-linecap="butt" stroke-dasharray="8.0,6.0" d="m506.88977 75.91901l0 0c0 -10.248642 8.3081665 -18.5568 18.556824 -18.5568l206.82336 0c4.92157 0 9.641602 1.9550858 13.121643 5.4351616c3.4801025 3.4800758 5.4351807 8.200069 5.4351807 13.121639l0 74.224976c0 10.248642 -8.3081665 18.556808 -18.556824 18.556808l-206.82336 0c-10.248657 0 -18.556824 -8.3081665 -18.556824 -18.556808z" fill-rule="evenodd"/><path fill="#1c4587" d="m681.2927 83.21731q0 -3.328125 1.78125 -5.203125q1.78125 -1.890625 4.609375 -1.890625q1.84375 0 3.328125 0.890625q1.484375 0.875 2.265625 2.46875q0.78125 1.578125 0.78125 3.578125q0 2.03125 -0.828125 3.640625q-0.8125 1.59375 -2.3125 2.421875q-1.5 0.828125 -3.25 0.828125q-1.875 0 -3.359375 -0.90625q-1.484375 -0.921875 -2.25 -2.5q-0.765625 -1.578125 -0.765625 -3.328125zm1.8125 0.015625q0 2.421875 1.296875 3.8125q1.296875 1.390625 3.265625 1.390625q2.0 0 3.28125 -1.40625q1.28125 -1.40625 1.28125 -3.984375q0 -1.625 -0.546875 -2.84375q-0.546875 -1.21875 -1.609375 -1.875q-1.0625 -0.671875 -2.375 -0.671875q-1.890625 0 -3.25 1.296875q-1.34375 1.28125 -1.34375 4.28125zm19.355164 6.484375l0 -1.421875q-1.125 1.640625 -3.0625 1.640625q-0.859375 0 -1.609375 -0.328125q-0.734375 -0.328125 -1.09375 -0.828125q-0.359375 -0.5 -0.5 -1.21875q-0.109375 -0.46875 -0.109375 -1.53125l0 -5.984375l1.640625 0l0 5.359375q0 1.28125 0.109375 1.734375q0.15625 0.640625 0.65625 1.015625q0.5 0.375 1.234375 0.375q0.734375 0 1.375 -0.375q0.65625 -0.390625 0.921875 -1.03125q0.265625 -0.65625 0.265625 -1.890625l0 -5.1875l1.640625 0l0 9.671875l-1.46875 0zm7.6257324 -1.46875l0.234375 1.453125q-0.6875 0.140625 -1.234375 0.140625q-0.890625 0 -1.390625 -0.28125q-0.484375 -0.28125 -0.6875 -0.734375q-0.203125 -0.46875 -0.203125 -1.9375l0 -5.578125l-1.203125 0l0 -1.265625l1.203125 0l0 -2.390625l1.625 -0.984375l0 3.375l1.65625 0l0 1.265625l-1.65625 0l0 5.671875q0 0.6875 0.078125 0.890625q0.09375 0.203125 0.28125 0.328125q0.203125 0.109375 0.578125 0.109375q0.265625 0 0.71875 -0.0625zm1.6051636 5.171875l0 -13.375l1.484375 0l0 1.25q0.53125 -0.734375 1.1875 -1.09375q0.671875 -0.375 1.625 -0.375q1.234375 0 2.171875 0.640625q0.953125 0.625 1.4375 1.796875q0.484375 1.15625 0.484375 2.546875q0 1.484375 -0.53125 2.671875q-0.53125 1.1875 -1.546875 1.828125q-1.015625 0.625 -2.140625 0.625q-0.8125 0 -1.46875 -0.34375q-0.65625 -0.34375 -1.0625 -0.875l0 4.703125l-1.640625 0zm1.484375 -8.484375q0 1.859375 0.75 2.765625q0.765625 0.890625 1.828125 0.890625q1.09375 0 1.875 -0.921875q0.78125 -0.9375 0.78125 -2.875q0 -1.84375 -0.765625 -2.765625q-0.75 -0.921875 -1.8125 -0.921875q-1.046875 0 -1.859375 0.984375q-0.796875 0.96875 -0.796875 2.84375zm15.219482 4.78125l0 -1.421875q-1.125 1.640625 -3.0625 1.640625q-0.859375 0 -1.609375 -0.328125q-0.734375 -0.328125 -1.09375 -0.828125q-0.359375 -0.5 -0.5 -1.21875q-0.109375 -0.46875 -0.109375 -1.53125l0 -5.984375l1.640625 0l0 5.359375q0 1.28125 0.109375 1.734375q0.15625 0.640625 0.65625 1.015625q0.5 0.375 1.234375 0.375q0.734375 0 1.375 -0.375q0.65625 -0.390625 0.921875 -1.03125q0.265625 -0.65625 0.265625 -1.890625l0 -5.1875l1.640625 0l0 9.671875l-1.46875 0zm7.6257324 -1.46875l0.234375 1.453125q-0.6875 0.140625 -1.234375 0.140625q-0.890625 0 -1.390625 -0.28125q-0.484375 -0.28125 -0.6875 -0.734375q-0.203125 -0.46875 -0.203125 -1.9375l0 -5.578125l-1.203125 0l0 -1.265625l1.203125 0l0 -2.390625l1.625 -0.984375l0 3.375l1.65625 0l0 1.265625l-1.65625 0l0 5.671875q0 0.6875 0.078125 0.890625q0.09375 0.203125 0.28125 0.328125q0.203125 0.109375 0.578125 0.109375q0.265625 0 0.71875 -0.0625z" fill-rule="nonzero"/><path fill="#000000" fill-opacity="0.0" d="m506.87665 264.77203l0 0c0 -10.248642 8.3081665 -18.556808 18.556824 -18.556808l206.82336 0c4.92157 0 9.641602 1.9550781 13.121643 5.4351654c3.4801025 3.480072 5.4351807 8.200073 5.4351807 13.121643l0 74.224976c0 10.248627 -8.3081665 18.556793 -18.556824 18.556793l-206.82336 0c-10.248657 0 -18.556824 -8.3081665 -18.556824 -18.556793z" fill-rule="evenodd"/><path stroke="#1c4587" stroke-width="2.0" stroke-linejoin="round" stroke-linecap="butt" stroke-dasharray="8.0,6.0" d="m506.87665 264.77203l0 0c0 -10.248642 8.3081665 -18.556808 18.556824 -18.556808l206.82336 0c4.92157 0 9.641602 1.9550781 13.121643 5.4351654c3.4801025 3.480072 5.4351807 8.200073 5.4351807 13.121643l0 74.224976c0 10.248627 -8.3081665 18.556793 -18.556824 18.556793l-206.82336 0c-10.248657 0 -18.556824 -8.3081665 -18.556824 -18.556793z" fill-rule="evenodd"/><path fill="#1c4587" d="m681.2796 272.0703q0 -3.328125 1.78125 -5.203125q1.78125 -1.890625 4.609375 -1.890625q1.84375 0 3.328125 0.890625q1.484375 0.875 2.265625 2.46875q0.78125 1.578125 0.78125 3.578125q0 2.03125 -0.828125 3.640625q-0.8125 1.59375 -2.3125 2.421875q-1.5 0.828125 -3.25 0.828125q-1.875 0 -3.359375 -0.90625q-1.484375 -0.921875 -2.25 -2.5q-0.765625 -1.578125 -0.765625 -3.328125zm1.8125 0.015625q0 2.421875 1.296875 3.8125q1.296875 1.390625 3.265625 1.390625q2.0 0 3.28125 -1.40625q1.28125 -1.40625 1.28125 -3.984375q0 -1.625 -0.546875 -2.84375q-0.546875 -1.21875 -1.609375 -1.875q-1.0625 -0.671875 -2.375 -0.671875q-1.890625 0 -3.25 1.296875q-1.34375 1.28125 -1.34375 4.28125zm19.355164 6.484375l0 -1.421875q-1.125 1.640625 -3.0625 1.640625q-0.859375 0 -1.609375 -0.328125q-0.734375 -0.328125 -1.09375 -0.828125q-0.359375 -0.5 -0.5 -1.21875q-0.109375 -0.46875 -0.109375 -1.53125l0 -5.984375l1.640625 0l0 5.359375q0 1.28125 0.109375 1.734375q0.15625 0.640625 0.65625 1.015625q0.5 0.375 1.234375 0.375q0.734375 0 1.375 -0.375q0.65625 -0.390625 0.921875 -1.03125q0.265625 -0.65625 0.265625 -1.890625l0 -5.1875l1.640625 0l0 9.671875l-1.46875 0zm7.6257324 -1.46875l0.234375 1.453125q-0.6875 0.140625 -1.234375 0.140625q-0.890625 0 -1.390625 -0.28125q-0.484375 -0.28125 -0.6875 -0.734375q-0.203125 -0.46875 -0.203125 -1.9375l0 -5.578125l-1.203125 0l0 -1.265625l1.203125 0l0 -2.390625l1.625 -0.984375l0 3.375l1.65625 0l0 1.265625l-1.65625 0l0 5.671875q0 0.6875 0.078125 0.890625q0.09375 0.203125 0.28125 0.328125q0.203125 0.109375 0.578125 0.109375q0.265625 0 0.71875 -0.0625zm1.6051636 5.171875l0 -13.375l1.484375 0l0 1.25q0.53125 -0.734375 1.1875 -1.09375q0.671875 -0.375 1.625 -0.375q1.234375 0 2.171875 0.640625q0.953125 0.625 1.4375 1.796875q0.484375 1.15625 0.484375 2.546875q0 1.484375 -0.53125 2.671875q-0.53125 1.1875 -1.546875 1.828125q-1.015625 0.625 -2.140625 0.625q-0.8125 0 -1.46875 -0.34375q-0.65625 -0.34375 -1.0625 -0.875l0 4.703125l-1.640625 0zm1.484375 -8.484375q0 1.859375 0.75 2.765625q0.765625 0.890625 1.828125 0.890625q1.09375 0 1.875 -0.921875q0.78125 -0.9375 0.78125 -2.875q0 -1.84375 -0.765625 -2.765625q-0.75 -0.921875 -1.8125 -0.921875q-1.046875 0 -1.859375 0.984375q-0.796875 0.96875 -0.796875 2.84375zm15.219482 4.78125l0 -1.421875q-1.125 1.640625 -3.0625 1.640625q-0.859375 0 -1.609375 -0.328125q-0.734375 -0.328125 -1.09375 -0.828125q-0.359375 -0.5 -0.5 -1.21875q-0.109375 -0.46875 -0.109375 -1.53125l0 -5.984375l1.640625 0l0 5.359375q0 1.28125 0.109375 1.734375q0.15625 0.640625 0.65625 1.015625q0.5 0.375 1.234375 0.375q0.734375 0 1.375 -0.375q0.65625 -0.390625 0.921875 -1.03125q0.265625 -0.65625 0.265625 -1.890625l0 -5.1875l1.640625 0l0 9.671875l-1.46875 0zm7.6257324 -1.46875l0.234375 1.453125q-0.6875 0.140625 -1.234375 0.140625q-0.890625 0 -1.390625 -0.28125q-0.484375 -0.28125 -0.6875 -0.734375q-0.203125 -0.46875 -0.203125 -1.9375l0 -5.578125l-1.203125 0l0 -1.265625l1.203125 0l0 -2.390625l1.625 -0.984375l0 3.375l1.65625 0l0 1.265625l-1.65625 0l0 5.671875q0 0.6875 0.078125 0.890625q0.09375 0.203125 0.28125 0.328125q0.203125 0.109375 0.578125 0.109375q0.265625 0 0.71875 -0.0625z" fill-rule="nonzero"/><path fill="#004c97" d="m599.5722 103.43836l117.322815 0l24.566956 24.566933l-24.566956 24.566925l-117.322815 0l24.566956 -24.566925z" fill-rule="evenodd"/><path fill="#ffffff" d="m662.6711 131.6128q0 0.828125 -0.3125 1.484375q-0.296875 0.640625 -0.84375 1.09375q-0.53125 0.453125 -1.265625 0.6875q-0.734375 0.21875 -1.578125 0.21875q-0.59375 0 -1.109375 -0.109375q-0.5 -0.09375 -0.890625 -0.234375q-0.390625 -0.140625 -0.671875 -0.296875q-0.265625 -0.15625 -0.375 -0.265625q-0.09375 -0.109375 -0.15625 -0.28125q-0.046875 -0.171875 -0.046875 -0.453125q0 -0.203125 0.015625 -0.328125q0.03125 -0.140625 0.0625 -0.21875q0.03125 -0.078125 0.078125 -0.109375q0.0625 -0.03125 0.140625 -0.03125q0.125 0 0.359375 0.15625q0.234375 0.15625 0.59375 0.34375q0.375 0.171875 0.875 0.328125q0.515625 0.15625 1.203125 0.15625q0.5 0 0.921875 -0.125q0.421875 -0.140625 0.734375 -0.390625q0.3125 -0.25 0.46875 -0.609375q0.171875 -0.375 0.171875 -0.84375q0 -0.5 -0.234375 -0.84375q-0.234375 -0.359375 -0.609375 -0.625q-0.359375 -0.265625 -0.84375 -0.484375q-0.484375 -0.234375 -0.984375 -0.46875q-0.5 -0.234375 -0.96875 -0.515625q-0.46875 -0.28125 -0.84375 -0.65625q-0.375 -0.390625 -0.609375 -0.90625q-0.234375 -0.515625 -0.234375 -1.234375q0 -0.734375 0.265625 -1.3125q0.265625 -0.578125 0.75 -0.96875q0.484375 -0.390625 1.140625 -0.59375q0.65625 -0.203125 1.421875 -0.203125q0.390625 0 0.78125 0.0625q0.40625 0.0625 0.75 0.1875q0.359375 0.109375 0.625 0.25q0.28125 0.140625 0.359375 0.234375q0.09375 0.078125 0.109375 0.125q0.03125 0.046875 0.046875 0.125q0.03125 0.078125 0.03125 0.1875q0.015625 0.109375 0.015625 0.28125q0 0.171875 -0.015625 0.296875q-0.015625 0.125 -0.046875 0.21875q-0.015625 0.078125 -0.078125 0.125q-0.046875 0.046875 -0.109375 0.046875q-0.09375 0 -0.3125 -0.125q-0.21875 -0.140625 -0.53125 -0.296875q-0.296875 -0.15625 -0.734375 -0.28125q-0.421875 -0.140625 -0.9375 -0.140625q-0.5 0 -0.859375 0.140625q-0.359375 0.125 -0.609375 0.34375q-0.234375 0.21875 -0.359375 0.515625q-0.109375 0.296875 -0.109375 0.640625q0 0.484375 0.21875 0.84375q0.234375 0.359375 0.609375 0.640625q0.390625 0.265625 0.859375 0.5q0.484375 0.21875 0.984375 0.453125q0.515625 0.234375 0.984375 0.515625q0.484375 0.265625 0.859375 0.65625q0.390625 0.375 0.609375 0.890625q0.234375 0.5 0.234375 1.203125zm13.5408325 2.96875q-0.046875 0.125 -0.125 0.203125q-0.0625 0.078125 -0.1875 0.125q-0.125 0.03125 -0.3125 0.046875q-0.1875 0.015625 -0.46875 0.015625q-0.28125 0 -0.484375 -0.015625q-0.1875 -0.015625 -0.3125 -0.046875q-0.125 -0.046875 -0.1875 -0.125q-0.0625 -0.078125 -0.109375 -0.203125l-2.46875 -8.90625l-0.015625 0l-2.28125 8.90625q-0.015625 0.125 -0.09375 0.203125q-0.0625 0.078125 -0.1875 0.125q-0.109375 0.03125 -0.296875 0.046875q-0.1875 0.015625 -0.46875 0.015625q-0.296875 0 -0.5 -0.015625q-0.203125 -0.015625 -0.328125 -0.046875q-0.125 -0.046875 -0.203125 -0.125q-0.0625 -0.078125 -0.09375 -0.203125l-3.109375 -10.890625q-0.0625 -0.203125 -0.0625 -0.3125q0 -0.125 0.0625 -0.1875q0.078125 -0.078125 0.25 -0.09375q0.1875 -0.015625 0.46875 -0.015625q0.28125 0 0.4375 0.015625q0.171875 0.015625 0.25 0.0625q0.09375 0.03125 0.125 0.09375q0.046875 0.0625 0.0625 0.15625l2.640625 9.875l0.015625 0l2.515625 -9.859375q0.03125 -0.09375 0.0625 -0.15625q0.046875 -0.078125 0.125 -0.109375q0.09375 -0.046875 0.265625 -0.0625q0.171875 -0.015625 0.453125 -0.015625q0.25 0 0.390625 0.015625q0.15625 0.015625 0.25 0.0625q0.09375 0.03125 0.125 0.109375q0.046875 0.0625 0.078125 0.15625l2.703125 9.859375l0.015625 0l2.59375 -9.859375q0.03125 -0.09375 0.046875 -0.15625q0.03125 -0.078125 0.125 -0.109375q0.09375 -0.046875 0.25 -0.0625q0.15625 -0.015625 0.421875 -0.015625q0.265625 0 0.421875 0.03125q0.171875 0.015625 0.234375 0.078125q0.078125 0.0625 0.078125 0.1875q0 0.109375 -0.046875 0.328125l-3.125 10.875z" fill-rule="nonzero"/><path fill="#ffffff" d="m685.825 137.97217q0 0.90625 -0.140625 1.65625q-0.140625 0.75 -0.484375 1.296875q-0.328125 0.53125 -0.859375 0.828125q-0.53125 0.28125 -1.3125 0.28125q-0.75 0 -1.265625 -0.25q-0.5 -0.265625 -0.8125 -0.78125q-0.296875 -0.515625 -0.4375 -1.265625q-0.125 -0.75 -0.125 -1.71875q0 -0.90625 0.140625 -1.65625q0.15625 -0.75 0.484375 -1.28125q0.328125 -0.546875 0.859375 -0.828125q0.53125 -0.296875 1.3125 -0.296875q0.75 0 1.25 0.265625q0.5 0.25 0.8125 0.765625q0.3125 0.515625 0.4375 1.265625q0.140625 0.75 0.140625 1.71875zm-1.078125 0.078125q0 -0.59375 -0.046875 -1.0625q-0.03125 -0.46875 -0.109375 -0.8125q-0.078125 -0.359375 -0.21875 -0.609375q-0.125 -0.265625 -0.3125 -0.4375q-0.1875 -0.171875 -0.421875 -0.25q-0.21875 -0.078125 -0.515625 -0.078125q-0.515625 0 -0.84375 0.25q-0.3125 0.25 -0.5 0.671875q-0.1875 0.421875 -0.265625 1.0q-0.0625 0.5625 -0.0625 1.21875q0 0.875 0.09375 1.5q0.09375 0.609375 0.28125 1.0q0.203125 0.390625 0.515625 0.578125q0.3125 0.171875 0.75 0.171875q0.328125 0 0.578125 -0.109375q0.265625 -0.109375 0.453125 -0.3125q0.1875 -0.203125 0.3125 -0.484375q0.125 -0.296875 0.1875 -0.640625q0.078125 -0.34375 0.09375 -0.75q0.03125 -0.40625 0.03125 -0.84375z" fill-rule="nonzero"/><path fill="#000000" fill-opacity="0.0" d="m9.391076 75.91901l0 0c0 -10.248642 8.308164 -18.5568 18.5568 -18.5568l153.50056 0c4.92157 0 9.641571 1.9550858 13.121643 5.4351616c3.4800873 3.4800758 5.4351654 8.200069 5.4351654 13.121639l0 74.224976c0 10.248642 -8.3081665 18.556808 -18.556808 18.556808l-153.50056 0c-10.248638 0 -18.5568 -8.3081665 -18.5568 -18.556808z" fill-rule="evenodd"/><path stroke="#3d85c6" stroke-width="2.0" stroke-linejoin="round" stroke-linecap="butt" stroke-dasharray="8.0,6.0" d="m9.391076 75.91901l0 0c0 -10.248642 8.308164 -18.5568 18.5568 -18.5568l153.50056 0c4.92157 0 9.641571 1.9550858 13.121643 5.4351616c3.4800873 3.4800758 5.4351654 8.200069 5.4351654 13.121639l0 74.224976c0 10.248642 -8.3081665 18.556808 -18.556808 18.556808l-153.50056 0c-10.248638 0 -18.5568 -8.3081665 -18.5568 -18.556808z" fill-rule="evenodd"/><path fill="#3d85c6" d="m25.560553 89.71731l0 -13.359375l1.765625 0l0 13.359375l-1.765625 0zm4.683304 0l0 -9.671875l1.46875 0l0 1.375q1.0625019 -1.59375 3.078127 -1.59375q0.875 0 1.609375 0.3125q0.734375 0.3125 1.09375 0.828125q0.375 0.5 0.515625 1.203125q0.09375 0.453125 0.09375 1.59375l0 5.953125l-1.640625 0l0 -5.890625q0 -1.0 -0.203125 -1.484375q-0.1875 -0.5 -0.671875 -0.796875q-0.484375 -0.296875 -1.140625 -0.296875q-1.046875 0 -1.8125 0.671875q-0.7500019 0.65625 -0.7500019 2.515625l0 5.28125l-1.640625 0zm10.375719 3.703125l0 -13.375l1.484375 0l0 1.25q0.53125 -0.734375 1.1875 -1.09375q0.671875 -0.375 1.625 -0.375q1.234375 0 2.171875 0.640625q0.953125 0.625 1.4375 1.796875q0.484375 1.15625 0.484375 2.546875q0 1.484375 -0.53125 2.671875q-0.53125 1.1875 -1.546875 1.828125q-1.015625 0.625 -2.140625 0.625q-0.8125 0 -1.46875 -0.34375q-0.65625 -0.34375 -1.0625 -0.875l0 4.703125l-1.640625 0zm1.484375 -8.484375q0 1.859375 0.75 2.765625q0.765625 0.890625 1.828125 0.890625q1.09375 0 1.875 -0.921875q0.78125 -0.9375 0.78125 -2.875q0 -1.84375 -0.765625 -2.765625q-0.75 -0.921875 -1.8125 -0.921875q-1.046875 0 -1.859375 0.984375q-0.796875 0.96875 -0.796875 2.84375zm15.219467 4.78125l0 -1.421875q-1.125 1.640625 -3.0625 1.640625q-0.859375 0 -1.609375 -0.328125q-0.734375 -0.328125 -1.09375 -0.828125q-0.359375 -0.5 -0.5 -1.21875q-0.109375 -0.46875 -0.109375 -1.53125l0 -5.984375l1.640625 0l0 5.359375q0 1.28125 0.109375 1.734375q0.15625 0.640625 0.65625 1.015625q0.5 0.375 1.234375 0.375q0.734375 0 1.375 -0.375q0.65625 -0.390625 0.921875 -1.03125q0.265625 -0.65625 0.265625 -1.890625l0 -5.1875l1.640625 0l0 9.671875l-1.46875 0zm7.625717 -1.46875l0.234375 1.453125q-0.6875 0.140625 -1.234375 0.140625q-0.890625 0 -1.390625 -0.28125q-0.484375 -0.28125 -0.6875 -0.734375q-0.203125 -0.46875 -0.203125 -1.9375l0 -5.578125l-1.203125 0l0 -1.265625l1.203125 0l0 -2.390625l1.625 -0.984375l0 3.375l1.65625 0l0 1.265625l-1.65625 0l0 5.671875q0 0.6875 0.078125 0.890625q0.09375 0.203125 0.28125 0.328125q0.203125 0.109375 0.578125 0.109375q0.265625 0 0.71875 -0.0625z" fill-rule="nonzero"/><path fill="#69c0e6" d="m33.75328 103.438324l117.32283 0l24.56694 24.566925l-24.56694 24.566925l-117.32283 0l24.566929 -24.566925z" fill-rule="evenodd"/><path fill="#ffffff" d="m100.08605 131.61275q0 0.828125 -0.3125 1.484375q-0.296875 0.640625 -0.84375 1.09375q-0.53125 0.453125 -1.265625 0.6875q-0.734375 0.21875 -1.578125 0.21875q-0.59375 0 -1.109375 -0.109375q-0.5 -0.09375 -0.890625 -0.234375q-0.390625 -0.140625 -0.671875 -0.296875q-0.265625 -0.15625 -0.375 -0.265625q-0.09375 -0.109375 -0.15625 -0.28125q-0.046875 -0.171875 -0.046875 -0.453125q0 -0.203125 0.015625 -0.328125q0.03125 -0.140625 0.0625 -0.21875q0.03125 -0.078125 0.078125 -0.109375q0.0625 -0.03125 0.140625 -0.03125q0.125 0 0.359375 0.15625q0.234375 0.15625 0.59375 0.34375q0.375 0.171875 0.875 0.328125q0.515625 0.15625 1.203125 0.15625q0.5 0 0.921875 -0.125q0.421875 -0.140625 0.734375 -0.390625q0.3125 -0.25 0.46875 -0.609375q0.171875 -0.375 0.171875 -0.84375q0 -0.5 -0.234375 -0.84375q-0.234375 -0.359375 -0.609375 -0.625q-0.359375 -0.265625 -0.84375 -0.484375q-0.484375 -0.234375 -0.984375 -0.46875q-0.5 -0.234375 -0.96875 -0.515625q-0.46875 -0.28125 -0.84375 -0.65625q-0.375 -0.390625 -0.609375 -0.90625q-0.234375 -0.515625 -0.234375 -1.234375q0 -0.734375 0.265625 -1.3125q0.265625 -0.578125 0.75 -0.96875q0.484375 -0.390625 1.140625 -0.59375q0.65625 -0.203125 1.421875 -0.203125q0.390625 0 0.78125 0.0625q0.40625 0.0625 0.75 0.1875q0.359375 0.109375 0.625 0.25q0.28125 0.140625 0.359375 0.234375q0.09375 0.078125 0.109375 0.125q0.03125 0.046875 0.046875 0.125q0.03125 0.078125 0.03125 0.1875q0.015625 0.109375 0.015625 0.28125q0 0.171875 -0.015625 0.296875q-0.015625 0.125 -0.046875 0.21875q-0.015625 0.078125 -0.078125 0.125q-0.046875 0.046875 -0.109375 0.046875q-0.09375 0 -0.3125 -0.125q-0.21875 -0.140625 -0.53125 -0.296875q-0.296875 -0.15625 -0.734375 -0.28125q-0.421875 -0.140625 -0.9375 -0.140625q-0.5 0 -0.859375 0.140625q-0.359375 0.125 -0.609375 0.34375q-0.234375 0.21875 -0.359375 0.515625q-0.109375 0.296875 -0.109375 0.640625q0 0.484375 0.21875 0.84375q0.234375 0.359375 0.609375 0.640625q0.390625 0.265625 0.859375 0.5q0.484375 0.21875 0.984375 0.453125q0.515625 0.234375 0.984375 0.515625q0.484375 0.265625 0.859375 0.65625q0.390625 0.375 0.609375 0.890625q0.234375 0.5 0.234375 1.203125zm10.103287 3.078125q0 0.078125 -0.03125 0.140625q-0.015625 0.046875 -0.109375 0.078125q-0.09375 0.03125 -0.265625 0.046875q-0.15625 0.015625 -0.421875 0.015625q-0.234375 0 -0.390625 -0.015625q-0.15625 -0.015625 -0.25 -0.046875q-0.078125 -0.046875 -0.140625 -0.109375q-0.046875 -0.078125 -0.078125 -0.1875l-1.078125 -2.78125q-0.203125 -0.484375 -0.40625 -0.875q-0.203125 -0.390625 -0.484375 -0.671875q-0.28125 -0.296875 -0.671875 -0.453125q-0.375 -0.15625 -0.90625 -0.15625l-1.046875 0l0 5.015625q0 0.078125 -0.046875 0.140625q-0.046875 0.046875 -0.140625 0.078125q-0.078125 0.03125 -0.234375 0.046875q-0.140625 0.015625 -0.375 0.015625q-0.21875 0 -0.375 -0.015625q-0.140625 -0.015625 -0.234375 -0.046875q-0.09375 -0.03125 -0.140625 -0.078125q-0.03125 -0.0625 -0.03125 -0.140625l0 -10.921875q0 -0.34375 0.1875 -0.484375q0.1875 -0.140625 0.40625 -0.140625l2.5 0q0.4375 0 0.734375 0.03125q0.296875 0.015625 0.546875 0.03125q0.671875 0.125 1.1875 0.375q0.53125 0.25 0.890625 0.65625q0.359375 0.390625 0.53125 0.890625q0.1875 0.5 0.1875 1.109375q0 0.59375 -0.171875 1.0625q-0.15625 0.46875 -0.453125 0.828125q-0.296875 0.359375 -0.71875 0.625q-0.421875 0.265625 -0.9375 0.453125q0.28125 0.125 0.515625 0.328125q0.25 0.1875 0.453125 0.46875q0.203125 0.265625 0.375 0.625q0.1875 0.359375 0.375 0.796875l1.0625 2.59375q0.125 0.328125 0.15625 0.46875q0.03125 0.125 0.03125 0.203125zm-2.359375 -8.28125q0 -0.6875 -0.3125 -1.171875q-0.296875 -0.484375 -1.03125 -0.6875q-0.21875 -0.0625 -0.515625 -0.09375q-0.28125 -0.03125 -0.75 -0.03125l-1.3125 0l0 3.984375l1.53125 0q0.609375 0 1.0625 -0.15625q0.453125 -0.15625 0.75 -0.421875q0.296875 -0.265625 0.4375 -0.625q0.140625 -0.375 0.140625 -0.796875z" fill-rule="nonzero"/><path fill="#ffffff" d="m116.772224 137.97212q0 0.90625 -0.140625 1.65625q-0.140625 0.75 -0.484375 1.296875q-0.328125 0.53125 -0.859375 0.828125q-0.53125 0.28125 -1.3125 0.28125q-0.75 0 -1.265625 -0.25q-0.5 -0.265625 -0.8125 -0.78125q-0.296875 -0.515625 -0.4375 -1.265625q-0.125 -0.75 -0.125 -1.71875q0 -0.90625 0.140625 -1.65625q0.15625 -0.75 0.484375 -1.28125q0.328125 -0.546875 0.859375 -0.828125q0.53125 -0.296875 1.3125 -0.296875q0.75 0 1.25 0.265625q0.5 0.25 0.8125 0.765625q0.3125 0.515625 0.4375 1.265625q0.140625 0.75 0.140625 1.71875zm-1.078125 0.078125q0 -0.59375 -0.046875 -1.0625q-0.03125 -0.46875 -0.109375 -0.8125q-0.078125 -0.359375 -0.21875 -0.609375q-0.125 -0.265625 -0.3125 -0.4375q-0.1875 -0.171875 -0.421875 -0.25q-0.21875 -0.078125 -0.515625 -0.078125q-0.515625 0 -0.84375 0.25q-0.3125 0.25 -0.5 0.671875q-0.1875 0.421875 -0.265625 1.0q-0.0625 0.5625 -0.0625 1.21875q0 0.875 0.09375 1.5q0.09375 0.609375 0.28125 1.0q0.203125 0.390625 0.515625 0.578125q0.3125 0.171875 0.75 0.171875q0.328125 0 0.578125 -0.109375q0.265625 -0.109375 0.453125 -0.3125q0.1875 -0.203125 0.3125 -0.484375q0.125 -0.296875 0.1875 -0.640625q0.078125 -0.34375 0.09375 -0.75q0.03125 -0.40625 0.03125 -0.84375z" fill-rule="nonzero"/><path fill="#000000" fill-opacity="0.0" d="m9.391076 264.77203l0 0c0 -10.248642 8.308164 -18.556808 18.5568 -18.556808l153.50056 0c4.92157 0 9.641571 1.9550781 13.121643 5.4351654c3.4800873 3.480072 5.4351654 8.200073 5.4351654 13.121643l0 74.224976c0 10.248627 -8.3081665 18.556793 -18.556808 18.556793l-153.50056 0c-10.248638 0 -18.5568 -8.3081665 -18.5568 -18.556793z" fill-rule="evenodd"/><path stroke="#3d85c6" stroke-width="2.0" stroke-linejoin="round" stroke-linecap="butt" stroke-dasharray="8.0,6.0" d="m9.391076 264.77203l0 0c0 -10.248642 8.308164 -18.556808 18.5568 -18.556808l153.50056 0c4.92157 0 9.641571 1.9550781 13.121643 5.4351654c3.4800873 3.480072 5.4351654 8.200073 5.4351654 13.121643l0 74.224976c0 10.248627 -8.3081665 18.556793 -18.556808 18.556793l-153.50056 0c-10.248638 0 -18.5568 -8.3081665 -18.5568 -18.556793z" fill-rule="evenodd"/><path fill="#3d85c6" d="m25.560553 278.5703l0 -13.359375l1.765625 0l0 13.359375l-1.765625 0zm4.683304 0l0 -9.671875l1.46875 0l0 1.375q1.0625019 -1.59375 3.078127 -1.59375q0.875 0 1.609375 0.3125q0.734375 0.3125 1.09375 0.828125q0.375 0.5 0.515625 1.203125q0.09375 0.453125 0.09375 1.59375l0 5.953125l-1.640625 0l0 -5.890625q0 -1.0 -0.203125 -1.484375q-0.1875 -0.5 -0.671875 -0.796875q-0.484375 -0.296875 -1.140625 -0.296875q-1.046875 0 -1.8125 0.671875q-0.7500019 0.65625 -0.7500019 2.515625l0 5.28125l-1.640625 0zm10.375719 3.703125l0 -13.375l1.484375 0l0 1.25q0.53125 -0.734375 1.1875 -1.09375q0.671875 -0.375 1.625 -0.375q1.234375 0 2.171875 0.640625q0.953125 0.625 1.4375 1.796875q0.484375 1.15625 0.484375 2.546875q0 1.484375 -0.53125 2.671875q-0.53125 1.1875 -1.546875 1.828125q-1.015625 0.625 -2.140625 0.625q-0.8125 0 -1.46875 -0.34375q-0.65625 -0.34375 -1.0625 -0.875l0 4.703125l-1.640625 0zm1.484375 -8.484375q0 1.859375 0.75 2.765625q0.765625 0.890625 1.828125 0.890625q1.09375 0 1.875 -0.921875q0.78125 -0.9375 0.78125 -2.875q0 -1.84375 -0.765625 -2.765625q-0.75 -0.921875 -1.8125 -0.921875q-1.046875 0 -1.859375 0.984375q-0.796875 0.96875 -0.796875 2.84375zm15.219467 4.78125l0 -1.421875q-1.125 1.640625 -3.0625 1.640625q-0.859375 0 -1.609375 -0.328125q-0.734375 -0.328125 -1.09375 -0.828125q-0.359375 -0.5 -0.5 -1.21875q-0.109375 -0.46875 -0.109375 -1.53125l0 -5.984375l1.640625 0l0 5.359375q0 1.28125 0.109375 1.734375q0.15625 0.640625 0.65625 1.015625q0.5 0.375 1.234375 0.375q0.734375 0 1.375 -0.375q0.65625 -0.390625 0.921875 -1.03125q0.265625 -0.65625 0.265625 -1.890625l0 -5.1875l1.640625 0l0 9.671875l-1.46875 0zm7.625717 -1.46875l0.234375 1.453125q-0.6875 0.140625 -1.234375 0.140625q-0.890625 0 -1.390625 -0.28125q-0.484375 -0.28125 -0.6875 -0.734375q-0.203125 -0.46875 -0.203125 -1.9375l0 -5.578125l-1.203125 0l0 -1.265625l1.203125 0l0 -2.390625l1.625 -0.984375l0 3.375l1.65625 0l0 1.265625l-1.65625 0l0 5.671875q0 0.6875 0.078125 0.890625q0.09375 0.203125 0.28125 0.328125q0.203125 0.109375 0.578125 0.109375q0.265625 0 0.71875 -0.0625z" fill-rule="nonzero"/><path fill="#69c0e6" d="m33.753338 291.6538l117.32283 0l24.566925 24.566925l-24.566925 24.566925l-117.32283 0l24.566929 -24.566925z" fill-rule="evenodd"/><path fill="#ffffff" d="m94.16806 319.82822q0 0.828125 -0.3125 1.484375q-0.296875 0.640625 -0.84375 1.09375q-0.53125 0.453125 -1.265625 0.6875q-0.734375 0.21875 -1.578125 0.21875q-0.59375 0 -1.109375 -0.109375q-0.5 -0.09375 -0.890625 -0.234375q-0.390625 -0.140625 -0.671875 -0.296875q-0.265625 -0.15625 -0.375 -0.265625q-0.09375 -0.109375 -0.15625 -0.28125q-0.046875 -0.171875 -0.046875 -0.453125q0 -0.203125 0.015625 -0.328125q0.03125 -0.140625 0.0625 -0.21875q0.03125 -0.078125 0.078125 -0.109375q0.0625 -0.03125 0.140625 -0.03125q0.125 0 0.359375 0.15625q0.234375 0.15625 0.59375 0.34375q0.375 0.171875 0.875 0.328125q0.515625 0.15625 1.203125 0.15625q0.5 0 0.921875 -0.125q0.421875 -0.140625 0.734375 -0.390625q0.3125 -0.25 0.46875 -0.609375q0.171875 -0.375 0.171875 -0.84375q0 -0.5 -0.234375 -0.84375q-0.234375 -0.359375 -0.609375 -0.625q-0.359375 -0.265625 -0.84375 -0.484375q-0.484375 -0.234375 -0.984375 -0.46875q-0.5 -0.234375 -0.96875 -0.515625q-0.46875 -0.28125 -0.84375 -0.65625q-0.375 -0.390625 -0.609375 -0.90625q-0.234375 -0.515625 -0.234375 -1.234375q0 -0.734375 0.265625 -1.3125q0.265625 -0.578125 0.75 -0.96875q0.484375 -0.390625 1.140625 -0.59375q0.65625 -0.203125 1.421875 -0.203125q0.390625 0 0.78125 0.0625q0.40625 0.0625 0.75 0.1875q0.359375 0.109375 0.625 0.25q0.28125 0.140625 0.359375 0.234375q0.09375 0.078125 0.109375 0.125q0.03125 0.046875 0.046875 0.125q0.03125 0.078125 0.03125 0.1875q0.015625 0.109375 0.015625 0.28125q0 0.171875 -0.015625 0.296875q-0.015625 0.125 -0.046875 0.21875q-0.015625 0.078125 -0.078125 0.125q-0.046875 0.046875 -0.109375 0.046875q-0.09375 0 -0.3125 -0.125q-0.21875 -0.140625 -0.53125 -0.296875q-0.296875 -0.15625 -0.734375 -0.28125q-0.421875 -0.140625 -0.9375 -0.140625q-0.5 0 -0.859375 0.140625q-0.359375 0.125 -0.609375 0.34375q-0.234375 0.21875 -0.359375 0.515625q-0.109375 0.296875 -0.109375 0.640625q0 0.484375 0.21875 0.84375q0.234375 0.359375 0.609375 0.640625q0.390625 0.265625 0.859375 0.5q0.484375 0.21875 0.984375 0.453125q0.515625 0.234375 0.984375 0.515625q0.484375 0.265625 0.859375 0.65625q0.390625 0.375 0.609375 0.890625q0.234375 0.5 0.234375 1.203125zm10.103287 3.078125q0 0.078125 -0.03125 0.140625q-0.015625 0.046875 -0.109375 0.078125q-0.09375 0.03125 -0.265625 0.046875q-0.15625 0.015625 -0.421875 0.015625q-0.234375 0 -0.390625 -0.015625q-0.15625 -0.015625 -0.25 -0.046875q-0.078125 -0.046875 -0.140625 -0.109375q-0.046875 -0.078125 -0.078125 -0.1875l-1.078125 -2.78125q-0.203125 -0.484375 -0.40625 -0.875q-0.203125 -0.390625 -0.484375 -0.671875q-0.28125 -0.296875 -0.671875 -0.453125q-0.375 -0.15625 -0.90625 -0.15625l-1.046875 0l0 5.015625q0 0.078125 -0.046875 0.140625q-0.046875 0.046875 -0.140625 0.078125q-0.078125 0.03125 -0.234375 0.046875q-0.140625 0.015625 -0.375 0.015625q-0.21875 0 -0.375 -0.015625q-0.140625 -0.015625 -0.234375 -0.046875q-0.09375 -0.03125 -0.140625 -0.078125q-0.03125 -0.0625 -0.03125 -0.140625l0 -10.921875q0 -0.34375 0.1875 -0.484375q0.1875 -0.140625 0.40625 -0.140625l2.5 0q0.4375 0 0.734375 0.03125q0.296875 0.015625 0.546875 0.03125q0.671875 0.125 1.1875 0.375q0.53125 0.25 0.890625 0.65625q0.359375 0.390625 0.53125 0.890625q0.1875 0.5 0.1875 1.109375q0 0.59375 -0.171875 1.0625q-0.15625 0.46875 -0.453125 0.828125q-0.296875 0.359375 -0.71875 0.625q-0.421875 0.265625 -0.9375 0.453125q0.28125 0.125 0.515625 0.328125q0.25 0.1875 0.453125 0.46875q0.203125 0.265625 0.375 0.625q0.1875 0.359375 0.375 0.796875l1.0625 2.59375q0.125 0.328125 0.15625 0.46875q0.03125 0.125 0.03125 0.203125zm-2.359375 -8.28125q0 -0.6875 -0.3125 -1.171875q-0.296875 -0.484375 -1.03125 -0.6875q-0.21875 -0.0625 -0.515625 -0.09375q-0.28125 -0.03125 -0.75 -0.03125l-1.3125 0l0 3.984375l1.53125 0q0.609375 0 1.0625 -0.15625q0.453125 -0.15625 0.75 -0.421875q0.296875 -0.265625 0.4375 -0.625q0.140625 -0.375 0.140625 -0.796875z" fill-rule="nonzero"/><path fill="#ffffff" d="m111.96361 329.70322q0 0.125 -0.046875 0.21875q-0.03125 0.078125 -0.09375 0.140625q-0.0625 0.046875 -0.140625 0.078125q-0.078125 0.015625 -0.15625 0.015625l-0.34375 0q-0.15625 0 -0.28125 -0.03125q-0.109375 -0.03125 -0.21875 -0.109375q-0.109375 -0.09375 -0.21875 -0.25q-0.09375 -0.15625 -0.21875 -0.390625l-2.484375 -4.46875q-0.1875 -0.34375 -0.390625 -0.71875q-0.203125 -0.390625 -0.375 -0.75l0 0q0 0.4375 0 0.90625q0.015625 0.453125 0.015625 0.890625l0 4.75q0 0.046875 -0.03125 0.09375q-0.015625 0.03125 -0.078125 0.046875q-0.046875 0.015625 -0.140625 0.03125q-0.09375 0.015625 -0.25 0.015625q-0.140625 0 -0.234375 -0.015625q-0.09375 -0.015625 -0.15625 -0.03125q-0.046875 -0.015625 -0.078125 -0.046875q-0.015625 -0.046875 -0.015625 -0.09375l0 -7.25q0 -0.25 0.125 -0.34375q0.140625 -0.109375 0.296875 -0.109375l0.5 0q0.171875 0 0.28125 0.03125q0.125 0.03125 0.21875 0.109375q0.09375 0.0625 0.1875 0.1875q0.09375 0.125 0.1875 0.3125l1.90625 3.453125q0.1875 0.3125 0.34375 0.609375q0.171875 0.296875 0.3125 0.59375q0.15625 0.296875 0.296875 0.578125q0.15625 0.28125 0.296875 0.5625l0.015625 0q-0.015625 -0.484375 -0.015625 -1.0q0 -0.515625 0 -1.0l0 -4.265625q0 -0.03125 0.015625 -0.0625q0.03125 -0.046875 0.078125 -0.078125q0.0625 -0.03125 0.15625 -0.03125q0.09375 -0.015625 0.25 -0.015625q0.125 0 0.21875 0.015625q0.109375 0 0.15625 0.03125q0.0625 0.03125 0.078125 0.078125q0.03125 0.03125 0.03125 0.0625l0 7.25zm4.4346313 -2.625q0 0.234375 -0.0625 0.328125q-0.046875 0.09375 -0.15625 0.09375l-2.53125 0q-0.109375 0 -0.171875 -0.09375q-0.046875 -0.109375 -0.046875 -0.328125q0 -0.234375 0.046875 -0.328125q0.0625 -0.09375 0.171875 -0.09375l2.53125 0q0.046875 0 0.078125 0.03125q0.046875 0.015625 0.078125 0.0625q0.03125 0.046875 0.046875 0.125q0.015625 0.078125 0.015625 0.203125zm6.0420837 2.65625q0 0.109375 -0.015625 0.1875q-0.015625 0.078125 -0.046875 0.125q-0.03125 0.046875 -0.07811737 0.078125q-0.03125 0.015625 -0.078125 0.015625l-4.09375 0q-0.046875 0 -0.09375 -0.015625q-0.03125 -0.03125 -0.0625 -0.078125q-0.03125 -0.046875 -0.046875 -0.125q-0.015625 -0.078125 -0.015625 -0.1875q0 -0.109375 0.015625 -0.1875q0.015625 -0.09375 0.03125 -0.140625q0.03125 -0.046875 0.0625 -0.078125q0.046875 -0.03125 0.109375 -0.03125l1.640625 0l0 -5.96875l-1.53125 0.90625q-0.109375 0.0625 -0.1875 0.078125q-0.0625 0 -0.109375 -0.03125q-0.03125 -0.046875 -0.046875 -0.125q-0.015625 -0.09375 -0.015625 -0.234375q0 -0.109375 0 -0.171875q0.015625 -0.078125 0.03125 -0.125q0.015625 -0.0625 0.046875 -0.09375q0.03125 -0.03125 0.09375 -0.078125l1.8125 -1.15625q0.015625 -0.015625 0.046875 -0.015625q0.046875 -0.015625 0.09375 -0.03125q0.0625 -0.015625 0.125 -0.015625q0.078125 0 0.1875 0q0.15625 0 0.25 0.015625q0.09375 0 0.140625 0.03125q0.0625 0.015625 0.078125 0.046875q0.015625 0.03125 0.015625 0.0625l0 6.90625l1.421875 0q0.046875 0 0.09375 0.03125q0.04686737 0.03125 0.06249237 0.078125q0.03125 0.046875 0.046875 0.140625q0.015625 0.078125 0.015625 0.1875z" fill-rule="nonzero"/><path fill="#004c97" d="m599.572 291.65378l117.322815 0l24.566895 24.566925l-24.566895 24.566925l-117.322815 0l24.566895 -24.566925z" fill-rule="evenodd"/><path fill="#ffffff" d="m655.4502 319.8282q0 0.828125 -0.3125 1.484375q-0.296875 0.640625 -0.84375 1.09375q-0.53125 0.453125 -1.265625 0.6875q-0.734375 0.21875 -1.578125 0.21875q-0.59375 0 -1.109375 -0.109375q-0.5 -0.09375 -0.890625 -0.234375q-0.390625 -0.140625 -0.671875 -0.296875q-0.265625 -0.15625 -0.375 -0.265625q-0.09375 -0.109375 -0.15625 -0.28125q-0.046875 -0.171875 -0.046875 -0.453125q0 -0.203125 0.015625 -0.328125q0.03125 -0.140625 0.0625 -0.21875q0.03125 -0.078125 0.078125 -0.109375q0.0625 -0.03125 0.140625 -0.03125q0.125 0 0.359375 0.15625q0.234375 0.15625 0.59375 0.34375q0.375 0.171875 0.875 0.328125q0.515625 0.15625 1.203125 0.15625q0.5 0 0.921875 -0.125q0.421875 -0.140625 0.734375 -0.390625q0.3125 -0.25 0.46875 -0.609375q0.171875 -0.375 0.171875 -0.84375q0 -0.5 -0.234375 -0.84375q-0.234375 -0.359375 -0.609375 -0.625q-0.359375 -0.265625 -0.84375 -0.484375q-0.484375 -0.234375 -0.984375 -0.46875q-0.5 -0.234375 -0.96875 -0.515625q-0.46875 -0.28125 -0.84375 -0.65625q-0.375 -0.390625 -0.609375 -0.90625q-0.234375 -0.515625 -0.234375 -1.234375q0 -0.734375 0.265625 -1.3125q0.265625 -0.578125 0.75 -0.96875q0.484375 -0.390625 1.140625 -0.59375q0.65625 -0.203125 1.421875 -0.203125q0.390625 0 0.78125 0.0625q0.40625 0.0625 0.75 0.1875q0.359375 0.109375 0.625 0.25q0.28125 0.140625 0.359375 0.234375q0.09375 0.078125 0.109375 0.125q0.03125 0.046875 0.046875 0.125q0.03125 0.078125 0.03125 0.1875q0.015625 0.109375 0.015625 0.28125q0 0.171875 -0.015625 0.296875q-0.015625 0.125 -0.046875 0.21875q-0.015625 0.078125 -0.078125 0.125q-0.046875 0.046875 -0.109375 0.046875q-0.09375 0 -0.3125 -0.125q-0.21875 -0.140625 -0.53125 -0.296875q-0.296875 -0.15625 -0.734375 -0.28125q-0.421875 -0.140625 -0.9375 -0.140625q-0.5 0 -0.859375 0.140625q-0.359375 0.125 -0.609375 0.34375q-0.234375 0.21875 -0.359375 0.515625q-0.109375 0.296875 -0.109375 0.640625q0 0.484375 0.21875 0.84375q0.234375 0.359375 0.609375 0.640625q0.390625 0.265625 0.859375 0.5q0.484375 0.21875 0.984375 0.453125q0.515625 0.234375 0.984375 0.515625q0.484375 0.265625 0.859375 0.65625q0.390625 0.375 0.609375 0.890625q0.234375 0.5 0.234375 1.203125zm13.5407715 2.96875q-0.046875 0.125 -0.125 0.203125q-0.0625 0.078125 -0.1875 0.125q-0.125 0.03125 -0.3125 0.046875q-0.1875 0.015625 -0.46875 0.015625q-0.28125 0 -0.484375 -0.015625q-0.1875 -0.015625 -0.3125 -0.046875q-0.125 -0.046875 -0.1875 -0.125q-0.0625 -0.078125 -0.109375 -0.203125l-2.46875 -8.90625l-0.015625 0l-2.28125 8.90625q-0.015625 0.125 -0.09375 0.203125q-0.0625 0.078125 -0.1875 0.125q-0.109375 0.03125 -0.296875 0.046875q-0.1875 0.015625 -0.46875 0.015625q-0.296875 0 -0.5 -0.015625q-0.203125 -0.015625 -0.328125 -0.046875q-0.125 -0.046875 -0.203125 -0.125q-0.0625 -0.078125 -0.09375 -0.203125l-3.109375 -10.890625q-0.0625 -0.203125 -0.0625 -0.3125q0 -0.125 0.0625 -0.1875q0.078125 -0.078125 0.25 -0.09375q0.1875 -0.015625 0.46875 -0.015625q0.28125 0 0.4375 0.015625q0.171875 0.015625 0.25 0.0625q0.09375 0.03125 0.125 0.09375q0.046875 0.0625 0.0625 0.15625l2.640625 9.875l0.015625 0l2.515625 -9.859375q0.03125 -0.09375 0.0625 -0.15625q0.046875 -0.078125 0.125 -0.109375q0.09375 -0.046875 0.265625 -0.0625q0.171875 -0.015625 0.453125 -0.015625q0.25 0 0.390625 0.015625q0.15625 0.015625 0.25 0.0625q0.09375 0.03125 0.125 0.109375q0.046875 0.0625 0.078125 0.15625l2.703125 9.859375l0.015625 0l2.59375 -9.859375q0.03125 -0.09375 0.046875 -0.15625q0.03125 -0.078125 0.125 -0.109375q0.09375 -0.046875 0.25 -0.0625q0.15625 -0.015625 0.421875 -0.015625q0.265625 0 0.421875 0.03125q0.171875 0.015625 0.234375 0.078125q0.078125 0.0625 0.078125 0.1875q0 0.109375 -0.046875 0.328125l-3.125 10.875z" fill-rule="nonzero"/><path fill="#ffffff" d="m682.3229 329.98444q0 0.046875 -0.03125 0.09375q-0.015625 0.03125 -0.078125 0.046875q-0.0625 0.015625 -0.15625 0.03125q-0.09375 0.015625 -0.25 0.015625q-0.140625 0 -0.25 -0.015625q-0.09375 -0.015625 -0.15625 -0.03125q-0.046875 -0.015625 -0.078125 -0.046875q-0.015625 -0.046875 -0.015625 -0.09375l0 -6.84375l-0.015625 0l-2.796875 6.875q-0.015625 0.046875 -0.0625 0.078125q-0.03125 0.015625 -0.09375 0.046875q-0.0625 0.015625 -0.15625 0.015625q-0.078125 0.015625 -0.203125 0.015625q-0.125 0 -0.21875 -0.015625q-0.09375 0 -0.15625 -0.015625q-0.046875 -0.03125 -0.09375 -0.0625q-0.03125 -0.03125 -0.03125 -0.0625l-2.6875 -6.875l0 0l0 6.84375q0 0.046875 -0.03125 0.09375q-0.015625 0.03125 -0.078125 0.046875q-0.0625 0.015625 -0.171875 0.03125q-0.09375 0.015625 -0.234375 0.015625q-0.15625 0 -0.25 -0.015625q-0.09375 -0.015625 -0.15625 -0.03125q-0.046875 -0.015625 -0.078125 -0.046875q-0.015625 -0.046875 -0.015625 -0.09375l0 -7.234375q0 -0.25 0.125 -0.359375q0.140625 -0.109375 0.296875 -0.109375l0.640625 0q0.1875 0 0.328125 0.046875q0.15625 0.03125 0.265625 0.109375q0.109375 0.078125 0.171875 0.203125q0.078125 0.109375 0.140625 0.28125l2.28125 5.6875l0.015625 0l2.375 -5.671875q0.0625 -0.1875 0.140625 -0.3125q0.078125 -0.125 0.171875 -0.203125q0.09375 -0.078125 0.203125 -0.109375q0.125 -0.03125 0.28125 -0.03125l0.65625 0q0.09375 0 0.171875 0.03125q0.09375 0.03125 0.140625 0.09375q0.0625 0.046875 0.09375 0.140625q0.046875 0.078125 0.046875 0.203125l0 7.234375zm4.430542 -2.90625q0 0.234375 -0.0625 0.328125q-0.046875 0.09375 -0.15625 0.09375l-2.53125 0q-0.109375 0 -0.171875 -0.09375q-0.046875 -0.109375 -0.046875 -0.328125q0 -0.234375 0.046875 -0.328125q0.0625 -0.09375 0.171875 -0.09375l2.53125 0q0.046875 0 0.078125 0.03125q0.046875 0.015625 0.078125 0.0625q0.03125 0.046875 0.046875 0.125q0.015625 0.078125 0.015625 0.203125zm6.042053 2.65625q0 0.109375 -0.015625 0.1875q-0.015625 0.078125 -0.046875 0.125q-0.03125 0.046875 -0.078125 0.078125q-0.03125 0.015625 -0.078125 0.015625l-4.09375 0q-0.046875 0 -0.09375 -0.015625q-0.03125 -0.03125 -0.0625 -0.078125q-0.03125 -0.046875 -0.046875 -0.125q-0.015625 -0.078125 -0.015625 -0.1875q0 -0.109375 0.015625 -0.1875q0.015625 -0.09375 0.03125 -0.140625q0.03125 -0.046875 0.0625 -0.078125q0.046875 -0.03125 0.109375 -0.03125l1.640625 0l0 -5.96875l-1.53125 0.90625q-0.109375 0.0625 -0.1875 0.078125q-0.0625 0 -0.109375 -0.03125q-0.03125 -0.046875 -0.046875 -0.125q-0.015625 -0.09375 -0.015625 -0.234375q0 -0.109375 0 -0.171875q0.015625 -0.078125 0.03125 -0.125q0.015625 -0.0625 0.046875 -0.09375q0.03125 -0.03125 0.09375 -0.078125l1.8125 -1.15625q0.015625 -0.015625 0.046875 -0.015625q0.046875 -0.015625 0.09375 -0.03125q0.0625 -0.015625 0.125 -0.015625q0.078125 0 0.1875 0q0.15625 0 0.25 0.015625q0.09375 0 0.140625 0.03125q0.0625 0.015625 0.078125 0.046875q0.015625 0.03125 0.015625 0.0625l0 6.90625l1.421875 0q0.046875 0 0.09375 0.03125q0.046875 0.03125 0.0625 0.078125q0.03125 0.046875 0.046875 0.140625q0.015625 0.078125 0.015625 0.1875z" fill-rule="nonzero"/><path fill="#000000" fill-opacity="0.0" d="m276.22308 169.38994l0 0c0 -12.075134 9.788849 -21.863953 21.863983 -21.863953l122.382324 0c5.7986755 0 11.359863 2.3035126 15.460144 6.4038086c4.100281 4.100281 6.4038086 9.6614685 6.4038086 15.460144l0 87.4532c0 12.075134 -9.788849 21.863953 -21.863953 21.863953l-122.382324 0l0 0c-12.075134 0 -21.863983 -9.788818 -21.863983 -21.863953z" fill-rule="evenodd"/><path stroke="#ffffff" stroke-width="1.0" stroke-linejoin="round" stroke-linecap="butt" stroke-dasharray="4.0,3.0" d="m276.22308 169.38994l0 0c0 -12.075134 9.788849 -21.863953 21.863983 -21.863953l122.382324 0c5.7986755 0 11.359863 2.3035126 15.460144 6.4038086c4.100281 4.100281 6.4038086 9.6614685 6.4038086 15.460144l0 87.4532c0 12.075134 -9.788849 21.863953 -21.863953 21.863953l-122.382324 0l0 0c-12.075134 0 -21.863983 -9.788818 -21.863983 -21.863953z" fill-rule="evenodd"/><path fill="#ffffff" d="m322.95203 210.93779q0 1.125 -0.375 2.046875q-0.375 0.90625 -1.078125 1.5625q-0.6875 0.640625 -1.703125 1.0q-1.015625 0.34375 -2.421875 0.34375l-1.71875 0l0 5.453125q0 0.09375 -0.0625 0.171875q-0.046875 0.0625 -0.15625 0.109375q-0.109375 0.046875 -0.3125 0.078125q-0.1875 0.03125 -0.46875 0.03125q-0.296875 0 -0.5 -0.03125q-0.1875 -0.03125 -0.3125 -0.078125q-0.109375 -0.046875 -0.15625 -0.109375q-0.046875 -0.078125 -0.046875 -0.171875l0 -13.984375q0 -0.46875 0.25 -0.671875q0.25 -0.203125 0.546875 -0.203125l3.25 0q0.484375 0 0.9375 0.046875q0.453125 0.046875 1.0625 0.1875q0.625 0.125 1.265625 0.5q0.640625 0.359375 1.078125 0.90625q0.453125 0.53125 0.6875 1.25q0.234375 0.703125 0.234375 1.5625zm-2.109375 0.15625q0 -0.921875 -0.359375 -1.546875q-0.34375 -0.625 -0.859375 -0.921875q-0.5 -0.3125 -1.046875 -0.390625q-0.546875 -0.078125 -1.0625 -0.078125l-1.859375 0l0 6.078125l1.8125 0q0.921875 0 1.515625 -0.234375q0.609375 -0.234375 1.015625 -0.640625q0.421875 -0.421875 0.625 -1.0q0.21875 -0.578125 0.21875 -1.265625zm11.1328125 0.40625q0 0.265625 -0.015625 0.4375q0 0.171875 -0.046875 0.28125q-0.03125 0.09375 -0.078125 0.15625q-0.046875 0.046875 -0.140625 0.046875q-0.09375 0 -0.234375 -0.046875q-0.140625 -0.0625 -0.3125 -0.109375q-0.15625 -0.0625 -0.375 -0.109375q-0.203125 -0.046875 -0.453125 -0.046875q-0.296875 0 -0.578125 0.125q-0.28125 0.109375 -0.59375 0.390625q-0.3125 0.265625 -0.65625 0.71875q-0.328125 0.4375 -0.734375 1.078125l0 6.9375q0 0.09375 -0.046875 0.15625q-0.046875 0.0625 -0.15625 0.125q-0.109375 0.046875 -0.296875 0.0625q-0.1875 0.03125 -0.484375 0.03125q-0.28125 0 -0.46875 -0.03125q-0.1875 -0.015625 -0.296875 -0.0625q-0.109375 -0.0625 -0.15625 -0.125q-0.03125 -0.0625 -0.03125 -0.15625l0 -10.546875q0 -0.09375 0.03125 -0.15625q0.03125 -0.0625 0.140625 -0.109375q0.109375 -0.0625 0.265625 -0.078125q0.171875 -0.015625 0.4375 -0.015625q0.265625 0 0.421875 0.015625q0.171875 0.015625 0.265625 0.078125q0.09375 0.046875 0.140625 0.109375q0.046875 0.0625 0.046875 0.15625l0 1.53125q0.421875 -0.625 0.796875 -1.015625q0.390625 -0.40625 0.734375 -0.625q0.34375 -0.234375 0.671875 -0.328125q0.328125 -0.09375 0.671875 -0.09375q0.15625 0 0.34375 0.03125q0.203125 0.015625 0.40625 0.0625q0.21875 0.046875 0.375 0.109375q0.171875 0.046875 0.234375 0.109375q0.078125 0.0625 0.09375 0.109375q0.03125 0.046875 0.046875 0.140625q0.03125 0.078125 0.03125 0.234375q0 0.15625 0 0.421875zm12.0234375 4.46875q0 1.296875 -0.34375 2.375q-0.34375 1.078125 -1.015625 1.875q-0.671875 0.78125 -1.6875 1.21875q-1.015625 0.4375 -2.34375 0.4375q-1.3125 0 -2.28125 -0.375q-0.953125 -0.390625 -1.609375 -1.125q-0.640625 -0.75 -0.953125 -1.796875q-0.3125 -1.0625 -0.3125 -2.390625q0 -1.296875 0.328125 -2.375q0.328125 -1.09375 1.0 -1.875q0.6875 -0.78125 1.6875 -1.21875q1.015625 -0.4375 2.359375 -0.4375q1.296875 0 2.265625 0.390625q0.96875 0.390625 1.609375 1.125q0.640625 0.734375 0.96875 1.796875q0.328125 1.046875 0.328125 2.375zm-2.046875 0.125q0 -0.84375 -0.15625 -1.609375q-0.15625 -0.765625 -0.53125 -1.328125q-0.359375 -0.578125 -0.984375 -0.90625q-0.609375 -0.34375 -1.53125 -0.34375q-0.859375 0 -1.484375 0.3125q-0.609375 0.296875 -1.015625 0.859375q-0.390625 0.546875 -0.59375 1.3125q-0.1875 0.765625 -0.1875 1.65625q0 0.875 0.15625 1.640625q0.171875 0.75 0.53125 1.328125q0.375 0.5625 0.984375 0.90625q0.625 0.328125 1.5625 0.328125q0.84375 0 1.453125 -0.296875q0.625 -0.3125 1.015625 -0.859375q0.40625 -0.5625 0.59375 -1.3125q0.1875 -0.765625 0.1875 -1.6875zm12.46875 3.65625q0 0.203125 -0.015625 0.359375q0 0.140625 -0.03125 0.25q-0.03125 0.09375 -0.078125 0.171875q-0.03125 0.0625 -0.1875 0.21875q-0.140625 0.140625 -0.5 0.359375q-0.34375 0.21875 -0.78125 0.390625q-0.4375 0.171875 -0.953125 0.265625q-0.515625 0.109375 -1.078125 0.109375q-1.125 0 -2.015625 -0.375q-0.875 -0.375 -1.46875 -1.09375q-0.59375 -0.71875 -0.90625 -1.765625q-0.296875 -1.046875 -0.296875 -2.421875q0 -1.5625 0.375 -2.671875q0.375 -1.125 1.03125 -1.84375q0.671875 -0.71875 1.5625 -1.0625q0.90625 -0.34375 1.953125 -0.34375q0.5 0 0.96875 0.09375q0.484375 0.09375 0.875 0.25q0.40625 0.15625 0.703125 0.359375q0.3125 0.1875 0.453125 0.328125q0.140625 0.140625 0.1875 0.234375q0.0625 0.078125 0.09375 0.1875q0.046875 0.109375 0.046875 0.25q0.015625 0.140625 0.015625 0.34375q0 0.46875 -0.109375 0.65625q-0.09375 0.171875 -0.25 0.171875q-0.171875 0 -0.40625 -0.1875q-0.234375 -0.203125 -0.59375 -0.4375q-0.34375 -0.234375 -0.84375 -0.421875q-0.484375 -0.203125 -1.171875 -0.203125q-1.390625 0 -2.140625 1.078125q-0.734375 1.078125 -0.734375 3.109375q0 1.015625 0.1875 1.796875q0.1875 0.765625 0.5625 1.28125q0.375 0.515625 0.921875 0.765625q0.546875 0.25 1.25 0.25q0.671875 0 1.171875 -0.203125q0.5 -0.21875 0.875 -0.46875q0.375 -0.25 0.625 -0.453125q0.25 -0.21875 0.390625 -0.21875q0.078125 0 0.140625 0.046875q0.0625 0.046875 0.09375 0.171875q0.046875 0.109375 0.0625 0.28125q0.015625 0.15625 0.015625 0.390625zm11.5703125 -4.125q0 0.46875 -0.234375 0.65625q-0.21875 0.1875 -0.515625 0.1875l-6.921875 0q0 0.890625 0.171875 1.59375q0.1875 0.703125 0.59375 1.203125q0.40625 0.5 1.0625 0.78125q0.65625 0.265625 1.609375 0.265625q0.75 0 1.328125 -0.125q0.59375 -0.125 1.015625 -0.28125q0.4375 -0.15625 0.703125 -0.265625q0.28125 -0.125 0.421875 -0.125q0.078125 0 0.140625 0.046875q0.078125 0.03125 0.109375 0.109375q0.03125 0.078125 0.046875 0.234375q0.015625 0.140625 0.015625 0.359375q0 0.140625 -0.015625 0.265625q0 0.109375 -0.015625 0.203125q-0.015625 0.078125 -0.0625 0.15625q-0.046875 0.0625 -0.109375 0.125q-0.0625 0.0625 -0.375 0.21875q-0.3125 0.140625 -0.828125 0.28125q-0.5 0.140625 -1.171875 0.25q-0.65625 0.109375 -1.40625 0.109375q-1.296875 0 -2.28125 -0.359375q-0.96875 -0.359375 -1.640625 -1.078125q-0.671875 -0.71875 -1.015625 -1.796875q-0.328125 -1.078125 -0.328125 -2.5q0 -1.359375 0.34375 -2.4375q0.359375 -1.09375 1.015625 -1.84375q0.671875 -0.765625 1.609375 -1.171875q0.9375 -0.40625 2.09375 -0.40625q1.234375 0 2.109375 0.40625q0.875 0.390625 1.4375 1.078125q0.5625 0.671875 0.828125 1.578125q0.265625 0.90625 0.265625 1.9375l0 0.34375zm-1.953125 -0.5625q0.046875 -1.53125 -0.671875 -2.390625q-0.703125 -0.875 -2.09375 -0.875q-0.71875 0 -1.265625 0.28125q-0.53125 0.265625 -0.90625 0.71875q-0.359375 0.4375 -0.5625 1.03125q-0.1875 0.578125 -0.21875 1.234375l5.71875 0zm11.519531 3.421875q0 0.8125 -0.3125 1.453125q-0.296875 0.625 -0.84375 1.0625q-0.546875 0.4375 -1.3125 0.65625q-0.765625 0.21875 -1.671875 0.21875q-0.5625 0 -1.078125 -0.09375q-0.5 -0.078125 -0.90625 -0.203125q-0.40625 -0.140625 -0.6875 -0.28125q-0.28125 -0.15625 -0.421875 -0.265625q-0.125 -0.125 -0.1875 -0.328125q-0.046875 -0.21875 -0.046875 -0.578125q0 -0.234375 0.015625 -0.375q0.03125 -0.15625 0.0625 -0.25q0.03125 -0.09375 0.09375 -0.125q0.078125 -0.046875 0.15625 -0.046875q0.125 0 0.375 0.15625q0.25 0.15625 0.625 0.34375q0.375 0.1875 0.875 0.34375q0.5 0.15625 1.15625 0.15625q0.5 0 0.890625 -0.09375q0.40625 -0.109375 0.6875 -0.3125q0.296875 -0.21875 0.453125 -0.53125q0.15625 -0.3125 0.15625 -0.75q0 -0.4375 -0.234375 -0.734375q-0.21875 -0.3125 -0.59375 -0.546875q-0.375 -0.234375 -0.84375 -0.421875q-0.46875 -0.1875 -0.96875 -0.375q-0.5 -0.203125 -0.96875 -0.453125q-0.46875 -0.25 -0.84375 -0.609375q-0.375 -0.375 -0.609375 -0.875q-0.234375 -0.5 -0.234375 -1.203125q0 -0.625 0.234375 -1.1875q0.25 -0.578125 0.734375 -1.0q0.484375 -0.4375 1.203125 -0.6875q0.71875 -0.265625 1.671875 -0.265625q0.421875 0 0.84375 0.078125q0.421875 0.0625 0.765625 0.171875q0.34375 0.109375 0.578125 0.234375q0.25 0.125 0.359375 0.21875q0.125 0.09375 0.171875 0.171875q0.046875 0.0625 0.0625 0.15625q0.015625 0.078125 0.03125 0.203125q0.015625 0.125 0.015625 0.3125q0 0.203125 -0.015625 0.359375q-0.015625 0.140625 -0.0625 0.234375q-0.03125 0.09375 -0.09375 0.140625q-0.0625 0.03125 -0.125 0.03125q-0.109375 0 -0.3125 -0.125q-0.203125 -0.125 -0.515625 -0.265625q-0.3125 -0.15625 -0.75 -0.28125q-0.421875 -0.140625 -0.96875 -0.140625q-0.5 0 -0.875 0.125q-0.375 0.109375 -0.609375 0.3125q-0.234375 0.203125 -0.359375 0.484375q-0.125 0.28125 -0.125 0.609375q0 0.453125 0.234375 0.765625q0.234375 0.3125 0.609375 0.546875q0.375 0.234375 0.84375 0.421875q0.484375 0.1875 0.984375 0.390625q0.5 0.1875 0.984375 0.4375q0.484375 0.25 0.859375 0.609375q0.375 0.34375 0.609375 0.84375q0.234375 0.484375 0.234375 1.15625zm9.386719 0q0 0.8125 -0.3125 1.453125q-0.296875 0.625 -0.84375 1.0625q-0.546875 0.4375 -1.3125 0.65625q-0.765625 0.21875 -1.671875 0.21875q-0.5625 0 -1.078125 -0.09375q-0.5 -0.078125 -0.90625 -0.203125q-0.40625 -0.140625 -0.6875 -0.28125q-0.28125 -0.15625 -0.421875 -0.265625q-0.125 -0.125 -0.1875 -0.328125q-0.046875 -0.21875 -0.046875 -0.578125q0 -0.234375 0.015625 -0.375q0.03125 -0.15625 0.0625 -0.25q0.03125 -0.09375 0.09375 -0.125q0.078125 -0.046875 0.15625 -0.046875q0.125 0 0.375 0.15625q0.25 0.15625 0.625 0.34375q0.375 0.1875 0.875 0.34375q0.5 0.15625 1.15625 0.15625q0.5 0 0.890625 -0.09375q0.40625 -0.109375 0.6875 -0.3125q0.296875 -0.21875 0.453125 -0.53125q0.15625 -0.3125 0.15625 -0.75q0 -0.4375 -0.234375 -0.734375q-0.21875 -0.3125 -0.59375 -0.546875q-0.375 -0.234375 -0.84375 -0.421875q-0.46875 -0.1875 -0.96875 -0.375q-0.5 -0.203125 -0.96875 -0.453125q-0.46875 -0.25 -0.84375 -0.609375q-0.375 -0.375 -0.609375 -0.875q-0.234375 -0.5 -0.234375 -1.203125q0 -0.625 0.234375 -1.1875q0.25 -0.578125 0.734375 -1.0q0.484375 -0.4375 1.203125 -0.6875q0.71875 -0.265625 1.671875 -0.265625q0.421875 0 0.84375 0.078125q0.421875 0.0625 0.765625 0.171875q0.34375 0.109375 0.578125 0.234375q0.25 0.125 0.359375 0.21875q0.125 0.09375 0.171875 0.171875q0.046875 0.0625 0.0625 0.15625q0.015625 0.078125 0.03125 0.203125q0.015625 0.125 0.015625 0.3125q0 0.203125 -0.015625 0.359375q-0.015625 0.140625 -0.0625 0.234375q-0.03125 0.09375 -0.09375 0.140625q-0.0625 0.03125 -0.125 0.03125q-0.109375 0 -0.3125 -0.125q-0.203125 -0.125 -0.515625 -0.265625q-0.3125 -0.15625 -0.75 -0.28125q-0.421875 -0.140625 -0.96875 -0.140625q-0.5 0 -0.875 0.125q-0.375 0.109375 -0.609375 0.3125q-0.234375 0.203125 -0.359375 0.484375q-0.125 0.28125 -0.125 0.609375q0 0.453125 0.234375 0.765625q0.234375 0.3125 0.609375 0.546875q0.375 0.234375 0.84375 0.421875q0.484375 0.1875 0.984375 0.390625q0.5 0.1875 0.984375 0.4375q0.484375 0.25 0.859375 0.609375q0.375 0.34375 0.609375 0.84375q0.234375 0.484375 0.234375 1.15625zm12.574219 -2.515625q0 1.296875 -0.34375 2.375q-0.34375 1.078125 -1.015625 1.875q-0.671875 0.78125 -1.6875 1.21875q-1.015625 0.4375 -2.34375 0.4375q-1.3125 0 -2.28125 -0.375q-0.953125 -0.390625 -1.609375 -1.125q-0.640625 -0.75 -0.953125 -1.796875q-0.3125 -1.0625 -0.3125 -2.390625q0 -1.296875 0.328125 -2.375q0.328125 -1.09375 1.0 -1.875q0.6875 -0.78125 1.6875 -1.21875q1.015625 -0.4375 2.359375 -0.4375q1.296875 0 2.265625 0.390625q0.96875 0.390625 1.609375 1.125q0.640625 0.734375 0.96875 1.796875q0.328125 1.046875 0.328125 2.375zm-2.046875 0.125q0 -0.84375 -0.15625 -1.609375q-0.15625 -0.765625 -0.53125 -1.328125q-0.359375 -0.578125 -0.984375 -0.90625q-0.609375 -0.34375 -1.53125 -0.34375q-0.859375 0 -1.484375 0.3125q-0.609375 0.296875 -1.015625 0.859375q-0.390625 0.546875 -0.59375 1.3125q-0.1875 0.765625 -0.1875 1.65625q0 0.875 0.15625 1.640625q0.171875 0.75 0.53125 1.328125q0.375 0.5625 0.984375 0.90625q0.625 0.328125 1.5625 0.328125q0.84375 0 1.453125 -0.296875q0.625 -0.3125 1.015625 -0.859375q0.40625 -0.5625 0.59375 -1.3125q0.1875 -0.765625 0.1875 -1.6875zm11.046875 -4.59375q0 0.265625 -0.015625 0.4375q0 0.171875 -0.046875 0.28125q-0.03125 0.09375 -0.078125 0.15625q-0.046875 0.046875 -0.140625 0.046875q-0.09375 0 -0.234375 -0.046875q-0.140625 -0.0625 -0.3125 -0.109375q-0.15625 -0.0625 -0.375 -0.109375q-0.203125 -0.046875 -0.453125 -0.046875q-0.296875 0 -0.578125 0.125q-0.28125 0.109375 -0.59375 0.390625q-0.3125 0.265625 -0.65625 0.71875q-0.328125 0.4375 -0.734375 1.078125l0 6.9375q0 0.09375 -0.046875 0.15625q-0.046875 0.0625 -0.15625 0.125q-0.109375 0.046875 -0.296875 0.0625q-0.1875 0.03125 -0.484375 0.03125q-0.28125 0 -0.46875 -0.03125q-0.1875 -0.015625 -0.296875 -0.0625q-0.109375 -0.0625 -0.15625 -0.125q-0.03125 -0.0625 -0.03125 -0.15625l0 -10.546875q0 -0.09375 0.03125 -0.15625q0.03125 -0.0625 0.140625 -0.109375q0.109375 -0.0625 0.265625 -0.078125q0.171875 -0.015625 0.4375 -0.015625q0.265625 0 0.421875 0.015625q0.171875 0.015625 0.265625 0.078125q0.09375 0.046875 0.140625 0.109375q0.046875 0.0625 0.046875 0.15625l0 1.53125q0.421875 -0.625 0.796875 -1.015625q0.390625 -0.40625 0.734375 -0.625q0.34375 -0.234375 0.671875 -0.328125q0.328125 -0.09375 0.671875 -0.09375q0.15625 0 0.34375 0.03125q0.203125 0.015625 0.40625 0.0625q0.21875 0.046875 0.375 0.109375q0.171875 0.046875 0.234375 0.109375q0.078125 0.0625 0.09375 0.109375q0.03125 0.046875 0.046875 0.140625q0.03125 0.078125 0.03125 0.234375q0 0.15625 0 0.421875z" fill-rule="nonzero"/><path fill="#000000" fill-opacity="0.0" d="m200.00525 113.031494l38.10872 0l0 100.0945l38.11174 0" fill-rule="evenodd"/><path stroke="#ffffff" stroke-width="1.0" stroke-linejoin="round" stroke-linecap="butt" d="m200.00525 113.031494l38.10872 0l0 100.0945l38.11174 0" fill-rule="evenodd"/><path fill="#000000" fill-opacity="0.0" d="m200.00525 301.88452l38.10872 0l0 -88.755905l38.11174 0" fill-rule="evenodd"/><path stroke="#ffffff" stroke-width="1.0" stroke-linejoin="round" stroke-linecap="butt" d="m200.00525 301.88452l38.10872 0l0 -88.755905l34.684677 0" fill-rule="evenodd"/><path fill="#ffffff" stroke="#ffffff" stroke-width="1.0" stroke-linecap="butt" d="m272.79865 213.12862l-1.1246033 1.1245728l3.0897827 -1.1245728l-3.0897827 -1.124588z" fill-rule="evenodd"/><path fill="#000000" fill-opacity="0.0" d="m442.33334 213.11653l32.27829 0l0 -100.09448l32.288635 0" fill-rule="evenodd"/><path stroke="#ffffff" stroke-width="1.0" stroke-linejoin="round" stroke-linecap="butt" d="m442.33334 213.11653l32.27829 0l0 -100.09449l28.861542 0" fill-rule="evenodd"/><path fill="#ffffff" stroke="#ffffff" stroke-width="1.0" stroke-linecap="butt" d="m503.47318 113.02204l-1.1245728 1.124588l3.0897522 -1.124588l-3.0897522 -1.1245804z" fill-rule="evenodd"/><path fill="#000000" fill-opacity="0.0" d="m442.33334 213.11653l32.271576 0l0 88.755905l32.263855 0" fill-rule="evenodd"/><path stroke="#ffffff" stroke-width="1.0" stroke-linejoin="round" stroke-linecap="butt" d="m442.33334 213.11653l32.271576 0l0 88.755905l28.836761 0" fill-rule="evenodd"/><path fill="#ffffff" stroke="#ffffff" stroke-width="1.0" stroke-linecap="butt" d="m503.44168 301.87244l-1.1245728 1.1245728l3.0897522 -1.1245728l-3.0897522 -1.1245728z" fill-rule="evenodd"/><path fill="#000000" fill-opacity="0.0" d="m109.1673 192.72188l35.170258 0l0 40.787216l-35.170258 0z" fill-rule="evenodd"/><path fill="#000000" fill-opacity="0.0" d="m126.752426 192.72188l0 40.787216" fill-rule="evenodd"/><path stroke="#ffffff" stroke-width="2.0" stroke-linejoin="round" stroke-linecap="butt" stroke-dasharray="2.0,6.0" d="m126.752426 192.72188l0 40.787216" fill-rule="evenodd"/><path fill="#000000" fill-opacity="0.0" d="m599.5718 186.79506l35.170288 0l0 41.327286l-35.170288 0z" fill-rule="evenodd"/><path fill="#000000" fill-opacity="0.0" d="m617.1569 186.79506l0 41.327286" fill-rule="evenodd"/><path stroke="#ffffff" stroke-width="2.0" stroke-linejoin="round" stroke-linecap="butt" stroke-dasharray="2.0,6.0" d="m617.1569 186.79506l0 41.327286" fill-rule="evenodd"/><path fill="#000000" fill-opacity="0.0" d="m531.23987 110.135735l0 0c0 -4.9344177 4.000122 -8.934563 8.93457 -8.934563l35.80011 0l0 0c2.369629 0 4.642151 0.9413223 6.317749 2.6168747c1.6755371 1.6755524 2.6168213 3.9480972 2.6168213 6.317688l0 35.737175c0 4.9344177 -4.000122 8.93457 -8.93457 8.93457l-35.80011 0c-4.9344482 0 -8.93457 -4.0001526 -8.93457 -8.93457z" fill-rule="evenodd"/><path stroke="#ffffff" stroke-width="1.0" stroke-linejoin="round" stroke-linecap="butt" stroke-dasharray="4.0,3.0" d="m531.23987 110.135735l0 0c0 -4.9344177 4.000122 -8.934563 8.93457 -8.934563l35.80011 0l0 0c2.369629 0 4.642151 0.9413223 6.317749 2.6168747c1.6755371 1.6755524 2.6168213 3.9480972 2.6168213 6.317688l0 35.737175c0 4.9344177 -4.000122 8.93457 -8.93457 8.93457l-35.80011 0c-4.9344482 0 -8.93457 -4.0001526 -8.93457 -8.93457z" fill-rule="evenodd"/><path fill="#ffffff" d="m562.11224 122.7812q0 0.203125 -0.015625 0.34375q-0.015625 0.140625 -0.0625 0.234375q-0.046875 0.09375 -0.125 0.140625q-0.0625 0.03125 -0.140625 0.03125l-3.796875 0l0 11.687508q0 0.078125 -0.046875 0.140625q-0.03125 0.0625 -0.140625 0.109375q-0.109375 0.03125 -0.28125 0.046875q-0.171875 0.03125 -0.421875 0.03125q-0.25 0 -0.4375 -0.03125q-0.171875 -0.015625 -0.28125 -0.046875q-0.09375 -0.046875 -0.140625 -0.109375q-0.046875 -0.0625 -0.046875 -0.140625l0 -11.687508l-3.78125 0q-0.09375 0 -0.15625 -0.03125q-0.0625 -0.046875 -0.109375 -0.140625q-0.046875 -0.09375 -0.078125 -0.234375q-0.015625 -0.140625 -0.015625 -0.34375q0 -0.203125 0.015625 -0.34375q0.03125 -0.15625 0.078125 -0.25q0.046875 -0.09375 0.109375 -0.125q0.0625 -0.046875 0.15625 -0.046875l9.375 0q0.078125 0 0.140625 0.046875q0.078125 0.03125 0.125 0.125q0.046875 0.09375 0.0625 0.25q0.015625 0.140625 0.015625 0.34375z" fill-rule="nonzero"/><path fill="#000000" fill-opacity="0.0" d="m584.9091 128.00432l7.331604 0l0 0.06300354l31.912537 0" fill-rule="evenodd"/><path stroke="#ffffff" stroke-width="1.0" stroke-linejoin="round" stroke-linecap="butt" d="m584.9091 128.00433l7.331604 0l0 0.06298828l28.485413 0" fill-rule="evenodd"/><path fill="#ffffff" stroke="#ffffff" stroke-width="1.0" stroke-linecap="butt" d="m620.72614 128.06732l-1.1245728 1.124588l3.0897217 -1.124588l-3.0897217 -1.124588z" fill-rule="evenodd"/><path fill="#000000" fill-opacity="0.0" d="m531.23987 298.35175l0 0c0 -4.9344177 4.000122 -8.93454 8.93457 -8.93454l35.80011 0l0 0c2.369629 0 4.642151 0.9413147 6.317749 2.6168518c1.6755371 1.6755676 2.6168213 3.94812 2.6168213 6.317688l0 35.737183c0 4.9344177 -4.000122 8.93457 -8.93457 8.93457l-35.80011 0c-4.9344482 0 -8.93457 -4.0001526 -8.93457 -8.93457z" fill-rule="evenodd"/><path stroke="#ffffff" stroke-width="1.0" stroke-linejoin="round" stroke-linecap="butt" stroke-dasharray="4.0,3.0" d="m531.23987 298.35175l0 0c0 -4.9344177 4.000122 -8.93454 8.93457 -8.93454l35.80011 0l0 0c2.369629 0 4.642151 0.9413147 6.317749 2.6168518c1.6755371 1.6755676 2.6168213 3.94812 2.6168213 6.317688l0 35.737183c0 4.9344177 -4.000122 8.93457 -8.93457 8.93457l-35.80011 0c-4.9344482 0 -8.93457 -4.0001526 -8.93457 -8.93457z" fill-rule="evenodd"/><path fill="#ffffff" d="m562.11224 310.99722q0 0.203125 -0.015625 0.34375q-0.015625 0.140625 -0.0625 0.234375q-0.046875 0.09375 -0.125 0.140625q-0.0625 0.03125 -0.140625 0.03125l-3.796875 0l0 11.6875q0 0.078125 -0.046875 0.140625q-0.03125 0.0625 -0.140625 0.109375q-0.109375 0.03125 -0.28125 0.046875q-0.171875 0.03125 -0.421875 0.03125q-0.25 0 -0.4375 -0.03125q-0.171875 -0.015625 -0.28125 -0.046875q-0.09375 -0.046875 -0.140625 -0.109375q-0.046875 -0.0625 -0.046875 -0.140625l0 -11.6875l-3.78125 0q-0.09375 0 -0.15625 -0.03125q-0.0625 -0.046875 -0.109375 -0.140625q-0.046875 -0.09375 -0.078125 -0.234375q-0.015625 -0.140625 -0.015625 -0.34375q0 -0.203125 0.015625 -0.34375q0.03125 -0.15625 0.078125 -0.25q0.046875 -0.09375 0.109375 -0.125q0.0625 -0.046875 0.15625 -0.046875l9.375 0q0.078125 0 0.140625 0.046875q0.078125 0.03125 0.125 0.125q0.046875 0.09375 0.0625 0.25q0.015625 0.140625 0.015625 0.34375z" fill-rule="nonzero"/><path fill="#000000" fill-opacity="0.0" d="m584.9091 316.22034l7.331604 0l0 0.06298828l31.912537 0" fill-rule="evenodd"/><path stroke="#ffffff" stroke-width="1.0" stroke-linejoin="round" stroke-linecap="butt" d="m584.9091 316.22034l7.331604 0l0 0.0630188l28.485413 0" fill-rule="evenodd"/><path fill="#ffffff" stroke="#ffffff" stroke-width="1.0" stroke-linecap="butt" d="m620.72614 316.28336l-1.1245728 1.1245728l3.0897217 -1.1245728l-3.0897217 -1.1246033z" fill-rule="evenodd"/></g></svg>