<svg version="1.1" viewBox="0.0 0.0 499.3884514435696 412.6509186351706" fill="none" stroke="none" stroke-linecap="square" stroke-miterlimit="10" xmlns:xlink="http://www.w3.org/1999/xlink" xmlns="http://www.w3.org/2000/svg"><clipPath id="p.0"><path d="m0 0l499.38846 0l0 412.6509l-499.38846 0l0 -412.6509z" clip-rule="nonzero"/></clipPath><g clip-path="url(#p.0)"><path fill="#000000" fill-opacity="0.0" d="m0 0l499.38846 0l0 412.6509l-499.38846 0z" fill-rule="evenodd"/><path fill="#8e7cc3" d="m164.19073 157.59279l0 0c0 -12.6604 10.263275 -22.923676 22.923676 -22.923676l103.4845 0c6.0797424 0 11.910461 2.4151611 16.209473 6.7141876c4.2990417 4.2990265 6.714203 10.1297455 6.714203 16.209488l0 91.691956c0 12.660385 -10.263275 22.92369 -22.923676 22.92369l-103.4845 0c-12.6604 0 -22.923676 -10.263306 -22.923676 -22.92369z" fill-rule="evenodd"/><path fill="#674ea7" d="m173.08795 203.44911l16.574127 -26.883377l0 13.770248l36.081314 0l0 -33.86383l-13.770248 0l26.883377 -16.574127l26.883377 16.574127l-13.770248 0l0 33.86383l36.081314 0l0 -13.770248l16.574127 26.883377l-16.574127 26.883377l0 -13.770248l-36.081314 0l0 33.86383l13.770248 0l-26.883377 16.574112l-26.883377 -16.574112l13.770248 0l0 -33.86383l-36.081314 0l0 13.770248z" fill-rule="evenodd"/><path stroke="#351c75" stroke-width="1.0" stroke-linejoin="round" stroke-linecap="butt" d="m173.08795 203.44911l16.574127 -26.883377l0 13.770248l36.081314 0l0 -33.86383l-13.770248 0l26.883377 -16.574127l26.883377 16.574127l-13.770248 0l0 33.86383l36.081314 0l0 -13.770248l16.574127 26.883377l-16.574127 26.883377l0 -13.770248l-36.081314 0l0 33.86383l13.770248 0l-26.883377 16.574112l-26.883377 -16.574112l13.770248 0l0 -33.86383l-36.081314 0l0 13.770248z" fill-rule="evenodd"/><path fill="#ffffff" d="m216.11472 197.58786q0 0.21875 -0.015625 0.390625q-0.015625 0.15625 -0.046875 0.265625q-0.015625 0.109375 -0.0625 0.203125q-0.046875 0.078125 -0.15625 0.1875q-0.09375 0.09375 -0.390625 0.265625q-0.28125 0.15625 -0.703125 0.3125q-0.40625 0.140625 -0.9375 0.234375q-0.53125 0.109375 -1.15625 0.109375q-1.203125 0 -2.1875 -0.375q-0.96875 -0.375 -1.65625 -1.109375q-0.671875 -0.75 -1.046875 -1.859375q-0.359375 -1.109375 -0.359375 -2.578125q0 -1.5 0.390625 -2.671875q0.40625 -1.171875 1.125 -1.953125q0.71875 -0.796875 1.71875 -1.203125q1.015625 -0.421875 2.234375 -0.421875q0.484375 0 0.9375 0.09375q0.46875 0.078125 0.84375 0.21875q0.390625 0.125 0.703125 0.296875q0.3125 0.171875 0.4375 0.296875q0.125 0.125 0.15625 0.203125q0.046875 0.078125 0.078125 0.203125q0.03125 0.125 0.046875 0.3125q0.015625 0.171875 0.015625 0.421875q0 0.265625 -0.03125 0.46875q-0.015625 0.1875 -0.0625 0.3125q-0.03125 0.109375 -0.109375 0.171875q-0.0625 0.046875 -0.140625 0.046875q-0.140625 0 -0.34375 -0.15625q-0.203125 -0.15625 -0.546875 -0.34375q-0.328125 -0.203125 -0.796875 -0.359375q-0.453125 -0.171875 -1.09375 -0.171875q-0.703125 0 -1.25 0.296875q-0.546875 0.28125 -0.9375 0.8125q-0.390625 0.53125 -0.59375 1.296875q-0.1875 0.75 -0.1875 1.703125q0 1.03125 0.203125 1.796875q0.21875 0.75 0.609375 1.25q0.40625 0.484375 0.953125 0.734375q0.5625 0.234375 1.265625 0.234375q0.640625 0 1.109375 -0.140625q0.46875 -0.15625 0.796875 -0.328125q0.328125 -0.1875 0.546875 -0.328125q0.21875 -0.15625 0.328125 -0.15625q0.09375 0 0.140625 0.046875q0.0625 0.03125 0.09375 0.140625q0.046875 0.109375 0.0625 0.3125q0.015625 0.1875 0.015625 0.515625zm9.79657 -2.671875q0 1.03125 -0.28125 1.890625q-0.265625 0.859375 -0.828125 1.484375q-0.546875 0.609375 -1.390625 0.953125q-0.828125 0.328125 -1.953125 0.328125q-1.078125 0 -1.890625 -0.296875q-0.796875 -0.296875 -1.328125 -0.875q-0.515625 -0.578125 -0.78125 -1.40625q-0.25 -0.84375 -0.25 -1.921875q0 -1.03125 0.28125 -1.890625q0.28125 -0.859375 0.828125 -1.46875q0.5625 -0.625 1.390625 -0.953125q0.828125 -0.34375 1.953125 -0.34375q1.09375 0 1.890625 0.296875q0.8125 0.296875 1.328125 0.875q0.53125 0.5625 0.78125 1.40625q0.25 0.84375 0.25 1.921875zm-2.359375 0.09375q0 -0.609375 -0.09375 -1.109375q-0.09375 -0.5 -0.328125 -0.875q-0.21875 -0.375 -0.59375 -0.578125q-0.375 -0.21875 -0.953125 -0.21875q-0.515625 0 -0.90625 0.1875q-0.375 0.1875 -0.625 0.546875q-0.234375 0.359375 -0.359375 0.875q-0.125 0.5 -0.125 1.140625q0 0.59375 0.09375 1.109375q0.109375 0.5 0.328125 0.875q0.21875 0.375 0.59375 0.578125q0.390625 0.203125 0.953125 0.203125q0.53125 0 0.90625 -0.1875q0.390625 -0.1875 0.625 -0.53125q0.25 -0.359375 0.359375 -0.859375q0.125 -0.515625 0.125 -1.15625zm11.935806 4.046875q0 0.09375 -0.0625 0.171875q-0.046875 0.0625 -0.171875 0.109375q-0.125 0.046875 -0.359375 0.0625q-0.21875 0.015625 -0.546875 0.015625q-0.328125 0 -0.5625 -0.015625q-0.21875 -0.015625 -0.34375 -0.0625q-0.125 -0.046875 -0.1875 -0.109375q-0.046875 -0.078125 -0.046875 -0.171875l0 -4.640625q0 -0.578125 -0.09375 -0.921875q-0.078125 -0.34375 -0.25 -0.578125q-0.15625 -0.25 -0.421875 -0.375q-0.25 -0.125 -0.609375 -0.125q-0.4375 0 -0.890625 0.3125q-0.4375 0.3125 -0.921875 0.921875l0 5.40625q0 0.09375 -0.0625 0.171875q-0.046875 0.0625 -0.1875 0.109375q-0.125 0.046875 -0.34375 0.0625q-0.21875 0.015625 -0.546875 0.015625q-0.34375 0 -0.5625 -0.015625q-0.21875 -0.015625 -0.359375 -0.0625q-0.125 -0.046875 -0.1875 -0.109375q-0.046875 -0.078125 -0.046875 -0.171875l0 -8.125q0 -0.09375 0.046875 -0.15625q0.046875 -0.0625 0.15625 -0.109375q0.125 -0.046875 0.3125 -0.0625q0.1875 -0.03125 0.46875 -0.03125q0.296875 0 0.484375 0.03125q0.203125 0.015625 0.296875 0.0625q0.109375 0.046875 0.15625 0.109375q0.046875 0.0625 0.046875 0.15625l0 0.9375q0.671875 -0.71875 1.359375 -1.078125q0.703125 -0.375 1.46875 -0.375q0.828125 0 1.390625 0.28125q0.5625 0.265625 0.90625 0.734375q0.359375 0.46875 0.515625 1.09375q0.15625 0.625 0.15625 1.515625l0 5.015625zm10.011337 0q0 0.09375 -0.0625 0.171875q-0.046875 0.0625 -0.171875 0.109375q-0.125 0.046875 -0.359375 0.0625q-0.21875 0.015625 -0.546875 0.015625q-0.328125 0 -0.5625 -0.015625q-0.21875 -0.015625 -0.34375 -0.0625q-0.125 -0.046875 -0.1875 -0.109375q-0.046875 -0.078125 -0.046875 -0.171875l0 -4.640625q0 -0.578125 -0.09375 -0.921875q-0.078125 -0.34375 -0.25 -0.578125q-0.15625 -0.25 -0.421875 -0.375q-0.25 -0.125 -0.609375 -0.125q-0.4375 0 -0.890625 0.3125q-0.4375 0.3125 -0.921875 0.921875l0 5.40625q0 0.09375 -0.0625 0.171875q-0.046875 0.0625 -0.1875 0.109375q-0.125 0.046875 -0.34375 0.0625q-0.21875 0.015625 -0.546875 0.015625q-0.34375 0 -0.5625 -0.015625q-0.21875 -0.015625 -0.359375 -0.0625q-0.125 -0.046875 -0.1875 -0.109375q-0.046875 -0.078125 -0.046875 -0.171875l0 -8.125q0 -0.09375 0.046875 -0.15625q0.046875 -0.0625 0.15625 -0.109375q0.125 -0.046875 0.3125 -0.0625q0.1875 -0.03125 0.46875 -0.03125q0.296875 0 0.484375 0.03125q0.203125 0.015625 0.296875 0.0625q0.109375 0.046875 0.15625 0.109375q0.046875 0.0625 0.046875 0.15625l0 0.9375q0.671875 -0.71875 1.359375 -1.078125q0.703125 -0.375 1.46875 -0.375q0.828125 0 1.390625 0.28125q0.5625 0.265625 0.90625 0.734375q0.359375 0.46875 0.515625 1.09375q0.15625 0.625 0.15625 1.515625l0 5.015625zm9.761337 -4.296875q0 0.421875 -0.1875 0.625q-0.1875 0.1875 -0.515625 0.1875l-4.953125 0q0 0.53125 0.125 0.953125q0.125 0.421875 0.390625 0.71875q0.28125 0.296875 0.703125 0.453125q0.421875 0.15625 1.015625 0.15625q0.59375 0 1.046875 -0.078125q0.453125 -0.09375 0.78125 -0.203125q0.34375 -0.109375 0.5625 -0.1875q0.21875 -0.09375 0.359375 -0.09375q0.078125 0 0.125 0.03125q0.0625 0.03125 0.09375 0.125q0.046875 0.078125 0.046875 0.234375q0.015625 0.140625 0.015625 0.359375q0 0.203125 -0.015625 0.34375q0 0.140625 -0.015625 0.25q-0.015625 0.09375 -0.0625 0.171875q-0.03125 0.0625 -0.09375 0.125q-0.046875 0.0625 -0.3125 0.171875q-0.265625 0.109375 -0.6875 0.21875q-0.40625 0.09375 -0.9375 0.171875q-0.515625 0.078125 -1.125 0.078125q-1.078125 0 -1.890625 -0.265625q-0.8125 -0.28125 -1.359375 -0.828125q-0.546875 -0.5625 -0.828125 -1.40625q-0.265625 -0.84375 -0.265625 -1.984375q0 -1.078125 0.28125 -1.953125q0.28125 -0.875 0.8125 -1.46875q0.546875 -0.609375 1.3125 -0.921875q0.78125 -0.328125 1.734375 -0.328125q1.03125 0 1.75 0.296875q0.71875 0.296875 1.1875 0.84375q0.46875 0.53125 0.6875 1.265625q0.21875 0.71875 0.21875 1.578125l0 0.359375zm-2.21875 -0.65625q0.015625 -0.96875 -0.40625 -1.515625q-0.40625 -0.546875 -1.265625 -0.546875q-0.4375 0 -0.765625 0.171875q-0.3125 0.15625 -0.53125 0.4375q-0.21875 0.265625 -0.328125 0.65625q-0.109375 0.375 -0.140625 0.796875l3.4375 0zm11.1575165 4.796875q0.078125 0.15625 0.0625 0.25q0 0.09375 -0.125 0.171875q-0.125 0.0625 -0.390625 0.078125q-0.265625 0.015625 -0.703125 0.015625q-0.40625 0 -0.65625 -0.015625q-0.25 0 -0.390625 -0.03125q-0.140625 -0.046875 -0.21875 -0.109375q-0.0625 -0.0625 -0.09375 -0.15625l-1.5 -2.890625l-1.515625 2.890625q-0.03125 0.09375 -0.09375 0.15625q-0.0625 0.0625 -0.203125 0.109375q-0.125 0.03125 -0.359375 0.03125q-0.234375 0.015625 -0.625 0.015625q-0.390625 0 -0.640625 -0.015625q-0.234375 -0.015625 -0.34375 -0.078125q-0.109375 -0.078125 -0.109375 -0.171875q0 -0.09375 0.078125 -0.25l2.25 -4.0l-2.078125 -3.75q-0.078125 -0.171875 -0.09375 -0.28125q0 -0.125 0.109375 -0.1875q0.125 -0.0625 0.390625 -0.078125q0.265625 -0.03125 0.703125 -0.03125q0.40625 0 0.640625 0.015625q0.25 0.015625 0.375 0.046875q0.140625 0.015625 0.203125 0.078125q0.0625 0.0625 0.109375 0.140625l1.453125 2.71875l1.4375 -2.71875q0.03125 -0.0625 0.078125 -0.109375q0.0625 -0.0625 0.171875 -0.09375q0.125 -0.046875 0.328125 -0.0625q0.203125 -0.015625 0.5625 -0.015625q0.40625 0 0.640625 0.015625q0.234375 0.015625 0.34375 0.078125q0.109375 0.0625 0.09375 0.1875q0 0.109375 -0.09375 0.296875l-2.03125 3.6875l2.234375 4.0625zm6.322052 -0.640625q0 0.40625 -0.046875 0.625q-0.046875 0.203125 -0.140625 0.296875q-0.078125 0.078125 -0.234375 0.15625q-0.15625 0.0625 -0.375 0.109375q-0.203125 0.046875 -0.453125 0.078125q-0.25 0.03125 -0.515625 0.03125q-0.6875 0 -1.1875 -0.171875q-0.5 -0.171875 -0.828125 -0.53125q-0.328125 -0.375 -0.484375 -0.921875q-0.140625 -0.546875 -0.140625 -1.28125l0 -4.171875l-0.984375 0q-0.171875 0 -0.265625 -0.203125q-0.09375 -0.21875 -0.09375 -0.71875q0 -0.265625 0.015625 -0.4375q0.03125 -0.1875 0.078125 -0.296875q0.046875 -0.109375 0.109375 -0.15625q0.078125 -0.046875 0.171875 -0.046875l0.96875 0l0 -1.8125q0 -0.09375 0.046875 -0.15625q0.046875 -0.078125 0.171875 -0.125q0.140625 -0.046875 0.359375 -0.0625q0.21875 -0.03125 0.546875 -0.03125q0.34375 0 0.5625 0.03125q0.234375 0.015625 0.359375 0.0625q0.125 0.046875 0.171875 0.125q0.0625 0.0625 0.0625 0.15625l0 1.8125l1.765625 0q0.09375 0 0.15625 0.046875q0.078125 0.046875 0.109375 0.15625q0.046875 0.109375 0.0625 0.296875q0.03125 0.171875 0.03125 0.4375q0 0.5 -0.09375 0.71875q-0.078125 0.203125 -0.25 0.203125l-1.78125 0l0 3.828125q0 0.65625 0.203125 1.0q0.21875 0.328125 0.75 0.328125q0.1875 0 0.328125 -0.03125q0.140625 -0.03125 0.25 -0.078125q0.125 -0.046875 0.203125 -0.078125q0.078125 -0.03125 0.140625 -0.03125q0.046875 0 0.09375 0.03125q0.0625 0.03125 0.078125 0.140625q0.03125 0.09375 0.046875 0.265625q0.03125 0.15625 0.03125 0.40625z" fill-rule="nonzero"/><path fill="#ffffff" d="m211.41754 211.41599q0 0.265625 -0.03125 0.453125q-0.015625 0.1875 -0.0625 0.3125q-0.03125 0.109375 -0.09375 0.15625q-0.046875 0.046875 -0.140625 0.046875q-0.109375 0 -0.375 -0.15625q-0.265625 -0.171875 -0.703125 -0.359375q-0.4375 -0.203125 -1.046875 -0.359375q-0.609375 -0.171875 -1.40625 -0.171875q-0.859375 0 -1.546875 0.296875q-0.6875 0.296875 -1.1875 0.84375q-0.484375 0.53125 -0.75 1.296875q-0.265625 0.765625 -0.265625 1.6875q0 1.0 0.265625 1.78125q0.265625 0.765625 0.75 1.28125q0.484375 0.515625 1.15625 0.78125q0.6875 0.265625 1.515625 0.265625q0.390625 0 0.78125 -0.09375q0.390625 -0.09375 0.734375 -0.265625l0 -2.734375l-2.234375 0q-0.15625 0 -0.25 -0.203125q-0.09375 -0.203125 -0.09375 -0.703125q0 -0.25 0.015625 -0.421875q0.03125 -0.171875 0.078125 -0.28125q0.046875 -0.109375 0.109375 -0.15625q0.0625 -0.046875 0.140625 -0.046875l3.984375 0q0.140625 0 0.25 0.046875q0.125 0.046875 0.203125 0.15625q0.09375 0.09375 0.140625 0.234375q0.046875 0.140625 0.046875 0.328125l0 4.6875q0 0.28125 -0.109375 0.484375q-0.09375 0.203125 -0.390625 0.328125q-0.296875 0.109375 -0.734375 0.234375q-0.421875 0.125 -0.90625 0.21875q-0.46875 0.09375 -0.953125 0.140625q-0.46875 0.046875 -0.953125 0.046875q-1.40625 0 -2.53125 -0.40625q-1.109375 -0.40625 -1.890625 -1.171875q-0.765625 -0.78125 -1.171875 -1.875q-0.40625 -1.109375 -0.40625 -2.515625q0 -1.453125 0.4375 -2.59375q0.4375 -1.15625 1.234375 -1.953125q0.796875 -0.8125 1.921875 -1.234375q1.140625 -0.4375 2.546875 -0.4375q0.75 0 1.375 0.109375q0.640625 0.09375 1.109375 0.25q0.46875 0.140625 0.78125 0.328125q0.3125 0.171875 0.421875 0.296875q0.125 0.125 0.171875 0.359375q0.0625 0.234375 0.0625 0.6875zm9.231644 9.671875q0 0.125 -0.09375 0.203125q-0.09375 0.0625 -0.296875 0.09375q-0.1875 0.03125 -0.578125 0.03125q-0.40625 0 -0.59375 -0.03125q-0.1875 -0.03125 -0.265625 -0.09375q-0.078125 -0.078125 -0.078125 -0.203125l0 -0.640625q-0.5 0.53125 -1.140625 0.828125q-0.640625 0.296875 -1.421875 0.296875q-0.65625 0 -1.203125 -0.171875q-0.53125 -0.15625 -0.9375 -0.484375q-0.390625 -0.34375 -0.609375 -0.828125q-0.21875 -0.5 -0.21875 -1.15625q0 -0.703125 0.28125 -1.21875q0.28125 -0.53125 0.828125 -0.875q0.5625 -0.34375 1.375 -0.5q0.8125 -0.171875 1.90625 -0.171875l0.796875 0l0 -0.484375q0 -0.390625 -0.078125 -0.671875q-0.078125 -0.296875 -0.265625 -0.484375q-0.171875 -0.1875 -0.46875 -0.28125q-0.296875 -0.09375 -0.734375 -0.09375q-0.578125 0 -1.03125 0.140625q-0.4375 0.125 -0.796875 0.28125q-0.34375 0.140625 -0.578125 0.28125q-0.21875 0.125 -0.375 0.125q-0.09375 0 -0.171875 -0.0625q-0.078125 -0.0625 -0.140625 -0.1875q-0.046875 -0.125 -0.078125 -0.296875q-0.015625 -0.171875 -0.015625 -0.375q0 -0.28125 0.046875 -0.4375q0.046875 -0.171875 0.171875 -0.296875q0.125 -0.140625 0.4375 -0.296875q0.328125 -0.171875 0.75 -0.296875q0.4375 -0.140625 0.9375 -0.21875q0.5 -0.09375 1.046875 -0.09375q0.953125 0 1.625 0.1875q0.6875 0.1875 1.125 0.578125q0.4375 0.375 0.640625 0.984375q0.203125 0.609375 0.203125 1.453125l0 5.46875zm-2.25 -3.484375l-0.875 0q-0.5625 0 -0.953125 0.09375q-0.390625 0.078125 -0.640625 0.25q-0.25 0.15625 -0.359375 0.390625q-0.109375 0.21875 -0.109375 0.53125q0 0.5 0.3125 0.796875q0.328125 0.296875 0.90625 0.296875q0.484375 0 0.890625 -0.25q0.40625 -0.25 0.828125 -0.71875l0 -1.390625zm9.334702 2.65625q0 0.40625 -0.046875 0.625q-0.046875 0.203125 -0.140625 0.296875q-0.078125 0.078125 -0.234375 0.15625q-0.15625 0.0625 -0.375 0.109375q-0.203125 0.046875 -0.453125 0.078125q-0.25 0.03125 -0.515625 0.03125q-0.6875 0 -1.1875 -0.171875q-0.5 -0.171875 -0.828125 -0.53125q-0.328125 -0.375 -0.484375 -0.921875q-0.140625 -0.546875 -0.140625 -1.28125l0 -4.171875l-0.984375 0q-0.171875 0 -0.265625 -0.203125q-0.09375 -0.21875 -0.09375 -0.71875q0 -0.265625 0.015625 -0.4375q0.03125 -0.1875 0.078125 -0.296875q0.046875 -0.109375 0.109375 -0.15625q0.078125 -0.046875 0.171875 -0.046875l0.96875 0l0 -1.8125q0 -0.09375 0.046875 -0.15625q0.046875 -0.078125 0.171875 -0.125q0.140625 -0.046875 0.359375 -0.0625q0.21875 -0.03125 0.546875 -0.03125q0.34375 0 0.5625 0.03125q0.234375 0.015625 0.359375 0.0625q0.125 0.046875 0.171875 0.125q0.0625 0.0625 0.0625 0.15625l0 1.8125l1.765625 0q0.09375 0 0.15625 0.046875q0.078125 0.046875 0.109375 0.15625q0.046875 0.109375 0.0625 0.296875q0.03125 0.171875 0.03125 0.4375q0 0.5 -0.09375 0.71875q-0.078125 0.203125 -0.25 0.203125l-1.78125 0l0 3.828125q0 0.65625 0.203125 1.0q0.21875 0.328125 0.75 0.328125q0.1875 0 0.328125 -0.03125q0.140625 -0.03125 0.25 -0.078125q0.125 -0.046875 0.203125 -0.078125q0.078125 -0.03125 0.140625 -0.03125q0.046875 0 0.09375 0.03125q0.0625 0.03125 0.078125 0.140625q0.03125 0.09375 0.046875 0.265625q0.03125 0.15625 0.03125 0.40625zm9.170868 -3.5q0 0.421875 -0.1875 0.625q-0.1875 0.1875 -0.515625 0.1875l-4.953125 0q0 0.53125 0.125 0.953125q0.125 0.421875 0.390625 0.71875q0.28125 0.296875 0.703125 0.453125q0.421875 0.15625 1.015625 0.15625q0.59375 0 1.046875 -0.078125q0.453125 -0.09375 0.78125 -0.203125q0.34375 -0.109375 0.5625 -0.1875q0.21875 -0.09375 0.359375 -0.09375q0.078125 0 0.125 0.03125q0.0625 0.03125 0.09375 0.125q0.046875 0.078125 0.046875 0.234375q0.015625 0.140625 0.015625 0.359375q0 0.203125 -0.015625 0.34375q0 0.140625 -0.015625 0.25q-0.015625 0.09375 -0.0625 0.171875q-0.03125 0.0625 -0.09375 0.125q-0.046875 0.0625 -0.3125 0.171875q-0.265625 0.109375 -0.6875 0.21875q-0.40625 0.09375 -0.9375 0.171875q-0.515625 0.078125 -1.125 0.078125q-1.078125 0 -1.890625 -0.265625q-0.8125 -0.28125 -1.359375 -0.828125q-0.546875 -0.5625 -0.828125 -1.40625q-0.265625 -0.84375 -0.265625 -1.984375q0 -1.078125 0.28125 -1.953125q0.28125 -0.875 0.8125 -1.46875q0.546875 -0.609375 1.3125 -0.921875q0.78125 -0.328125 1.734375 -0.328125q1.03125 0 1.75 0.296875q0.71875 0.296875 1.1875 0.84375q0.46875 0.53125 0.6875 1.265625q0.21875 0.71875 0.21875 1.578125l0 0.359375zm-2.21875 -0.65625q0.015625 -0.96875 -0.40625 -1.515625q-0.40625 -0.546875 -1.265625 -0.546875q-0.4375 0 -0.765625 0.171875q-0.3125 0.15625 -0.53125 0.4375q-0.21875 0.265625 -0.328125 0.65625q-0.109375 0.375 -0.140625 0.796875l3.4375 0zm16.532516 -3.1875q0 0.09375 -0.03125 0.25q-0.015625 0.140625 -0.09375 0.421875l-2.171875 7.34375q-0.046875 0.15625 -0.125 0.25q-0.0625 0.09375 -0.21875 0.15625q-0.140625 0.046875 -0.421875 0.0625q-0.28125 0.015625 -0.71875 0.015625q-0.453125 0 -0.734375 -0.015625q-0.28125 -0.015625 -0.4375 -0.0625q-0.15625 -0.0625 -0.234375 -0.15625q-0.078125 -0.109375 -0.109375 -0.25l-1.359375 -4.9375l-0.03125 -0.078125l-0.015625 0.078125l-1.25 4.9375q-0.046875 0.15625 -0.109375 0.25q-0.0625 0.09375 -0.234375 0.15625q-0.15625 0.046875 -0.4375 0.0625q-0.28125 0.015625 -0.734375 0.015625q-0.453125 0 -0.734375 -0.015625q-0.28125 -0.015625 -0.4375 -0.0625q-0.15625 -0.0625 -0.234375 -0.15625q-0.078125 -0.109375 -0.109375 -0.25l-2.140625 -7.34375q-0.09375 -0.265625 -0.125 -0.421875q-0.015625 -0.15625 -0.015625 -0.25q0 -0.09375 0.046875 -0.15625q0.0625 -0.078125 0.1875 -0.109375q0.140625 -0.046875 0.359375 -0.0625q0.21875 -0.015625 0.5625 -0.015625q0.359375 0 0.578125 0.015625q0.234375 0.015625 0.359375 0.0625q0.140625 0.046875 0.1875 0.125q0.046875 0.078125 0.078125 0.1875l1.609375 5.96875l0.015625 0.109375l0.015625 -0.109375l1.515625 -5.96875q0.03125 -0.109375 0.078125 -0.1875q0.0625 -0.078125 0.1875 -0.125q0.125 -0.046875 0.328125 -0.0625q0.21875 -0.015625 0.5625 -0.015625q0.328125 0 0.53125 0.03125q0.21875 0.015625 0.34375 0.0625q0.125 0.03125 0.171875 0.109375q0.046875 0.0625 0.078125 0.15625l1.625 6.0l0.015625 0.109375l0.03125 -0.109375l1.546875 -5.96875q0.015625 -0.109375 0.0625 -0.1875q0.0625 -0.078125 0.1875 -0.125q0.125 -0.046875 0.34375 -0.0625q0.21875 -0.015625 0.5625 -0.015625q0.328125 0 0.546875 0.015625q0.21875 0.015625 0.328125 0.0625q0.125 0.03125 0.171875 0.109375q0.046875 0.0625 0.046875 0.15625zm8.401108 8.171875q0 0.125 -0.09375 0.203125q-0.09375 0.0625 -0.296875 0.09375q-0.1875 0.03125 -0.578125 0.03125q-0.40625 0 -0.59375 -0.03125q-0.1875 -0.03125 -0.265625 -0.09375q-0.078125 -0.078125 -0.078125 -0.203125l0 -0.640625q-0.5 0.53125 -1.140625 0.828125q-0.64064026 0.296875 -1.4218903 0.296875q-0.65625 0 -1.203125 -0.171875q-0.53125 -0.15625 -0.9375 -0.484375q-0.390625 -0.34375 -0.609375 -0.828125q-0.21875 -0.5 -0.21875 -1.15625q0 -0.703125 0.28125 -1.21875q0.28125 -0.53125 0.828125 -0.875q0.5625 -0.34375 1.375 -0.5q0.8125 -0.171875 1.9062653 -0.171875l0.796875 0l0 -0.484375q0 -0.390625 -0.078125 -0.671875q-0.078125 -0.296875 -0.265625 -0.484375q-0.171875 -0.1875 -0.46875 -0.28125q-0.296875 -0.09375 -0.73439026 -0.09375q-0.578125 0 -1.03125 0.140625q-0.4375 0.125 -0.796875 0.28125q-0.34375 0.140625 -0.578125 0.28125q-0.21875 0.125 -0.375 0.125q-0.09375 0 -0.171875 -0.0625q-0.078125 -0.0625 -0.140625 -0.1875q-0.046875 -0.125 -0.078125 -0.296875q-0.015625 -0.171875 -0.015625 -0.375q0 -0.28125 0.046875 -0.4375q0.046875 -0.171875 0.171875 -0.296875q0.125 -0.140625 0.4375 -0.296875q0.328125 -0.171875 0.75 -0.296875q0.4375 -0.140625 0.9375 -0.21875q0.5 -0.09375 1.0468903 -0.09375q0.953125 0 1.625 0.1875q0.6875 0.1875 1.125 0.578125q0.4375 0.375 0.640625 0.984375q0.203125 0.609375 0.203125 1.453125l0 5.46875zm-2.25 -3.484375l-0.875 0q-0.56251526 0 -0.95314026 0.09375q-0.390625 0.078125 -0.640625 0.25q-0.25 0.15625 -0.359375 0.390625q-0.109375 0.21875 -0.109375 0.53125q0 0.5 0.3125 0.796875q0.328125 0.296875 0.90625 0.296875q0.48439026 0 0.89064026 -0.25q0.40625 -0.25 0.828125 -0.71875l0 -1.390625zm9.240936 3.765625l-0.984375 2.875q-0.078125 0.234375 -0.453125 0.328125q-0.359375 0.109375 -1.0625 0.109375q-0.359375 0 -0.578125 -0.03125q-0.21875 -0.03125 -0.328125 -0.109375q-0.109375 -0.078125 -0.125 -0.1875q0 -0.109375 0.0625 -0.265625l1.078125 -2.71875q-0.109375 -0.046875 -0.21875 -0.15625q-0.09375 -0.125 -0.140625 -0.25l-2.796875 -7.46875q-0.109375 -0.328125 -0.109375 -0.484375q0 -0.171875 0.109375 -0.265625q0.109375 -0.109375 0.359375 -0.140625q0.265625 -0.03125 0.6875 -0.03125q0.40625 0 0.625 0.015625q0.234375 0.015625 0.359375 0.078125q0.125 0.046875 0.1875 0.15625q0.0625 0.109375 0.125 0.328125l1.921875 5.4375l0.015625 0l1.75 -5.546875q0.0625 -0.25 0.140625 -0.328125q0.09375 -0.078125 0.296875 -0.109375q0.203125 -0.03125 0.703125 -0.03125q0.390625 0 0.640625 0.03125q0.265625 0.03125 0.390625 0.140625q0.125 0.09375 0.125 0.265625q0 0.171875 -0.078125 0.390625l-2.703125 7.96875zm9.851837 -2.609375q0 0.703125 -0.265625 1.234375q-0.265625 0.515625 -0.734375 0.875q-0.46875 0.359375 -1.125 0.53125q-0.640625 0.171875 -1.390625 0.171875q-0.46875 0 -0.890625 -0.0625q-0.40625 -0.0625 -0.734375 -0.171875q-0.328125 -0.109375 -0.546875 -0.21875q-0.21875 -0.109375 -0.3125 -0.203125q-0.09375 -0.09375 -0.15625 -0.296875q-0.046875 -0.203125 -0.046875 -0.609375q0 -0.265625 0.015625 -0.421875q0.015625 -0.15625 0.046875 -0.25q0.046875 -0.09375 0.09375 -0.125q0.0625 -0.046875 0.140625 -0.046875q0.09375 0 0.28125 0.125q0.203125 0.109375 0.5 0.25q0.296875 0.140625 0.671875 0.265625q0.390625 0.109375 0.890625 0.109375q0.296875 0 0.53125 -0.0625q0.25 -0.0625 0.421875 -0.1875q0.1875 -0.125 0.28125 -0.296875q0.09375 -0.1875 0.09375 -0.421875q0 -0.28125 -0.171875 -0.46875q-0.171875 -0.203125 -0.453125 -0.34375q-0.265625 -0.140625 -0.625 -0.265625q-0.34375 -0.140625 -0.71875 -0.28125q-0.359375 -0.15625 -0.71875 -0.359375q-0.34375 -0.203125 -0.625 -0.484375q-0.28125 -0.296875 -0.453125 -0.703125q-0.171875 -0.421875 -0.171875 -1.0q0 -0.578125 0.234375 -1.0625q0.234375 -0.484375 0.65625 -0.828125q0.421875 -0.359375 1.03125 -0.546875q0.625 -0.1875 1.390625 -0.1875q0.390625 0 0.75 0.0625q0.359375 0.046875 0.640625 0.125q0.296875 0.078125 0.5 0.1875q0.203125 0.09375 0.28125 0.15625q0.09375 0.0625 0.125 0.140625q0.03125 0.0625 0.046875 0.15625q0.03125 0.09375 0.03125 0.234375q0.015625 0.140625 0.015625 0.359375q0 0.25 -0.015625 0.40625q0 0.140625 -0.03125 0.234375q-0.03125 0.09375 -0.09375 0.125q-0.046875 0.03125 -0.125 0.03125q-0.078125 0 -0.25 -0.09375q-0.171875 -0.09375 -0.4375 -0.203125q-0.265625 -0.109375 -0.609375 -0.203125q-0.328125 -0.09375 -0.765625 -0.09375q-0.3125 0 -0.546875 0.0625q-0.21875 0.0625 -0.375 0.1875q-0.140625 0.109375 -0.21875 0.265625q-0.0625 0.15625 -0.0625 0.34375q0 0.28125 0.171875 0.484375q0.171875 0.1875 0.453125 0.328125q0.28125 0.140625 0.640625 0.28125q0.359375 0.125 0.71875 0.28125q0.375 0.140625 0.734375 0.34375q0.359375 0.1875 0.640625 0.484375q0.28125 0.296875 0.453125 0.703125q0.1875 0.40625 0.1875 0.953125z" fill-rule="nonzero"/><path fill="#ec8b22" d="m0 34.362206l34.362206 -34.362206l0 17.181103l429.6378 0l0 -17.181103l34.362213 34.362206l-34.362213 34.362206l0 -17.181103l-429.6378 0l0 17.181103z" fill-rule="evenodd"/><path fill="#ffffff" d="m193.5859 39.61033q0 0.15625 -0.015625 0.265625q0 0.109375 -0.03125 0.1875q-0.015625 0.078125 -0.0625 0.140625q-0.03125 0.0625 -0.125 0.15625q-0.078125 0.09375 -0.375 0.28125q-0.296875 0.1875 -0.734375 0.375q-0.421875 0.171875 -0.984375 0.28125q-0.5625 0.125 -1.21875 0.125q-1.15625 0 -2.078125 -0.375q-0.921875 -0.390625 -1.578125 -1.125q-0.65625 -0.75 -1.0 -1.84375q-0.34375 -1.109375 -0.34375 -2.53125q0 -1.46875 0.375 -2.609375q0.375 -1.15625 1.046875 -1.953125q0.6875 -0.796875 1.640625 -1.21875q0.953125 -0.421875 2.109375 -0.421875q0.515625 0 1.0 0.109375q0.484375 0.09375 0.890625 0.234375q0.40625 0.140625 0.71875 0.34375q0.328125 0.1875 0.453125 0.3125q0.125 0.109375 0.15625 0.1875q0.03125 0.0625 0.046875 0.15625q0.03125 0.078125 0.046875 0.203125q0.015625 0.109375 0.015625 0.265625q0 0.1875 -0.015625 0.3125q-0.015625 0.125 -0.0625 0.21875q-0.03125 0.078125 -0.078125 0.125q-0.046875 0.046875 -0.125 0.046875q-0.125 0 -0.359375 -0.171875q-0.21875 -0.1875 -0.578125 -0.40625q-0.359375 -0.21875 -0.875 -0.390625q-0.515625 -0.171875 -1.234375 -0.171875q-0.78125 0 -1.4375 0.3125q-0.640625 0.3125 -1.09375 0.921875q-0.453125 0.609375 -0.703125 1.5q-0.25 0.875 -0.25 2.0q0 1.125 0.234375 1.984375q0.25 0.859375 0.703125 1.4375q0.453125 0.578125 1.109375 0.875q0.65625 0.296875 1.484375 0.296875q0.703125 0 1.21875 -0.171875q0.53125 -0.171875 0.890625 -0.390625q0.375 -0.21875 0.609375 -0.390625q0.234375 -0.171875 0.375 -0.171875q0.0625 0 0.109375 0.03125q0.046875 0.015625 0.0625 0.09375q0.03125 0.078125 0.046875 0.21875q0.015625 0.140625 0.015625 0.34375zm9.525696 -2.75q0 1.0 -0.265625 1.84375q-0.265625 0.84375 -0.796875 1.453125q-0.515625 0.609375 -1.3125 0.953125q-0.78125 0.34375 -1.8125 0.34375q-1.015625 0 -1.765625 -0.296875q-0.75 -0.296875 -1.25 -0.875q-0.5 -0.578125 -0.75 -1.390625q-0.25 -0.828125 -0.25 -1.859375q0 -1.0 0.265625 -1.84375q0.265625 -0.84375 0.78125 -1.453125q0.53125 -0.609375 1.3125 -0.953125q0.78125 -0.34375 1.828125 -0.34375q1.015625 0 1.765625 0.3125q0.75 0.296875 1.25 0.875q0.5 0.5625 0.75 1.390625q0.25 0.8125 0.25 1.84375zm-1.578125 0.109375q0 -0.671875 -0.125 -1.265625q-0.125 -0.59375 -0.40625 -1.03125q-0.28125 -0.453125 -0.765625 -0.703125q-0.484375 -0.265625 -1.203125 -0.265625q-0.671875 0 -1.15625 0.234375q-0.46875 0.234375 -0.78125 0.671875q-0.296875 0.4375 -0.453125 1.03125q-0.15625 0.578125 -0.15625 1.28125q0 0.671875 0.125 1.265625q0.125 0.59375 0.40625 1.046875q0.296875 0.4375 0.78125 0.703125q0.484375 0.25 1.203125 0.25q0.65625 0 1.125 -0.234375q0.484375 -0.234375 0.796875 -0.65625q0.3125 -0.4375 0.453125 -1.03125q0.15625 -0.59375 0.15625 -1.296875zm10.853882 4.078125q0 0.078125 -0.046875 0.140625q-0.03125 0.046875 -0.109375 0.078125q-0.078125 0.03125 -0.234375 0.046875q-0.140625 0.015625 -0.359375 0.015625q-0.21875 0 -0.375 -0.015625q-0.140625 -0.015625 -0.234375 -0.046875q-0.078125 -0.03125 -0.109375 -0.078125q-0.03125 -0.0625 -0.03125 -0.140625l0 -4.796875q0 -0.703125 -0.109375 -1.125q-0.109375 -0.4375 -0.328125 -0.734375q-0.203125 -0.3125 -0.546875 -0.46875q-0.328125 -0.171875 -0.765625 -0.171875q-0.5625 0 -1.125 0.40625q-0.5625 0.390625 -1.1875 1.171875l0 5.71875q0 0.078125 -0.03125 0.140625q-0.03125 0.046875 -0.125 0.078125q-0.078125 0.03125 -0.21875 0.046875q-0.140625 0.015625 -0.375 0.015625q-0.21875 0 -0.375 -0.015625q-0.140625 -0.015625 -0.234375 -0.046875q-0.078125 -0.03125 -0.109375 -0.078125q-0.03125 -0.0625 -0.03125 -0.140625l0 -8.1875q0 -0.078125 0.03125 -0.125q0.03125 -0.046875 0.109375 -0.09375q0.078125 -0.046875 0.203125 -0.046875q0.140625 -0.015625 0.34375 -0.015625q0.203125 0 0.328125 0.015625q0.140625 0 0.203125 0.046875q0.078125 0.046875 0.109375 0.09375q0.03125 0.046875 0.03125 0.125l0 1.078125q0.6875 -0.765625 1.375 -1.125q0.6875 -0.375 1.390625 -0.375q0.828125 0 1.375 0.28125q0.5625 0.28125 0.90625 0.75q0.359375 0.46875 0.5 1.09375q0.15625 0.609375 0.15625 1.484375l0 5.0zm9.801819 0q0 0.078125 -0.046875 0.140625q-0.03125 0.046875 -0.109375 0.078125q-0.078125 0.03125 -0.234375 0.046875q-0.140625 0.015625 -0.359375 0.015625q-0.21875 0 -0.375 -0.015625q-0.140625 -0.015625 -0.234375 -0.046875q-0.078125 -0.03125 -0.109375 -0.078125q-0.03125 -0.0625 -0.03125 -0.140625l0 -4.796875q0 -0.703125 -0.109375 -1.125q-0.109375 -0.4375 -0.328125 -0.734375q-0.203125 -0.3125 -0.546875 -0.46875q-0.328125 -0.171875 -0.765625 -0.171875q-0.5625 0 -1.125 0.40625q-0.5625 0.390625 -1.1875 1.171875l0 5.71875q0 0.078125 -0.03125 0.140625q-0.03125 0.046875 -0.125 0.078125q-0.078125 0.03125 -0.21875 0.046875q-0.140625 0.015625 -0.375 0.015625q-0.21875 0 -0.375 -0.015625q-0.140625 -0.015625 -0.234375 -0.046875q-0.078125 -0.03125 -0.109375 -0.078125q-0.03125 -0.0625 -0.03125 -0.140625l0 -8.1875q0 -0.078125 0.03125 -0.125q0.03125 -0.046875 0.109375 -0.09375q0.078125 -0.046875 0.203125 -0.046875q0.140625 -0.015625 0.34375 -0.015625q0.203125 0 0.328125 0.015625q0.140625 0 0.203125 0.046875q0.078125 0.046875 0.109375 0.09375q0.03125 0.046875 0.03125 0.125l0 1.078125q0.6875 -0.765625 1.375 -1.125q0.6875 -0.375 1.390625 -0.375q0.828125 0 1.375 0.28125q0.5625 0.28125 0.90625 0.75q0.359375 0.46875 0.5 1.09375q0.15625 0.609375 0.15625 1.484375l0 5.0zm9.739319 -4.453125q0 0.359375 -0.1875 0.515625q-0.171875 0.140625 -0.390625 0.140625l-5.375 0q0 0.6875 0.125 1.234375q0.140625 0.546875 0.453125 0.9375q0.328125 0.390625 0.828125 0.609375q0.515625 0.203125 1.25 0.203125q0.59375 0 1.046875 -0.09375q0.453125 -0.09375 0.78125 -0.203125q0.34375 -0.125 0.546875 -0.21875q0.21875 -0.109375 0.328125 -0.109375q0.0625 0 0.109375 0.03125q0.0625 0.03125 0.078125 0.109375q0.03125 0.0625 0.046875 0.171875q0.015625 0.109375 0.015625 0.28125q0 0.109375 -0.015625 0.203125q0 0.078125 -0.015625 0.15625q-0.015625 0.0625 -0.046875 0.125q-0.03125 0.046875 -0.09375 0.09375q-0.046875 0.046875 -0.296875 0.171875q-0.234375 0.109375 -0.625 0.21875q-0.390625 0.109375 -0.90625 0.1875q-0.515625 0.09375 -1.09375 0.09375q-1.015625 0 -1.78125 -0.28125q-0.765625 -0.28125 -1.28125 -0.828125q-0.515625 -0.5625 -0.78125 -1.390625q-0.265625 -0.84375 -0.265625 -1.96875q0 -1.046875 0.265625 -1.890625q0.28125 -0.84375 0.796875 -1.421875q0.515625 -0.59375 1.234375 -0.90625q0.734375 -0.328125 1.640625 -0.328125q0.96875 0 1.640625 0.3125q0.6875 0.3125 1.125 0.84375q0.4375 0.515625 0.640625 1.234375q0.203125 0.703125 0.203125 1.5l0 0.265625zm-1.515625 -0.4375q0.03125 -1.1875 -0.53125 -1.859375q-0.546875 -0.671875 -1.625 -0.671875q-0.5625 0 -0.984375 0.21875q-0.40625 0.203125 -0.6875 0.546875q-0.28125 0.34375 -0.4375 0.8125q-0.15625 0.453125 -0.171875 0.953125l4.4375 0zm10.0169525 4.71875q0.0625 0.140625 0.0625 0.234375q0 0.078125 -0.09375 0.140625q-0.078125 0.046875 -0.25 0.0625q-0.171875 0.015625 -0.453125 0.015625q-0.28125 0 -0.4375 -0.015625q-0.15625 0 -0.265625 -0.03125q-0.09375 -0.03125 -0.140625 -0.078125q-0.046875 -0.0625 -0.078125 -0.125l-1.96875 -3.25l-1.96875 3.25q-0.03125 0.0625 -0.078125 0.125q-0.046875 0.046875 -0.15625 0.078125q-0.09375 0.03125 -0.25 0.03125q-0.140625 0.015625 -0.40625 0.015625q-0.265625 0 -0.4375 -0.015625q-0.15625 -0.015625 -0.234375 -0.0625q-0.078125 -0.0625 -0.078125 -0.140625q0 -0.09375 0.09375 -0.234375l2.546875 -4.0l-2.421875 -3.84375q-0.0625 -0.125 -0.078125 -0.203125q0 -0.09375 0.078125 -0.15625q0.09375 -0.0625 0.265625 -0.078125q0.1875 -0.015625 0.484375 -0.015625q0.265625 0 0.421875 0.015625q0.15625 0 0.25 0.03125q0.09375 0.03125 0.140625 0.078125q0.046875 0.046875 0.078125 0.109375l1.859375 3.046875l1.90625 -3.046875q0.03125 -0.0625 0.078125 -0.109375q0.046875 -0.046875 0.125 -0.078125q0.078125 -0.03125 0.21875 -0.03125q0.140625 -0.015625 0.390625 -0.015625q0.25 0 0.421875 0.015625q0.171875 0.015625 0.25 0.0625q0.078125 0.046875 0.0625 0.140625q0 0.09375 -0.078125 0.234375l-2.390625 3.796875l2.53125 4.046875zm6.126999 -0.421875q0 0.265625 -0.046875 0.421875q-0.03125 0.15625 -0.109375 0.234375q-0.0625 0.0625 -0.21875 0.125q-0.140625 0.0625 -0.328125 0.09375q-0.1875 0.046875 -0.390625 0.078125q-0.203125 0.03125 -0.421875 0.03125q-0.640625 0 -1.09375 -0.171875q-0.453125 -0.171875 -0.75 -0.5q-0.28125 -0.34375 -0.421875 -0.859375q-0.125 -0.53125 -0.125 -1.25l0 -4.796875l-1.15625 0q-0.125 0 -0.21875 -0.140625q-0.078125 -0.140625 -0.078125 -0.46875q0 -0.171875 0.015625 -0.28125q0.03125 -0.125 0.0625 -0.203125q0.046875 -0.078125 0.09375 -0.109375q0.0625 -0.03125 0.140625 -0.03125l1.140625 0l0 -1.953125q0 -0.0625 0.03125 -0.109375q0.03125 -0.0625 0.109375 -0.109375q0.09375 -0.046875 0.234375 -0.0625q0.15625 -0.015625 0.375 -0.015625q0.21875 0 0.359375 0.015625q0.15625 0.015625 0.234375 0.0625q0.078125 0.046875 0.109375 0.109375q0.046875 0.046875 0.046875 0.109375l0 1.953125l2.109375 0q0.0625 0 0.109375 0.03125q0.0625 0.03125 0.109375 0.109375q0.046875 0.078125 0.0625 0.203125q0.015625 0.109375 0.015625 0.28125q0 0.328125 -0.078125 0.46875q-0.078125 0.140625 -0.21875 0.140625l-2.109375 0l0 4.578125q0 0.84375 0.25 1.28125q0.25 0.4375 0.90625 0.4375q0.203125 0 0.359375 -0.046875q0.171875 -0.046875 0.296875 -0.078125q0.125 -0.046875 0.21875 -0.09375q0.09375 -0.046875 0.171875 -0.046875q0.046875 0 0.078125 0.03125q0.046875 0.015625 0.0625 0.078125q0.03125 0.0625 0.046875 0.171875q0.015625 0.109375 0.015625 0.28125zm15.435547 -5.234375q0 1.53125 -0.390625 2.671875q-0.390625 1.140625 -1.140625 1.890625q-0.75 0.75 -1.84375 1.125q-1.09375 0.375 -2.609375 0.375l-2.4843597 0q-0.21875 0 -0.40625 -0.140625q-0.1875 -0.140625 -0.1875 -0.5l0 -10.515625q0 -0.34375 0.1875 -0.484375q0.1875 -0.140625 0.40625 -0.140625l2.6562347 0q1.53125 0 2.59375 0.390625q1.0625 0.390625 1.765625 1.140625q0.71875 0.734375 1.078125 1.796875q0.375 1.0625 0.375 2.390625zm-1.640625 0.0625q0 -0.953125 -0.234375 -1.78125q-0.234375 -0.828125 -0.75 -1.421875q-0.5 -0.609375 -1.28125 -0.9375q-0.765625 -0.34375 -1.984375 -0.34375l-1.5937347 0l0 9.171875l1.6093597 0q1.125 0 1.890625 -0.28125q0.78125 -0.28125 1.296875 -0.859375q0.53125 -0.59375 0.78125 -1.46875q0.265625 -0.875 0.265625 -2.078125zm10.056091 5.78125q0 0.109375 -0.078125 0.171875q-0.0625 0.046875 -0.1875 0.0625q-0.125 0.03125 -0.375 0.03125q-0.234375 0 -0.375 -0.03125q-0.140625 -0.015625 -0.203125 -0.0625q-0.0625 -0.0625 -0.0625 -0.171875l0 -0.8125q-0.546875 0.5625 -1.203125 0.890625q-0.65625 0.3125 -1.390625 0.3125q-0.65625 0 -1.1875 -0.171875q-0.515625 -0.15625 -0.890625 -0.46875q-0.359375 -0.328125 -0.5625 -0.796875q-0.203125 -0.46875 -0.203125 -1.0625q0 -0.6875 0.28125 -1.1875q0.28125 -0.515625 0.796875 -0.84375q0.53125 -0.34375 1.296875 -0.515625q0.765625 -0.171875 1.734375 -0.171875l1.125 0l0 -0.640625q0 -0.46875 -0.109375 -0.828125q-0.09375 -0.375 -0.328125 -0.609375q-0.21875 -0.25 -0.578125 -0.359375q-0.34375 -0.125 -0.859375 -0.125q-0.5625 0 -1.0 0.140625q-0.4375 0.125 -0.78125 0.28125q-0.328125 0.15625 -0.546875 0.296875q-0.21875 0.125 -0.328125 0.125q-0.078125 0 -0.140625 -0.03125q-0.046875 -0.046875 -0.09375 -0.109375q-0.03125 -0.078125 -0.0625 -0.1875q-0.015625 -0.125 -0.015625 -0.25q0 -0.234375 0.03125 -0.359375q0.03125 -0.140625 0.15625 -0.25q0.125 -0.125 0.421875 -0.28125q0.3125 -0.171875 0.703125 -0.296875q0.390625 -0.125 0.84375 -0.21875q0.46875 -0.09375 0.953125 -0.09375q0.875 0 1.484375 0.203125q0.625 0.203125 1.0 0.59375q0.390625 0.390625 0.5625 0.96875q0.171875 0.5625 0.171875 1.328125l0 5.53125zm-1.484375 -3.75l-1.28125 0q-0.625 0 -1.078125 0.109375q-0.453125 0.109375 -0.765625 0.3125q-0.296875 0.203125 -0.4375 0.5q-0.140625 0.28125 -0.140625 0.65625q0 0.625 0.40625 1.015625q0.40625 0.375 1.140625 0.375q0.59375 0 1.09375 -0.296875q0.5 -0.3125 1.0625 -0.921875l0 -1.75zm8.514526 3.140625q0 0.265625 -0.046875 0.421875q-0.03125 0.15625 -0.109375 0.234375q-0.0625 0.0625 -0.21875 0.125q-0.140625 0.0625 -0.328125 0.09375q-0.1875 0.046875 -0.390625 0.078125q-0.203125 0.03125 -0.421875 0.03125q-0.640625 0 -1.09375 -0.171875q-0.453125 -0.171875 -0.75 -0.5q-0.28125 -0.34375 -0.421875 -0.859375q-0.125 -0.53125 -0.125 -1.25l0 -4.796875l-1.1562195 0q-0.125 0 -0.21875 -0.140625q-0.078125 -0.140625 -0.078125 -0.46875q0 -0.171875 0.015625 -0.28125q0.03125 -0.125 0.0625 -0.203125q0.046875 -0.078125 0.09375 -0.109375q0.0625 -0.03125 0.140625 -0.03125l1.1405945 0l0 -1.953125q0 -0.0625 0.03125 -0.109375q0.03125 -0.0625 0.109375 -0.109375q0.09375 -0.046875 0.234375 -0.0625q0.15625 -0.015625 0.375 -0.015625q0.21875 0 0.359375 0.015625q0.15625 0.015625 0.234375 0.0625q0.078125 0.046875 0.109375 0.109375q0.046875 0.046875 0.046875 0.109375l0 1.953125l2.109375 0q0.0625 0 0.109375 0.03125q0.0625 0.03125 0.109375 0.109375q0.046875 0.078125 0.0625 0.203125q0.015625 0.109375 0.015625 0.28125q0 0.328125 -0.078125 0.46875q-0.078125 0.140625 -0.21875 0.140625l-2.109375 0l0 4.578125q0 0.84375 0.25 1.28125q0.25 0.4375 0.90625 0.4375q0.203125 0 0.359375 -0.046875q0.171875 -0.046875 0.296875 -0.078125q0.125 -0.046875 0.21875 -0.09375q0.09375 -0.046875 0.171875 -0.046875q0.046875 0 0.078125 0.03125q0.046875 0.015625 0.0625 0.078125q0.03125 0.0625 0.046875 0.171875q0.015625 0.109375 0.015625 0.28125zm8.1553955 0.609375q0 0.109375 -0.078125 0.171875q-0.0625 0.046875 -0.1875 0.0625q-0.125 0.03125 -0.375 0.03125q-0.234375 0 -0.375 -0.03125q-0.140625 -0.015625 -0.203125 -0.0625q-0.0625 -0.0625 -0.0625 -0.171875l0 -0.8125q-0.546875 0.5625 -1.203125 0.890625q-0.65625 0.3125 -1.390625 0.3125q-0.65625 0 -1.1875 -0.171875q-0.515625 -0.15625 -0.890625 -0.46875q-0.359375 -0.328125 -0.5625 -0.796875q-0.203125 -0.46875 -0.203125 -1.0625q0 -0.6875 0.28125 -1.1875q0.28125 -0.515625 0.796875 -0.84375q0.53125 -0.34375 1.296875 -0.515625q0.765625 -0.171875 1.734375 -0.171875l1.125 0l0 -0.640625q0 -0.46875 -0.109375 -0.828125q-0.09375 -0.375 -0.328125 -0.609375q-0.21875 -0.25 -0.578125 -0.359375q-0.34375 -0.125 -0.859375 -0.125q-0.5625 0 -1.0 0.140625q-0.4375 0.125 -0.78125 0.28125q-0.328125 0.15625 -0.546875 0.296875q-0.21875 0.125 -0.328125 0.125q-0.078125 0 -0.140625 -0.03125q-0.046875 -0.046875 -0.09375 -0.109375q-0.03125 -0.078125 -0.0625 -0.1875q-0.015625 -0.125 -0.015625 -0.25q0 -0.234375 0.03125 -0.359375q0.03125 -0.140625 0.15625 -0.25q0.125 -0.125 0.421875 -0.28125q0.3125 -0.171875 0.703125 -0.296875q0.390625 -0.125 0.84375 -0.21875q0.46875 -0.09375 0.953125 -0.09375q0.875 0 1.484375 0.203125q0.625 0.203125 1.0 0.59375q0.390625 0.390625 0.5625 0.96875q0.171875 0.5625 0.171875 1.328125l0 5.53125zm-1.484375 -3.75l-1.28125 0q-0.625 0 -1.078125 0.109375q-0.453125 0.109375 -0.765625 0.3125q-0.296875 0.203125 -0.4375 0.5q-0.140625 0.28125 -0.140625 0.65625q0 0.625 0.40625 1.015625q0.40625 0.375 1.140625 0.375q0.59375 0 1.09375 -0.296875q0.5 -0.3125 1.0625 -0.921875l0 -1.75zm12.202026 0.59375q0 0.546875 -0.140625 1.015625q-0.140625 0.46875 -0.40625 0.84375q-0.25 0.375 -0.609375 0.65625q-0.359375 0.28125 -0.8125 0.484375q-0.453125 0.1875 -0.96875 0.28125q-0.515625 0.09375 -1.171875 0.09375l-3.078125 0q-0.21875 0 -0.40625 -0.140625q-0.1875 -0.140625 -0.1875 -0.5l0 -10.515625q0 -0.34375 0.1875 -0.484375q0.1875 -0.140625 0.40625 -0.140625l2.671875 0q1.0625 0 1.734375 0.203125q0.671875 0.1875 1.125 0.578125q0.453125 0.375 0.671875 0.9375q0.234375 0.546875 0.234375 1.25q0 0.421875 -0.109375 0.8125q-0.09375 0.375 -0.296875 0.703125q-0.1875 0.3125 -0.484375 0.578125q-0.296875 0.25 -0.6875 0.421875q0.484375 0.078125 0.90625 0.328125q0.421875 0.234375 0.734375 0.609375q0.3125 0.375 0.5 0.875q0.1875 0.5 0.1875 1.109375zm-2.359375 -5.28125q0 -0.421875 -0.125 -0.765625q-0.125 -0.359375 -0.375 -0.59375q-0.25 -0.234375 -0.671875 -0.359375q-0.40625 -0.140625 -1.078125 -0.140625l-1.625 0l0 3.8125l1.796875 0q0.609375 0 0.984375 -0.15625q0.375 -0.15625 0.609375 -0.421875q0.25 -0.265625 0.359375 -0.625q0.125 -0.359375 0.125 -0.75zm0.703125 5.375q0 -0.53125 -0.171875 -0.9375q-0.171875 -0.40625 -0.5 -0.671875q-0.3125 -0.28125 -0.796875 -0.421875q-0.484375 -0.140625 -1.234375 -0.140625l-1.875 0l0 4.15625l2.28125 0q0.546875 0 0.9375 -0.125q0.40625 -0.125 0.703125 -0.375q0.3125 -0.25 0.484375 -0.625q0.171875 -0.375 0.171875 -0.859375zm10.882355 3.046875q0 0.078125 -0.03125 0.140625q-0.03125 0.046875 -0.125 0.078125q-0.078125 0.03125 -0.21875 0.046875q-0.125 0.015625 -0.3125 0.015625q-0.203125 0 -0.34375 -0.015625q-0.125 -0.015625 -0.203125 -0.046875q-0.078125 -0.03125 -0.109375 -0.078125q-0.03125 -0.0625 -0.03125 -0.140625l0 -1.078125q-0.703125 0.78125 -1.390625 1.140625q-0.671875 0.34375 -1.375 0.34375q-0.8125 0 -1.375 -0.265625q-0.5625 -0.28125 -0.90625 -0.75q-0.34375 -0.46875 -0.5 -1.09375q-0.15625 -0.625 -0.15625 -1.515625l0 -4.96875q0 -0.078125 0.03125 -0.125q0.03125 -0.046875 0.125 -0.09375q0.09375 -0.046875 0.234375 -0.046875q0.15625 -0.015625 0.375 -0.015625q0.21875 0 0.359375 0.015625q0.140625 0 0.21875 0.046875q0.09375 0.046875 0.125 0.09375q0.046875 0.046875 0.046875 0.125l0 4.765625q0 0.71875 0.09375 1.15625q0.109375 0.4375 0.328125 0.75q0.21875 0.296875 0.546875 0.46875q0.328125 0.15625 0.765625 0.15625q0.5625 0 1.125 -0.390625q0.5625 -0.40625 1.1875 -1.1875l0 -5.71875q0 -0.078125 0.03125 -0.125q0.03125 -0.046875 0.125 -0.09375q0.09375 -0.046875 0.234375 -0.046875q0.140625 -0.015625 0.359375 -0.015625q0.21875 0 0.359375 0.015625q0.15625 0 0.234375 0.046875q0.078125 0.046875 0.125 0.09375q0.046875 0.046875 0.046875 0.125l0 8.1875zm7.926819 -2.21875q0 0.625 -0.234375 1.125q-0.234375 0.484375 -0.671875 0.828125q-0.421875 0.328125 -1.015625 0.5q-0.59375 0.171875 -1.296875 0.171875q-0.4375 0 -0.84375 -0.078125q-0.390625 -0.0625 -0.703125 -0.15625q-0.3125 -0.109375 -0.53125 -0.21875q-0.21875 -0.125 -0.328125 -0.203125q-0.09375 -0.09375 -0.140625 -0.25q-0.046875 -0.171875 -0.046875 -0.453125q0 -0.171875 0.015625 -0.296875q0.03125 -0.125 0.046875 -0.1875q0.03125 -0.078125 0.078125 -0.109375q0.046875 -0.03125 0.125 -0.03125q0.09375 0 0.28125 0.125q0.203125 0.125 0.484375 0.265625q0.296875 0.140625 0.6875 0.265625q0.390625 0.125 0.90625 0.125q0.375 0 0.6875 -0.078125q0.3125 -0.078125 0.53125 -0.234375q0.234375 -0.171875 0.359375 -0.40625q0.125 -0.25 0.125 -0.59375q0 -0.34375 -0.1875 -0.578125q-0.171875 -0.234375 -0.46875 -0.421875q-0.28125 -0.1875 -0.65625 -0.328125q-0.359375 -0.140625 -0.75 -0.296875q-0.390625 -0.15625 -0.765625 -0.34375q-0.359375 -0.203125 -0.65625 -0.484375q-0.28125 -0.28125 -0.46875 -0.671875q-0.171875 -0.390625 -0.171875 -0.9375q0 -0.484375 0.1875 -0.921875q0.1875 -0.4375 0.5625 -0.765625q0.375 -0.34375 0.921875 -0.546875q0.5625 -0.203125 1.3125 -0.203125q0.328125 0 0.65625 0.0625q0.328125 0.046875 0.59375 0.140625q0.265625 0.078125 0.453125 0.171875q0.1875 0.09375 0.28125 0.171875q0.09375 0.078125 0.125 0.140625q0.03125 0.046875 0.046875 0.109375q0.015625 0.0625 0.03125 0.171875q0.015625 0.09375 0.015625 0.234375q0 0.15625 -0.015625 0.28125q-0.015625 0.109375 -0.046875 0.1875q-0.03125 0.0625 -0.078125 0.09375q-0.046875 0.03125 -0.09375 0.03125q-0.09375 0 -0.25 -0.09375q-0.140625 -0.09375 -0.390625 -0.203125q-0.25 -0.125 -0.578125 -0.21875q-0.328125 -0.109375 -0.765625 -0.109375q-0.375 0 -0.671875 0.09375q-0.296875 0.078125 -0.484375 0.25q-0.1875 0.15625 -0.28125 0.375q-0.09375 0.21875 -0.09375 0.46875q0 0.359375 0.171875 0.609375q0.1875 0.234375 0.484375 0.421875q0.296875 0.171875 0.671875 0.328125q0.375 0.140625 0.75 0.296875q0.390625 0.140625 0.765625 0.34375q0.390625 0.1875 0.671875 0.46875q0.296875 0.265625 0.46875 0.65625q0.1875 0.375 0.1875 0.90625z" fill-rule="nonzero"/><path fill="#6d9eeb" d="m230.63649 72.685036l8.220459 -8.220467l8.220474 8.220467l-4.1102295 0l0 38.708664l4.1102295 0l-8.220474 8.220474l-8.220459 -8.220474l4.1102295 0l0 -38.708664z" fill-rule="evenodd"/><path fill="#999999" d="m0 344.8637l0 0c0 -5.076477 4.115302 -9.191803 9.191785 -9.191803l81.74241 0c2.4378128 0 4.7757797 0.9684143 6.4995728 2.6922302c1.7238007 1.7237854 2.692215 4.061737 2.692215 6.4995728l0 36.76602c0 5.076477 -4.115303 9.191803 -9.191788 9.191803l-81.74241 0c-5.076483 0 -9.191785 -4.115326 -9.191785 -9.191803z" fill-rule="evenodd"/><path fill="#f3f3f3" d="m41.11053 369.93234q0 0.078125 -0.046875 0.140625q-0.03125 0.046875 -0.125 0.078125q-0.09375 0.03125 -0.234375 0.046875q-0.140625 0.015625 -0.359375 0.015625q-0.21875 0 -0.375 -0.015625q-0.140625 -0.015625 -0.234375 -0.046875q-0.078125 -0.03125 -0.125 -0.078125q-0.03125 -0.0625 -0.03125 -0.140625l0 -10.265625l-0.015625 0l-4.203125 10.3125q-0.015625 0.0625 -0.078125 0.109375q-0.046875 0.046875 -0.140625 0.078125q-0.09375 0.03125 -0.234375 0.03125q-0.125 0.015625 -0.3125 0.015625q-0.1875 0 -0.328125 -0.015625q-0.125 -0.015625 -0.21875 -0.046875q-0.09375 -0.03125 -0.15625 -0.078125q-0.046875 -0.046875 -0.0625 -0.09375l-4.015623 -10.3125l0 0l0 10.265625q0 0.078125 -0.046875 0.140625q-0.03125 0.046875 -0.125 0.078125q-0.09375 0.03125 -0.234375 0.046875q-0.140625 0.015625 -0.375 0.015625q-0.21875 0 -0.375 -0.015625q-0.140625 -0.015625 -0.234375 -0.046875q-0.078125 -0.03125 -0.109375 -0.078125q-0.03125 -0.0625 -0.03125 -0.140625l0 -10.84375q0 -0.375 0.203125 -0.53125q0.203125 -0.171875 0.453125 -0.171875l0.9375 0q0.296875 0 0.515625 0.0625q0.21875 0.046875 0.375 0.171875q0.171875 0.109375 0.28125 0.296875q0.109375 0.171875 0.1875 0.421875l3.421873 8.53125l0.046875 0l3.546875 -8.5q0.109375 -0.28125 0.21875 -0.46875q0.125 -0.1875 0.265625 -0.296875q0.140625 -0.125 0.3125 -0.171875q0.171875 -0.046875 0.390625 -0.046875l1.0 0q0.140625 0 0.25 0.046875q0.125 0.03125 0.21875 0.125q0.09375 0.078125 0.140625 0.21875q0.0625 0.125 0.0625 0.3125l0 10.84375zm14.450729 1.265625q0 0.21875 -0.03125 0.359375q-0.015625 0.140625 -0.0625 0.21875q-0.046875 0.078125 -0.109375 0.09375q-0.046875 0.03125 -0.09375 0.03125q-0.1875 0 -0.59375 -0.15625q-0.40625 -0.140625 -0.9375 -0.4375q-0.515625 -0.28125 -1.125 -0.6875q-0.59375 -0.40625 -1.171875 -0.953125q-0.4375 0.265625 -1.125 0.46875q-0.6875 0.203125 -1.578125 0.203125q-1.328125 0 -2.3125 -0.390625q-0.96875 -0.390625 -1.609375 -1.140625q-0.625 -0.765625 -0.9375 -1.890625q-0.296875 -1.125 -0.296875 -2.578125q0 -1.40625 0.328125 -2.53125q0.34375 -1.140625 1.015625 -1.9375q0.671875 -0.796875 1.6875 -1.21875q1.015625 -0.4375 2.359375 -0.4375q1.265625 0 2.21875 0.390625q0.96875 0.390625 1.609375 1.140625q0.65625 0.75 0.984375 1.859375q0.328125 1.09375 0.328125 2.515625q0 0.75 -0.09375 1.421875q-0.078125 0.671875 -0.265625 1.28125q-0.1875 0.59375 -0.46875 1.109375q-0.28125 0.5 -0.65625 0.90625q0.65625 0.546875 1.15625 0.859375q0.5 0.3125 0.828125 0.46875q0.328125 0.140625 0.515625 0.203125q0.1875 0.078125 0.265625 0.15625q0.09375 0.09375 0.125 0.25q0.046875 0.171875 0.046875 0.421875zm-3.09375 -6.96875q0 -1.0 -0.1875 -1.84375q-0.171875 -0.859375 -0.59375 -1.484375q-0.40625 -0.640625 -1.109375 -1.0q-0.6875 -0.359375 -1.703125 -0.359375q-1.015625 0 -1.71875 0.390625q-0.6875 0.375 -1.125 1.015625q-0.421875 0.640625 -0.609375 1.484375q-0.1875 0.84375 -0.1875 1.796875q0 1.03125 0.171875 1.90625q0.171875 0.875 0.578125 1.515625q0.40625 0.625 1.09375 0.984375q0.6875 0.34375 1.734375 0.34375q1.03125 0 1.734375 -0.375q0.703125 -0.390625 1.125 -1.03125q0.421875 -0.65625 0.609375 -1.515625q0.1875 -0.859375 0.1875 -1.828125zm11.709141 -5.171875q0 0.171875 -0.015625 0.296875q-0.015625 0.125 -0.0625 0.203125q-0.03125 0.078125 -0.09375 0.125q-0.062503815 0.03125 -0.14062881 0.03125l-3.3125 0l0 10.21875q0 0.078125 -0.046875 0.140625q-0.03125 0.046875 -0.125 0.078125q-0.078125 0.03125 -0.234375 0.046875q-0.15625 0.015625 -0.375 0.015625q-0.21875 0 -0.375 -0.015625q-0.15625 -0.015625 -0.25 -0.046875q-0.09375 -0.03125 -0.125 -0.078125q-0.03125 -0.0625 -0.03125 -0.140625l0 -10.21875l-3.3125 0q-0.078125 0 -0.140625 -0.03125q-0.0625 -0.046875 -0.09375 -0.125q-0.03125 -0.078125 -0.0625 -0.203125q-0.015625 -0.125 -0.015625 -0.296875q0 -0.171875 0.015625 -0.296875q0.03125 -0.140625 0.0625 -0.21875q0.03125 -0.09375 0.09375 -0.125q0.0625 -0.03125 0.140625 -0.03125l8.1875 0q0.078125 0 0.14062881 0.03125q0.0625 0.03125 0.09375 0.125q0.046875 0.078125 0.0625 0.21875q0.015625 0.125 0.015625 0.296875zm9.091278 0q0 0.171875 -0.015625 0.296875q-0.015625 0.125 -0.0625 0.203125q-0.03125 0.078125 -0.09375 0.125q-0.0625 0.03125 -0.140625 0.03125l-3.3125 0l0 10.21875q0 0.078125 -0.046875 0.140625q-0.03125 0.046875 -0.125 0.078125q-0.078125 0.03125 -0.234375 0.046875q-0.15625 0.015625 -0.375 0.015625q-0.21875 0 -0.375 -0.015625q-0.15625 -0.015625 -0.25 -0.046875q-0.09375 -0.03125 -0.125 -0.078125q-0.03125 -0.0625 -0.03125 -0.140625l0 -10.21875l-3.3125 0q-0.078125 0 -0.140625 -0.03125q-0.0625 -0.046875 -0.09375 -0.125q-0.03125 -0.078125 -0.0625 -0.203125q-0.015625 -0.125 -0.015625 -0.296875q0 -0.171875 0.015625 -0.296875q0.03125 -0.140625 0.0625 -0.21875q0.03125 -0.09375 0.09375 -0.125q0.0625 -0.03125 0.140625 -0.03125l8.1875 0q0.078125 0 0.140625 0.03125q0.0625 0.03125 0.09375 0.125q0.046875 0.078125 0.0625 0.21875q0.015625 0.125 0.015625 0.296875z" fill-rule="nonzero"/><path fill="#999999" d="m128.03937 358.37683l0 0c0 -5.076477 4.1153107 -9.191803 9.191788 -9.191803l81.74242 0c2.4378052 0 4.775772 0.9684143 6.4995728 2.6922302c1.7237854 1.7237854 2.692215 4.0617676 2.692215 6.4995728l0 36.76602c0 5.076477 -4.1153107 9.191803 -9.191788 9.191803l-81.74242 0c-5.076477 0 -9.191788 -4.115326 -9.191788 -9.191803z" fill-rule="evenodd"/><path fill="#f3f3f3" d="m161.07433 383.44547q0 0.078125 -0.046875 0.140625q-0.03125 0.046875 -0.125 0.078125q-0.09375 0.03125 -0.234375 0.046875q-0.140625 0.015625 -0.359375 0.015625q-0.21875 0 -0.375 -0.015625q-0.140625 -0.015625 -0.234375 -0.046875q-0.078125 -0.03125 -0.125 -0.078125q-0.03125 -0.0625 -0.03125 -0.140625l0 -10.265625l-0.015625 0l-4.203125 10.3125q-0.015625 0.0625 -0.078125 0.109375q-0.046875 0.046875 -0.140625 0.078125q-0.09375 0.03125 -0.234375 0.03125q-0.125 0.015625 -0.3125 0.015625q-0.1875 0 -0.328125 -0.015625q-0.125 -0.015625 -0.21875 -0.046875q-0.09375 -0.03125 -0.15625 -0.078125q-0.046875 -0.046875 -0.0625 -0.09375l-4.015625 -10.3125l0 0l0 10.265625q0 0.078125 -0.046875 0.140625q-0.03125 0.046875 -0.125 0.078125q-0.09375 0.03125 -0.234375 0.046875q-0.140625 0.015625 -0.375 0.015625q-0.21875 0 -0.375 -0.015625q-0.140625 -0.015625 -0.234375 -0.046875q-0.078125 -0.03125 -0.109375 -0.078125q-0.03125 -0.0625 -0.03125 -0.140625l0 -10.84375q0 -0.375 0.203125 -0.53125q0.203125 -0.171875 0.453125 -0.171875l0.9375 0q0.296875 0 0.515625 0.0625q0.21875 0.046875 0.375 0.171875q0.171875 0.109375 0.28125 0.296875q0.109375 0.171875 0.1875 0.421875l3.421875 8.53125l0.046875 0l3.546875 -8.5q0.109375 -0.28125 0.21875 -0.46875q0.125 -0.1875 0.265625 -0.296875q0.140625 -0.125 0.3125 -0.171875q0.171875 -0.046875 0.390625 -0.046875l1.0 0q0.140625 0 0.25 0.046875q0.125 0.03125 0.21875 0.125q0.09375 0.078125 0.140625 0.21875q0.0625 0.125 0.0625 0.3125l0 10.84375zm10.575729 -4.1875q0 1.0 -0.265625 1.84375q-0.265625 0.84375 -0.796875 1.453125q-0.515625 0.609375 -1.3125 0.953125q-0.78125 0.34375 -1.8125 0.34375q-1.015625 0 -1.765625 -0.296875q-0.75 -0.296875 -1.25 -0.875q-0.5 -0.578125 -0.75 -1.390625q-0.25 -0.828125 -0.25 -1.859375q0 -1.0 0.265625 -1.84375q0.265625 -0.84375 0.78125 -1.453125q0.53125 -0.609375 1.3125 -0.953125q0.78125 -0.34375 1.828125 -0.34375q1.015625 0 1.765625 0.3125q0.75 0.296875 1.25 0.875q0.5 0.5625 0.75 1.390625q0.25 0.8125 0.25 1.84375zm-1.578125 0.109375q0 -0.671875 -0.125 -1.265625q-0.125 -0.59375 -0.40625 -1.03125q-0.28125 -0.453125 -0.765625 -0.703125q-0.484375 -0.265625 -1.203125 -0.265625q-0.671875 0 -1.15625 0.234375q-0.46875 0.234375 -0.78125 0.671875q-0.296875 0.4375 -0.453125 1.03125q-0.15625 0.578125 -0.15625 1.28125q0 0.671875 0.125 1.265625q0.125 0.59375 0.40625 1.046875q0.296875 0.4375 0.78125 0.703125q0.484375 0.25 1.203125 0.25q0.65625 0 1.125 -0.234375q0.484375 -0.234375 0.796875 -0.65625q0.3125 -0.4375 0.453125 -1.03125q0.15625 -0.59375 0.15625 -1.296875zm10.822632 4.078125q0 0.078125 -0.03125 0.140625q-0.03125 0.046875 -0.109375 0.078125q-0.078125 0.03125 -0.21875 0.046875q-0.125 0.015625 -0.296875 0.015625q-0.203125 0 -0.328125 -0.015625q-0.125 -0.015625 -0.203125 -0.046875q-0.078125 -0.03125 -0.125 -0.078125q-0.03125 -0.0625 -0.03125 -0.140625l0 -1.078125q-0.640625 0.703125 -1.34375 1.09375q-0.703125 0.390625 -1.53125 0.390625q-0.890625 0 -1.53125 -0.34375q-0.640625 -0.359375 -1.046875 -0.953125q-0.390625 -0.59375 -0.578125 -1.390625q-0.171875 -0.8125 -0.171875 -1.71875q0 -1.046875 0.21875 -1.890625q0.234375 -0.859375 0.671875 -1.453125q0.453125 -0.609375 1.109375 -0.9375q0.671875 -0.328125 1.53125 -0.328125q0.71875 0 1.3125 0.328125q0.609375 0.3125 1.1875 0.921875l0 -4.765625q0 -0.0625 0.03125 -0.125q0.03125 -0.0625 0.125 -0.09375q0.09375 -0.03125 0.234375 -0.046875q0.140625 -0.03125 0.359375 -0.03125q0.21875 0 0.359375 0.03125q0.15625 0.015625 0.234375 0.046875q0.078125 0.03125 0.125 0.09375q0.046875 0.0625 0.046875 0.125l0 12.125zm-1.515625 -5.765625q-0.609375 -0.75 -1.1875 -1.140625q-0.5625 -0.40625 -1.1875 -0.40625q-0.5625 0 -0.96875 0.28125q-0.40625 0.265625 -0.65625 0.71875q-0.25 0.4375 -0.359375 1.015625q-0.109375 0.5625 -0.109375 1.140625q0 0.625 0.09375 1.21875q0.09375 0.578125 0.328125 1.046875q0.234375 0.453125 0.625 0.734375q0.390625 0.28125 0.984375 0.28125q0.296875 0 0.578125 -0.078125q0.28125 -0.09375 0.5625 -0.28125q0.296875 -0.1875 0.609375 -0.484375q0.328125 -0.3125 0.6875 -0.765625l0 -3.28125zm12.239319 2.625q0 0.546875 -0.140625 1.015625q-0.140625 0.46875 -0.40625 0.84375q-0.25 0.375 -0.609375 0.65625q-0.359375 0.28125 -0.8125 0.484375q-0.453125 0.1875 -0.96875 0.28125q-0.515625 0.09375 -1.171875 0.09375l-3.078125 0q-0.21875 0 -0.40625 -0.140625q-0.1875 -0.140625 -0.1875 -0.5l0 -10.515625q0 -0.34375 0.1875 -0.484375q0.1875 -0.140625 0.40625 -0.140625l2.671875 0q1.0625 0 1.734375 0.203125q0.671875 0.1875 1.125 0.578125q0.453125 0.375 0.671875 0.9375q0.234375 0.546875 0.234375 1.25q0 0.421875 -0.109375 0.8125q-0.09375 0.375 -0.296875 0.703125q-0.1875 0.3125 -0.484375 0.578125q-0.296875 0.25 -0.6875 0.421875q0.484375 0.078125 0.90625 0.328125q0.421875 0.234375 0.734375 0.609375q0.3125 0.375 0.5 0.875q0.1875 0.5 0.1875 1.109375zm-2.359375 -5.28125q0 -0.421875 -0.125 -0.765625q-0.125 -0.359375 -0.375 -0.59375q-0.25 -0.234375 -0.671875 -0.359375q-0.40625 -0.140625 -1.078125 -0.140625l-1.625 0l0 3.8125l1.796875 0q0.609375 0 0.984375 -0.15625q0.375 -0.15625 0.609375 -0.421875q0.25 -0.265625 0.359375 -0.625q0.125 -0.359375 0.125 -0.75zm0.703125 5.375q0 -0.53125 -0.171875 -0.9375q-0.171875 -0.40625 -0.5 -0.671875q-0.3125 -0.28125 -0.796875 -0.421875q-0.484375 -0.140625 -1.234375 -0.140625l-1.875 0l0 4.15625l2.28125 0q0.546875 0 0.9375 -0.125q0.40625 -0.125 0.703125 -0.375q0.3125 -0.25 0.484375 -0.625q0.171875 -0.375 0.171875 -0.859375zm10.882355 3.046875q0 0.078125 -0.03125 0.140625q-0.03125 0.046875 -0.125 0.078125q-0.078125 0.03125 -0.21875 0.046875q-0.125 0.015625 -0.3125 0.015625q-0.203125 0 -0.34375 -0.015625q-0.125 -0.015625 -0.203125 -0.046875q-0.078125 -0.03125 -0.109375 -0.078125q-0.03125 -0.0625 -0.03125 -0.140625l0 -1.078125q-0.703125 0.78125 -1.390625 1.140625q-0.671875 0.34375 -1.375 0.34375q-0.8125 0 -1.375 -0.265625q-0.5625 -0.28125 -0.90625 -0.75q-0.34375 -0.46875 -0.5 -1.09375q-0.15625 -0.625 -0.15625 -1.515625l0 -4.96875q0 -0.078125 0.03125 -0.125q0.03125 -0.046875 0.125 -0.09375q0.09375 -0.046875 0.234375 -0.046875q0.15625 -0.015625 0.375 -0.015625q0.21875 0 0.359375 0.015625q0.140625 0 0.21875 0.046875q0.09375 0.046875 0.125 0.09375q0.046875 0.046875 0.046875 0.125l0 4.765625q0 0.71875 0.09375 1.15625q0.109375 0.4375 0.328125 0.75q0.21875 0.296875 0.546875 0.46875q0.328125 0.15625 0.765625 0.15625q0.5625 0 1.125 -0.390625q0.5625 -0.40625 1.1875 -1.1875l0 -5.71875q0 -0.078125 0.03125 -0.125q0.03125 -0.046875 0.125 -0.09375q0.09375 -0.046875 0.234375 -0.046875q0.140625 -0.015625 0.359375 -0.015625q0.21875 0 0.359375 0.015625q0.15625 0 0.234375 0.046875q0.078125 0.046875 0.125 0.09375q0.046875 0.046875 0.046875 0.125l0 8.1875zm7.926819 -2.21875q0 0.625 -0.234375 1.125q-0.234375 0.484375 -0.671875 0.828125q-0.421875 0.328125 -1.015625 0.5q-0.59375 0.171875 -1.296875 0.171875q-0.4375 0 -0.84375 -0.078125q-0.390625 -0.0625 -0.703125 -0.15625q-0.3125 -0.109375 -0.53125 -0.21875q-0.21875 -0.125 -0.328125 -0.203125q-0.09375 -0.09375 -0.140625 -0.25q-0.046875 -0.171875 -0.046875 -0.453125q0 -0.171875 0.015625 -0.296875q0.03125 -0.125 0.046875 -0.1875q0.03125 -0.078125 0.078125 -0.109375q0.046875 -0.03125 0.125 -0.03125q0.09375 0 0.28125 0.125q0.203125 0.125 0.484375 0.265625q0.296875 0.140625 0.6875 0.265625q0.390625 0.125 0.90625 0.125q0.375 0 0.6875 -0.078125q0.3125 -0.078125 0.53125 -0.234375q0.234375 -0.171875 0.359375 -0.40625q0.125 -0.25 0.125 -0.59375q0 -0.34375 -0.1875 -0.578125q-0.171875 -0.234375 -0.46875 -0.421875q-0.28125 -0.1875 -0.65625 -0.328125q-0.359375 -0.140625 -0.75 -0.296875q-0.390625 -0.15625 -0.765625 -0.34375q-0.359375 -0.203125 -0.65625 -0.484375q-0.28125 -0.28125 -0.46875 -0.671875q-0.171875 -0.390625 -0.171875 -0.9375q0 -0.484375 0.1875 -0.921875q0.1875 -0.4375 0.5625 -0.765625q0.375 -0.34375 0.921875 -0.546875q0.5625 -0.203125 1.3125 -0.203125q0.328125 0 0.65625 0.0625q0.328125 0.046875 0.59375 0.140625q0.265625 0.078125 0.453125 0.171875q0.1875 0.09375 0.28125 0.171875q0.09375 0.078125 0.125 0.140625q0.03125 0.046875 0.046875 0.109375q0.015625 0.0625 0.03125 0.171875q0.015625 0.09375 0.015625 0.234375q0 0.15625 -0.015625 0.28125q-0.015625 0.109375 -0.046875 0.1875q-0.03125 0.0625 -0.078125 0.09375q-0.046875 0.03125 -0.09375 0.03125q-0.09375 0 -0.25 -0.09375q-0.140625 -0.09375 -0.390625 -0.203125q-0.25 -0.125 -0.578125 -0.21875q-0.328125 -0.109375 -0.765625 -0.109375q-0.375 0 -0.671875 0.09375q-0.296875 0.078125 -0.484375 0.25q-0.1875 0.15625 -0.28125 0.375q-0.09375 0.21875 -0.09375 0.46875q0 0.359375 0.171875 0.609375q0.1875 0.234375 0.484375 0.421875q0.296875 0.171875 0.671875 0.328125q0.375 0.140625 0.75 0.296875q0.390625 0.140625 0.765625 0.34375q0.390625 0.1875 0.671875 0.46875q0.296875 0.265625 0.46875 0.65625q0.1875 0.375 0.1875 0.90625z" fill-rule="nonzero"/><path fill="#999999" d="m263.1378 358.37683l0 0c0 -5.076477 4.115326 -9.191803 9.191803 -9.191803l81.7424 0c2.4378052 0 4.7757874 0.9684143 6.4995728 2.6922302c1.7237854 1.7237854 2.6922302 4.0617676 2.6922302 6.4995728l0 36.76602c0 5.076477 -4.115326 9.191803 -9.191803 9.191803l-81.7424 0c-5.076477 0 -9.191803 -4.115326 -9.191803 -9.191803z" fill-rule="evenodd"/><path fill="#f3f3f3" d="m285.22003 375.3517q0 0.875 -0.296875 1.59375q-0.296875 0.703125 -0.84375 1.203125q-0.53125 0.5 -1.328125 0.78125q-0.78125 0.265625 -1.875 0.265625l-1.328125 0l0 4.25q0 0.078125 -0.046875 0.140625q-0.046875 0.046875 -0.140625 0.078125q-0.078125 0.03125 -0.234375 0.046875q-0.140625 0.015625 -0.375 0.015625q-0.21875 0 -0.375 -0.015625q-0.140625 -0.015625 -0.234375 -0.046875q-0.09375 -0.03125 -0.140625 -0.078125q-0.03125 -0.0625 -0.03125 -0.140625l0 -10.875q0 -0.375 0.1875 -0.515625q0.203125 -0.15625 0.4375 -0.15625l2.515625 0q0.390625 0 0.734375 0.03125q0.359375 0.03125 0.828125 0.140625q0.484375 0.09375 0.984375 0.390625q0.5 0.28125 0.84375 0.703125q0.34375 0.40625 0.53125 0.96875q0.1875 0.546875 0.1875 1.21875zm-1.65625 0.125q0 -0.71875 -0.265625 -1.203125q-0.265625 -0.484375 -0.671875 -0.71875q-0.390625 -0.234375 -0.8125 -0.296875q-0.421875 -0.078125 -0.828125 -0.078125l-1.4375 0l0 4.734375l1.40625 0q0.703125 0 1.171875 -0.171875q0.46875 -0.1875 0.78125 -0.515625q0.328125 -0.328125 0.484375 -0.765625q0.171875 -0.453125 0.171875 -0.984375zm5.372223 7.96875q0 0.078125 -0.03125 0.140625q-0.03125 0.046875 -0.125 0.078125q-0.078125 0.03125 -0.21875 0.046875q-0.140625 0.015625 -0.375 0.015625q-0.21875 0 -0.375 -0.015625q-0.140625 -0.015625 -0.234375 -0.046875q-0.078125 -0.03125 -0.109375 -0.078125q-0.03125 -0.0625 -0.03125 -0.140625l0 -12.15625q0 -0.078125 0.03125 -0.125q0.03125 -0.0625 0.109375 -0.09375q0.09375 -0.046875 0.234375 -0.0625q0.15625 -0.015625 0.375 -0.015625q0.234375 0 0.375 0.015625q0.140625 0.015625 0.21875 0.0625q0.09375 0.03125 0.125 0.09375q0.03125 0.046875 0.03125 0.125l0 12.15625zm9.812714 0q0 0.078125 -0.03125 0.140625q-0.03125 0.046875 -0.125 0.078125q-0.078125 0.03125 -0.21875 0.046875q-0.125 0.015625 -0.3125 0.015625q-0.203125 0 -0.34375 -0.015625q-0.125 -0.015625 -0.203125 -0.046875q-0.078125 -0.03125 -0.109375 -0.078125q-0.03125 -0.0625 -0.03125 -0.140625l0 -1.078125q-0.703125 0.78125 -1.390625 1.140625q-0.671875 0.34375 -1.375 0.34375q-0.8125 0 -1.375 -0.265625q-0.5625 -0.28125 -0.90625 -0.75q-0.34375 -0.46875 -0.5 -1.09375q-0.15625 -0.625 -0.15625 -1.515625l0 -4.96875q0 -0.078125 0.03125 -0.125q0.03125 -0.046875 0.125 -0.09375q0.09375 -0.046875 0.234375 -0.046875q0.15625 -0.015625 0.375 -0.015625q0.21875 0 0.359375 0.015625q0.140625 0 0.21875 0.046875q0.09375 0.046875 0.125 0.09375q0.046875 0.046875 0.046875 0.125l0 4.765625q0 0.71875 0.09375 1.15625q0.109375 0.4375 0.328125 0.75q0.21875 0.296875 0.546875 0.46875q0.328125 0.15625 0.765625 0.15625q0.5625 0 1.125 -0.390625q0.5625 -0.40625 1.1875 -1.1875l0 -5.71875q0 -0.078125 0.03125 -0.125q0.03125 -0.046875 0.125 -0.09375q0.09375 -0.046875 0.234375 -0.046875q0.140625 -0.015625 0.359375 -0.015625q0.21875 0 0.359375 0.015625q0.15625 0 0.234375 0.046875q0.078125 0.046875 0.125 0.09375q0.046875 0.046875 0.046875 0.125l0 8.1875zm9.629944 -7.8125q0 0.3125 -0.09375 0.453125q-0.078125 0.140625 -0.21875 0.140625l-1.171875 0q0.3125 0.328125 0.4375 0.734375q0.125 0.390625 0.125 0.8125q0 0.71875 -0.234375 1.265625q-0.21875 0.546875 -0.640625 0.921875q-0.421875 0.375 -1.015625 0.578125q-0.578125 0.203125 -1.28125 0.203125q-0.5 0 -0.953125 -0.125q-0.453125 -0.140625 -0.703125 -0.34375q-0.15625 0.15625 -0.265625 0.375q-0.109375 0.203125 -0.109375 0.484375q0 0.3125 0.296875 0.53125q0.296875 0.203125 0.796875 0.21875l2.140625 0.09375q0.609375 0.015625 1.109375 0.171875q0.515625 0.140625 0.890625 0.421875q0.375 0.28125 0.578125 0.6875q0.21875 0.40625 0.21875 0.9375q0 0.5625 -0.25 1.078125q-0.234375 0.515625 -0.71875 0.890625q-0.484375 0.390625 -1.25 0.609375q-0.75 0.234375 -1.78125 0.234375q-0.984375 0 -1.6875 -0.171875q-0.6875 -0.171875 -1.140625 -0.46875q-0.4375 -0.28125 -0.640625 -0.6875q-0.203125 -0.40625 -0.203125 -0.875q0 -0.3125 0.0625 -0.59375q0.078125 -0.28125 0.21875 -0.53125q0.15625 -0.25 0.375 -0.484375q0.234375 -0.234375 0.53125 -0.46875q-0.453125 -0.21875 -0.671875 -0.5625q-0.203125 -0.359375 -0.203125 -0.75q0 -0.5625 0.21875 -1.0q0.234375 -0.4375 0.5625 -0.78125q-0.28125 -0.328125 -0.453125 -0.75q-0.15625 -0.4375 -0.15625 -1.03125q0 -0.703125 0.234375 -1.25q0.25 -0.5625 0.65625 -0.9375q0.421875 -0.390625 1.015625 -0.59375q0.59375 -0.203125 1.28125 -0.203125q0.375 0 0.6875 0.046875q0.328125 0.03125 0.609375 0.109375l2.484375 0q0.15625 0 0.234375 0.15625q0.078125 0.140625 0.078125 0.453125zm-2.359375 2.15625q0 -0.84375 -0.46875 -1.3125q-0.453125 -0.46875 -1.296875 -0.46875q-0.4375 0 -0.765625 0.15625q-0.3125 0.140625 -0.53125 0.390625q-0.21875 0.25 -0.328125 0.59375q-0.09375 0.328125 -0.09375 0.6875q0 0.8125 0.453125 1.28125q0.46875 0.46875 1.296875 0.46875q0.4375 0 0.765625 -0.140625q0.328125 -0.140625 0.546875 -0.390625q0.21875 -0.25 0.3125 -0.578125q0.109375 -0.328125 0.109375 -0.6875zm0.765625 6.484375q0 -0.515625 -0.4375 -0.796875q-0.4375 -0.296875 -1.171875 -0.3125l-2.125 -0.078125q-0.296875 0.234375 -0.484375 0.4375q-0.171875 0.203125 -0.28125 0.390625q-0.109375 0.1875 -0.15625 0.359375q-0.046875 0.1875 -0.046875 0.375q0 0.59375 0.59375 0.890625q0.609375 0.3125 1.6875 0.3125q0.6875 0 1.140625 -0.140625q0.46875 -0.125 0.75 -0.34375q0.28125 -0.21875 0.40625 -0.5q0.125 -0.28125 0.125 -0.59375zm10.375305 -8.640625q0 0.3125 -0.09375 0.453125q-0.078125 0.140625 -0.21875 0.140625l-1.171875 0q0.3125 0.328125 0.4375 0.734375q0.125 0.390625 0.125 0.8125q0 0.71875 -0.234375 1.265625q-0.21875 0.546875 -0.640625 0.921875q-0.421875 0.375 -1.015625 0.578125q-0.578125 0.203125 -1.28125 0.203125q-0.5 0 -0.953125 -0.125q-0.453125 -0.140625 -0.703125 -0.34375q-0.15625 0.15625 -0.265625 0.375q-0.109375 0.203125 -0.109375 0.484375q0 0.3125 0.296875 0.53125q0.296875 0.203125 0.796875 0.21875l2.140625 0.09375q0.609375 0.015625 1.109375 0.171875q0.515625 0.140625 0.890625 0.421875q0.375 0.28125 0.578125 0.6875q0.21875 0.40625 0.21875 0.9375q0 0.5625 -0.25 1.078125q-0.234375 0.515625 -0.71875 0.890625q-0.484375 0.390625 -1.25 0.609375q-0.75 0.234375 -1.78125 0.234375q-0.984375 0 -1.6875 -0.171875q-0.6875 -0.171875 -1.140625 -0.46875q-0.4375 -0.28125 -0.640625 -0.6875q-0.203125 -0.40625 -0.203125 -0.875q0 -0.3125 0.0625 -0.59375q0.078125 -0.28125 0.21875 -0.53125q0.15625 -0.25 0.375 -0.484375q0.234375 -0.234375 0.53125 -0.46875q-0.453125 -0.21875 -0.671875 -0.5625q-0.203125 -0.359375 -0.203125 -0.75q0 -0.5625 0.21875 -1.0q0.234375 -0.4375 0.5625 -0.78125q-0.28125 -0.328125 -0.453125 -0.75q-0.15625 -0.4375 -0.15625 -1.03125q0 -0.703125 0.234375 -1.25q0.25 -0.5625 0.65625 -0.9375q0.421875 -0.390625 1.015625 -0.59375q0.59375 -0.203125 1.28125 -0.203125q0.375 0 0.6875 0.046875q0.328125 0.03125 0.609375 0.109375l2.484375 0q0.15625 0 0.234375 0.15625q0.078125 0.140625 0.078125 0.453125zm-2.359375 2.15625q0 -0.84375 -0.46875 -1.3125q-0.453125 -0.46875 -1.296875 -0.46875q-0.4375 0 -0.765625 0.15625q-0.3125 0.140625 -0.53125 0.390625q-0.21875 0.25 -0.328125 0.59375q-0.09375 0.328125 -0.09375 0.6875q0 0.8125 0.453125 1.28125q0.46875 0.46875 1.296875 0.46875q0.4375 0 0.765625 -0.140625q0.328125 -0.140625 0.546875 -0.390625q0.21875 -0.25 0.3125 -0.578125q0.109375 -0.328125 0.109375 -0.6875zm0.765625 6.484375q0 -0.515625 -0.4375 -0.796875q-0.4375 -0.296875 -1.171875 -0.3125l-2.125 -0.078125q-0.296875 0.234375 -0.484375 0.4375q-0.171875 0.203125 -0.28125 0.390625q-0.109375 0.1875 -0.15625 0.359375q-0.046875 0.1875 -0.046875 0.375q0 0.59375 0.59375 0.890625q0.609375 0.3125 1.6875 0.3125q0.6875 0 1.140625 -0.140625q0.46875 -0.125 0.75 -0.34375q0.28125 -0.21875 0.40625 -0.5q0.125 -0.28125 0.125 -0.59375zm9.687805 -0.8125q0 0.109375 -0.078125 0.171875q-0.0625 0.046875 -0.1875 0.0625q-0.125 0.03125 -0.375 0.03125q-0.234375 0 -0.375 -0.03125q-0.140625 -0.015625 -0.203125 -0.0625q-0.0625 -0.0625 -0.0625 -0.171875l0 -0.8125q-0.546875 0.5625 -1.203125 0.890625q-0.65625 0.3125 -1.390625 0.3125q-0.65625 0 -1.1875 -0.171875q-0.515625 -0.15625 -0.890625 -0.46875q-0.359375 -0.328125 -0.5625 -0.796875q-0.203125 -0.46875 -0.203125 -1.0625q0 -0.6875 0.28125 -1.1875q0.28125 -0.515625 0.796875 -0.84375q0.53125 -0.34375 1.296875 -0.515625q0.765625 -0.171875 1.734375 -0.171875l1.125 0l0 -0.640625q0 -0.46875 -0.109375 -0.828125q-0.09375 -0.375 -0.328125 -0.609375q-0.21875 -0.25 -0.578125 -0.359375q-0.34375 -0.125 -0.859375 -0.125q-0.5625 0 -1.0 0.140625q-0.4375 0.125 -0.78125 0.28125q-0.328125 0.15625 -0.546875 0.296875q-0.21875 0.125 -0.328125 0.125q-0.078125 0 -0.140625 -0.03125q-0.046875 -0.046875 -0.09375 -0.109375q-0.03125 -0.078125 -0.0625 -0.1875q-0.015625 -0.125 -0.015625 -0.25q0 -0.234375 0.03125 -0.359375q0.03125 -0.140625 0.15625 -0.25q0.125 -0.125 0.421875 -0.28125q0.3125 -0.171875 0.703125 -0.296875q0.390625 -0.125 0.84375 -0.21875q0.46875 -0.09375 0.953125 -0.09375q0.875 0 1.484375 0.203125q0.625 0.203125 1.0 0.59375q0.390625 0.390625 0.5625 0.96875q0.171875 0.5625 0.171875 1.328125l0 5.53125zm-1.484375 -3.75l-1.28125 0q-0.625 0 -1.078125 0.109375q-0.453125 0.109375 -0.765625 0.3125q-0.296875 0.203125 -0.4375 0.5q-0.140625 0.28125 -0.140625 0.65625q0 0.625 0.40625 1.015625q0.40625 0.375 1.140625 0.375q0.59375 0 1.09375 -0.296875q0.5 -0.3125 1.0625 -0.921875l0 -1.75zm11.795776 -0.46875q0 1.0625 -0.234375 1.921875q-0.234375 0.84375 -0.6875 1.453125q-0.453125 0.59375 -1.109375 0.921875q-0.640625 0.3125 -1.5 0.3125q-0.390625 0 -0.71875 -0.078125q-0.328125 -0.078125 -0.65625 -0.25q-0.3125 -0.171875 -0.640625 -0.4375q-0.3125 -0.265625 -0.671875 -0.640625l0 1.0q0 0.078125 -0.03125 0.140625q-0.03125 0.046875 -0.125 0.078125q-0.078125 0.03125 -0.203125 0.046875q-0.125 0.015625 -0.3125 0.015625q-0.171875 0 -0.3125 -0.015625q-0.125 -0.015625 -0.203125 -0.046875q-0.078125 -0.03125 -0.109375 -0.078125q-0.03125 -0.0625 -0.03125 -0.140625l0 -12.15625q0 -0.078125 0.03125 -0.125q0.03125 -0.0625 0.109375 -0.09375q0.09375 -0.046875 0.234375 -0.0625q0.15625 -0.015625 0.375 -0.015625q0.234375 0 0.375 0.015625q0.140625 0.015625 0.21875 0.0625q0.09375 0.03125 0.125 0.09375q0.03125 0.046875 0.03125 0.125l0 4.90625q0.375 -0.375 0.703125 -0.625q0.34375 -0.265625 0.671875 -0.421875q0.328125 -0.15625 0.65625 -0.234375q0.328125 -0.078125 0.703125 -0.078125q0.890625 0 1.515625 0.359375q0.640625 0.359375 1.03125 0.953125q0.40625 0.59375 0.578125 1.40625q0.1875 0.796875 0.1875 1.6875zm-1.59375 0.171875q0 -0.625 -0.09375 -1.21875q-0.09375 -0.59375 -0.328125 -1.046875q-0.234375 -0.453125 -0.625 -0.734375q-0.390625 -0.28125 -0.984375 -0.28125q-0.28125 0 -0.5625 0.09375q-0.28125 0.078125 -0.578125 0.265625q-0.296875 0.1875 -0.609375 0.5q-0.3125 0.296875 -0.671875 0.75l0 3.265625q0.625 0.765625 1.1875 1.15625q0.5625 0.390625 1.171875 0.390625q0.578125 0 0.96875 -0.265625q0.40625 -0.28125 0.65625 -0.71875q0.25 -0.453125 0.359375 -1.015625q0.109375 -0.5625 0.109375 -1.140625zm5.348694 4.03125q0 0.078125 -0.03125 0.140625q-0.03125 0.046875 -0.125 0.078125q-0.078125 0.03125 -0.21875 0.046875q-0.140625 0.015625 -0.375 0.015625q-0.21875 0 -0.375 -0.015625q-0.140625 -0.015625 -0.234375 -0.046875q-0.078125 -0.03125 -0.109375 -0.078125q-0.03125 -0.0625 -0.03125 -0.140625l0 -12.15625q0 -0.078125 0.03125 -0.125q0.03125 -0.0625 0.109375 -0.09375q0.09375 -0.046875 0.234375 -0.0625q0.15625 -0.015625 0.375 -0.015625q0.234375 0 0.375 0.015625q0.140625 0.015625 0.21875 0.0625q0.09375 0.03125 0.125 0.09375q0.03125 0.046875 0.03125 0.125l0 12.15625zm9.781464 -4.453125q0 0.359375 -0.1875 0.515625q-0.171875 0.140625 -0.390625 0.140625l-5.375 0q0 0.6875 0.125 1.234375q0.140625 0.546875 0.453125 0.9375q0.328125 0.390625 0.828125 0.609375q0.515625 0.203125 1.25 0.203125q0.59375 0 1.046875 -0.09375q0.453125 -0.09375 0.78125 -0.203125q0.34375 -0.125 0.546875 -0.21875q0.21875 -0.109375 0.328125 -0.109375q0.0625 0 0.109375 0.03125q0.0625 0.03125 0.078125 0.109375q0.03125 0.0625 0.046875 0.171875q0.015625 0.109375 0.015625 0.28125q0 0.109375 -0.015625 0.203125q0 0.078125 -0.015625 0.15625q-0.015625 0.0625 -0.046875 0.125q-0.03125 0.046875 -0.09375 0.09375q-0.046875 0.046875 -0.296875 0.171875q-0.234375 0.109375 -0.625 0.21875q-0.390625 0.109375 -0.90625 0.1875q-0.515625 0.09375 -1.09375 0.09375q-1.015625 0 -1.78125 -0.28125q-0.765625 -0.28125 -1.28125 -0.828125q-0.515625 -0.5625 -0.78125 -1.390625q-0.265625 -0.84375 -0.265625 -1.96875q0 -1.046875 0.265625 -1.890625q0.28125 -0.84375 0.796875 -1.421875q0.515625 -0.59375 1.234375 -0.90625q0.734375 -0.328125 1.640625 -0.328125q0.96875 0 1.640625 0.3125q0.6875 0.3125 1.125 0.84375q0.4375 0.515625 0.640625 1.234375q0.203125 0.703125 0.203125 1.5l0 0.265625zm-1.515625 -0.4375q0.03125 -1.1875 -0.53125 -1.859375q-0.546875 -0.671875 -1.625 -0.671875q-0.5625 0 -0.984375 0.21875q-0.40625 0.203125 -0.6875 0.546875q-0.28125 0.34375 -0.4375 0.8125q-0.15625 0.453125 -0.171875 0.953125l4.4375 0z" fill-rule="nonzero"/><path fill="#999999" d="m398.2362 339.38864l0 0c0 -5.076477 4.115326 -9.191803 9.191803 -9.191803l81.7424 0c2.4378357 0 4.7757874 0.9684143 6.4995728 2.6922302c1.7238159 1.7237854 2.6922302 4.0617676 2.6922302 6.4995728l0 36.76602c0 5.076477 -4.115326 9.191803 -9.191803 9.191803l-81.7424 0c-5.076477 0 -9.191803 -4.115326 -9.191803 -9.191803z" fill-rule="evenodd"/><path fill="#f3f3f3" d="m420.31845 356.36353q0 0.875 -0.296875 1.59375q-0.296875 0.703125 -0.84375 1.203125q-0.53125 0.5 -1.328125 0.78125q-0.78125 0.265625 -1.875 0.265625l-1.328125 0l0 4.25q0 0.078125 -0.046875 0.140625q-0.046875 0.046875 -0.140625 0.078125q-0.078125 0.03125 -0.234375 0.046875q-0.140625 0.015625 -0.375 0.015625q-0.21875 0 -0.375 -0.015625q-0.140625 -0.015625 -0.234375 -0.046875q-0.09375 -0.03125 -0.140625 -0.078125q-0.03125 -0.0625 -0.03125 -0.140625l0 -10.875q0 -0.375 0.1875 -0.515625q0.203125 -0.15625 0.4375 -0.15625l2.515625 0q0.390625 0 0.734375 0.03125q0.359375 0.03125 0.828125 0.140625q0.484375 0.09375 0.984375 0.390625q0.5 0.28125 0.84375 0.703125q0.34375 0.40625 0.53125 0.96875q0.1875 0.546875 0.1875 1.21875zm-1.65625 0.125q0 -0.71875 -0.265625 -1.203125q-0.265625 -0.484375 -0.671875 -0.71875q-0.390625 -0.234375 -0.8125 -0.296875q-0.421875 -0.078125 -0.828125 -0.078125l-1.4375 0l0 4.734375l1.40625 0q0.703125 0 1.171875 -0.171875q0.46875 -0.1875 0.78125 -0.515625q0.328125 -0.328125 0.484375 -0.765625q0.171875 -0.453125 0.171875 -0.984375zm5.372223 7.96875q0 0.078125 -0.03125 0.140625q-0.03125 0.046875 -0.125 0.078125q-0.078125 0.03125 -0.21875 0.046875q-0.140625 0.015625 -0.375 0.015625q-0.21875 0 -0.375 -0.015625q-0.140625 -0.015625 -0.234375 -0.046875q-0.078125 -0.03125 -0.109375 -0.078125q-0.03125 -0.0625 -0.03125 -0.140625l0 -12.15625q0 -0.078125 0.03125 -0.125q0.03125 -0.0625 0.109375 -0.09375q0.09375 -0.046875 0.234375 -0.0625q0.15625 -0.015625 0.375 -0.015625q0.234375 0 0.375 0.015625q0.140625 0.015625 0.21875 0.0625q0.09375 0.03125 0.125 0.09375q0.03125 0.046875 0.03125 0.125l0 12.15625zm9.812714 0q0 0.078125 -0.03125 0.140625q-0.03125 0.046875 -0.125 0.078125q-0.078125 0.03125 -0.21875 0.046875q-0.125 0.015625 -0.3125 0.015625q-0.203125 0 -0.34375 -0.015625q-0.125 -0.015625 -0.203125 -0.046875q-0.078125 -0.03125 -0.109375 -0.078125q-0.03125 -0.0625 -0.03125 -0.140625l0 -1.078125q-0.703125 0.78125 -1.390625 1.140625q-0.671875 0.34375 -1.375 0.34375q-0.8125 0 -1.375 -0.265625q-0.5625 -0.28125 -0.90625 -0.75q-0.34375 -0.46875 -0.5 -1.09375q-0.15625 -0.625 -0.15625 -1.515625l0 -4.96875q0 -0.078125 0.03125 -0.125q0.03125 -0.046875 0.125 -0.09375q0.09375 -0.046875 0.234375 -0.046875q0.15625 -0.015625 0.375 -0.015625q0.21875 0 0.359375 0.015625q0.140625 0 0.21875 0.046875q0.09375 0.046875 0.125 0.09375q0.046875 0.046875 0.046875 0.125l0 4.765625q0 0.71875 0.09375 1.15625q0.109375 0.4375 0.328125 0.75q0.21875 0.296875 0.546875 0.46875q0.328125 0.15625 0.765625 0.15625q0.5625 0 1.125 -0.390625q0.5625 -0.40625 1.1875 -1.1875l0 -5.71875q0 -0.078125 0.03125 -0.125q0.03125 -0.046875 0.125 -0.09375q0.09375 -0.046875 0.234375 -0.046875q0.140625 -0.015625 0.359375 -0.015625q0.21875 0 0.359375 0.015625q0.15625 0 0.234375 0.046875q0.078125 0.046875 0.125 0.09375q0.046875 0.046875 0.046875 0.125l0 8.1875zm9.629944 -7.8125q0 0.3125 -0.09375 0.453125q-0.078125 0.140625 -0.21875 0.140625l-1.171875 0q0.3125 0.328125 0.4375 0.734375q0.125 0.390625 0.125 0.8125q0 0.71875 -0.234375 1.265625q-0.21875 0.546875 -0.640625 0.921875q-0.421875 0.375 -1.015625 0.578125q-0.578125 0.203125 -1.28125 0.203125q-0.5 0 -0.953125 -0.125q-0.453125 -0.140625 -0.703125 -0.34375q-0.15625 0.15625 -0.265625 0.375q-0.109375 0.203125 -0.109375 0.484375q0 0.3125 0.296875 0.53125q0.296875 0.203125 0.796875 0.21875l2.140625 0.09375q0.609375 0.015625 1.109375 0.171875q0.515625 0.140625 0.890625 0.421875q0.375 0.28125 0.578125 0.6875q0.21875 0.40625 0.21875 0.9375q0 0.5625 -0.25 1.078125q-0.234375 0.515625 -0.71875 0.890625q-0.484375 0.390625 -1.25 0.609375q-0.75 0.234375 -1.78125 0.234375q-0.984375 0 -1.6875 -0.171875q-0.6875 -0.171875 -1.140625 -0.46875q-0.4375 -0.28125 -0.640625 -0.6875q-0.203125 -0.40625 -0.203125 -0.875q0 -0.3125 0.0625 -0.59375q0.078125 -0.28125 0.21875 -0.53125q0.15625 -0.25 0.375 -0.484375q0.234375 -0.234375 0.53125 -0.46875q-0.453125 -0.21875 -0.671875 -0.5625q-0.203125 -0.359375 -0.203125 -0.75q0 -0.5625 0.21875 -1.0q0.234375 -0.4375 0.5625 -0.78125q-0.28125 -0.328125 -0.453125 -0.75q-0.15625 -0.4375 -0.15625 -1.03125q0 -0.703125 0.234375 -1.25q0.25 -0.5625 0.65625 -0.9375q0.421875 -0.390625 1.015625 -0.59375q0.59375 -0.203125 1.28125 -0.203125q0.375 0 0.6875 0.046875q0.328125 0.03125 0.609375 0.109375l2.484375 0q0.15625 0 0.234375 0.15625q0.078125 0.140625 0.078125 0.453125zm-2.359375 2.15625q0 -0.84375 -0.46875 -1.3125q-0.453125 -0.46875 -1.296875 -0.46875q-0.4375 0 -0.765625 0.15625q-0.3125 0.140625 -0.53125 0.390625q-0.21875 0.25 -0.328125 0.59375q-0.09375 0.328125 -0.09375 0.6875q0 0.8125 0.453125 1.28125q0.46875 0.46875 1.296875 0.46875q0.4375 0 0.765625 -0.140625q0.328125 -0.140625 0.546875 -0.390625q0.21875 -0.25 0.3125 -0.578125q0.109375 -0.328125 0.109375 -0.6875zm0.765625 6.484375q0 -0.515625 -0.4375 -0.796875q-0.4375 -0.296875 -1.171875 -0.3125l-2.125 -0.078125q-0.296875 0.234375 -0.484375 0.4375q-0.171875 0.203125 -0.28125 0.390625q-0.109375 0.1875 -0.15625 0.359375q-0.046875 0.1875 -0.046875 0.375q0 0.59375 0.59375 0.890625q0.609375 0.3125 1.6875 0.3125q0.6875 0 1.140625 -0.140625q0.46875 -0.125 0.75 -0.34375q0.28125 -0.21875 0.40625 -0.5q0.125 -0.28125 0.125 -0.59375zm10.375305 -8.640625q0 0.3125 -0.09375 0.453125q-0.078125 0.140625 -0.21875 0.140625l-1.171875 0q0.3125 0.328125 0.4375 0.734375q0.125 0.390625 0.125 0.8125q0 0.71875 -0.234375 1.265625q-0.21875 0.546875 -0.640625 0.921875q-0.421875 0.375 -1.015625 0.578125q-0.578125 0.203125 -1.28125 0.203125q-0.5 0 -0.953125 -0.125q-0.453125 -0.140625 -0.703125 -0.34375q-0.15625 0.15625 -0.265625 0.375q-0.109375 0.203125 -0.109375 0.484375q0 0.3125 0.296875 0.53125q0.296875 0.203125 0.796875 0.21875l2.140625 0.09375q0.609375 0.015625 1.109375 0.171875q0.515625 0.140625 0.890625 0.421875q0.375 0.28125 0.578125 0.6875q0.21875 0.40625 0.21875 0.9375q0 0.5625 -0.25 1.078125q-0.234375 0.515625 -0.71875 0.890625q-0.484375 0.390625 -1.25 0.609375q-0.75 0.234375 -1.78125 0.234375q-0.984375 0 -1.6875 -0.171875q-0.6875 -0.171875 -1.140625 -0.46875q-0.4375 -0.28125 -0.640625 -0.6875q-0.203125 -0.40625 -0.203125 -0.875q0 -0.3125 0.0625 -0.59375q0.078125 -0.28125 0.21875 -0.53125q0.15625 -0.25 0.375 -0.484375q0.234375 -0.234375 0.53125 -0.46875q-0.453125 -0.21875 -0.671875 -0.5625q-0.203125 -0.359375 -0.203125 -0.75q0 -0.5625 0.21875 -1.0q0.234375 -0.4375 0.5625 -0.78125q-0.28125 -0.328125 -0.453125 -0.75q-0.15625 -0.4375 -0.15625 -1.03125q0 -0.703125 0.234375 -1.25q0.25 -0.5625 0.65625 -0.9375q0.421875 -0.390625 1.015625 -0.59375q0.59375 -0.203125 1.28125 -0.203125q0.375 0 0.6875 0.046875q0.328125 0.03125 0.609375 0.109375l2.484375 0q0.15625 0 0.234375 0.15625q0.078125 0.140625 0.078125 0.453125zm-2.359375 2.15625q0 -0.84375 -0.46875 -1.3125q-0.453125 -0.46875 -1.296875 -0.46875q-0.4375 0 -0.765625 0.15625q-0.3125 0.140625 -0.53125 0.390625q-0.21875 0.25 -0.328125 0.59375q-0.09375 0.328125 -0.09375 0.6875q0 0.8125 0.453125 1.28125q0.46875 0.46875 1.296875 0.46875q0.4375 0 0.765625 -0.140625q0.328125 -0.140625 0.546875 -0.390625q0.21875 -0.25 0.3125 -0.578125q0.109375 -0.328125 0.109375 -0.6875zm0.765625 6.484375q0 -0.515625 -0.4375 -0.796875q-0.4375 -0.296875 -1.171875 -0.3125l-2.125 -0.078125q-0.296875 0.234375 -0.484375 0.4375q-0.171875 0.203125 -0.28125 0.390625q-0.109375 0.1875 -0.15625 0.359375q-0.046875 0.1875 -0.046875 0.375q0 0.59375 0.59375 0.890625q0.609375 0.3125 1.6875 0.3125q0.6875 0 1.140625 -0.140625q0.46875 -0.125 0.75 -0.34375q0.28125 -0.21875 0.40625 -0.5q0.125 -0.28125 0.125 -0.59375zm9.687805 -0.8125q0 0.109375 -0.078125 0.171875q-0.0625 0.046875 -0.1875 0.0625q-0.125 0.03125 -0.375 0.03125q-0.234375 0 -0.375 -0.03125q-0.140625 -0.015625 -0.203125 -0.0625q-0.0625 -0.0625 -0.0625 -0.171875l0 -0.8125q-0.546875 0.5625 -1.203125 0.890625q-0.65625 0.3125 -1.390625 0.3125q-0.65625 0 -1.1875 -0.171875q-0.515625 -0.15625 -0.890625 -0.46875q-0.359375 -0.328125 -0.5625 -0.796875q-0.203125 -0.46875 -0.203125 -1.0625q0 -0.6875 0.28125 -1.1875q0.28125 -0.515625 0.796875 -0.84375q0.53125 -0.34375 1.296875 -0.515625q0.765625 -0.171875 1.734375 -0.171875l1.125 0l0 -0.640625q0 -0.46875 -0.109375 -0.828125q-0.09375 -0.375 -0.328125 -0.609375q-0.21875 -0.25 -0.578125 -0.359375q-0.34375 -0.125 -0.859375 -0.125q-0.5625 0 -1.0 0.140625q-0.4375 0.125 -0.78125 0.28125q-0.328125 0.15625 -0.546875 0.296875q-0.21875 0.125 -0.328125 0.125q-0.078125 0 -0.140625 -0.03125q-0.046875 -0.046875 -0.09375 -0.109375q-0.03125 -0.078125 -0.0625 -0.1875q-0.015625 -0.125 -0.015625 -0.25q0 -0.234375 0.03125 -0.359375q0.03125 -0.140625 0.15625 -0.25q0.125 -0.125 0.421875 -0.28125q0.3125 -0.171875 0.703125 -0.296875q0.390625 -0.125 0.84375 -0.21875q0.46875 -0.09375 0.953125 -0.09375q0.875 0 1.484375 0.203125q0.625 0.203125 1.0 0.59375q0.390625 0.390625 0.5625 0.96875q0.171875 0.5625 0.171875 1.328125l0 5.53125zm-1.484375 -3.75l-1.28125 0q-0.625 0 -1.078125 0.109375q-0.453125 0.109375 -0.765625 0.3125q-0.296875 0.203125 -0.4375 0.5q-0.140625 0.28125 -0.140625 0.65625q0 0.625 0.40625 1.015625q0.40625 0.375 1.140625 0.375q0.59375 0 1.09375 -0.296875q0.5 -0.3125 1.0625 -0.921875l0 -1.75zm11.795807 -0.46875q0 1.0625 -0.234375 1.921875q-0.234375 0.84375 -0.6875 1.453125q-0.453125 0.59375 -1.109375 0.921875q-0.640625 0.3125 -1.5 0.3125q-0.390625 0 -0.71875 -0.078125q-0.328125 -0.078125 -0.65625 -0.25q-0.3125 -0.171875 -0.640625 -0.4375q-0.3125 -0.265625 -0.671875 -0.640625l0 1.0q0 0.078125 -0.03125 0.140625q-0.03125 0.046875 -0.125 0.078125q-0.078125 0.03125 -0.203125 0.046875q-0.125 0.015625 -0.3125 0.015625q-0.171875 0 -0.3125 -0.015625q-0.125 -0.015625 -0.203125 -0.046875q-0.078125 -0.03125 -0.109375 -0.078125q-0.03125 -0.0625 -0.03125 -0.140625l0 -12.15625q0 -0.078125 0.03125 -0.125q0.03125 -0.0625 0.109375 -0.09375q0.09375 -0.046875 0.234375 -0.0625q0.15625 -0.015625 0.375 -0.015625q0.234375 0 0.375 0.015625q0.140625 0.015625 0.21875 0.0625q0.09375 0.03125 0.125 0.09375q0.03125 0.046875 0.03125 0.125l0 4.90625q0.375 -0.375 0.703125 -0.625q0.34375 -0.265625 0.671875 -0.421875q0.328125 -0.15625 0.65625 -0.234375q0.328125 -0.078125 0.703125 -0.078125q0.890625 0 1.515625 0.359375q0.640625 0.359375 1.03125 0.953125q0.40625 0.59375 0.578125 1.40625q0.1875 0.796875 0.1875 1.6875zm-1.59375 0.171875q0 -0.625 -0.09375 -1.21875q-0.09375 -0.59375 -0.328125 -1.046875q-0.234375 -0.453125 -0.625 -0.734375q-0.390625 -0.28125 -0.984375 -0.28125q-0.28125 0 -0.5625 0.09375q-0.28125 0.078125 -0.578125 0.265625q-0.296875 0.1875 -0.609375 0.5q-0.3125 0.296875 -0.671875 0.75l0 3.265625q0.625 0.765625 1.1875 1.15625q0.5625 0.390625 1.171875 0.390625q0.578125 0 0.96875 -0.265625q0.40625 -0.28125 0.65625 -0.71875q0.25 -0.453125 0.359375 -1.015625q0.109375 -0.5625 0.109375 -1.140625zm5.348694 4.03125q0 0.078125 -0.03125 0.140625q-0.03125 0.046875 -0.125 0.078125q-0.078125 0.03125 -0.21875 0.046875q-0.140625 0.015625 -0.375 0.015625q-0.21875 0 -0.375 -0.015625q-0.140625 -0.015625 -0.234375 -0.046875q-0.078125 -0.03125 -0.109375 -0.078125q-0.03125 -0.0625 -0.03125 -0.140625l0 -12.15625q0 -0.078125 0.03125 -0.125q0.03125 -0.0625 0.109375 -0.09375q0.09375 -0.046875 0.234375 -0.0625q0.15625 -0.015625 0.375 -0.015625q0.234375 0 0.375 0.015625q0.140625 0.015625 0.21875 0.0625q0.09375 0.03125 0.125 0.09375q0.03125 0.046875 0.03125 0.125l0 12.15625zm9.781464 -4.453125q0 0.359375 -0.1875 0.515625q-0.171875 0.140625 -0.390625 0.140625l-5.375 0q0 0.6875 0.125 1.234375q0.140625 0.546875 0.453125 0.9375q0.328125 0.390625 0.828125 0.609375q0.515625 0.203125 1.25 0.203125q0.59375 0 1.046875 -0.09375q0.453125 -0.09375 0.78125 -0.203125q0.34375 -0.125 0.546875 -0.21875q0.21875 -0.109375 0.328125 -0.109375q0.0625 0 0.109375 0.03125q0.0625 0.03125 0.078125 0.109375q0.03125 0.0625 0.046875 0.171875q0.015625 0.109375 0.015625 0.28125q0 0.109375 -0.015625 0.203125q0 0.078125 -0.015625 0.15625q-0.015625 0.0625 -0.046875 0.125q-0.03125 0.046875 -0.09375 0.09375q-0.046875 0.046875 -0.296875 0.171875q-0.234375 0.109375 -0.625 0.21875q-0.390625 0.109375 -0.90625 0.1875q-0.515625 0.09375 -1.09375 0.09375q-1.015625 0 -1.78125 -0.28125q-0.765625 -0.28125 -1.28125 -0.828125q-0.515625 -0.5625 -0.78125 -1.390625q-0.265625 -0.84375 -0.265625 -1.96875q0 -1.046875 0.265625 -1.890625q0.28125 -0.84375 0.796875 -1.421875q0.515625 -0.59375 1.234375 -0.90625q0.734375 -0.328125 1.640625 -0.328125q0.96875 0 1.640625 0.3125q0.6875 0.3125 1.125 0.84375q0.4375 0.515625 0.640625 1.234375q0.203125 0.703125 0.203125 1.5l0 0.265625zm-1.515625 -0.4375q0.03125 -1.1875 -0.53125 -1.859375q-0.546875 -0.671875 -1.625 -0.671875q-0.5625 0 -0.984375 0.21875q-0.40625 0.203125 -0.6875 0.546875q-0.28125 0.34375 -0.4375 0.8125q-0.15625 0.453125 -0.171875 0.953125l4.4375 0z" fill-rule="nonzero"/><path fill="#6fa8dc" d="m63.049347 300.1945l119.28288 0l0 -15.007874l-3.7519684 0l7.503937 -7.503937l7.503937 7.503937l-3.7519684 0l0 22.51181l-126.78682 0z" fill-rule="evenodd"/><path stroke="#6fa8dc" stroke-width="1.0" stroke-linejoin="round" stroke-linecap="butt" d="m63.049347 300.1945l119.28288 0l0 -15.007874l-3.7519684 0l7.503937 -7.503937l7.503937 7.503937l-3.7519684 0l0 22.51181l-126.78682 0z" fill-rule="evenodd"/><path fill="#6fa8dc" d="m172.23373 307.66257l-119.27109 0l0 15.023621l3.7559052 0l-7.5118103 7.5118103l-7.5118103 -7.5118103l3.7559052 0l0 -22.53543l126.7829 0z" fill-rule="evenodd"/><path stroke="#6fa8dc" stroke-width="1.0" stroke-linejoin="round" stroke-linecap="butt" d="m172.23373 307.66257l-119.27109 0l0 15.023621l3.7559052 0l-7.5118103 7.5118103l-7.5118103 -7.5118103l3.7559052 0l0 -22.53543l126.7829 0z" fill-rule="evenodd"/><path fill="#6fa8dc" d="m181.18898 319.1244l37.33499 0l0 -33.14279l-4.687027 0l8.400421 -8.406799l8.400436 8.406799l-4.687042 0l0 40.56958l-44.76178 0z" fill-rule="evenodd"/><path stroke="#6fa8dc" stroke-width="1.0" stroke-linejoin="round" stroke-linecap="butt" d="m181.18898 319.1244l37.33499 0l0 -33.14279l-4.687027 0l8.400421 -8.406799l8.400436 8.406799l-4.687042 0l0 40.56958l-44.76178 0z" fill-rule="evenodd"/><path fill="#6fa8dc" d="m219.46082 326.3602l-38.181107 0l0 15.023621l3.7559052 0l-7.5118103 7.5118103l-7.5118103 -7.5118103l3.7559052 0l0 -22.53543l45.692917 0z" fill-rule="evenodd"/><path stroke="#6fa8dc" stroke-width="1.0" stroke-linejoin="round" stroke-linecap="butt" d="m219.46082 326.3602l-38.181107 0l0 15.023621l3.7559052 0l-7.5118103 7.5118103l-7.5118103 -7.5118103l3.7559052 0l0 -22.53543l45.692917 0z" fill-rule="evenodd"/><path fill="#6fa8dc" d="m425.47345 300.1943l-121.87012 0l0 -15.007874l3.7519836 0l-7.503937 -7.503937l-7.503937 7.503937l3.7519531 0l0 22.51181l129.37405 0z" fill-rule="evenodd"/><path stroke="#6fa8dc" stroke-width="1.0" stroke-linejoin="round" stroke-linecap="butt" d="m425.47345 300.1943l-121.87012 0l0 -15.007874l3.7519836 0l-7.503937 -7.503937l-7.503937 7.503937l3.7519531 0l0 22.51181l129.37405 0z" fill-rule="evenodd"/><path fill="#6fa8dc" d="m314.1251 307.66238l121.85831 0l0 15.023621l-3.7559204 0l7.5118103 7.5118103l7.5118103 -7.5118103l-3.75589 0l0 -22.53543l-129.37012 0z" fill-rule="evenodd"/><path stroke="#6fa8dc" stroke-width="1.0" stroke-linejoin="round" stroke-linecap="butt" d="m314.1251 307.66238l121.85831 0l0 15.023621l-3.7559204 0l7.5118103 7.5118103l7.5118103 -7.5118103l-3.75589 0l0 -22.53543l-129.37012 0z" fill-rule="evenodd"/><path fill="#6fa8dc" d="m307.97903 319.12796l-39.792603 0l0 -33.142822l4.687042 0l-8.400421 -8.406799l-8.400421 8.406799l4.687042 0l0 40.56958l47.21936 0z" fill-rule="evenodd"/><path stroke="#6fa8dc" stroke-width="1.0" stroke-linejoin="round" stroke-linecap="butt" d="m307.97903 319.12796l-39.792603 0l0 -33.142822l4.687042 0l-8.400421 -8.406799l-8.400421 8.406799l4.687042 0l0 40.56958l47.21936 0z" fill-rule="evenodd"/><path fill="#6fa8dc" d="m267.80508 326.36374l40.638733 0l0 15.023621l-3.7559204 0l7.5118103 7.5118103l7.5118103 -7.5118103l-3.75589 0l0 -22.53543l-48.150543 0z" fill-rule="evenodd"/><path stroke="#6fa8dc" stroke-width="1.0" stroke-linejoin="round" stroke-linecap="butt" d="m267.80508 326.36374l40.638733 0l0 15.023621l-3.7559204 0l7.5118103 7.5118103l7.5118103 -7.5118103l-3.75589 0l0 -22.53543l-48.150543 0z" fill-rule="evenodd"/></g></svg>